<?xml version="1.0" standalone="no"?>
<!DOCTYPE svg PUBLIC "-//W3C//DTD SVG 1.1//EN" "http://www.w3.org/Graphics/SVG/1.1/DTD/svg11.dtd" >
<svg>
<metadata>
Created by FontForge 20090622 at Tue Sep 15 14:37:55 2015
 By deploy user
Copyright (c) 2013 by Fontfabric LLC. All rights reserved.
</metadata>
<defs>
<font id="NexaSlabRegularOblique" horiz-adv-x="700" >
  <font-face 
    font-family="Nexa Slab Regular Oblique"
    font-weight="400"
    font-style="oblique"
    font-stretch="normal"
    units-per-em="1000"
    panose-1="2 0 5 0 0 0 0 0 0 0"
    ascent="700"
    descent="-300"
    x-height="495"
    cap-height="700"
    bbox="-216 -294 1204 944"
    underline-thickness="50"
    underline-position="-50"
    unicode-range="U+000D-U+FB02"
  />
<missing-glyph horiz-adv-x="639" 
d="M160 700h538l-123 -700h-538zM266 446v-1q8 46 46 68t85 22q111 0 111 -77q0 -20 -6.5 -35t-12 -23.5t-23.5 -17.5t-23 -11t-29 -11q-53 -19 -78.5 -49.5t-37.5 -99.5h60q8 48 21.5 66.5t50.5 31.5q4 2 24 10t28.5 12.5t25.5 16t26 23t18.5 31t13.5 43.5q14 76 -33.5 111
t-125.5 35q-75 0 -131.5 -36t-69.5 -109h60zM273 122q0 -29 28 -34q29 -4 44 18q7 10 7 22q0 2 -20 5t-39.5 1t-19.5 -12z" />
    <glyph glyph-name=".notdef" horiz-adv-x="639" 
d="M160 700h538l-123 -700h-538zM266 446v-1q8 46 46 68t85 22q111 0 111 -77q0 -20 -6.5 -35t-12 -23.5t-23.5 -17.5t-23 -11t-29 -11q-53 -19 -78.5 -49.5t-37.5 -99.5h60q8 48 21.5 66.5t50.5 31.5q4 2 24 10t28.5 12.5t25.5 16t26 23t18.5 31t13.5 43.5q14 76 -33.5 111
t-125.5 35q-75 0 -131.5 -36t-69.5 -109h60zM273 122q0 -29 28 -34q29 -4 44 18q7 10 7 22q0 2 -20 5t-39.5 1t-19.5 -12z" />
    <glyph glyph-name=".null" horiz-adv-x="0" 
 />
    <glyph glyph-name="nonmarkingreturn" horiz-adv-x="333" 
 />
    <glyph glyph-name="CR" unicode="&#xd;" horiz-adv-x="268" 
 />
    <glyph glyph-name="space" unicode=" " horiz-adv-x="252" 
 />
    <glyph glyph-name="exclam" unicode="!" horiz-adv-x="279" 
d="M254 700l-94 -534h-87l94 534h87zM39 42q0 31 20.5 48t47.5 17q21 0 35 -11.5t14 -34.5q0 -30 -20 -47.5t-47 -17.5q-21 0 -35.5 11.5t-14.5 34.5z" />
    <glyph glyph-name="quotedbl" unicode="&#x22;" horiz-adv-x="373" 
d="M216 701l-46 -261h-74l46 261h74zM373 701l-46 -261h-74l46 261h74z" />
    <glyph glyph-name="numbersign" unicode="#" horiz-adv-x="660" 
d="M403 700l-67 -160h167l68 160h82l-68 -160h82l-13 -73h-100l-103 -237h88l-13 -75h-105l-65 -155h-82l65 155h-168l-65 -155h-81l65 155h-79l13 75h97l103 237h-84l13 73h101l67 160h82zM307 471l-106 -245h168l105 245h-167z" />
    <glyph glyph-name="dollar" unicode="$" horiz-adv-x="641" 
d="M297 -104h-80l16 91q-137 6 -219 94l25 139h79l-14 -98q66 -54 173 -54q36 0 69.5 5.5t67.5 18.5t57.5 39.5t29.5 63.5q4 20 -1.5 37t-14.5 28t-27.5 21t-32.5 15.5t-39 11.5t-36 7.5t-34 5.5q-45 7 -76.5 15t-65.5 23t-53 35t-28 52t-2 74q15 92 93 139.5t177 53.5
l17 93h81l-17 -95q111 -10 183 -77q-4 -25 -12.5 -69l-13.5 -70h-77l14 101q-59 41 -159 41q-81 0 -141.5 -34t-60.5 -99q0 -24 12 -41.5t37.5 -29t51 -18.5t64.5 -14q140 -22 191 -56q75 -48 57 -150q-12 -65 -56 -111t-98.5 -67.5t-119.5 -27.5z" />
    <glyph glyph-name="percent" unicode="%" horiz-adv-x="741" 
d="M265 709q94 0 123 -72q26 -63 -11 -134q-41 -76 -125 -94q-20 -4 -41 -4q-93 0 -123 72q-26 63 12 134q41 77 125 94q20 4 40 4zM620 702h92l-575 -702h-93zM253 644h-1q-62 0 -91 -54q-25 -46 -3 -85q18 -34 66 -34q61 0 90 54q25 46 4 85q-18 34 -65 34zM550 297h-1
q94 0 123 -72q26 -63 -11 -134q-41 -76 -125 -94q-20 -4 -41 -4q-93 0 -123 72q-25 63 12 134q41 77 126 94q20 4 40 4zM538 233q-62 0 -91 -54q-26 -48 -5 -87q19 -34 65 -34q62 0 91 54q26 48 5 87q-19 34 -65 34z" />
    <glyph glyph-name="ampersand" unicode="&#x26;" horiz-adv-x="689" 
d="M522 529v2q4 63 -33 86t-107 23q-92 0 -142 -43t-50 -100q0 -37 25.5 -61.5t58 -33t68.5 -8.5h311l-13 -71h-62l-23 -130q-9 -51 3 -83.5t53 -31.5l-14 -79q-45 -3 -75 18t-34 69q-76 -95 -219 -95q-112 0 -173.5 42.5t-61.5 128.5q0 70 46.5 122.5t111.5 73.5
q-40 13 -64 49.5t-24 80.5q0 100 85 162.5t208 62.5q48 0 86 -8.5t70 -28t45.5 -57t4.5 -90.5h-81zM500 324h-177q-91 0 -146 -44t-55 -99q0 -53 42 -82.5t116 -29.5q38 0 77 10.5t75.5 41t44.5 74.5z" />
    <glyph glyph-name="quotesingle" unicode="'" horiz-adv-x="217" 
d="M217 702l-46 -262h-75l46 262h75z" />
    <glyph glyph-name="parenleft" unicode="(" horiz-adv-x="339" 
d="M382 677q-100 -65 -165 -166.5t-86 -216.5q-21 -118 7.5 -219t107.5 -169l-55 -62q-77 56 -116.5 153.5t-39.5 207.5q0 156 83 299t232 231z" />
    <glyph glyph-name="parenright" unicode=")" horiz-adv-x="338" 
d="M143 737q78 -58 118 -155t40 -207q0 -153 -82.5 -297.5t-230.5 -231.5l-32 61q126 84 192 205.5t66 257.5q0 93 -31.5 175t-91.5 134z" />
    <glyph glyph-name="asterisk" unicode="*" horiz-adv-x="365" 
d="M264 456l-43 79l-68 -79l-47 38l74 74l-81 21l29 62l80 -30l12 87h65l-21 -88l96 30l7 -61l-94 -21l49 -74z" />
    <glyph glyph-name="plus" unicode="+" horiz-adv-x="489" 
d="M57 383h162l28 161h80l-28 -161h164l-14 -77h-164l-29 -165h-80l29 165h-162z" />
    <glyph glyph-name="comma" unicode="," horiz-adv-x="228" 
d="M44 -3l1 2q-28 7 -28 37q0 34 27.5 50t54.5 5.5t27 -41.5q0 -7 -9 -26.5t-28.5 -56.5t-30.5 -60h-55z" />
    <glyph glyph-name="hyphen" unicode="-" horiz-adv-x="492" 
d="M72 326h358l-13 -78h-358z" />
    <glyph glyph-name="period" unicode="." horiz-adv-x="228" 
d="M17 36q0 29 20 45.5t45 16.5q19 0 32 -11.5t13 -32.5q0 -28 -19 -45.5t-43 -17.5q-20 0 -34 11.5t-14 33.5z" />
    <glyph glyph-name="slash" unicode="/" horiz-adv-x="497" 
d="M465 762h86l-505 -844h-85z" />
    <glyph glyph-name="zero" unicode="0" horiz-adv-x="686" 
d="M81 422q15 93 68 160.5t121 98.5t142 30q54 0 100.5 -18.5t81 -53.5t49.5 -91t4 -126l-22 -146q-22 -139 -115 -212.5t-216 -73.5q-115 0 -187 74.5t-50 211.5zM145 276q-17 -96 29 -149.5t124 -55.5q89 -2 155.5 50.5t84.5 155.5l24 146q17 100 -28.5 153t-131.5 53
q-90 0 -152 -53t-80 -154z" />
    <glyph glyph-name="one" unicode="1" horiz-adv-x="411" 
d="M9 73h130l91 518l-129 -33l14 80l221 62l-110 -627h127l-13 -73h-344z" />
    <glyph glyph-name="two" unicode="2" horiz-adv-x="662" 
d="M549 0h-545l30 169q10 56 41 97t76 63t93 32t102 10q34 0 67.5 7t67 22.5t54 46.5t20.5 74q0 60 -39.5 85.5t-113.5 25.5q-193 0 -217 -126h-87q44 203 313 203q98 0 163 -42.5t65 -132.5q0 -66 -26 -115t-71 -76.5t-97 -40.5t-112 -13q-189 0 -211 -120l-16 -88h374
l22 101h79z" />
    <glyph glyph-name="three" unicode="3" horiz-adv-x="647" 
d="M283 355l-7 24l222 242l-285 -1l-21 -102h-80l32 182h499l-6 -37l-232 -244q180 -19 180 -171q0 -122 -84.5 -189.5t-232.5 -67.5q-51 0 -94.5 10t-81.5 31.5t-55.5 62t-7.5 96.5h85q-6 -38 5.5 -63t39 -36.5t56.5 -16t69 -4.5q94 0 153.5 45t59.5 120q0 34 -12.5 58
t-33.5 36t-49 19t-58 6.5t-61 -0.5z" />
    <glyph glyph-name="four" unicode="4" horiz-adv-x="660" 
d="M410 147h-409l5 65l483 488h107l-85 -476h99l-13 -77h-99l-26 -147h-88zM423 224l70 373l-377 -374z" />
    <glyph glyph-name="five" unicode="5" horiz-adv-x="652" 
d="M366 439q112 0 171.5 -49t59.5 -134q0 -115 -88.5 -188.5t-226.5 -73.5q-55 0 -100.5 10.5t-82 33t-52.5 64.5t-6 99h87q-6 -36 6.5 -62t40 -39t56.5 -18.5t63 -5.5q94 0 154.5 45t60.5 119q0 54 -40 85.5t-117 31.5h-270l60 343h496l-14 -80h-411l-32 -181h185z" />
    <glyph glyph-name="six" unicode="6" horiz-adv-x="689" 
d="M173 350q77 85 214 85q103 0 173.5 -46.5t70.5 -141.5q0 -86 -51 -146.5t-122 -86t-151 -25.5q-54 0 -100.5 13.5t-83.5 40t-53.5 71t-6.5 101.5l50 286q9 57 39.5 99t75 65.5t94 34.5t104.5 11q115 0 180.5 -48t52.5 -142h-87q8 59 -27 87.5t-120 28.5q-53 0 -99 -12
t-83 -44t-44 -81zM311 69q41 0 79 9.5t72.5 27.5t56.5 51t25 76q4 62 -42.5 93t-117.5 31q-55 0 -106 -17t-90 -56t-42 -92q-3 -62 45.5 -92.5t119.5 -30.5z" />
    <glyph glyph-name="seven" unicode="7" horiz-adv-x="563" 
d="M107 700h512l-2 -54l-455 -646h-98l440 620h-330l-21 -102h-78z" />
    <glyph glyph-name="eight" unicode="8" horiz-adv-x="699" 
d="M33 163q0 72 48 125.5t120 73.5q-96 40 -96 128q0 76 49.5 128.5t119 74t148.5 21.5q65 0 119.5 -16.5t92.5 -57t38 -99.5q0 -62 -43 -109t-111 -69q49 -15 79.5 -56t30.5 -91q0 -64 -30 -111t-80.5 -72t-106 -36.5t-118.5 -11.5q-51 0 -94.5 8.5t-82 28t-61 55.5
t-22.5 86zM581 516q11 61 -43.5 93t-129.5 32q-82 0 -148 -36.5t-66 -101.5q0 -52 53 -79t119 -27q45 0 89 11t81.5 39.5t44.5 68.5zM354 326q-37 1 -75 -7t-74.5 -24t-59.5 -46t-23 -69q0 -59 52.5 -88t125.5 -29q56 0 108 13.5t92.5 48.5t40.5 86q0 39 -31.5 66t-72 38
t-83.5 11z" />
    <glyph glyph-name="nine" unicode="9" horiz-adv-x="691" 
d="M512 202l31 153q-76 -88 -220 -88q-103 0 -173 46.5t-70 141.5q0 86 51 146.5t122 86t151 25.5q54 0 100.5 -13.5t83.5 -40t53.5 -71t6.5 -101.5l-50 -286q-18 -103 -103 -156.5t-210 -53.5q-117 0 -187 48.5t-57 141.5h87q-8 -56 33.5 -84.5t135.5 -28.5q76 0 140 36
t75 98zM398 634q-88 -1 -157.5 -42t-72.5 -123q-2 -62 43 -93t115 -31q55 0 107 17t90 56.5t40 92.5q2 62 -46 92.5t-119 30.5z" />
    <glyph glyph-name="colon" unicode=":" horiz-adv-x="243" 
d="M23 39q0 29 20.5 45.5t45.5 16.5q19 0 31.5 -11.5t12.5 -32.5q0 -28 -19 -45.5t-43 -17.5q-20 0 -34 11.5t-14 33.5zM75 332q0 29 20 45.5t45 16.5q19 0 32 -11.5t13 -32.5q0 -28 -19 -45.5t-43 -17.5q-20 0 -34 11.5t-14 33.5z" />
    <glyph glyph-name="semicolon" unicode=";" horiz-adv-x="244" 
d="M51 -2h1q-28 7 -28 37q0 42 39 56q36 13 58 -10q12 -12 12 -31q0 -7 -9 -26t-29.5 -57.5t-30.5 -59.5h-54zM76 332q0 29 20.5 45.5t45.5 16.5q19 0 31.5 -11.5t12.5 -32.5q0 -28 -19 -45.5t-43 -17.5q-20 0 -34 11.5t-14 33.5z" />
    <glyph glyph-name="less" unicode="&#x3c;" horiz-adv-x="369" 
d="M306 535l42 -56l-205 -163l150 -165l-64 -54l-183 205l5 28z" />
    <glyph glyph-name="equal" unicode="=" horiz-adv-x="557" 
d="M100 458h414l-14 -77h-414zM63 247h414l-14 -77h-414z" />
    <glyph glyph-name="greater" unicode="&#x3e;" horiz-adv-x="369" 
d="M331 330l-5 -28l-257 -205l-44 54l208 165l-148 165l62 54z" />
    <glyph glyph-name="question" unicode="?" horiz-adv-x="608" 
d="M154 500h-84q12 71 61 119.5t110.5 68.5t131.5 20q101 0 168 -42t67 -131q0 -35 -6.5 -64t-21 -50t-28 -36t-37 -28t-37 -19.5t-39.5 -16t-34 -13.5q-55 -20 -75.5 -46t-32.5 -93h-87q16 96 54.5 138.5t116.5 68.5l41 16t36 18.5t33.5 26.5t19.5 35.5t9 50.5
q0 108 -165 108q-43 0 -83.5 -12t-75 -42.5t-42.5 -76.5zM177 43q0 31 20.5 48t47.5 17q21 0 35 -11.5t14 -34.5q0 -30 -20 -47.5t-47 -17.5q-21 0 -35.5 11.5t-14.5 34.5z" />
    <glyph glyph-name="at" unicode="@" horiz-adv-x="915" 
d="M510 606q-159 0 -276 -109t-117 -275q0 -123 77 -191.5t200 -68.5q78 0 156 39l23 -59q-91 -50 -193 -50q-152 0 -246 86t-94 234q0 99 39 185.5t104.5 146.5t153.5 94.5t185 34.5q158 0 250 -83.5t92 -234.5q0 -92 -33.5 -169t-91.5 -118q-34 -24 -70 -27t-56.5 18.5
t-12.5 62.5q-33 -45 -90 -70.5t-108 -25.5q-94 0 -153.5 60t-59.5 151q0 127 88.5 207t212.5 80q52 0 96 -26t60 -69l16 70l65 -6l-63 -359q-3 -16 5.5 -23.5t21.5 -4t23 14.5q37 33 58.5 98.5t21.5 132.5q0 127 -74 190.5t-210 63.5zM478 451q-91 0 -150.5 -57.5
t-59.5 -150.5q0 -67 39.5 -105t107.5 -38q94 0 151 62t57 144q0 62 -37 103.5t-108 41.5z" />
    <glyph glyph-name="A" unicode="A" horiz-adv-x="813" 
d="M770 80l-14 -80h-248l14 80h87q-7 25 -18 69t-14 55h-359l-77 -124h85l-14 -80h-250l14 80h68l341 541h-81l14 79h216l165 -620h71zM266 282h290l-86 333z" />
    <glyph glyph-name="B" unicode="B" horiz-adv-x="738" 
d="M195 621h-85l14 79h375q93 0 148.5 -39.5t55.5 -121.5q0 -63 -35 -110t-99 -70q50 -13 75.5 -54t25.5 -88q0 -217 -294 -217h-377l14 80h87zM281 621l-39 -222h208q71 0 118.5 33.5t47.5 92.5q0 96 -131 96h-204zM228 320l-42 -240h204q35 0 64.5 5.5t60 18.5t48.5 41
t18 68q0 52 -43.5 79.5t-101.5 27.5h-208z" />
    <glyph glyph-name="C" unicode="C" 
d="M638 94q-123 -104 -277 -104q-89 0 -155.5 31t-100 82t-47.5 117t1 136q24 150 135.5 252.5t293.5 102.5q127 0 214 -81l-28 -148h-78l16 108q-54 38 -138 38q-142 0 -225 -77t-103 -194q-5 -43 -4 -84t17 -77.5t42.5 -63.5t71.5 -43t103 -16q53 0 109.5 21t101.5 59z
" />
    <glyph glyph-name="D" unicode="D" horiz-adv-x="787" 
d="M197 622h-85l14 79h328q147 0 222.5 -79.5t75.5 -203.5q0 -63 -15 -122t-48 -113t-81 -94.5t-119.5 -64.5t-158.5 -24h-330l14 80h87zM344 80q77 0 139.5 29.5t100.5 77t58.5 103.5t20.5 112q0 46 -11 83.5t-35.5 69t-69.5 49t-108 17.5h-155l-95 -541h155z" />
    <glyph glyph-name="E" unicode="E" horiz-adv-x="687" 
d="M586 0h-587l14 80h87l95 541h-85l14 79h570l-32 -186h-78l15 106h-318l-39 -223h319l-14 -81h-319l-42 -234h333l22 107h78z" />
    <glyph glyph-name="F" unicode="F" horiz-adv-x="635" 
d="M195 621h-86l14 79h548l-32 -186h-78l16 108h-294l-41 -228h300l-14 -81h-300l-41 -233h95l-14 -80h-269l14 80h87z" />
    <glyph glyph-name="G" unicode="G" horiz-adv-x="736" 
d="M487 711q145 0 232 -83l-28 -146h-78l17 108q-59 40 -157 40q-151 0 -241.5 -99t-90.5 -233q0 -48 12 -87t38 -72t73 -51t112 -18q108 0 194 71l25 145h-218l14 75h295l-45 -259q-113 -114 -280 -114q-153 0 -230.5 83t-77.5 212q0 181 121.5 304.5t312.5 123.5z" />
    <glyph glyph-name="H" unicode="H" horiz-adv-x="835" 
d="M732 0h-256l14 80h83l43 241h-386l-43 -241h83l-14 -80h-256l14 80h87l95 540h-87l14 80h256l-14 -80h-83l-39 -223h386l39 223h-83l14 80h256l-14 -80h-86l-95 -540h86z" />
    <glyph glyph-name="I" unicode="I" horiz-adv-x="367" 
d="M265 0h-266l14 80h89l95 540h-87l14 80h262l-14 -80h-88l-95 -540h90z" />
    <glyph glyph-name="J" unicode="J" horiz-adv-x="676" 
d="M579 280q-21 -135 -108 -213.5t-225 -78.5q-126 0 -188.5 78t-39.5 210h84q-17 -98 21.5 -152t133.5 -54q93 0 156 56.5t80 153.5l62 340h-235l14 80h319z" />
    <glyph glyph-name="K" unicode="K" horiz-adv-x="717" 
d="M295 79l-14 -79h-282l14 79h87l95 541h-87l14 80h248l-14 -80h-75l-47 -267l321 267h-85l14 80h274l-14 -80h-69l-289 -239l169 -302h110l-14 -79h-206l12 72l-136 255l-106 -84l-29 -164h109z" />
    <glyph glyph-name="L" unicode="L" horiz-adv-x="630" 
d="M186 80h300l22 108h78l-33 -188h-551l14 79h83l95 541h-87l14 80h257l-14 -80h-83z" />
    <glyph glyph-name="M" unicode="M" horiz-adv-x="976" 
d="M801 574l-310 -354h-19l-196 357l-88 -498h83l-14 -79h-259l14 79h89l95 541h-88l14 80h186l189 -360l306 360h193l-14 -80h-87l-95 -541h87l-14 -79h-257l14 79h84z" />
    <glyph glyph-name="N" unicode="N" horiz-adv-x="843" 
d="M267 544l-80 -465h87l-14 -79h-258l14 79h84l95 541h-87l14 80h149l332 -542l83 462h-87l14 80h257l-14 -80h-84l-109 -620h-60z" />
    <glyph glyph-name="O" unicode="O" horiz-adv-x="810" 
d="M481 712q69 0 124.5 -20t90 -55t56.5 -81t24.5 -99t-5.5 -109q-13 -72 -44 -134.5t-81 -114.5t-126 -82.5t-168 -30.5q-75 0 -133.5 24.5t-94 67t-53.5 96t-18 113.5q0 176 120 300.5t308 124.5zM684 348q12 53 3.5 104t-31 90.5t-71.5 64t-118 25.5q-97 0 -173 -48
t-114.5 -123.5t-38.5 -161.5q0 -99 55.5 -165t170.5 -66q129 0 212.5 83t104.5 197z" />
    <glyph glyph-name="P" unicode="P" horiz-adv-x="722" 
d="M215 242l-29 -163h88l-14 -79h-258l14 79h84l95 541h-87l14 80h397q59 0 103 -20.5t67 -55t31.5 -76t0.5 -86.5q-16 -92 -88.5 -156t-193.5 -64h-224zM452 319q77 0 127.5 48t57.5 114q7 58 -27 98.5t-105 40.5h-224l-53 -301h224z" />
    <glyph glyph-name="Q" unicode="Q" horiz-adv-x="807" 
d="M590 59v1q-98 -68 -231 -68q-108 0 -180.5 45.5t-101 116.5t-22.5 160q9 165 123.5 282.5t294.5 117.5q148 0 225.5 -85t79.5 -213q3 -163 -117 -296l73 -84l-71 -61zM466 632q-94 -1 -169.5 -48t-115.5 -121t-40 -159q0 -98 57.5 -164.5t167.5 -66.5q145 0 234 100.5
t89 229.5q0 99 -55.5 164t-167.5 65z" />
    <glyph glyph-name="R" unicode="R" horiz-adv-x="752" 
d="M222 277l-35 -196h104l-14 -81h-277l14 81h86l95 539h-87l14 80h387q101 0 158.5 -52t50.5 -148q-7 -101 -75 -159t-180 -62l122 -198h100l-14 -81h-196l14 79l-118 198h-149zM235 352h216q152 0 177 133q21 135 -133 135h-213z" />
    <glyph glyph-name="S" unicode="S" horiz-adv-x="657" 
d="M397 714q152 0 236 -80q-4 -25 -13 -69.5t-13 -69.5h-77l14 101q-59 41 -159 41q-81 0 -141.5 -34t-60.5 -99q0 -21 9.5 -37t22 -26t37.5 -18t43 -12t53 -10q48 -8 82.5 -16t72 -24.5t59 -39t32 -58t2.5 -81.5q-10 -56 -43 -96.5t-80.5 -61t-97.5 -29.5t-106 -9
q-157 0 -247 95l25 139h79l-14 -102q61 -50 173 -50q36 0 69.5 5.5t67.5 18.5t57.5 39.5t29.5 63.5q4 20 -1.5 37t-14.5 28t-27.5 21t-32.5 15.5t-39 11.5t-36 7.5t-34 5.5q-51 8 -88 19t-71.5 30.5t-52 51t-16.5 74.5q0 72 44 123t110.5 73t146.5 22z" />
    <glyph glyph-name="T" unicode="T" horiz-adv-x="639" 
d="M334 622h-166l-22 -108h-77l33 186h578l-33 -186h-77l15 108h-165l-96 -542h90l-14 -80h-267l14 80h91z" />
    <glyph glyph-name="U" unicode="U" horiz-adv-x="812" 
d="M664 620h-91l14 80h259l-14 -80h-83l-60 -341q-25 -141 -115.5 -216.5t-216.5 -75.5q-57 0 -105.5 18.5t-83.5 53.5t-49.5 92t-1.5 128l60 341h-82l14 80h259l-14 -80h-91l-60 -341q-18 -100 30 -156t134 -56q85 0 152.5 56.5t84.5 156.5z" />
    <glyph glyph-name="V" unicode="V" horiz-adv-x="780" 
d="M139 620h-73l14 80h251l-14 -80h-83l114 -518l295 518h-83l14 80h262l-14 -80h-75l-364 -622h-97z" />
    <glyph glyph-name="W" unicode="W" horiz-adv-x="1150" 
d="M141 620h-74l14 80h254l-14 -80h-82l79 -500l294 566h56l96 -566l250 500h-83l14 80h259l-14 -80h-73l-326 -621h-90l-94 507l-138 -275l-123 -232h-97z" />
    <glyph glyph-name="X" unicode="X" horiz-adv-x="695" 
d="M543 620h-90l14 80h266l-14 -80h-75l-238 -265l146 -276h94l-14 -79h-187l17 73l-114 216l-190 -210h91l-17 -79h-267l14 79h78l254 280l-139 261h-88l14 80h180l-17 -72l108 -204z" />
    <glyph glyph-name="Y" unicode="Y" horiz-adv-x="708" 
d="M326 620h-83l115 -253l125 151l89 102h-80l14 80h255l-14 -80h-71l-284 -336l-36 -205h90l-14 -79h-268l14 79h90l36 205l-162 336h-71l14 80h255z" />
    <glyph glyph-name="Z" unicode="Z" horiz-adv-x="616" 
d="M204 619l-20 -102h-81l32 183h490l-6 -38l-494 -579h326l23 114h79l-35 -197h-532l8 46l488 573h-278z" />
    <glyph glyph-name="bracketleft" unicode="[" horiz-adv-x="336" 
d="M166 712h208l-13 -75h-124l-130 -733h124l-13 -76h-208z" />
    <glyph glyph-name="backslash" unicode="\" horiz-adv-x="482" 
d="M309 -82l-206 844h86l206 -844h-86z" />
    <glyph glyph-name="bracketright" unicode="]" horiz-adv-x="337" 
d="M162 -171h-208l13 76h124l130 733h-124l13 75h208z" />
    <glyph glyph-name="asciicircum" unicode="^" horiz-adv-x="595" 
d="M57 359v5l283 337h62l166 -337l-2 -5h-89l-122 256l-212 -256h-86z" />
    <glyph glyph-name="underscore" unicode="_" horiz-adv-x="604" 
d="M12 -16h470l-13 -73h-470z" />
    <glyph glyph-name="grave" unicode="`" horiz-adv-x="235" 
d="M213 568l-77 129v3h100l53 -127l-1 -5h-75z" />
    <glyph glyph-name="a" unicode="a" horiz-adv-x="680" 
d="M523 73h82l-12 -73h-155l8 76q-34 -45 -90 -66.5t-112 -21.5q-95 0 -154 57.5t-59 155.5q0 135 90 218.5t215 83.5q55 0 102 -26t64 -70l17 88h159l-13 -75h-80zM262 63q79 0 139 53.5t75 125.5q16 77 -23.5 129.5t-128.5 52.5q-86 0 -148 -58t-62 -153q0 -70 37.5 -110
t110.5 -40z" />
    <glyph glyph-name="b" unicode="b" horiz-adv-x="669" 
d="M259 700l-52 -295q33 47 89.5 72.5t112.5 25.5q95 0 153 -54.5t58 -153.5q0 -139 -85.5 -221t-216.5 -82q-56 0 -103 25t-65 70l-19 -87h-160l13 74h83l98 554h-82l12 72h164zM389 427q-83 0 -146 -62t-63 -151q0 -66 40.5 -105.5t105.5 -39.5q86 0 147.5 58t61.5 153
q0 71 -38 109t-108 38z" />
    <glyph glyph-name="c" unicode="c" horiz-adv-x="529" 
d="M414 123l46 -58q-84 -73 -203 -73q-98 0 -161.5 57t-63.5 156q0 142 91.5 220t219.5 78q89 0 165 -46l-27 -127h-72l14 82q-33 17 -92 17q-94 -1 -155 -59t-61 -152q0 -72 40 -110t117 -38q83 0 142 53z" />
    <glyph glyph-name="d" unicode="d" horiz-adv-x="664" 
d="M470 700h163l-110 -626h82l-13 -74h-153l8 88q-75 -96 -205 -96q-94 0 -152 55.5t-58 153.5q0 138 87.5 220t211.5 82q57 0 104.5 -25t63.5 -73l39 223h-81zM330 428h1q-87 0 -150 -57t-66 -154q-2 -69 35.5 -108t106.5 -39q84 0 148.5 59.5t66.5 148.5q2 67 -37.5 108.5
t-104.5 41.5z" />
    <glyph glyph-name="e" unicode="e" horiz-adv-x="584" 
d="M482 79h-1q-42 -42 -104 -65t-123 -23q-101 0 -161 57.5t-62 155.5q-1 128 87 214.5t215 86.5q120 0 178.5 -74.5t21.5 -215.5h-420q-5 -69 35.5 -108.5t119.5 -39.5q44 0 91.5 16.5t75.5 45.5zM466 284v-1q18 148 -143 148q-67 0 -122 -39t-77 -108h342z" />
    <glyph glyph-name="f" unicode="f" horiz-adv-x="364" 
d="M251 0h-259l13 72h81l62 348h-97l12 69h97l7 39q15 85 67 131.5t132 46.5q48 0 89 -25l-38 -66q-31 20 -62 20q-41 0 -69 -27t-38 -80l-7 -39h134l-12 -69h-134l-62 -348h97z" />
    <glyph glyph-name="g" unicode="g" horiz-adv-x="665" 
d="M586 422l-77 -433q-22 -125 -97.5 -185t-192.5 -60q-111 0 -167 49t-43 136h79q-5 -56 30.5 -83t114.5 -27q70 0 125 42.5t70 127.5l17 92q-69 -92 -201 -92q-95 0 -154 57.5t-59 155.5q0 135 90 218t214 81q58 0 104 -23.5t63 -67.5l18 85h156l-12 -73h-78zM328 425
q-86 0 -150 -59t-64 -151q0 -70 37.5 -110.5t109.5 -40.5q107 0 170 87q54 73 43 154q-10 83 -82 110q-28 10 -64 10z" />
    <glyph glyph-name="h" unicode="h" horiz-adv-x="654" 
d="M259 701l-51 -289q73 88 186 88q102 0 144 -61.5t23 -166.5l-35 -200h82l-13 -72h-230l13 72h67l35 198q13 78 -11 115.5t-101 37.5q-68 0 -121 -46t-65 -115l-34 -190h80l-13 -72h-245l13 72h84l98 557h-81l13 72h162z" />
    <glyph glyph-name="i" unicode="i" horiz-adv-x="303" 
d="M167 636q0 29 19.5 45.5t44.5 16.5q19 0 32.5 -12t13.5 -33q0 -29 -20.5 -45.5t-44.5 -16.5q-19 0 -32 12t-13 33zM73 496h162l-74 -422h80l-13 -74h-244l13 74h82l62 349h-80z" />
    <glyph glyph-name="j" unicode="j" horiz-adv-x="268" 
d="M56 494h170l-98 -557q-16 -89 -57.5 -135t-120.5 -46q-52 0 -93 27l39 66q31 -17 64 -17q42 1 60 26.5t27 78.5l85 484h-89zM158 638q0 29 20 45.5t45 16.5q19 0 32 -12t13 -33q0 -29 -20 -45.5t-44 -16.5q-19 0 -32.5 12t-13.5 33z" />
    <glyph glyph-name="k" unicode="k" horiz-adv-x="566" 
d="M169 193l-21 -119h71l-13 -74h-233l13 74h81l97 552h-80l13 74h161l-71 -411l107 80l86 57l-64 2l12 67h236l-12 -69h-61l-189 -138l120 -214h84l-13 -74h-156l8 49l-107 193z" />
    <glyph glyph-name="l" unicode="l" horiz-adv-x="295" 
d="M260 700l-110 -626h80l-13 -74h-245l13 74h84l98 553h-81l12 73h162z" />
    <glyph glyph-name="m" unicode="m" horiz-adv-x="984" 
d="M141 421h-81l13 73h159l-8 -73q28 41 71 61.5t89 20.5q131 0 146 -109q71 109 194 109q102 0 144.5 -58.5t24.5 -161.5l-37 -209h82l-13 -74h-239l13 74h76l37 209q12 68 -10.5 105t-93.5 37q-60 0 -104.5 -41.5t-55.5 -102.5l-36 -207h77l-13 -74h-238l13 74h80l36 207
q26 144 -109 144q-60 0 -103.5 -41.5t-54.5 -102.5l-36 -207h78l-13 -74h-245l13 74h83z" />
    <glyph glyph-name="n" unicode="n" horiz-adv-x="677" 
d="M229 0h-245l13 74h84l61 347h-82l13 73h157l-9 -77q79 86 184 86t150 -62t26 -168l-35 -199h84l-13 -74h-238l13 74h72l35 198q14 79 -12.5 116.5t-109.5 37.5q-67 -1 -118 -47t-63 -113l-34 -192h80z" />
    <glyph glyph-name="o" unicode="o" horiz-adv-x="602" 
d="M33 206q-3 128 82.5 213.5t211.5 85.5q101 0 162.5 -57.5t63.5 -159.5q2 -130 -81 -213.5t-214 -83.5q-101 0 -161.5 59.5t-63.5 155.5zM469 246q12 83 -28 133.5t-120 50.5q-86 0 -147 -61.5t-58 -152.5q3 -148 150 -148q80 0 135 49.5t68 128.5z" />
    <glyph glyph-name="p" unicode="p" horiz-adv-x="665" 
d="M21 -161l103 583h-81l13 73h160l-15 -88q87 94 208 94q95 -2 151 -57t56 -151q0 -136 -82.5 -220t-219.5 -84q-50 0 -99.5 25t-69.5 73l-44 -248h84l-13 -74h-236l13 74h72zM323 64q90 0 149.5 59.5t59.5 155.5q0 143 -146 143q-87 0 -147 -61t-60 -148q0 -65 39 -106.5
t105 -42.5z" />
    <glyph glyph-name="q" unicode="q" horiz-adv-x="638" 
d="M597 495l-116 -656h72l-13 -74h-234l13 74h83l44 248q-36 -49 -92 -73.5t-112 -24.5q-97 0 -154 57.5t-57 154.5q0 132 86 216.5t211 84.5q60 0 106 -26.5t65 -75.5l20 95h78zM255 66q86 2 149.5 63t65.5 147q2 66 -36.5 107.5t-104.5 41.5q-89 0 -151 -58.5t-64 -152.5
q-1 -68 37 -108t104 -40z" />
    <glyph glyph-name="r" unicode="r" horiz-adv-x="477" 
d="M73 495h152l-3 -67q44 63 129.5 75t148.5 -36l-49 -69q-38 27 -81 27q-70 -1 -114.5 -39.5t-57.5 -109.5l-36 -204h80l-13 -72h-245l13 72h83l61 350h-81z" />
    <glyph glyph-name="s" unicode="s" horiz-adv-x="510" 
d="M292 507q103 0 179 -44l-22 -120h-71l9 73q-35 19 -107 19q-58 1 -96 -20.5t-38 -60.5q0 -52 109 -65q41 -6 70.5 -14t62.5 -25t47 -48t5 -75q-27 -138 -225 -138q-116 0 -208 58l24 122h72l-11 -80q45 -26 128 -26q125 0 140 73q8 38 -25 56t-97 25q-176 25 -176 130
q0 43 21 75t56 50t73.5 26.5t79.5 8.5z" />
    <glyph glyph-name="t" unicode="t" horiz-adv-x="375" 
d="M248 638l-26 -145h153l-12 -70h-154l-46 -261q-9 -50 1.5 -72.5t59.5 -22.5q33 0 72 18l12 -70q-48 -20 -100 -22q-156 -3 -126 169l46 261h-99l12 70h99l24 136z" />
    <glyph glyph-name="u" unicode="u" horiz-adv-x="655" 
d="M583 0h-148v76q-75 -81 -187 -83q-107 0 -150.5 60.5t-24.5 168.5l35 201h-78l13 72h160l-48 -272q-14 -80 11.5 -117t108.5 -37q68 1 120 47t64 114l34 193h-83l13 72h165l-75 -421h83z" />
    <glyph glyph-name="v" unicode="v" horiz-adv-x="639" 
d="M34 423l13 72h229l-13 -72h-64l79 -335l195 335h-66l13 72h234l-13 -72h-71l-259 -426h-90l-108 426h-79z" />
    <glyph glyph-name="w" unicode="w" horiz-adv-x="904" 
d="M37 423l13 72h224l-13 -72h-65l52 -338l199 410h66l65 -410l163 338h-71l13 72h236l-13 -72h-72l-223 -425h-96l-56 359l-78 -172l-94 -187h-103l-73 425h-74z" />
    <glyph glyph-name="x" unicode="x" horiz-adv-x="545" 
d="M315 0l10 61l-71 139l-114 -130h72l-12 -70h-228l12 70h61l167 183l-86 172h-71l12 70h157l-10 -61l57 -129l101 120h-63l12 70h223l-12 -70h-65l-153 -173l99 -182h72l-12 -70h-158z" />
    <glyph glyph-name="y" unicode="y" horiz-adv-x="630" 
d="M499 -12v-1q-21 -125 -92.5 -183t-179.5 -58q-102 0 -152.5 48.5t-41.5 136.5h79q-2 -57 27 -83t100 -26q66 0 117 42.5t65 123.5l15 88q-71 -83 -186 -83q-97 0 -145.5 61.5t-30.5 167.5l35 200h-81l13 73h163l-48 -272q-28 -155 122 -155q67 1 118 47.5t63 114.5
l34 192h-83l13 73h165z" />
    <glyph glyph-name="z" unicode="z" horiz-adv-x="493" 
d="M88 495h382l-8 -45l-337 -375h207l19 90h73l-29 -165h-409l5 31l353 391h-191l-18 -75h-73z" />
    <glyph glyph-name="braceleft" unicode="{" horiz-adv-x="331" 
d="M219 -136l-2 -1q-101 -16 -135.5 20.5t-18.5 128.5l25 144q17 102 -57 102l11 63q76 0 93 102l24 138q16 92 65.5 129.5t142.5 19.5l-11 -61q-55 11 -79.5 -9t-35.5 -82l-24 -135q-5 -29 -8.5 -43.5t-13.5 -36t-27.5 -34t-43.5 -19.5q24 -7 37.5 -20t15.5 -34.5t0.5 -36
t-6.5 -42.5l-25 -141q-11 -61 6 -79t78 -10z" />
    <glyph glyph-name="bar" unicode="|" horiz-adv-x="268" 
d="M250 726l-146 -829h-81l146 829h81z" />
    <glyph glyph-name="braceright" unicode="}" horiz-adv-x="329" 
d="M-30 -77v-2q59 -9 82 9t34 79l24 141q5 29 9 43.5t13.5 36t27.5 34.5t44 20q-20 6 -32 17t-17.5 21.5t-5 30.5t2 30l5.5 35l23 134q11 62 -6.5 82t-76.5 9l11 62q99 18 135 -20t20 -130l-24 -137q-17 -102 57 -102l-11 -62q-76 0 -93 -102l-26 -144q-16 -92 -63.5 -128.5
t-143.5 -20.5z" />
    <glyph glyph-name="asciitilde" unicode="~" horiz-adv-x="623" 
d="M510 361l57 -24q-37 -71 -91 -97t-120 3l-118 63q-22 7 -41.5 9t-42 -14.5t-42.5 -52.5l-53 24q36 68 96 98t117 0l116 -62q68 -38 122 53z" />
    <glyph glyph-name="exclamdown" unicode="&#xa1;" horiz-adv-x="261" 
d="M214 451q0 -31 -21.5 -49t-48.5 -18q-20 0 -34 13t-14 35q0 30 20.5 48t46.5 19q21 1 36 -12t15 -36zM85 -215l95 539h-88l-95 -539h88z" />
    <glyph glyph-name="cent" unicode="&#xa2;" horiz-adv-x="525" 
d="M205 -16h-1q-80 12 -128.5 68.5t-48.5 141.5q0 113 76 194.5t191 99.5l12 65h77l-12 -65q81 -12 133 -73l-60 -52q-45 53 -122 53q-86 0 -149 -59t-63 -153q0 -68 41.5 -108t107.5 -40q71 0 140 57l42 -59q-74 -60 -159 -71l-13 -71h-77z" />
    <glyph glyph-name="sterling" unicode="&#xa3;" horiz-adv-x="653" 
d="M3 0l14 81l2 -1q124 82 129 217h-92l13 70h76q-5 60 -5 84q0 122 81 189.5t207 67.5q103 0 158.5 -46.5t39.5 -147.5h-78q9 64 -29 91t-105 27q-88 0 -139.5 -48t-51.5 -136q0 -31 2 -79h240l-12 -70h-224q-2 -61 -28.5 -121.5t-84.5 -100.5h362l22 108h78l-33 -185h-542
z" />
    <glyph glyph-name="currency" unicode="&#xa4;" horiz-adv-x="571" 
d="M265 183q72 0 117.5 49t45.5 112q0 49 -29.5 83t-84.5 34q-71 0 -117.5 -49.5t-46.5 -111.5q0 -49 30 -83t85 -34zM147 146l-70 -59l-49 60l69 58q-25 53 -13.5 116t55.5 115l-50 59l71 61l49 -60q54 30 118 30q62 0 106 -30l70 60l49 -61l-68 -58q25 -52 13 -116.5
t-55 -115.5l49 -58l-71 -60l-49 59q-53 -29 -117 -29q-62 0 -107 29z" />
    <glyph glyph-name="yen" unicode="&#xa5;" horiz-adv-x="743" 
d="M345 620h-82l118 -257l213 257h-83l14 80h255l-14 -80h-71l-217 -257h102l-12 -67h-147l-10 -12l-8 -45h158l-12 -66h-158l-16 -94h90l-14 -79h-268l14 79h90l16 94h-155l12 66h155l8 45l-6 12h-147l12 67h103l-124 257h-71l14 80h255z" />
    <glyph glyph-name="brokenbar" unicode="&#xa6;" horiz-adv-x="275" 
d="M103 342l65 366h86l-65 -366h-86zM177 276l-64 -365h-86l64 365h86z" />
    <glyph glyph-name="section" unicode="&#xa7;" horiz-adv-x="570" 
d="M496 595h-2q-48 46 -142 46q-57 1 -101.5 -18.5t-50.5 -53.5q-4 -25 17 -41t46.5 -22t61.5 -10q35 -3 62 -7t58 -14.5t50 -25.5t28 -40.5t1 -58.5q-9 -40 -40 -67.5t-74 -37.5q43 -13 63.5 -43.5t10.5 -70.5q-9 -41 -37 -71.5t-66.5 -46.5t-76.5 -23.5t-75 -7.5
q-72 0 -129.5 24.5t-84.5 72.5l65 55q48 -76 164 -76q54 0 100.5 19t55.5 57q7 35 -28 50t-104 21q-83 5 -140 35.5t-57 89.5q0 40 31.5 76.5t81.5 51.5q-41 12 -59 41t-10 69q15 75 89.5 110.5t163.5 35.5q133 0 189 -72zM439 350v-1q8 45 -57 67q-70 24 -145 3
q-73 -20 -82 -71q-8 -45 58 -65q71 -21 147 1q71 20 79 66z" />
    <glyph glyph-name="dieresis" unicode="&#xa8;" horiz-adv-x="480" 
d="M174 658q0 28 19.5 45t43.5 17q19 0 32.5 -11t13.5 -32q0 -29 -20 -45.5t-45 -16.5q-19 0 -31.5 11.5t-12.5 31.5zM404 658q0 29 20 45.5t45 16.5q19 0 31.5 -11.5t12.5 -31.5q0 -30 -19.5 -46.5t-45.5 -16.5q-19 0 -31.5 11.5t-12.5 32.5z" />
    <glyph glyph-name="copyright" unicode="&#xa9;" horiz-adv-x="829" 
d="M491 716v-1q145 0 224 -85.5t79 -217.5q0 -112 -52.5 -208.5t-152.5 -157t-227 -60.5q-146 0 -226.5 86.5t-80.5 218.5q0 173 122.5 299t313.5 126zM132 298q0 -108 63.5 -177t178.5 -69q152 0 247.5 103t95.5 248q0 108 -62 176.5t-176 68.5q-152 0 -249.5 -102.5
t-97.5 -247.5zM605 486l-3 4q-45 59 -129 59q-97 0 -167 -65t-70 -162q0 -73 47 -118t122 -45q81 0 151 59l-39 48q-48 -40 -99 -40q-48 0 -78.5 29.5t-30.5 76.5q0 62 46 104t108 42q54 0 84 -38z" />
    <glyph glyph-name="ordfeminine" unicode="&#xaa;" horiz-adv-x="497" 
d="M365 377l-1 -1l9 56q-47 -61 -128 -63q-63 0 -101 36.5t-38 102.5q0 91 59 145t142 54q35 0 64 -16t42 -44l10 54h65l-58 -324h-65zM299 642l2 -1q-50 0 -86 -34t-36 -87q0 -39 23.5 -62.5t61.5 -23.5q68 0 103 60q31 53 11 101q-19 47 -79 47zM84 315h343l-12 -65h-343z
" />
    <glyph glyph-name="guillemotleft" unicode="&#xab;" horiz-adv-x="444" 
d="M220 517h88l-176 -220l98 -221h-88l-99 221zM174 297l177 220h88l-176 -220l98 -221h-88z" />
    <glyph glyph-name="logicalnot" unicode="&#xac;" horiz-adv-x="516" 
d="M416 164h-75l23 132h-293l13 75h368z" />
    <glyph glyph-name="uni00AD" unicode="&#xad;" horiz-adv-x="494" 
d="M73 326h358l-14 -78h-358z" />
    <glyph glyph-name="registered" unicode="&#xae;" horiz-adv-x="827" 
d="M487 714q146 0 225 -85.5t79 -217.5q0 -112 -52 -209t-152.5 -157.5t-228.5 -60.5q-145 0 -224 86t-79 218q0 112 52 208.5t152.5 157t227.5 60.5zM138 349v2q0 -298 233 -298q152 0 248 102.5t96 247.5q0 108 -62.5 176.5t-177.5 68.5q-136 0 -232.5 -86t-104.5 -213z
M484 306v-1q42 7 73 33.5t40 60.5t4 66.5t-34 54.5t-76 22h-172l-66 -375h69l23 130h65l81 -130h76l2 14zM376 477h103q45 0 53 -38q7 -36 -23 -63q-22 -20 -53 -20h-101z" />
    <glyph glyph-name="macron" unicode="&#xaf;" horiz-adv-x="528" 
d="M168 702h334l-13 -71h-334z" />
    <glyph glyph-name="degree" unicode="&#xb0;" horiz-adv-x="323" 
d="M227 670q-44 0 -64 -40q-18 -37 4 -61q13 -16 40 -16q45 0 63 41q16 37 -6 61q-13 15 -37 15zM237 721q70 0 89 -57q18 -52 -17 -104q-38 -57 -109 -57q-75 0 -94 58q-16 52 20 103q40 57 111 57z" />
    <glyph glyph-name="plusminus" unicode="&#xb1;" horiz-adv-x="520" 
d="M88 410h154l28 157h80l-28 -157h154l-13 -76h-154l-28 -158h-80l28 158h-154zM39 110h381l-13 -76h-381z" />
    <glyph glyph-name="twosuperior" unicode="&#xb2;" horiz-adv-x="361" 
d="M301 525h61l-20 -112h-284l15 87q10 57 51.5 85t98.5 33q22 2 32.5 3.5t25.5 5.5t22.5 9.5t13 16t5.5 25.5q0 45 -68 45q-73 0 -84 -52h-64q7 39 33 64.5t57.5 35t67.5 9.5q55 0 89.5 -22t34.5 -70q0 -32 -11.5 -55.5t-25 -35t-40.5 -19.5t-39 -9.5t-41 -4.5
q-17 -2 -28 -4t-26 -8t-24.5 -19.5t-12.5 -33.5l-4 -25h154z" />
    <glyph glyph-name="threesuperior" unicode="&#xb3;" horiz-adv-x="355" 
d="M188 585l-3 16l104 120h-114l-9 -40h-57l17 97h271l-3 -19l-113 -125q83 -5 83 -85q0 -40 -15.5 -69t-41.5 -44t-54.5 -22t-59.5 -7q-58 0 -95 27.5t-28 84.5h66q-2 -29 19 -39.5t50 -10.5q90 0 90 68q0 48 -67 48h-40z" />
    <glyph glyph-name="acute" unicode="&#xb4;" horiz-adv-x="231" 
d="M120 568l1 5l96 127h101v-3l-123 -129h-75z" />
    <glyph glyph-name="_181" unicode="&#xb5;" horiz-adv-x="613" 
d="M525 0h-72l4 61q-28 -40 -77.5 -62t-95.5 -20q-50 0 -89 19t-49 62l-50 -282h-76l126 716h81l-51 -291q-12 -69 26.5 -110.5t98.5 -41.5q61 0 114 42.5t67 122.5l49 278h81z" />
    <glyph glyph-name="paragraph" unicode="&#xb6;" horiz-adv-x="808" 
d="M408 621l-148 -837h-82l71 401q-114 5 -164.5 80.5t-31.5 175.5q20 105 101.5 181.5t201.5 76.5h485l-13 -78h-100l-148 -836h-80l148 836h-240z" />
    <glyph glyph-name="periodcentered" unicode="&#xb7;" horiz-adv-x="248" 
d="M64 273q0 30 20.5 47.5t46.5 17.5q20 0 34 -12t14 -34q0 -30 -20 -47t-46 -17q-22 0 -35.5 12t-13.5 33z" />
    <glyph glyph-name="cedilla" unicode="&#xb8;" horiz-adv-x="335" 
d="M77 -68l-4 -1l42 91h61l-23 -55q60 1 78 -32t2 -75q-16 -40 -53.5 -61t-79.5 -20q-80 2 -103 59l45 35q20 -35 68 -35q46 0 62 34q14 29 -11.5 45.5t-69.5 1.5z" />
    <glyph glyph-name="onesuperior" unicode="&#xb9;" horiz-adv-x="242" 
d="M62 470h63l40 230l-56 -14l10 58l125 29l-53 -303h64l-10 -57h-193z" />
    <glyph glyph-name="ordmasculine" unicode="&#xba;" horiz-adv-x="416" 
d="M220 368q-64 0 -104.5 37.5t-40.5 102.5q0 90 59 144t144 54q64 0 104 -36.5t40 -101.5q0 -90 -60 -145t-142 -55zM232 434q52 0 86.5 34.5t34.5 87.5q0 39 -23.5 63.5t-61.5 24.5q-50 0 -85.5 -35.5t-35.5 -88.5q0 -39 23 -62.5t62 -23.5zM48 308h325l-11 -65h-325z" />
    <glyph glyph-name="guillemotright" unicode="&#xbb;" horiz-adv-x="445" 
d="M94 78h-87l175 220l-97 220h87l99 -220zM402 298l-177 -220h-87l175 220l-97 220h87z" />
    <glyph glyph-name="onequarter" unicode="&#xbc;" horiz-adv-x="742" 
d="M84 -2l501 707h78l-503 -707h-76zM63 399h63l41 229l-57 -13l11 58l125 29l-54 -303h64l-10 -57h-193zM678 361l-41 -229h43l-10 -59h-43l-13 -72h-64l13 72h-192l5 54l215 234h87zM573 132l30 166l-154 -166h124z" />
    <glyph glyph-name="onehalf" unicode="&#xbd;" horiz-adv-x="791" 
d="M80 -2l502 707h78l-503 -707h-77zM61 399h62l41 230l-56 -13l10 58l126 29l-54 -304h64l-10 -57h-193zM658 111h61l-20 -112h-284l15 87q10 57 51.5 85t98.5 33q22 2 32.5 3.5t25.5 5.5t22.5 9.5t13 16t5.5 25.5q0 45 -69 45q-72 0 -83 -52h-64q7 39 33 64.5t57.5 35
t67.5 9.5q55 0 89.5 -22t34.5 -70q0 -27 -6.5 -47.5t-22 -33.5t-27 -21t-35.5 -12.5t-33 -6t-34 -3.5q-17 -2 -28 -4t-26 -8t-24 -19.5t-12 -33.5l-4 -25h154z" />
    <glyph glyph-name="threequarters" unicode="&#xbe;" horiz-adv-x="781" 
d="M127 -2l503 708h78l-505 -708h-76zM711 369l-42 -236h50l-10 -59h-50l-13 -75h-64l13 75h-192l5 54l216 241h87zM605 133l30 172l-154 -172h124zM182 521l-3 15l102 117h-112l-9 -39h-55l17 95h264l-3 -18l-112 -122q38 -2 60.5 -22.5t22.5 -61.5q0 -51 -27.5 -83.5
t-62.5 -43.5t-77 -11q-58 0 -93.5 26.5t-26.5 82.5h64q-2 -29 18 -39t49 -10q89 0 89 66q0 48 -66 48h-39z" />
    <glyph glyph-name="questiondown" unicode="&#xbf;" horiz-adv-x="603" 
d="M413 461q0 -31 -20.5 -49t-47.5 -19q-21 -1 -35 11.5t-14 34.5q0 31 20.5 49t46.5 19q21 1 35.5 -11.5t14.5 -34.5zM522 4l-2 -1q-12 -71 -60.5 -120t-110 -69t-132.5 -19q-103 0 -170 41t-67 130q0 23 4 44t9 37t17 32l19.5 26.5t25 22.5t24.5 18t28 16l26 12.5t27 11
t23 9.5q56 19 76 45.5t32 95.5h87q-17 -98 -55.5 -142t-116.5 -70l-40.5 -16t-35 -18.5t-31.5 -26t-19 -35t-8 -48.5q0 -106 160 -106q69 0 128 31.5t73 98.5h89z" />
    <glyph glyph-name="Agrave" unicode="&#xc0;" horiz-adv-x="813" 
d="M770 80l-14 -80h-248l14 80h87q-7 25 -18 69t-14 55h-359l-77 -124h85l-14 -80h-250l14 80h68l341 541h-81l14 79h216l165 -620h71zM266 282h290l-86 333zM449 749l-77 129v3h100l53 -127l-1 -5h-75z" />
    <glyph glyph-name="Aacute" unicode="&#xc1;" horiz-adv-x="813" 
d="M770 80l-14 -80h-248l14 80h87q-7 25 -18 69t-14 55h-359l-77 -124h85l-14 -80h-250l14 80h68l341 541h-81l14 79h216l165 -620h71zM266 282h290l-86 333zM439 747l1 5l96 127h101v-3l-123 -129h-75z" />
    <glyph glyph-name="Acircumflex" unicode="&#xc2;" horiz-adv-x="813" 
d="M770 80l-14 -80h-248l14 80h87q-7 25 -18 69t-14 55h-359l-77 -124h85l-14 -80h-250l14 80h68l341 541h-81l14 79h216l165 -620h71zM266 282h290l-86 333zM482 879h53l120 -129l-1 -7h-85l-72 76l-99 -76h-84l1 7z" />
    <glyph glyph-name="Atilde" unicode="&#xc3;" horiz-adv-x="813" 
d="M770 80l-14 -80h-248l14 80h87q-7 25 -18 69t-14 55h-359l-77 -124h85l-14 -80h-250l14 80h68l341 541h-81l14 79h216l165 -620h71zM266 282h290l-86 333zM331 781l-1 3q20 46 57 66t76 5q6 -1 26.5 -13t25.5 -14q37 -16 59 27l50 -23q-20 -50 -57 -68t-72 -3
q-6 2 -26.5 13.5t-24.5 12.5q-39 15 -64 -30z" />
    <glyph glyph-name="Adieresis" unicode="&#xc4;" horiz-adv-x="813" 
d="M770 80l-14 -80h-248l14 80h87q-7 25 -18 69t-14 55h-359l-77 -124h85l-14 -80h-250l14 80h68l341 541h-81l14 79h216l165 -620h71zM266 282h290l-86 333zM324 787q0 28 19.5 45t43.5 17q19 0 32.5 -11t13.5 -32q0 -29 -20 -45.5t-45 -16.5q-19 0 -31.5 11.5t-12.5 31.5z
M554 787q0 29 20 45.5t45 16.5q19 0 31.5 -11.5t12.5 -31.5q0 -30 -19.5 -46.5t-45.5 -16.5q-19 0 -31.5 11.5t-12.5 32.5z" />
    <glyph glyph-name="Aring" unicode="&#xc5;" horiz-adv-x="811" 
d="M378 757h1q9 50 49 79t88 29q42 0 71 -24t29 -67q0 -74 -73 -110l156 -584h68l-14 -80h-248l14 80h87q-7 25 -18 69t-14 55h-359l-77 -124h85l-14 -80h-247l14 80h68l239 381l130 204q-45 27 -35 92zM263 282h290l-42 172q-5 20 -16.5 81t-20.5 94l-104 -175zM506 812
q-45 0 -63 -39q-16 -35 6 -57q14 -14 38 -14q46 0 64 39q17 35 -7 57q-13 14 -38 14z" />
    <glyph glyph-name="AE" unicode="&#xc6;" horiz-adv-x="967" 
d="M-30 80h75l439 541h-81l14 79h557l-32 -186h-78l15 106h-237l-39 -223h239l-14 -81h-239l-42 -234h252l22 107h78l-33 -189h-499l14 80h83l23 129h-240l-104 -129h77l-14 -80h-250zM499 279l45 255l14 70l-256 -325h197z" />
    <glyph glyph-name="Ccedilla" unicode="&#xc7;" 
d="M638 94q-118 -99 -264 -104l-28 -55q41 0 64 -16.5t23.5 -40.5t-7.5 -50q-16 -40 -53.5 -61.5t-79.5 -21.5q-35 0 -64 15.5t-41 44.5l46 35q19 -38 68 -36q45 2 61 34q14 29 -12 45.5t-71 1.5l-14 13l49 95q-130 11 -196.5 93.5t-66.5 200.5q0 79 30 154t84 135.5
t138 97.5t184 37q127 0 213 -81q-9 -54 -28 -148h-78l16 108q-54 38 -138 38q-134 0 -221 -82t-107 -199q-19 -115 38.5 -194.5t191.5 -79.5q53 0 109.5 21t101.5 59z" />
    <glyph glyph-name="Egrave" unicode="&#xc8;" horiz-adv-x="687" 
d="M586 0h-587l14 80h87l95 541h-85l14 79h570l-32 -186h-78l15 106h-318l-39 -223h319l-14 -81h-319l-42 -234h333l22 107h78zM418 751l-77 129v3h100l53 -127l-1 -5h-75z" />
    <glyph glyph-name="Eacute" unicode="&#xc9;" horiz-adv-x="687" 
d="M586 0h-587l14 80h87l95 541h-85l14 79h570l-32 -186h-78l15 106h-318l-39 -223h319l-14 -81h-319l-42 -234h333l22 107h78zM406 749l1 5l96 127h101v-3l-123 -129h-75z" />
    <glyph glyph-name="Ecircumflex" unicode="&#xca;" horiz-adv-x="687" 
d="M586 0h-587l14 80h87l95 541h-85l14 79h570l-32 -186h-78l15 106h-318l-39 -223h319l-14 -81h-319l-42 -234h333l22 107h78zM437 893h53l120 -134l-1 -7h-85l-72 79l-99 -79h-85l1 7z" />
    <glyph glyph-name="Edieresis" unicode="&#xcb;" horiz-adv-x="687" 
d="M586 0h-587l14 80h87l95 541h-85l14 79h570l-32 -186h-78l15 106h-318l-39 -223h319l-14 -81h-319l-42 -234h333l22 107h78zM279 796q0 28 19.5 45t43.5 17q19 0 32.5 -11t13.5 -32q0 -29 -20 -45.5t-45 -16.5q-19 0 -31.5 11.5t-12.5 31.5zM509 796q0 29 20 45.5
t45 16.5q19 0 31.5 -11.5t12.5 -31.5q0 -30 -19.5 -46.5t-45.5 -16.5q-19 0 -31.5 11.5t-12.5 32.5z" />
    <glyph glyph-name="Igrave" unicode="&#xcc;" horiz-adv-x="367" 
d="M265 0h-266l14 80h89l95 540h-87l14 80h262l-14 -80h-88l-95 -540h90zM231 750l-77 129v3h100l53 -127l-1 -5h-75z" />
    <glyph glyph-name="Iacute" unicode="&#xcd;" horiz-adv-x="367" 
d="M265 0h-266l14 80h89l95 540h-87l14 80h262l-14 -80h-88l-95 -540h90zM223 750l1 5l96 127h101v-3l-123 -129h-75z" />
    <glyph glyph-name="Icircumflex" unicode="&#xce;" horiz-adv-x="367" 
d="M265 0h-266l14 80h89l95 540h-87l14 80h262l-14 -80h-88l-95 -540h90zM250 893h49l111 -138l-1 -7h-78l-67 81l-91 -81h-79l1 7z" />
    <glyph glyph-name="Idieresis" unicode="&#xcf;" horiz-adv-x="367" 
d="M122 785q0 29 20 46t45 16q19 -1 31.5 -12t12.5 -31q0 -28 -18.5 -44.5t-42.5 -17.5q-20 -1 -34 10.5t-14 32.5zM317 785q0 29 19.5 45.5t44.5 16.5q19 0 32 -11.5t13 -32.5q0 -28 -19 -44t-43 -17q-19 -1 -33 10.5t-14 32.5zM265 0h-266l14 80h89l95 540h-87l14 80h262
l-14 -80h-88l-95 -540h90z" />
    <glyph glyph-name="Eth" unicode="&#xd0;" horiz-adv-x="787" 
d="M198 622h-85l14 79h328q147 0 222.5 -79.5t75.5 -203.5q0 -78 -26.5 -151.5t-77 -133.5t-133.5 -96.5t-185 -36.5h-330l14 80h87l40 228h-77l14 76h77zM345 80q77 0 139.5 29.5t100.5 77t58.5 103.5t20.5 112q0 93 -57 156t-167 63h-155l-41 -237h149l-14 -76h-149
l-40 -228h155z" />
    <glyph glyph-name="Ntilde" unicode="&#xd1;" horiz-adv-x="843" 
d="M187 79l80 465l336 -544h60l109 620h84l14 80h-257l-14 -80h87l-83 -462l-332 542h-149l-14 -80h87l-95 -541h-84l-14 -79h258l14 79h-87zM357 796l-1 3q21 48 61.5 69t83.5 5q6 -1 28.5 -14t28.5 -14q40 -17 65 28l54 -24q-22 -52 -62.5 -71t-78.5 -3q-7 2 -29 14
t-27 13q-43 15 -70 -31z" />
    <glyph glyph-name="Ograve" unicode="&#xd2;" horiz-adv-x="809" 
d="M391 911v3h101l52 -127l-1 -5h-75zM481 712q69 0 124.5 -20t90 -55t56.5 -81t24.5 -99t-5.5 -109q-13 -70 -46.5 -134t-85 -115.5t-126 -82t-161.5 -30.5q-75 0 -133.5 24.5t-94 67t-53.5 96t-18 113.5q0 175 121.5 300t306.5 125zM683 347l2 1q14 74 -3 136.5t-72 104.5
t-142 43q-145 0 -235 -97.5t-90 -232.5q0 -99 56 -166t168 -67q129 0 212.5 82t103.5 196z" />
    <glyph glyph-name="Oacute" unicode="&#xd3;" horiz-adv-x="810" 
d="M452 784l96 128h101v-3l-123 -130h-75zM481 712q-185 0 -306.5 -125t-121.5 -300q0 -128 76 -215t223 -87q87 0 161.5 30.5t126 82t85.5 115.5t47 134q8 56 5.5 109t-25 99.5t-57 81.5t-90 55t-124.5 20zM148 347l-2 -1q20 120 106 202t214 82q129 -1 184 -84t34 -199
q-21 -114 -104.5 -196.5t-213.5 -82.5q-66 0 -115 24t-72 63.5t-33 89.5t2 102z" />
    <glyph glyph-name="Ocircumflex" unicode="&#xd4;" horiz-adv-x="808" 
d="M499 919h52l121 -135l-1 -6h-85l-72 79l-100 -79h-85l1 6zM53 287q0 175 121.5 300t306.5 125q69 0 124.5 -20t89.5 -55t56 -81t24.5 -99t-5.5 -109q-13 -70 -46 -134t-84.5 -115.5t-126 -82t-161.5 -30.5q-75 0 -133.5 24.5t-94 67t-53.5 96t-18 113.5zM683 347l1 1
q14 74 -3 136.5t-72 104.5t-142 43q-145 0 -234.5 -97.5t-89.5 -232.5q0 -99 56 -166t168 -67q129 0 212.5 82t103.5 196z" />
    <glyph glyph-name="Otilde" unicode="&#xd5;" horiz-adv-x="808" 
d="M360 812h-2q20 46 57 66t76 5q5 -1 25 -12.5t25 -12.5q40 -15 62 28l51 -24q-20 -49 -57.5 -67.5t-72.5 -3.5q-5 1 -25.5 13.5t-26.5 13.5q-38 15 -63 -30zM53 287q0 175 121.5 300t306.5 125q69 0 124.5 -20t89.5 -55t56 -81t24.5 -99t-5.5 -109q-13 -70 -46 -134
t-84.5 -115.5t-126 -82t-161.5 -30.5q-75 0 -133.5 24.5t-94 67t-53.5 96t-18 113.5zM683 347l1 1q14 74 -3 136.5t-72 104.5t-142 43q-145 0 -234.5 -97.5t-89.5 -232.5q0 -99 56 -166t168 -67q129 0 212.5 82t103.5 196z" />
    <glyph glyph-name="Odieresis" unicode="&#xd6;" horiz-adv-x="810" 
d="M342 820q0 28 19 45t43 17q20 0 33.5 -11.5t13.5 -32.5q0 -29 -19.5 -45t-44.5 -16q-19 0 -32 11t-13 32zM570 819q0 29 19.5 45.5t44.5 16.5q19 0 32 -11t13 -32q0 -29 -20 -45.5t-44 -16.5q-19 0 -32 11t-13 32zM481 711q-185 0 -306.5 -125t-121.5 -300
q0 -128 76 -215t223 -87q87 0 161.5 30.5t126 82t85.5 115.5t47 134q8 56 5.5 109t-25 99.5t-57 81.5t-90 55t-124.5 20zM148 346l-2 -1q20 120 106 202t214 82q129 -1 184 -84t34 -199q-21 -114 -104.5 -196.5t-213.5 -82.5q-66 0 -115 24t-72 63.5t-33 89.5t2 102z" />
    <glyph glyph-name="multiply" unicode="&#xd7;" horiz-adv-x="456" 
d="M151 484l90 -111l131 111l44 -52l-133 -114l94 -114l-60 -50l-93 114l-133 -114l-45 53l134 114l-92 111z" />
    <glyph glyph-name="Oslash" unicode="&#xd8;" horiz-adv-x="809" 
d="M150 49v1q-48 38 -72.5 102t-24.5 136q0 79 29 154t82 136t135.5 98t180.5 37q85 0 149 -32l62 82h88l-92 -119q58 -50 78.5 -128.5t4.5 -167.5q-13 -70 -46 -134t-84.5 -115.5t-126 -82t-161.5 -30.5q-82 0 -144 27l-67 -89h-86zM574 610q-47 22 -107 22
q-131 0 -215.5 -83.5t-103.5 -200.5q-12 -66 3 -125t56 -97zM265 87q45 -17 103 -17q100 0 175.5 50.5t110.5 123.5t35 153q0 114 -58 173z" />
    <glyph glyph-name="Ugrave" unicode="&#xd9;" horiz-adv-x="812" 
d="M664 620h-91l14 80h259l-14 -80h-83l-60 -341q-25 -141 -115.5 -216.5t-216.5 -75.5q-57 0 -105.5 18.5t-83.5 53.5t-49.5 92t-1.5 128l60 341h-82l14 80h259l-14 -80h-91l-60 -341q-18 -100 30 -156t134 -56q85 0 152.5 56.5t84.5 156.5zM455 748l-77 129v3h100l53 -127
l-1 -5h-75z" />
    <glyph glyph-name="Uacute" unicode="&#xda;" horiz-adv-x="812" 
d="M664 620h-91l14 80h259l-14 -80h-83l-60 -341q-25 -141 -115.5 -216.5t-216.5 -75.5q-57 0 -105.5 18.5t-83.5 53.5t-49.5 92t-1.5 128l60 341h-82l14 80h259l-14 -80h-91l-60 -341q-18 -100 30 -156t134 -56q85 0 152.5 56.5t84.5 156.5zM444 746l1 5l100 124h105v-3
l-128 -126h-78z" />
    <glyph glyph-name="Ucircumflex" unicode="&#xdb;" horiz-adv-x="812" 
d="M664 620h-91l14 80h259l-14 -80h-83l-60 -341q-25 -141 -115.5 -216.5t-216.5 -75.5q-57 0 -105.5 18.5t-83.5 53.5t-49.5 92t-1.5 128l60 341h-82l14 80h259l-14 -80h-91l-60 -341q-18 -100 30 -156t134 -56q85 0 152.5 56.5t84.5 156.5zM481 900h53l120 -134l-1 -7h-85
l-72 79l-99 -79h-85l1 7z" />
    <glyph glyph-name="Udieresis" unicode="&#xdc;" horiz-adv-x="812" 
d="M282 803q0 29 20 45.5t45 16.5q19 0 31.5 -11t12.5 -32q0 -29 -19.5 -45.5t-44.5 -16.5q-19 0 -32 11.5t-13 31.5zM595 803q0 28 19.5 45t43.5 17q19 0 32.5 -11.5t13.5 -32.5q0 -29 -19.5 -45t-44.5 -16q-19 0 -32 11t-13 32zM664 620h-91l14 80h259l-14 -80h-83
l-60 -341q-25 -141 -115.5 -216.5t-216.5 -75.5q-57 0 -105.5 18.5t-83.5 53.5t-49.5 92t-1.5 128l60 341h-82l14 80h259l-14 -80h-91l-60 -341q-18 -100 30 -156t134 -56q85 0 152.5 56.5t84.5 156.5z" />
    <glyph glyph-name="Yacute" unicode="&#xdd;" horiz-adv-x="708" 
d="M326 620h-83l115 -253l125 151l89 102h-80l14 80h255l-14 -80h-71l-284 -336l-36 -205h90l-14 -79h-268l14 79h90l36 205l-162 336h-71l14 80h255zM396 754l1 5l96 127h101v-3l-123 -129h-75z" />
    <glyph glyph-name="Thorn" unicode="&#xde;" horiz-adv-x="701" 
d="M196 624h-87l14 77h267l-14 -77h-94l-12 -68h217q129 0 177 -87q40 -74 3 -164q-37 -92 -130 -134q-56 -25 -123 -25h-216l-12 -68h94l-14 -78h-267l14 78h87zM428 224q93 0 143 69q41 56 23 114q-20 63 -97 72q-11 1 -23 1h-216l-46 -256h216z" />
    <glyph glyph-name="germandbls" unicode="&#xdf;" horiz-adv-x="642" 
d="M-28 0l13 72h81l78 445q11 63 51.5 108.5t93 66t111.5 20.5q85 0 139.5 -39.5t54.5 -116.5q0 -62 -38 -107.5t-98 -59.5q64 -15 95.5 -58t31.5 -100q0 -63 -23 -112.5t-62 -77.5t-88 -42t-102 -11t-104 21l13 75q109 -45 194.5 -2.5t85.5 139.5q0 66 -47 96t-117 30h-68
l14 76h64q35 0 66 7.5t59.5 31t35.5 61.5q12 61 -24.5 86.5t-93.5 25.5q-132 0 -159 -119l-90 -516h-167z" />
    <glyph glyph-name="agrave" unicode="&#xe0;" horiz-adv-x="680" 
d="M337 578l-65 120v2h96l42 -117l-1 -5h-72zM523 73h82l-12 -73h-155l8 76q-34 -45 -90 -66.5t-112 -21.5q-95 0 -154 57.5t-59 155.5q0 135 90 218.5t215 83.5q55 0 102 -26t64 -70l17 88h159l-13 -75h-80zM262 63q79 0 139 53.5t75 125.5q16 77 -23.5 129.5t-128.5 52.5
q-86 0 -148 -58t-62 -153q0 -70 37.5 -110t110.5 -40z" />
    <glyph glyph-name="aacute" unicode="&#xe1;" horiz-adv-x="680" 
d="M485 698l-106 -120h-73l1 5l83 117h96zM523 73h82l-12 -73h-155l8 76q-34 -45 -90 -66.5t-112 -21.5q-95 0 -154 57.5t-59 155.5q0 135 90 218.5t215 83.5q55 0 102 -26t64 -70l17 88h159l-13 -75h-80zM262 63q79 0 139 53.5t75 125.5q16 77 -23.5 129.5t-128.5 52.5
q-86 0 -148 -58t-62 -153q0 -70 37.5 -110t110.5 -40z" />
    <glyph glyph-name="acircumflex" unicode="&#xe2;" horiz-adv-x="680" 
d="M523 73h82l-12 -73h-155l8 76q-34 -45 -90 -66.5t-112 -21.5q-95 0 -154 57.5t-59 155.5q0 135 90 218.5t215 83.5q55 0 102 -26t64 -70l17 88h159l-13 -75h-80zM262 63q79 0 139 53.5t75 125.5q16 77 -23.5 129.5t-128.5 52.5q-86 0 -148 -58t-62 -153q0 -70 37.5 -110
t110.5 -40zM366 707h50l115 -134l-1 -7h-81l-69 79l-94 -79h-81l1 7z" />
    <glyph glyph-name="atilde" unicode="&#xe3;" horiz-adv-x="680" 
d="M523 73h82l-12 -73h-155l8 76q-34 -45 -90 -66.5t-112 -21.5q-95 0 -154 57.5t-59 155.5q0 135 90 218.5t215 83.5q55 0 102 -26t64 -70l17 88h159l-13 -75h-80zM262 63q79 0 139 53.5t75 125.5q16 77 -23.5 129.5t-128.5 52.5q-86 0 -148 -58t-62 -153q0 -70 37.5 -110
t110.5 -40zM245 619l-1 3q20 45 58 64.5t78 4.5q6 -1 27 -13t26 -13q38 -16 60 26l51 -22q-20 -48 -58 -66t-73 -3q-7 2 -27.5 13t-25.5 12q-40 15 -65 -29z" />
    <glyph glyph-name="adieresis" unicode="&#xe4;" horiz-adv-x="680" 
d="M523 73h82l-12 -73h-155l8 76q-34 -45 -90 -66.5t-112 -21.5q-95 0 -154 57.5t-59 155.5q0 135 90 218.5t215 83.5q55 0 102 -26t64 -70l17 88h159l-13 -75h-80zM262 63q79 0 139 53.5t75 125.5q16 77 -23.5 129.5t-128.5 52.5q-86 0 -148 -58t-62 -153q0 -70 37.5 -110
t110.5 -40zM218 635q0 28 19.5 45t43.5 17q19 0 32.5 -11t13.5 -32q0 -29 -20 -45.5t-45 -16.5q-19 0 -31.5 11.5t-12.5 31.5zM448 635q0 29 20 45.5t45 16.5q19 0 31.5 -11.5t12.5 -31.5q0 -30 -19.5 -46.5t-45.5 -16.5q-19 0 -31.5 11.5t-12.5 32.5z" />
    <glyph glyph-name="aring" unicode="&#xe5;" horiz-adv-x="680" 
d="M275 647h1q8 45 45.5 71t82.5 26q41 0 69.5 -22t28.5 -60q0 -51 -39 -79.5t-93 -28.5q-48 0 -75.5 24t-19.5 69zM396 696q-44 0 -60 -34q-14 -30 9 -48q13 -10 34 -10q46 0 62 34q15 30 -10 48q-13 10 -35 10zM523 73h82l-12 -73h-155l8 76q-34 -45 -90 -66.5t-112 -21.5
q-95 0 -154 57.5t-59 155.5q0 135 90 218.5t215 83.5q55 0 102 -26t64 -70l17 88h159l-13 -75h-80zM262 63q79 0 139 53.5t75 125.5q16 77 -23.5 129.5t-128.5 52.5q-86 0 -148 -58t-62 -153q0 -70 37.5 -110t110.5 -40z" />
    <glyph glyph-name="ae" unicode="&#xe6;" horiz-adv-x="1011" 
d="M428 0v-3l16 90q-36 -49 -91.5 -74.5t-110.5 -25.5q-94 0 -153 58t-59 156q0 134 89.5 217t213.5 83q57 0 103.5 -25.5t64.5 -72.5l17 90h64l-15 -85q81 97 204 95q71 -1 123 -33.5t73.5 -96.5t-9.5 -159h-419q-5 -67 37.5 -107.5t114.5 -40.5q44 0 91.5 16.5t76.5 45.5
l45 -50q-43 -43 -105 -65.5t-123 -22.5q-127 0 -168 94l-17 -84h-63zM893 281l-1 -1q10 71 -28.5 109.5t-111.5 38.5q-67 0 -122 -39t-78 -108h341zM324 423v-1q-86 0 -149 -59t-63 -151q0 -68 41.5 -109.5t106.5 -41.5q109 0 173 86q53 73 42 154q-11 84 -86 111
q-29 11 -65 11z" />
    <glyph glyph-name="ccedilla" unicode="&#xe7;" horiz-adv-x="527" 
d="M414 123l44 -55q-85 -73 -195 -76l-20 -45q41 0 63.5 -15.5t23.5 -39.5t-8 -51q-20 -49 -69.5 -68t-97.5 -4.5t-68 52.5l45 35q17 -27 61.5 -34t65.5 29q13 27 -11.5 44t-68.5 3l-15 13l40 86q-79 13 -125.5 65.5t-46.5 138.5q0 98 46 168.5t114.5 102t150.5 31.5
q89 0 165 -46l-26 -127h-73l14 82q-31 17 -92 17q-91 -1 -153 -61.5t-62 -151.5q0 -70 44.5 -108t111.5 -38q85 0 142 53z" />
    <glyph glyph-name="egrave" unicode="&#xe8;" horiz-adv-x="583" 
d="M259 704l1 2h101l51 -127l-1 -5h-75zM479 79h-1q-43 -43 -105 -65.5t-123 -22.5q-101 0 -160.5 57.5t-59.5 155.5q0 128 89.5 214.5t216.5 86.5q120 0 177.5 -74.5t18.5 -215.5h-418q-5 -67 37 -107.5t114 -40.5q44 0 91.5 16.5t76.5 45.5zM466 284v-1q10 71 -28.5 109.5
t-112.5 38.5q-67 0 -121.5 -39t-77.5 -108h340z" />
    <glyph glyph-name="eacute" unicode="&#xe9;" horiz-adv-x="587" 
d="M298 580l96 127h101v-2l-123 -130h-75zM532 215l-1 -2q54 134 -9.5 212.5t-186.5 78.5q-126 0 -215.5 -86.5t-89.5 -214.5q0 -98 59.5 -155.5t160.5 -57.5q61 0 123 22.5t105 65.5l-46 50q-29 -29 -76.5 -45.5t-91.5 -16.5q-72 0 -114 40.5t-37 108.5h419zM126 282v1
q23 69 77.5 108t121.5 39q74 0 112.5 -38.5t28.5 -109.5h-340z" />
    <glyph glyph-name="ecircumflex" unicode="&#xea;" horiz-adv-x="583" 
d="M185 572l169 134h52l121 -134l-1 -7h-85l-72 79l-100 -79h-85zM479 79h-1q-43 -43 -105 -65.5t-123 -22.5q-101 0 -160.5 57.5t-59.5 155.5q0 128 89.5 214.5t216.5 86.5q120 0 177.5 -74.5t18.5 -215.5h-418q-5 -67 37 -107.5t114 -40.5q44 0 91.5 16.5t76.5 45.5z
M466 284v-1q10 71 -28.5 109.5t-112.5 38.5q-67 0 -121.5 -39t-77.5 -108h340z" />
    <glyph glyph-name="edieresis" unicode="&#xeb;" horiz-adv-x="588" 
d="M209 642q0 29 19.5 45.5t45.5 16.5q19 0 32 -11t13 -32q0 -27 -19.5 -44t-43.5 -18q-19 -1 -33 10.5t-14 32.5zM422 642q0 29 19.5 45.5t45.5 16.5q19 0 31.5 -11.5t12.5 -32.5q0 -28 -19.5 -44.5t-42.5 -16.5q-19 0 -33 11t-14 32zM532 213l-1 -2q54 134 -9.5 212.5
t-186.5 78.5q-126 0 -215.5 -86.5t-89.5 -214.5q0 -98 59.5 -155.5t160.5 -57.5q61 0 123 22.5t105 65.5l-46 51q-29 -29 -76.5 -45.5t-91.5 -16.5q-72 0 -114 40.5t-37 107.5h419zM126 281q23 69 77.5 108t121.5 39q74 0 112.5 -38.5t28.5 -108.5h-340z" />
    <glyph glyph-name="igrave" unicode="&#xec;" horiz-adv-x="303" 
d="M132 697v3h90l28 -129l-1 -5h-70zM73 496h162l-74 -422h80l-13 -74h-244l13 74h82l62 349h-80z" />
    <glyph glyph-name="iacute" unicode="&#xed;" horiz-adv-x="303" 
d="M156 571l72 129h89v-3l-92 -131h-70zM73 496h162l-74 -422h80l-13 -74h-244l13 74h82l62 349h-80z" />
    <glyph glyph-name="icircumflex" unicode="&#xee;" horiz-adv-x="303" 
d="M327 574l-2 -11h-70l-47 62l-70 -62h-70l2 12l130 125h43zM73 496h162l-74 -422h80l-13 -74h-244l13 74h82l62 349h-80z" />
    <glyph glyph-name="idieresis" unicode="&#xef;" horiz-adv-x="303" 
d="M236 625q0 28 19 44t43 17q20 1 34 -10.5t14 -32.5q0 -27 -19 -44t-43 -18q-20 -1 -34 10.5t-14 33.5zM73 496h162l-74 -422h80l-13 -74h-244l13 74h82l62 349h-80zM78 625q0 29 19.5 45t44.5 16q19 0 32.5 -11t13.5 -32q0 -29 -20.5 -45.5t-46.5 -16.5q-18 0 -30.5 11.5
t-12.5 32.5z" />
    <glyph glyph-name="eth" unicode="&#xf0;" horiz-adv-x="601" 
d="M259 64q90 0 149 62t59 139q0 61 -38.5 104.5t-108.5 43.5q-92 0 -148.5 -62.5t-56.5 -140.5q0 -61 37 -103.5t107 -42.5zM306 483q117 8 175 -70q-14 90 -114 157l-46 -48l-39 29l43 47q-31 20 -88 34l30 67q66 -16 115 -43l56 60l39 -31l-52 -56q130 -108 130 -297
q0 -155 -86.5 -248.5t-223.5 -93.5q-105 0 -160 60.5t-55 148.5q0 105 75.5 190t200.5 94z" />
    <glyph glyph-name="ntilde" unicode="&#xf1;" horiz-adv-x="677" 
d="M229 0h-245l13 74h84l61 347h-82l13 73h157l-9 -77q79 86 184 86t150 -62t26 -168l-35 -199h84l-13 -74h-238l13 74h72l35 198q14 79 -12.5 116.5t-109.5 37.5q-67 -1 -118 -47t-63 -113l-34 -192h80zM263 634l-1 3q20 46 57 66t76 5q5 -2 25.5 -14t26.5 -13
q37 -16 59 27l50 -23q-20 -50 -57 -68t-72 -3q-6 2 -26.5 13.5t-24.5 12.5q-39 15 -64 -30z" />
    <glyph glyph-name="ograve" unicode="&#xf2;" horiz-adv-x="595" 
d="M328 576l-78 127v3h101l52 -125v-5h-75zM31 203q0 127 88.5 213.5t214.5 86.5q96 0 154.5 -60t58.5 -155q0 -127 -88 -212t-216 -85q-97 0 -154.5 58.5t-57.5 153.5zM460 246h1q14 78 -26 130t-114 52q-86 0 -146.5 -62.5t-60.5 -150.5q0 -65 39 -106t104 -41
q76 0 132.5 50t70.5 128z" />
    <glyph glyph-name="oacute" unicode="&#xf3;" horiz-adv-x="593" 
d="M300 572l1 5l95 123h100l-1 -3l-121 -125h-74zM542 246h1q19 112 -40 184.5t-169 72.5q-126 0 -214.5 -86.5t-88.5 -213.5q0 -95 58 -153.5t155 -58.5q111 0 194.5 71.5t103.5 183.5zM118 246h1q14 78 71.5 130t132.5 52q64 0 103 -42.5t39 -109.5q0 -88 -60 -148
t-147 -60q-76 0 -115 50t-25 128z" />
    <glyph glyph-name="ocircumflex" unicode="&#xf4;" horiz-adv-x="593" 
d="M347 707h52l121 -134l-1 -7h-85l-72 79l-100 -79h-85l1 7zM542 246h1q19 112 -40 184.5t-169 72.5q-126 0 -214.5 -86.5t-88.5 -213.5q0 -95 58 -153.5t155 -58.5q111 0 194.5 71.5t103.5 183.5zM118 246h1q14 78 71.5 130t132.5 52q64 0 103 -42.5t39 -109.5
q0 -88 -60 -148t-147 -60q-76 0 -115 50t-25 128z" />
    <glyph glyph-name="otilde" unicode="&#xf5;" horiz-adv-x="594" 
d="M217 627l-1 1q19 44 56 63.5t76 5.5q6 -1 27.5 -12.5t26.5 -12.5q38 -13 59 28l51 -23q-20 -49 -57 -67t-72 -3q-6 2 -26.5 13.5t-24.5 12.5q-43 14 -67 -30zM30 204q0 127 88.5 213.5t214.5 86.5q96 0 154.5 -60t58.5 -155q0 -127 -88 -212t-215 -85q-97 0 -155 58.5
t-58 153.5zM460 247h1q14 78 -26 130t-114 52q-86 0 -147 -62.5t-61 -150.5q0 -65 39 -106t104 -41q76 0 133 50t71 128z" />
    <glyph glyph-name="odieresis" unicode="&#xf6;" horiz-adv-x="592" 
d="M201 636q0 28 19.5 45t43.5 17q19 0 32.5 -11.5t13.5 -32.5q0 -29 -20 -45t-44 -16q-19 0 -32 11t-13 32zM411 635q0 29 19.5 45.5t44.5 16.5q19 0 32 -11t13 -32q0 -28 -19 -45t-43 -17q-20 0 -33.5 11.5t-13.5 31.5zM541 245h1q19 112 -40 184.5t-169 72.5
q-126 0 -214.5 -86.5t-88.5 -213.5q0 -95 58 -153.5t155 -58.5q111 0 194.5 71.5t103.5 183.5zM117 245h1q14 78 71.5 130t132.5 52q64 0 103 -42.5t39 -109.5q0 -88 -60 -148t-147 -60q-76 0 -115 50t-25 128z" />
    <glyph glyph-name="divide" unicode="&#xf7;" horiz-adv-x="538" 
d="M251 486q0 28 18.5 44.5t42.5 17.5q20 1 34 -10.5t14 -33.5q0 -29 -19.5 -45t-43.5 -16q-19 0 -32.5 11t-13.5 32zM56 289h424l14 81h-424zM192 150q0 29 19.5 45.5t44.5 16.5q19 0 32 -11.5t13 -32.5q0 -29 -19.5 -45t-44.5 -16q-19 0 -32 11t-13 32z" />
    <glyph glyph-name="oslash" unicode="&#xf8;" horiz-adv-x="596" 
d="M95 42q-64 55 -64 161q0 127 88.5 213.5t214.5 86.5q56 0 98 -21l49 63h80l-75 -97q61 -56 61 -160q0 -127 -88 -212t-215 -85q-54 0 -96 18l-52 -68h-79zM382 415l2 1q-29 13 -62 13q-86 0 -146.5 -62t-60.5 -150q0 -68 35 -103zM204 79q23 -10 56 -10q86 0 146 59.5
t60 147.5q0 61 -32 101z" />
    <glyph glyph-name="ugrave" unicode="&#xf9;" horiz-adv-x="655" 
d="M583 0h-148v76q-75 -81 -187 -83q-107 0 -150.5 60.5t-24.5 168.5l35 201h-78l13 72h160l-48 -272q-14 -80 11.5 -117t108.5 -37q68 1 120 47t64 114l34 193h-83l13 72h165l-75 -421h83zM321 568l-77 129v3h100l53 -127l-1 -5h-75z" />
    <glyph glyph-name="uacute" unicode="&#xfa;" horiz-adv-x="655" 
d="M583 0h-148v76q-75 -81 -187 -83q-107 0 -150.5 60.5t-24.5 168.5l35 201h-78l13 72h160l-48 -272q-14 -80 11.5 -117t108.5 -37q68 1 120 47t64 114l34 193h-83l13 72h165l-75 -421h83zM303 568l1 5l96 127h101v-3l-123 -129h-75z" />
    <glyph glyph-name="ucircumflex" unicode="&#xfb;" horiz-adv-x="655" 
d="M583 0h-148v76q-75 -81 -187 -83q-107 0 -150.5 60.5t-24.5 168.5l35 201h-78l13 72h160l-48 -272q-14 -80 11.5 -117t108.5 -37q68 1 120 47t64 114l34 193h-83l13 72h165l-75 -421h83zM345 707h53l120 -134l-1 -7h-85l-72 79l-99 -79h-85l1 7z" />
    <glyph glyph-name="udieresis" unicode="&#xfc;" horiz-adv-x="655" 
d="M583 0h-148v76q-75 -81 -187 -83q-107 0 -150.5 60.5t-24.5 168.5l35 201h-78l13 72h160l-48 -272q-14 -80 11.5 -117t108.5 -37q68 1 120 47t64 114l34 193h-83l13 72h165l-75 -421h83zM194 629q0 28 19.5 45t43.5 17q19 0 32.5 -11t13.5 -32q0 -29 -20 -45.5t-45 -16.5
q-19 0 -31.5 11.5t-12.5 31.5zM424 629q0 29 20 45.5t45 16.5q19 0 31.5 -11.5t12.5 -31.5q0 -30 -19.5 -46.5t-45.5 -16.5q-19 0 -31.5 11.5t-12.5 32.5z" />
    <glyph glyph-name="yacute" unicode="&#xfd;" horiz-adv-x="630" 
d="M499 -12v-1q-21 -125 -92.5 -183t-179.5 -58q-102 0 -152.5 48.5t-41.5 136.5h79q-2 -57 27 -83t100 -26q66 0 117 42.5t65 123.5l15 88q-71 -83 -186 -83q-97 0 -145.5 61.5t-30.5 167.5l35 200h-81l13 73h163l-48 -272q-28 -155 122 -155q67 1 118 47.5t63 114.5
l34 192h-83l13 73h165zM304 568l1 5l96 127h101v-3l-123 -129h-75z" />
    <glyph glyph-name="thorn" unicode="&#xfe;" horiz-adv-x="639" 
d="M297 68q87 0 148 56.5t61 154.5q0 68 -40.5 105.5t-105.5 37.5q-83 0 -145.5 -60t-62.5 -145q0 -64 40.5 -106.5t104.5 -42.5zM123 93l-40 -225h84l-13 -74h-165l-1 -1v1h-72l13 74h72l134 757h-81l12 73h162l-52 -300q35 48 92 76t116 28q93 -2 149.5 -56.5t56.5 -151.5
q0 -141 -87 -223t-214 -82q-56 0 -101.5 26.5t-64.5 77.5z" />
    <glyph glyph-name="ydieresis" unicode="&#xff;" horiz-adv-x="630" 
d="M499 -12v-1q-21 -125 -92.5 -183t-179.5 -58q-102 0 -152.5 48.5t-41.5 136.5h79q-2 -57 27 -83t100 -26q66 0 117 42.5t65 123.5l15 88q-71 -83 -186 -83q-97 0 -145.5 61.5t-30.5 167.5l35 200h-81l13 73h163l-48 -272q-28 -155 122 -155q67 1 118 47.5t63 114.5
l34 192h-83l13 73h165zM199 626q0 28 19.5 45t43.5 17q19 0 32.5 -11t13.5 -32q0 -29 -20 -45.5t-45 -16.5q-19 0 -31.5 11.5t-12.5 31.5zM429 626q0 29 20 45.5t45 16.5q19 0 31.5 -11.5t12.5 -31.5q0 -30 -19.5 -46.5t-45.5 -16.5q-19 0 -31.5 11.5t-12.5 32.5z" />
    <glyph glyph-name="Amacron" unicode="&#x100;" horiz-adv-x="813" 
d="M347 842h294l-12 -71h-294zM770 80l-14 -80h-248l14 80h87q-7 25 -18 69t-14 55h-359l-77 -124h85l-14 -80h-250l14 80h68l341 541h-81l14 79h216l165 -620h71zM266 282h290l-86 333z" />
    <glyph glyph-name="amacron" unicode="&#x101;" horiz-adv-x="680" 
d="M251 687h274l-12 -71h-274zM523 73h82l-12 -73h-155l8 76q-34 -45 -90 -66.5t-112 -21.5q-95 0 -154 57.5t-59 155.5q0 135 90 218.5t215 83.5q55 0 102 -26t64 -70l17 88h159l-13 -75h-80zM262 63q79 0 139 53.5t75 125.5q16 77 -23.5 129.5t-128.5 52.5q-86 0 -148 -58
t-62 -153q0 -70 37.5 -110t110.5 -40z" />
    <glyph glyph-name="Abreve" unicode="&#x102;" horiz-adv-x="813" 
d="M636 884h-3q-8 -63 -51 -96t-108 -33q-64 0 -96 33t-18 96h67q-11 -65 61 -65q70 0 81 65h67zM770 80l-14 -80h-248l14 80h87q-7 25 -18 69t-14 55h-359l-77 -124h85l-14 -80h-250l14 80h68l341 541h-81l14 79h216l165 -620h71zM266 282h290l-86 333z" />
    <glyph glyph-name="abreve" unicode="&#x103;" horiz-adv-x="680" 
d="M533 704h-2q-8 -63 -53 -97t-107 -34q-63 0 -95.5 34.5t-18.5 96.5h67q-11 -68 60 -68t82 68h67zM523 73h82l-12 -73h-155l8 76q-34 -45 -90 -66.5t-112 -21.5q-95 0 -154 57.5t-59 155.5q0 135 90 218.5t215 83.5q55 0 102 -26t64 -70l17 88h159l-13 -75h-80zM262 63
q79 0 139 53.5t75 125.5q16 77 -23.5 129.5t-128.5 52.5q-86 0 -148 -58t-62 -153q0 -70 37.5 -110t110.5 -40z" />
    <glyph glyph-name="Aogonek" unicode="&#x104;" horiz-adv-x="810" 
d="M767 80l-14 -80q-78 -3 -114 -36t-29 -66q5 -25 44 -25.5t84 28.5l6 -60q-34 -24 -81 -33t-86.5 7t-45.5 57q-4 32 19.5 73t59.5 55h-105l14 80h87q-7 25 -18 69t-14 55h-359l-77 -124h85l-14 -80h-247l14 80h68l341 541h-81l14 79h216l165 -620h68zM263 282h290l-83 333
z" />
    <glyph glyph-name="aogonek" unicode="&#x105;" horiz-adv-x="680" 
d="M523 73h82l-12 -73q-76 3 -114.5 -31.5t-31.5 -69.5q4 -25 44 -22t84 32l7 -58q-41 -27 -86.5 -36.5t-80.5 6.5t-41 57q-3 33 19 69.5t58 52.5h-8v80q-69 -92 -199 -92q-95 0 -154 57.5t-59 155.5q0 135 90 218.5t215 83.5q58 0 103.5 -25t62.5 -71l17 88h159l-13 -75
h-80zM262 63q83 0 141 51.5t73 124.5q16 78 -23.5 131.5t-128.5 53.5q-85 0 -148 -60t-63 -151q0 -68 41.5 -109t107.5 -41z" />
    <glyph glyph-name="Cacute" unicode="&#x106;" 
d="M445 786l94 124h99v-3l-120 -126h-74zM638 94q-123 -104 -277 -104q-89 0 -155.5 31t-100 82t-47.5 117t1 136q24 150 135.5 252.5t293.5 102.5q127 0 214 -81l-28 -148h-78l16 108q-54 38 -138 38q-142 0 -225 -77t-103 -194q-5 -43 -4 -84t17 -77.5t42.5 -63.5
t71.5 -43t103 -16q53 0 109.5 21t101.5 59z" />
    <glyph glyph-name="cacute" unicode="&#x107;" horiz-adv-x="529" 
d="M295 590l85 110h87v-2l-107 -113h-66zM414 123l46 -58q-84 -73 -203 -73q-98 0 -161.5 57t-63.5 156q0 142 91.5 220t219.5 78q89 0 165 -46l-27 -127h-72l14 82q-33 17 -92 17q-94 -1 -155 -59t-61 -152q0 -72 40 -110t117 -38q83 0 142 53z" />
    <glyph glyph-name="Ccircumflex" unicode="&#x108;" 
d="M490 914h52l119 -132l-1 -6h-84l-71 77l-97 -77h-84l1 6zM638 94q-123 -104 -277 -104q-89 0 -155.5 31t-100 82t-47.5 117t1 136q24 150 135.5 252.5t293.5 102.5q127 0 214 -81l-28 -148h-78l16 108q-54 38 -138 38q-142 0 -225 -77t-103 -194q-5 -43 -4 -84t17 -77.5
t42.5 -63.5t71.5 -43t103 -16q53 0 109.5 21t101.5 59z" />
    <glyph glyph-name="ccircumflex" unicode="&#x109;" horiz-adv-x="529" 
d="M345 701h50l114 -128l-1 -6h-83l-66 73l-90 -73h-85l1 6zM414 123l46 -58q-84 -73 -203 -73q-98 0 -161.5 57t-63.5 156q0 142 91.5 220t219.5 78q89 0 165 -46l-27 -127h-72l14 82q-33 17 -92 17q-94 -1 -155 -59t-61 -152q0 -72 40 -110t117 -38q83 0 142 53z" />
    <glyph glyph-name="Cdotaccent" unicode="&#x10a;" 
d="M448 824q0 29 20 46t46 18q21 1 35.5 -11t14.5 -34q0 -30 -21 -47t-48 -17q-20 0 -33.5 12t-13.5 33zM638 94q-123 -104 -277 -104q-89 0 -155.5 31t-100 82t-47.5 117t1 136q24 150 135.5 252.5t293.5 102.5q127 0 214 -81l-28 -148h-78l16 108q-54 38 -138 38
q-142 0 -225 -77t-103 -194q-5 -43 -4 -84t17 -77.5t42.5 -63.5t71.5 -43t103 -16q53 0 109.5 21t101.5 59z" />
    <glyph glyph-name="cdotaccent" unicode="&#x10b;" horiz-adv-x="529" 
d="M309 625q0 28 20 44t46 16q20 0 34 -11.5t14 -32.5q0 -28 -20 -44t-46 -16q-20 0 -34 11.5t-14 32.5zM414 123l46 -58q-84 -73 -203 -73q-98 0 -161.5 57t-63.5 156q0 142 91.5 220t219.5 78q89 0 165 -46l-27 -127h-72l14 82q-33 17 -92 17q-94 -1 -155 -59t-61 -152
q0 -72 40 -110t117 -38q83 0 142 53z" />
    <glyph glyph-name="Ccaron" unicode="&#x10c;" 
d="M349 902l1 7h83l69 -76l98 76h80l-1 -7l-162 -125h-51zM638 94q-123 -104 -277 -104q-89 0 -155.5 31t-100 82t-47.5 117t1 136q24 150 135.5 252.5t293.5 102.5q127 0 214 -81l-28 -148h-78l16 108q-54 38 -138 38q-142 0 -225 -77t-103 -194q-5 -43 -4 -84t17 -77.5
t42.5 -63.5t71.5 -43t103 -16q53 0 109.5 21t101.5 59z" />
    <glyph glyph-name="ccaron" unicode="&#x10d;" horiz-adv-x="529" 
d="M209 694l2 7h82l62 -69l88 69h79l-2 -7l-153 -123h-49zM414 123l46 -58q-84 -73 -203 -73q-98 0 -161.5 57t-63.5 156q0 142 91.5 220t219.5 78q89 0 165 -46l-27 -127h-72l14 82q-33 17 -92 17q-94 -1 -155 -59t-61 -152q0 -72 40 -110t117 -38q83 0 142 53z" />
    <glyph glyph-name="Dcaron" unicode="&#x10e;" horiz-adv-x="787" 
d="M295 895l1 7h84l67 -75l97 75h81l-1 -7l-163 -128h-50zM197 622h-85l14 79h328q147 0 222.5 -79.5t75.5 -203.5q0 -63 -15 -122t-48 -113t-81 -94.5t-119.5 -64.5t-158.5 -24h-330l14 80h87zM344 80q77 0 139.5 29.5t100.5 77t58.5 103.5t20.5 112q0 46 -11 83.5
t-35.5 69t-69.5 49t-108 17.5h-155l-95 -541h155z" />
    <glyph glyph-name="dcaron" unicode="&#x10f;" horiz-adv-x="664" 
d="M717 701h81l-75 -147h-62zM470 700h163l-110 -626h82l-13 -74h-153l8 88q-75 -96 -205 -96q-94 0 -152 55.5t-58 153.5q0 138 87.5 220t211.5 82q57 0 104.5 -25t63.5 -73l39 223h-81zM330 428h1q-87 0 -150 -57t-66 -154q-2 -69 35.5 -108t106.5 -39q84 0 148.5 59.5
t66.5 148.5q2 67 -37.5 108.5t-104.5 41.5z" />
    <glyph glyph-name="Dcroat" unicode="&#x110;" horiz-adv-x="787" 
d="M198 622h-85l14 79h328q147 0 222.5 -79.5t75.5 -203.5q0 -78 -26.5 -151.5t-77 -133.5t-133.5 -96.5t-185 -36.5h-330l14 80h87l40 228h-77l14 76h77zM345 80q77 0 139.5 29.5t100.5 77t58.5 103.5t20.5 112q0 93 -57 156t-167 63h-155l-41 -237h149l-14 -76h-149
l-40 -228h155z" />
    <glyph glyph-name="dcroat" unicode="&#x111;" horiz-adv-x="664" 
d="M475 704h159l-21 -117h73l-10 -60h-73l-80 -453h82l-13 -74h-153l6 91q-38 -49 -91.5 -74t-111.5 -25q-94 0 -152 55.5t-58 153.5q0 138 87.5 220t211.5 82q57 0 104.5 -25t63.5 -73l22 122h-85l10 60h85l9 50h-77zM472 278q0 66 -41 108t-105 42q-87 0 -148.5 -57
t-61.5 -154q0 -68 41 -107.5t106 -39.5q84 0 146.5 59.5t62.5 148.5z" />
    <glyph glyph-name="Emacron" unicode="&#x112;" horiz-adv-x="687" 
d="M306 845h301l-12 -69h-301zM586 0h-587l14 80h87l95 541h-85l14 79h570l-32 -186h-78l15 106h-318l-39 -223h319l-14 -81h-319l-42 -234h333l22 107h78z" />
    <glyph glyph-name="emacron" unicode="&#x113;" horiz-adv-x="583" 
d="M237 678h269l-12 -67h-269zM479 79h-1q-43 -43 -105 -65.5t-123 -22.5q-101 0 -160.5 57.5t-59.5 155.5q0 128 89.5 214.5t216.5 86.5q120 0 177.5 -74.5t18.5 -215.5h-418q-5 -67 37 -107.5t114 -40.5q44 0 91.5 16.5t76.5 45.5zM466 284v-1q10 71 -28.5 109.5
t-112.5 38.5q-67 0 -121.5 -39t-77.5 -108h340z" />
    <glyph glyph-name="Ebreve" unicode="&#x114;" horiz-adv-x="687" 
d="M607 893h-1q-8 -61 -53.5 -95.5t-107.5 -34.5q-63 0 -96 34.5t-19 95.5h68q-6 -29 8.5 -49t50.5 -20q35 0 55.5 19.5t26.5 49.5h68zM586 0h-587l14 80h87l95 541h-85l14 79h570l-32 -186h-78l15 106h-318l-39 -223h319l-14 -81h-319l-42 -234h333l22 107h78z" />
    <glyph glyph-name="ebreve" unicode="&#x115;" horiz-adv-x="583" 
d="M509 697q-8 -61 -53 -95.5t-107 -34.5q-63 0 -96 34.5t-20 95.5h67q-5 -30 9 -49.5t50 -19.5q35 0 56 20t26 50zM479 78h-1q-43 -42 -105.5 -65t-123.5 -23q-101 0 -160 58t-59 156q0 128 89.5 214.5t216.5 86.5q120 0 177.5 -74.5t18.5 -216.5h-418q-5 -67 37 -107.5
t114 -40.5q44 0 91.5 16.5t76.5 45.5zM466 283q10 71 -28.5 109.5t-112.5 38.5q-67 0 -121.5 -39t-77.5 -109h340z" />
    <glyph glyph-name="Edotaccent" unicode="&#x116;" horiz-adv-x="687" 
d="M407 805q0 29 19.5 45t45.5 16q20 0 34 -11.5t14 -32.5q0 -29 -20 -44.5t-47 -15.5q-20 0 -33 11.5t-13 31.5zM586 0h-587l14 80h87l95 541h-85l14 79h570l-32 -186h-78l15 106h-318l-39 -223h319l-14 -81h-319l-42 -234h333l22 107h78z" />
    <glyph glyph-name="edotaccent" unicode="&#x117;" horiz-adv-x="587" 
d="M316 624q0 27 19.5 43t44.5 16q20 0 33.5 -11t13.5 -31q0 -28 -19.5 -44t-44.5 -16q-20 0 -33.5 11t-13.5 32zM532 215l-1 -2q54 134 -9.5 212.5t-186.5 78.5q-126 0 -215.5 -86.5t-89.5 -214.5q0 -98 59.5 -155.5t160.5 -57.5q61 0 123 22.5t105 65.5l-46 50
q-29 -29 -76.5 -45.5t-91.5 -16.5q-72 0 -114 40.5t-37 108.5h419zM126 282v1q23 69 77.5 108t121.5 39q74 0 112.5 -38.5t28.5 -109.5h-340z" />
    <glyph glyph-name="Eogonek" unicode="&#x118;" horiz-adv-x="687" 
d="M443 0h-444l14 80h87l95 541h-85l14 79h570l-32 -186h-78l15 106h-318l-39 -223h319l-14 -81h-319l-42 -234h333l22 107h78l-33 -189q-77 -3 -112.5 -37t-28.5 -67q5 -26 44.5 -25.5t84.5 30.5l6 -60q-42 -24 -88 -33t-82.5 5.5t-41.5 55.5q-4 33 17.5 75.5t57.5 55.5z
" />
    <glyph glyph-name="eogonek" unicode="&#x119;" horiz-adv-x="584" 
d="M219 -117q-2 31 14 65t40 47q-12 -2 -25 -2q-99 2 -158 59.5t-59 152.5q0 127 89.5 213.5t216.5 86.5q120 0 177.5 -74.5t18.5 -215.5h-418q-5 -67 37 -107.5t114 -40.5q44 0 91.5 16.5t76.5 45.5l46 -50q-50 -48 -120 -71q-36 -12 -55 -42.5t-13 -57.5q6 -28 40.5 -28.5
t78.5 28.5l6 -56q-30 -17 -62 -25.5t-61 -8t-49.5 17t-25.5 47.5zM466 286q9 70 -29.5 108.5t-111.5 38.5q-67 0 -121.5 -39t-77.5 -108h340z" />
    <glyph glyph-name="Ecaron" unicode="&#x11a;" horiz-adv-x="687" 
d="M313 890l1 7h87l69 -71l96 71h85l-1 -7l-166 -125h-51zM586 0h-587l14 80h87l95 541h-85l14 79h570l-32 -186h-78l15 106h-318l-39 -223h319l-14 -81h-319l-42 -234h333l22 107h78z" />
    <glyph glyph-name="ecaron" unicode="&#x11b;" horiz-adv-x="583" 
d="M202 694l2 7h85l70 -76l101 76h83l-2 -7l-166 -127h-52zM479 79h-1q-43 -43 -105 -65.5t-123 -22.5q-101 0 -160.5 57.5t-59.5 155.5q0 128 89.5 214.5t216.5 86.5q120 0 177.5 -74.5t18.5 -215.5h-418q-5 -67 37 -107.5t114 -40.5q44 0 91.5 16.5t76.5 45.5zM466 284v-1
q10 71 -28.5 109.5t-112.5 38.5q-67 0 -121.5 -39t-77.5 -108h340z" />
    <glyph glyph-name="Gcircumflex" unicode="&#x11c;" horiz-adv-x="736" 
d="M498 917h51l118 -132l-1 -6h-84l-69 77l-97 -77h-84l1 6zM487 711q145 0 232 -83l-28 -146h-78l17 108q-59 40 -157 40q-151 0 -241.5 -99t-90.5 -233q0 -48 12 -87t38 -72t73 -51t112 -18q108 0 194 71l25 145h-218l14 75h295l-45 -259q-113 -114 -280 -114
q-153 0 -230.5 83t-77.5 212q0 181 121.5 304.5t312.5 123.5z" />
    <glyph glyph-name="gcircumflex" unicode="&#x11d;" horiz-adv-x="665" 
d="M376 713h52l118 -128l-1 -6h-84l-71 75l-95 -75h-85l1 6zM585 422l-76 -433q-14 -82 -60 -139t-104 -81.5t-126 -24.5q-111 0 -167 49t-43 136h79q-5 -54 35 -82t110 -28t125 42.5t70 127.5l18 100q-36 -49 -91.5 -74.5t-110.5 -25.5q-95 0 -154 57.5t-59 155.5
q0 135 90 218t214 81q59 0 104.5 -22.5t62.5 -68.5l18 85h156l-12 -73h-79zM328 425q-86 0 -150 -59t-64 -151q0 -68 42 -109.5t108 -41.5q107 0 170 87q52 73 41 154q-11 83 -83 110q-29 10 -64 10z" />
    <glyph glyph-name="Gbreve" unicode="&#x11e;" horiz-adv-x="736" 
d="M655 901l-2 2q-8 -60 -53.5 -94t-108.5 -34t-96.5 33.5t-20.5 93.5h68q-5 -29 9.5 -48.5t50.5 -19.5t57.5 19t26.5 48h69zM487 711q145 0 232 -83l-28 -146h-78l17 108q-59 40 -157 40q-151 0 -241.5 -99t-90.5 -233q0 -48 12 -87t38 -72t73 -51t112 -18q108 0 194 71
l25 145h-218l14 75h295l-45 -259q-113 -114 -280 -114q-153 0 -230.5 83t-77.5 212q0 181 121.5 304.5t312.5 123.5z" />
    <glyph glyph-name="gbreve" unicode="&#x11f;" horiz-adv-x="665" 
d="M533 709h-1q-8 -62 -53 -97.5t-106 -35.5q-62 0 -95 35t-20 98h67q-5 -30 9 -50t50 -20q35 0 56 20t26 50h67zM585 422l-76 -433q-14 -82 -60 -139t-104 -81.5t-126 -24.5q-111 0 -167 49t-43 136h79q-5 -54 35 -82t110 -28t125 42.5t70 127.5l18 100
q-36 -49 -91.5 -74.5t-110.5 -25.5q-95 0 -154 57.5t-59 155.5q0 135 90 218t214 81q59 0 104.5 -22.5t62.5 -68.5l18 85h156l-12 -73h-79zM328 425q-86 0 -150 -59t-64 -151q0 -68 42 -109.5t108 -41.5q107 0 170 87q52 73 41 154q-11 83 -83 110q-29 10 -64 10z" />
    <glyph glyph-name="Gdotaccent" unicode="&#x120;" horiz-adv-x="736" 
d="M444 819q0 29 21 45.5t48 16.5q21 0 35 -12t14 -33q0 -29 -20.5 -45t-46.5 -16q-21 0 -36 11.5t-15 32.5zM487 711q145 0 232 -83l-28 -146h-78l17 108q-59 40 -157 40q-151 0 -241.5 -99t-90.5 -233q0 -48 12 -87t38 -72t73 -51t112 -18q108 0 194 71l25 145h-218l14 75
h295l-45 -259q-113 -114 -280 -114q-153 0 -230.5 83t-77.5 212q0 181 121.5 304.5t312.5 123.5z" />
    <glyph glyph-name="gdotaccent" unicode="&#x121;" horiz-adv-x="665" 
d="M324 634q0 29 21 45.5t48 17.5q23 1 39 -11t16 -35q0 -31 -23 -48t-52 -16q-21 1 -35 13.5t-14 33.5zM585 422l-76 -433q-14 -82 -60 -139t-104 -81.5t-126 -24.5q-111 0 -167 49t-43 136h79q-5 -54 35 -82t110 -28t125 42.5t70 127.5l18 100q-36 -49 -91.5 -74.5
t-110.5 -25.5q-95 0 -154 57.5t-59 155.5q0 135 90 218t214 81q59 0 104.5 -22.5t62.5 -68.5l18 85h156l-12 -73h-79zM328 425q-86 0 -150 -59t-64 -151q0 -68 42 -109.5t108 -41.5q107 0 170 87q52 73 41 154q-11 83 -83 110q-29 10 -64 10z" />
    <glyph glyph-name="Gcommaaccent" unicode="&#x122;" horiz-adv-x="736" 
d="M309 -173l1 1q-31 5 -31 37q0 42 39 55q36 13 58 -10q12 -11 12 -30q0 -12 -24 -56t-42 -70h-55zM487 711q145 0 232 -83l-28 -146h-78l17 108q-59 40 -157 40q-151 0 -241.5 -99t-90.5 -233q0 -48 12 -87t38 -72t73 -51t112 -18q108 0 194 71l25 145h-218l14 75h295
l-45 -259q-113 -114 -280 -114q-153 0 -230.5 83t-77.5 212q0 181 121.5 304.5t312.5 123.5z" />
    <glyph glyph-name="gcommaaccent" unicode="&#x123;" horiz-adv-x="665" 
d="M388 727h56l-39 -68l-1 -1q31 -5 31 -37q0 -34 -27 -50t-54 -5.5t-27 41.5q0 27 61 120zM585 422l-76 -433q-14 -82 -60 -139t-104 -81.5t-126 -24.5q-111 0 -167 49t-43 136h79q-5 -54 35 -82t110 -28t125 42.5t70 127.5l18 100q-36 -49 -91.5 -74.5t-110.5 -25.5
q-95 0 -154 57.5t-59 155.5q0 135 90 218t214 81q59 0 104.5 -22.5t62.5 -68.5l18 85h156l-12 -73h-79zM328 425q-86 0 -150 -59t-64 -151q0 -68 42 -109.5t108 -41.5q107 0 170 87q52 73 41 154q-11 83 -83 110q-29 10 -64 10z" />
    <glyph glyph-name="Hcircumflex" unicode="&#x124;" horiz-adv-x="835" 
d="M496 911h52l118 -133l-1 -7h-84l-70 78l-98 -78h-84l1 7zM732 0h-256l14 80h83l43 241h-386l-43 -241h83l-14 -80h-256l14 80h87l95 540h-87l14 80h256l-14 -80h-83l-39 -223h386l39 223h-83l14 80h256l-14 -80h-86l-95 -540h86z" />
    <glyph glyph-name="hcircumflex" unicode="&#x125;" horiz-adv-x="654" 
d="M335 902h50l117 -130l-1 -6h-87l-66 73l-92 -73h-85l1 6zM259 701l-51 -289q73 88 186 88q102 0 144 -61.5t23 -166.5l-35 -200h82l-13 -72h-230l13 72h67l35 198q13 78 -11 115.5t-101 37.5q-68 0 -121 -46t-65 -115l-34 -190h80l-13 -72h-245l13 72h84l98 557h-81
l13 72h162z" />
    <glyph glyph-name="Hbar" unicode="&#x126;" horiz-adv-x="839" 
d="M733 0h-256l14 80h83l42 239h-386l-42 -239h83l-14 -80h-256l14 80h87l71 401h-81l10 60h81l14 79h-87l14 80h256l-14 -80h-83l-14 -79h386l14 79h-83l14 80h256l-14 -80h-86l-14 -79h79l-10 -60h-79l-71 -401h86zM244 397h386l15 84h-386z" />
    <glyph glyph-name="hbar" unicode="&#x127;" horiz-adv-x="654" 
d="M259 701l-22 -123h94l-10 -59h-94l-19 -107q73 88 186 88q102 0 144 -61.5t23 -166.5l-35 -200h82l-13 -72h-230l13 72h67l35 198q13 74 -16 113.5t-96 39.5q-68 0 -121 -46t-65 -115l-34 -190h80l-13 -72h-245l13 72h84l79 447h-63l10 59h63l9 51h-81l13 72h162z" />
    <glyph glyph-name="Itilde" unicode="&#x128;" horiz-adv-x="367" 
d="M138 788l-2 2q18 44 54 64t73 5q5 -1 25 -12.5t25 -12.5q35 -16 56 26l48 -23q-19 -49 -54.5 -67t-69.5 -4q-6 2 -25 14t-22 13q-38 15 -63 -29zM265 0h-266l14 80h89l95 540h-87l14 80h262l-14 -80h-88l-95 -540h90z" />
    <glyph glyph-name="itilde" unicode="&#x129;" horiz-adv-x="303" 
d="M132 607l-50 20q16 46 51.5 65.5t68.5 4.5q6 -3 19 -13.5t16 -11.5q36 -17 54 27l45 -24q-19 -51 -52 -68t-62 -1l-11.5 7.5l-15 10l-9.5 6.5q-33 21 -54 -23zM73 496h162l-74 -422h80l-13 -74h-244l13 74h82l62 349h-80z" />
    <glyph glyph-name="Imacron" unicode="&#x12a;" horiz-adv-x="367" 
d="M159 830h241l-12 -69h-241zM265 0h-266l14 80h89l95 540h-87l14 80h262l-14 -80h-88l-95 -540h90z" />
    <glyph glyph-name="imacron" unicode="&#x12b;" horiz-adv-x="303" 
d="M120 677h206l-12 -69h-206zM73 496h162l-74 -422h80l-13 -74h-244l13 74h82l62 349h-80z" />
    <glyph glyph-name="Ibreve" unicode="&#x12c;" horiz-adv-x="367" 
d="M417 875h-1q-15 -123 -152 -123q-61 0 -91.5 32.5t-16.5 91.5h65q-11 -63 55 -63t77 62h64zM265 0h-266l14 80h89l95 540h-87l14 80h262l-14 -80h-88l-95 -540h90z" />
    <glyph glyph-name="ibreve" unicode="&#x12d;" horiz-adv-x="303" 
d="M349 700h1q-8 -59 -49 -93t-95 -34q-55 0 -83.5 34t-16.5 93h64q-11 -61 48 -61q58 0 67 61h64zM73 496h162l-74 -422h80l-13 -74h-244l13 74h82l62 349h-80z" />
    <glyph glyph-name="Iogonek" unicode="&#x12e;" horiz-adv-x="367" 
d="M265 0q-83 -3 -120.5 -38t-31.5 -67q4 -16 22.5 -22.5t48 0.5t59.5 28l6 -61q-42 -24 -88.5 -33t-83 6.5t-42.5 57.5q-4 32 21 73.5t61 55.5h-118l14 80h89l95 540h-87l14 80h262l-14 -80h-88l-95 -540h90z" />
    <glyph glyph-name="iogonek" unicode="&#x12f;" horiz-adv-x="303" 
d="M167 636q0 29 20 45.5t45 16.5q19 0 33 -12t14 -33q0 -31 -21 -47t-47 -15q-19 1 -31.5 12.5t-12.5 32.5zM72 0h-88l13 74h82l62 349h-80l12 73h162l-74 -422h80l-13 -74h-13q-78 -3 -113 -35.5t-28 -65.5q6 -27 44.5 -27.5t84.5 29.5l6 -60q-41 -24 -87 -32.5t-82.5 7
t-41.5 56.5q-4 33 17 74t57 54z" />
    <glyph glyph-name="Idotaccent" unicode="&#x130;" horiz-adv-x="367" 
d="M215 804q0 31 21.5 48t48.5 17q21 0 34.5 -12.5t13.5 -34.5q0 -29 -19 -45.5t-47 -18.5q-22 -1 -37 11t-15 35zM265 0h-266l14 80h89l95 540h-87l14 80h262l-14 -80h-88l-95 -540h90z" />
    <glyph glyph-name="dotlessi" unicode="&#x131;" horiz-adv-x="303" 
d="M73 496h162l-74 -422h80l-13 -74h-244l13 74h82l62 349h-80z" />
    <glyph glyph-name="IJ" unicode="&#x132;" horiz-adv-x="1036" 
d="M265 0h-266l14 80h89l95 540h-87l14 80h262l-14 -80h-88l-95 -540h90zM939 280q-21 -135 -108 -213.5t-225 -78.5q-126 0 -188.5 78t-39.5 210h84q-17 -98 21.5 -152t133.5 -54q93 0 156 56.5t80 153.5l62 340h-235l14 80h319z" />
    <glyph glyph-name="ij" unicode="&#x133;" horiz-adv-x="571" 
d="M167 636q0 29 19.5 45.5t44.5 16.5q19 0 32.5 -12t13.5 -33q0 -29 -20.5 -45.5t-44.5 -16.5q-19 0 -32 12t-13 33zM73 496h162l-74 -422h80l-13 -74h-244l13 74h82l62 349h-80zM359 494h170l-98 -557q-16 -89 -57.5 -135t-120.5 -46q-52 0 -93 27l39 66q31 -17 64 -17
q42 1 60 26.5t27 78.5l85 484h-89zM461 638q0 29 20 45.5t45 16.5q19 0 32 -12t13 -33q0 -29 -20 -45.5t-44 -16.5q-19 0 -32.5 12t-13.5 33z" />
    <glyph glyph-name="Jcircumflex" unicode="&#x134;" horiz-adv-x="693" 
d="M317 781l165 133h52l119 -133l-1 -6h-84l-71 77l-97 -77h-84zM597 280l3 -1q-23 -132 -117.5 -212t-225.5 -80q-128 0 -195.5 78.5t-43.5 210.5h86q-17 -95 28 -150t138 -55t157.5 56.5t81.5 152.5l60 339h-243l14 81h331z" />
    <glyph glyph-name="jcircumflex" unicode="&#x135;" horiz-adv-x="268" 
d="M37 573l144 134h44l96 -134l-1 -6h-77l-52 74l-78 -74h-77zM56 494h170l-98 -557q-16 -89 -57.5 -135t-120.5 -46q-52 0 -93 27l39 66q31 -17 64 -17q42 1 60 26.5t27 78.5l85 484h-89z" />
    <glyph glyph-name="Kcommaaccent" unicode="&#x136;" horiz-adv-x="717" 
d="M280 -235l33 78q-1 -1 -4 0.5t-7.5 4.5t-6.5 6q-11 15 -11 28q0 28 21.5 43.5t47.5 15.5q23 0 39 -11.5t16 -34.5q0 -17 -10.5 -38.5t-34 -55l-25.5 -36.5h-58zM295 79l-14 -79h-282l14 79h87l95 541h-87l14 80h248l-14 -80h-75l-47 -267l321 267h-85l14 80h274l-14 -80
h-69l-289 -239l169 -302h110l-14 -79h-206l12 72l-136 255l-106 -84l-29 -164h109z" />
    <glyph glyph-name="kcommaaccent" unicode="&#x137;" horiz-adv-x="566" 
d="M174 -222l43 72q-31 7 -31 37q0 41 39 54q36 12 58 -11q11 -11 11 -29q0 -16 -22 -55.5t-43 -67.5h-55zM169 193l-21 -119h71l-13 -74h-233l13 74h81l97 552h-80l13 74h161l-71 -411l107 80l86 57l-64 2l12 67h236l-12 -69h-61l-189 -138l120 -214h84l-13 -74h-156l8 49
l-107 193z" />
    <glyph glyph-name="kgreenlandic" unicode="&#x138;" horiz-adv-x="578" 
d="M181 193l-21 -119h71l-13 -74h-233l13 74h81l62 349h-80l13 74h161l-39 -221l120 93l80 57l-64 2l12 67h232l-12 -69h-61l-189 -138l120 -214h84l-13 -74h-166l9 49l-104 189z" />
    <glyph glyph-name="Lacute" unicode="&#x139;" horiz-adv-x="630" 
d="M216 760l95 123h98l-1 -3l-119 -125h-74zM186 80h300l22 108h78l-33 -188h-551l14 79h83l95 541h-87l14 80h257l-14 -80h-83z" />
    <glyph glyph-name="lacute" unicode="&#x13a;" horiz-adv-x="295" 
d="M179 766l90 117h94l-1 -3l-113 -119h-71zM260 700l-110 -626h80l-13 -74h-245l13 74h84l98 553h-81l12 73h162z" />
    <glyph glyph-name="Lcommaaccent" unicode="&#x13b;" horiz-adv-x="630" 
d="M236 -165l2 1q-31 5 -31 37q0 42 39 55q36 13 58 -10q12 -11 12 -30q0 -12 -24.5 -56.5t-42.5 -69.5h-55zM186 80h300l22 108h78l-33 -188h-551l14 79h83l95 541h-87l14 80h257l-14 -80h-83z" />
    <glyph glyph-name="lcommaaccent" unicode="&#x13c;" horiz-adv-x="295" 
d="M50 -155v-1q-30 5 -30 36q0 42 39 55q35 12 57 -10q11 -12 11 -30q0 -12 -23.5 -54.5t-41.5 -67.5h-53zM260 700l-110 -626h80l-13 -74h-245l13 74h84l98 553h-81l12 73h162z" />
    <glyph glyph-name="Lcaron" unicode="&#x13d;" horiz-adv-x="630" 
d="M517 699h89l-83 -155h-68zM186 80h300l22 108h78l-33 -188h-551l14 79h83l95 541h-87l14 80h257l-14 -80h-83z" />
    <glyph glyph-name="lcaron" unicode="&#x13e;" horiz-adv-x="295" 
d="M330 701h81l-75 -147h-62zM260 700l-110 -626h80l-13 -74h-245l13 74h84l98 553h-81l12 73h162z" />
    <glyph glyph-name="Ldot" unicode="&#x13f;" horiz-adv-x="630" 
d="M342 326q0 30 20.5 47.5t46.5 17.5q20 0 33.5 -12t13.5 -34q0 -29 -19.5 -46t-44.5 -18q-21 -1 -35.5 11t-14.5 34zM186 80h300l22 108h78l-33 -188h-551l14 79h83l95 541h-87l14 80h257l-14 -80h-83z" />
    <glyph glyph-name="ldot" unicode="&#x140;" horiz-adv-x="315" 
d="M249 324q0 30 19.5 47t45.5 17q20 0 34.5 -12t14.5 -34q0 -30 -20 -47t-46 -17q-20 0 -34 12t-14 34zM260 700l-110 -626h80l-13 -74h-245l13 74h84l98 553h-81l12 73h162z" />
    <glyph glyph-name="Lslash" unicode="&#x141;" horiz-adv-x="634" 
d="M190 80h300l22 108h78l-33 -188h-551l14 79h83l37 208l-81 -31l13 71l80 32l46 261h-87l14 80h257l-14 -80h-83l-39 -224l111 44l-13 -73l-111 -43z" />
    <glyph glyph-name="lslash" unicode="&#x142;" horiz-adv-x="297" 
d="M261 700l-55 -315l86 35l-12 -69l-86 -35l-43 -242h80l-13 -74h-245l13 74h84l37 208l-76 -30l12 67l76 30l49 278h-81l12 73h162z" />
    <glyph glyph-name="Nacute" unicode="&#x143;" horiz-adv-x="843" 
d="M453 774l89 123h102v-2l-115 -126h-76v5zM187 79l80 465l336 -544h60l109 620h84l14 80h-257l-14 -80h87l-83 -462l-332 542h-149l-14 -80h87l-95 -541h-84l-14 -79h258l14 79h-87z" />
    <glyph glyph-name="nacute" unicode="&#x144;" horiz-adv-x="677" 
d="M371 580l91 120h95v-3l-116 -121h-70v4zM229 0h-245l13 74h84l61 347h-82l13 73h157l-9 -77q79 86 184 86t150 -62t26 -168l-35 -199h84l-13 -74h-238l13 74h72l35 198q14 79 -12.5 116.5t-109.5 37.5q-67 -1 -118 -47t-63 -113l-34 -192h80z" />
    <glyph glyph-name="Ncommaaccent" unicode="&#x145;" horiz-adv-x="843" 
d="M347 -154l3 1q-34 6 -34 39q0 36 29 52.5t58.5 5.5t29.5 -43q0 -12 -26 -59t-45 -72h-59zM267 544l-80 -465h87l-14 -79h-258l14 79h84l95 541h-87l14 80h149l332 -542l83 462h-87l14 80h257l-14 -80h-84l-109 -620h-60z" />
    <glyph glyph-name="ncommaaccent" unicode="&#x146;" horiz-adv-x="677" 
d="M264 -152h1q-30 7 -30 35q0 33 26.5 48.5t53 5t26.5 -39.5q0 -11 -23 -52.5t-41 -67.5h-54zM229 0h-245l13 74h84l61 347h-82l13 73h157l-9 -77q79 86 184 86t150 -62t26 -168l-35 -199h84l-13 -74h-238l13 74h72l35 198q14 79 -12.5 116.5t-109.5 37.5q-67 -1 -118 -47
t-63 -113l-34 -192h80z" />
    <glyph glyph-name="Ncaron" unicode="&#x147;" horiz-adv-x="843" 
d="M342 886l1 7h86l70 -76l99 76h84l-1 -7l-168 -132h-51zM187 79l80 465l336 -544h60l109 620h84l14 80h-257l-14 -80h87l-83 -462l-332 542h-149l-14 -80h87l-95 -541h-84l-14 -79h258l14 79h-87z" />
    <glyph glyph-name="ncaron" unicode="&#x148;" horiz-adv-x="677" 
d="M259 695l1 6h81l68 -71l97 71h81l-1 -6l-162 -124h-51zM229 0h-245l13 74h84l61 347h-82l13 73h157l-9 -77q79 86 184 86t150 -62t26 -168l-35 -199h84l-13 -74h-238l13 74h72l35 198q14 79 -12.5 116.5t-109.5 37.5q-67 -1 -118 -47t-63 -113l-34 -192h80z" />
    <glyph glyph-name="napostrophe" unicode="&#x149;" horiz-adv-x="677" 
d="M229 0h-245l13 74h84l61 347h-82l13 73h157l-9 -77q79 86 184 86t150 -62t26 -168l-35 -199h84l-13 -74h-238l13 74h72l35 198q14 79 -12.5 116.5t-109.5 37.5q-67 -1 -118 -47t-63 -113l-34 -192h80z" />
    <glyph glyph-name="Eng" unicode="&#x14a;" horiz-adv-x="843" 
d="M267 534l-80 -455h87l-14 -79h-258l14 79h84l95 541h-87l14 80h149l335 -537l80 457h-87l14 80h257l-14 -80h-84l-113 -645q-15 -88 -57 -134.5t-121 -46.5q-48 0 -91 28l39 66q31 -18 62 -17q42 1 60.5 26.5t27.5 77.5l9 50z" />
    <glyph glyph-name="eng" unicode="&#x14b;" horiz-adv-x="652" 
d="M531 -15q-15 -88 -56 -132t-121 -44q-45 0 -88 28l39 66q30 -18 59 -17q42 1 58.5 24t25.5 75l51 287q27 154 -122 154q-67 -1 -118 -47t-63 -113l-34 -192h80l-13 -74h-245l13 74h84l61 347h-82l13 73h157l-9 -77q79 86 184 86t150.5 -62t26.5 -168z" />
    <glyph glyph-name="Omacron" unicode="&#x14c;" horiz-adv-x="809" 
d="M339 867h334l-12 -71h-334zM481 712q69 0 124.5 -20t90 -55t56.5 -81t24.5 -99t-5.5 -109q-13 -70 -46.5 -134t-85 -115.5t-126 -82t-161.5 -30.5q-75 0 -133.5 24.5t-94 67t-53.5 96t-18 113.5q0 175 121.5 300t306.5 125zM683 347l2 1q14 74 -3 136.5t-72 104.5
t-142 43q-145 0 -235 -97.5t-90 -232.5q0 -99 56 -166t168 -67q129 0 212.5 82t103.5 196z" />
    <glyph glyph-name="omacron" unicode="&#x14d;" horiz-adv-x="595" 
d="M212 689h307l-12 -69h-307zM31 203q0 127 88.5 213.5t214.5 86.5q96 0 154.5 -60t58.5 -155q0 -127 -88 -212t-216 -85q-97 0 -154.5 58.5t-57.5 153.5zM460 246h1q14 78 -26 130t-114 52q-86 0 -146.5 -62.5t-60.5 -150.5q0 -65 39 -106t104 -41q76 0 132.5 50t70.5 128
z" />
    <glyph glyph-name="Obreve" unicode="&#x14e;" horiz-adv-x="809" 
d="M651 908v1q-7 -60 -52.5 -94t-108.5 -34t-96.5 33.5t-20.5 93.5h68q-5 -29 9.5 -47.5t50.5 -18.5q35 0 56 18.5t26 47.5h68zM481 713q69 0 124.5 -20t90 -55t56.5 -81t24.5 -99t-5.5 -109q-13 -70 -46.5 -134t-85 -115.5t-126 -82t-161.5 -30.5q-147 0 -223 86.5
t-76 214.5q0 175 121.5 300t306.5 125zM683 348l2 1q14 74 -3 136.5t-72 104.5t-142 43q-145 0 -235 -97.5t-90 -232.5q0 -99 56 -166t168 -67q129 0 212.5 82t103.5 196z" />
    <glyph glyph-name="obreve" unicode="&#x14f;" horiz-adv-x="595" 
d="M506 702v-1q-8 -62 -53 -96.5t-107 -33.5q-62 0 -94.5 34.5t-18.5 96.5h66q-6 -29 8.5 -49t50.5 -20q35 0 55 19.5t26 49.5h67zM30 202q0 127 89 213.5t215 86.5q96 0 154.5 -60t58.5 -155q0 -127 -88 -212t-216 -85q-97 0 -155 58.5t-58 153.5zM460 245h1q14 78 -26 130
t-114 52q-86 0 -146.5 -62.5t-60.5 -150.5q0 -65 38.5 -106t104.5 -41q76 0 132.5 50t70.5 128z" />
    <glyph glyph-name="Ohungarumlaut" unicode="&#x150;" horiz-adv-x="808" 
d="M366 783l98 120h91l-118 -120h-71zM613 903h92l-120 -121h-70zM53 287q0 175 121.5 300t306.5 125q69 0 124.5 -20t89.5 -55t56 -81t24.5 -99t-5.5 -109q-13 -70 -46 -134t-84.5 -115.5t-126 -82t-161.5 -30.5q-75 0 -133.5 24.5t-94 67t-53.5 96t-18 113.5zM683 347l1 1
q14 74 -3 136.5t-72 104.5t-142 43q-145 0 -234.5 -97.5t-89.5 -232.5q0 -99 56 -166t168 -67q129 0 212.5 82t103.5 196z" />
    <glyph glyph-name="ohungarumlaut" unicode="&#x151;" horiz-adv-x="593" 
d="M319 695h88v-2l-113 -106h-69zM464 694h88v-1l-115 -106h-67zM542 246h1q19 112 -40 184.5t-169 72.5q-126 0 -214.5 -86.5t-88.5 -213.5q0 -95 58 -153.5t155 -58.5q111 0 194.5 71.5t103.5 183.5zM118 246h1q14 78 71.5 130t132.5 52q64 0 103 -42.5t39 -109.5
q0 -88 -60 -148t-147 -60q-76 0 -115 50t-25 128z" />
    <glyph glyph-name="OE" unicode="&#x152;" horiz-adv-x="997" 
d="M444 0v-1q-48 -10 -92 -10q-147 0 -222.5 83.5t-75.5 213.5q0 84 28.5 160t81 135t134.5 93.5t181 34.5q36 0 90 -9h435l-33 -186h-77l15 108h-275l-40 -225h276l-14 -79h-276l-41 -236h290l22 107h78l-34 -189h-451zM554 624q-36 13 -87 13q-128 0 -212.5 -82
t-105.5 -205q-12 -75 5.5 -138.5t72.5 -105.5t141 -42q48 0 90 12z" />
    <glyph glyph-name="oe" unicode="&#x153;" horiz-adv-x="993" 
d="M889 79h-1q-43 -43 -104 -65.5t-122 -22.5q-72 0 -122.5 33.5t-67.5 92.5q-84 -125 -229 -125q-97 0 -155 58.5t-58 153.5q0 127 88.5 214t214.5 87q71 0 120.5 -33.5t66.5 -93.5q35 57 96.5 92t131.5 35q120 0 176 -74t17 -215q-331 0 -412 -1q-5 -68 35.5 -108
t112.5 -40q44 0 90.5 16.5t75.5 45.5zM876 284v-1q10 71 -27.5 109.5t-111.5 38.5q-66 0 -120 -39t-77 -108h336zM116 245h1q-14 -78 25 -128t115 -50q87 0 146.5 60t59.5 148q0 67 -39 109.5t-104 42.5q-75 0 -132.5 -51.5t-71.5 -130.5z" />
    <glyph glyph-name="Racute" unicode="&#x154;" horiz-adv-x="752" 
d="M394 771l95 124h99l-1 -3l-120 -126h-74zM187 81l35 196h149l118 -198l-14 -79h196l14 81h-100l-122 198q112 4 180 62t75 159q7 96 -50.5 148t-158.5 52h-387l-14 -80h87l-95 -539h-86l-14 -81h277l14 81h-104zM451 352h-216l47 268h213q154 0 133 -135
q-25 -133 -177 -133z" />
    <glyph glyph-name="racute" unicode="&#x155;" horiz-adv-x="477" 
d="M268 584l88 116h93v-3l-113 -117h-69zM73 495h152l-3 -67q44 63 129.5 75t148.5 -36l-49 -69q-38 27 -81 27q-70 -1 -114.5 -39.5t-57.5 -109.5l-36 -204h80l-13 -72h-245l13 72h83l61 350h-81z" />
    <glyph glyph-name="Rcommaaccent" unicode="&#x156;" horiz-adv-x="752" 
d="M333 -153l2 1q-34 7 -34 37q0 42 41 56q38 12 62 -10q14 -12 14 -32q0 -12 -25.5 -56.5t-44.5 -69.5h-59zM222 277l-35 -196h104l-14 -81h-277l14 81h86l95 539h-87l14 80h387q101 0 158.5 -52t50.5 -148q-7 -101 -75 -159t-180 -62l122 -198h100l-14 -81h-196l14 79
l-118 198h-149zM235 352h216q152 0 177 133q21 135 -133 135h-213z" />
    <glyph glyph-name="rcommaaccent" unicode="&#x157;" horiz-adv-x="477" 
d="M67 -150q-28 5 -28 35q0 40 38 53q34 11 54 -11q10 -11 10 -28q0 -11 -22.5 -52.5t-39.5 -65.5h-51zM73 495h152l-3 -67q44 63 129.5 75t148.5 -36l-49 -69q-38 27 -81 27q-70 -1 -114.5 -39.5t-57.5 -109.5l-36 -204h80l-13 -72h-245l13 72h83l61 350h-81z" />
    <glyph glyph-name="Rcaron" unicode="&#x158;" horiz-adv-x="752" 
d="M296 891l1 6h87l69 -74l97 74h84l-1 -6l-166 -130h-52zM187 81l35 196h149l118 -198l-14 -79h196l14 81h-100l-122 198q112 4 180 62t75 159q7 96 -50.5 148t-158.5 52h-387l-14 -80h87l-95 -539h-86l-14 -81h277l14 81h-104zM451 352h-216l47 268h213q154 0 133 -135
q-25 -133 -177 -133z" />
    <glyph glyph-name="rcaron" unicode="&#x159;" horiz-adv-x="477" 
d="M343 569h-49l-110 127l1 6h82l63 -69l90 69h80l-1 -6zM73 495h152l-3 -67q44 63 129.5 75t148.5 -36l-49 -69q-38 27 -81 27q-70 -1 -114.5 -39.5t-57.5 -109.5l-36 -204h80l-13 -72h-245l13 72h83l61 350h-81z" />
    <glyph glyph-name="Sacute" unicode="&#x15a;" horiz-adv-x="657" 
d="M369 787l96 127h101v-3l-123 -129h-75zM397 714q152 0 236 -80q-4 -25 -13 -69.5t-13 -69.5h-77l14 101q-59 41 -159 41q-81 0 -141.5 -34t-60.5 -99q0 -21 9.5 -37t22 -26t37.5 -18t43 -12t53 -10q48 -8 82.5 -16t72 -24.5t59 -39t32 -58t2.5 -81.5q-10 -56 -43 -96.5
t-80.5 -61t-97.5 -29.5t-106 -9q-157 0 -247 95l25 139h79l-14 -102q61 -50 173 -50q36 0 69.5 5.5t67.5 18.5t57.5 39.5t29.5 63.5q4 20 -1.5 37t-14.5 28t-27.5 21t-32.5 15.5t-39 11.5t-36 7.5t-34 5.5q-51 8 -88 19t-71.5 30.5t-52 51t-16.5 74.5q0 72 44 123t110.5 73
t146.5 22z" />
    <glyph glyph-name="sacute" unicode="&#x15b;" horiz-adv-x="510" 
d="M261 578l89 117h93l-1 -2l-113 -119h-69zM292 507q103 0 179 -44l-22 -120h-71l9 73q-35 19 -107 19q-58 1 -96 -20.5t-38 -60.5q0 -52 109 -65q41 -6 70.5 -14t62.5 -25t47 -48t5 -75q-27 -138 -225 -138q-116 0 -208 58l24 122h72l-11 -80q45 -26 128 -26q125 0 140 73
q8 38 -25 56t-97 25q-176 25 -176 130q0 43 21 75t56 50t73.5 26.5t79.5 8.5z" />
    <glyph glyph-name="Scircumflex" unicode="&#x15c;" horiz-adv-x="657" 
d="M255 789l169 135h52l121 -135l-1 -6h-85l-72 79l-100 -79h-85zM397 714q152 0 236 -80q-4 -25 -13 -69.5t-13 -69.5h-77l14 101q-59 41 -159 41q-81 0 -141.5 -34t-60.5 -99q0 -21 9.5 -37t22 -26t37.5 -18t43 -12t53 -10q48 -8 82.5 -16t72 -24.5t59 -39t32 -58
t2.5 -81.5q-10 -56 -43 -96.5t-80.5 -61t-97.5 -29.5t-106 -9q-157 0 -247 95l25 139h79l-14 -102q61 -50 173 -50q36 0 69.5 5.5t67.5 18.5t57.5 39.5t29.5 63.5q4 20 -1.5 37t-14.5 28t-27.5 21t-32.5 15.5t-39 11.5t-36 7.5t-34 5.5q-51 8 -88 19t-71.5 30.5t-52 51
t-16.5 74.5q0 72 44 123t110.5 73t146.5 22z" />
    <glyph glyph-name="scircumflex" unicode="&#x15d;" horiz-adv-x="510" 
d="M310 703h50l114 -128l-1 -6h-81l-68 74l-91 -74h-83l1 6zM292 507q103 0 179 -44l-22 -120h-71l9 73q-35 19 -107 19q-58 1 -96 -20.5t-38 -60.5q0 -52 109 -65q41 -6 70.5 -14t62.5 -25t47 -48t5 -75q-27 -138 -225 -138q-116 0 -208 58l24 122h72l-11 -80
q45 -26 128 -26q125 0 140 73q8 38 -25 56t-97 25q-176 25 -176 130q0 43 21 75t56 50t73.5 26.5t79.5 8.5z" />
    <glyph glyph-name="Scedilla" unicode="&#x15e;" horiz-adv-x="654" 
d="M396 714q152 0 236 -80q-4 -25 -12.5 -69.5l-13.5 -69.5h-77l14 101q-59 41 -159 41q-81 0 -141.5 -34t-60.5 -99q0 -24 12 -41.5t37.5 -29t51 -18.5t64.5 -14q140 -22 191 -56q75 -48 57 -150q-18 -98 -99 -148.5t-187 -58.5l-24 -46l1 -1q60 1 78.5 -31.5t2.5 -74.5
q-17 -39 -54.5 -59.5t-80.5 -19.5q-80 2 -104 58l46 35q20 -35 69 -35q47 0 62 32q13 29 -13 45.5t-70 1.5l-15 13l40 81q-142 5 -226 94l25 139h79l-14 -98q66 -54 173 -54q36 0 69.5 5.5t67.5 18.5t57.5 39.5t29.5 63.5q4 20 -1.5 37t-14.5 28t-27.5 21t-32.5 15.5
t-39 11.5t-36 7.5t-34 5.5q-45 7 -76.5 15t-65.5 23t-53 35t-28 52t-2 74q11 68 61.5 114t110.5 63t126 17z" />
    <glyph glyph-name="scedilla" unicode="&#x15f;" horiz-adv-x="508" 
d="M290 500q103 0 179 -44l-23 -120h-70l9 73q-33 18 -107 18q-58 1 -97 -20t-39 -60q0 -30 29.5 -43.5t81.5 -19.5q108 -15 147 -42q52 -37 38 -110q-13 -66 -73.5 -104t-142.5 -42l-18 -37l1 -1q61 2 78.5 -27t2.5 -67q-16 -36 -51.5 -54.5t-75.5 -17.5q-77 2 -100 53
l44 31q18 -31 64 -31q45 0 59 29q8 16 -0.5 29.5t-28.5 17t-50 -5.5l-13 11l34 70q-86 7 -163 57l24 122h72l-10 -72q51 -30 127 -30q125 0 140 72q8 38 -24.5 55t-97.5 24q-38 5 -64 11.5t-54 19.5t-42.5 35.5t-14.5 53.5q0 43 21 76t55 52t73 28.5t80 9.5z" />
    <glyph glyph-name="Scaron" unicode="&#x160;" horiz-adv-x="657" 
d="M397 714q152 0 236 -80q-4 -25 -13 -69.5t-13 -69.5h-77l14 101q-59 41 -159 41q-81 0 -141.5 -34t-60.5 -99q0 -21 9.5 -37t22 -26t37.5 -18t43 -12t53 -10q48 -8 82.5 -16t72 -24.5t59 -39t32 -58t2.5 -81.5q-10 -56 -43 -96.5t-80.5 -61t-97.5 -29.5t-106 -9
q-157 0 -247 95l25 139h79l-14 -102q61 -50 173 -50q36 0 69.5 5.5t67.5 18.5t57.5 39.5t29.5 63.5q4 20 -1.5 37t-14.5 28t-27.5 21t-32.5 15.5t-39 11.5t-36 7.5t-34 5.5q-51 8 -88 19t-71.5 30.5t-52 51t-16.5 74.5q0 72 44 123t110.5 73t146.5 22zM279 896l2 7h87
l73 -76l107 76h85l-2 -7l-174 -126h-53z" />
    <glyph glyph-name="scaron" unicode="&#x161;" horiz-adv-x="510" 
d="M292 507q103 0 179 -44l-22 -120h-71l9 73q-35 19 -107 19q-58 1 -96 -20.5t-38 -60.5q0 -52 109 -65q41 -6 70.5 -14t62.5 -25t47 -48t5 -75q-27 -138 -225 -138q-116 0 -208 58l24 122h72l-11 -80q45 -26 128 -26q125 0 140 73q8 38 -25 56t-97 25q-176 25 -176 130
q0 43 21 75t56 50t73.5 26.5t79.5 8.5zM171 672l1 7h78l64 -74l95 74h75l-1 -7l-154 -123h-47z" />
    <glyph glyph-name="Tcommaaccent" unicode="&#x162;" horiz-adv-x="639" 
d="M334 622h-166l-22 -108h-77l33 186h578l-33 -186h-77l15 108h-165l-96 -542h90l-14 -80h-105l-18 -44q42 4 65 -12t23 -40.5t-9 -52.5q-19 -44 -64 -64.5t-92 -13t-73 37.5l36 45q18 -28 67.5 -27t64.5 34q13 29 -14.5 46t-70.5 2l-11 12l35 77h-101l14 80h91z" />
    <glyph glyph-name="tcommaaccent" unicode="&#x163;" horiz-adv-x="375" 
d="M164 629l84 9l-26 -145h153l-12 -70h-154l-42 -237q-13 -52 -1.5 -85t59.5 -33q33 0 72 17l12 -68q-56 -24 -100 -24q-11 0 -16 1l-19 -44q60 2 79.5 -27.5t2.5 -69.5q-15 -35 -50 -56t-74 -22q-37 -2 -68 14t-44 44l45 33q23 -37 64 -37q50 0 65 35q8 17 -0.5 30
t-29.5 16t-53 -6l-12 13l40 88q-44 17 -56 64t3 117l42 237h-99l12 70h99z" />
    <glyph glyph-name="Tcaron" unicode="&#x164;" horiz-adv-x="639" 
d="M256 895l1 7h85l72 -80l103 80h83l-1 -7l-170 -134h-53zM334 622h-166l-22 -108h-77l33 186h578l-33 -186h-77l15 108h-165l-96 -542h90l-14 -80h-267l14 80h91z" />
    <glyph glyph-name="tcaron" unicode="&#x165;" horiz-adv-x="411" 
d="M240 638h-1l-26 -145h110l-12 -70h-110l-46 -261q-8 -46 5.5 -70t56.5 -24q34 0 73 18l12 -69q-53 -23 -101 -24q-156 -3 -126 169l46 261h-88l12 70h88l24 136zM435 636h78l-89 -166h-61z" />
    <glyph glyph-name="Tbar" unicode="&#x166;" horiz-adv-x="642" 
d="M335 622h-166l-22 -108h-77l33 186h578l-33 -186h-77l15 108h-165l-44 -250h131l-13 -71h-131l-39 -221h90l-14 -80h-267l14 80h91l39 221h-121l13 71h121z" />
    <glyph glyph-name="tbar" unicode="&#x167;" horiz-adv-x="378" 
d="M34 306h76l21 117h-99l12 70h99l24 136l83 9l-25 -145h153l-12 -70h-154l-21 -117h115l-11 -60h-114l-15 -84q-8 -46 5.5 -70t55.5 -24q33 0 72 18l12 -69q-54 -23 -100 -24q-156 -3 -126 169l15 84h-77z" />
    <glyph glyph-name="Utilde" unicode="&#x168;" horiz-adv-x="812" 
d="M348 801l-2 2q19 44 56.5 63.5t76.5 5.5q6 -2 26.5 -13t25.5 -12q37 -16 58 26l51 -22q-20 -49 -57 -67t-72 -4q-6 2 -26.5 13.5t-24.5 12.5q-40 15 -64 -29zM664 620h-91l14 80h259l-14 -80h-83l-60 -341q-25 -141 -115.5 -216.5t-216.5 -75.5q-57 0 -105.5 18.5
t-83.5 53.5t-49.5 92t-1.5 128l60 341h-82l14 80h259l-14 -80h-91l-60 -341q-18 -100 30 -156t134 -56q85 0 152.5 56.5t84.5 156.5z" />
    <glyph glyph-name="utilde" unicode="&#x169;" horiz-adv-x="655" 
d="M219 629l-1 1q19 43 56 62.5t76 4.5q6 -2 26.5 -13t24.5 -12q39 -13 59 26l51 -23q-20 -47 -57 -64.5t-72 -3.5q-5 2 -25.5 14t-25.5 13q-40 13 -63 -29zM583 0h-148v76q-75 -81 -187 -83q-107 0 -150.5 60.5t-24.5 168.5l35 201h-78l13 72h160l-48 -272
q-14 -80 11.5 -117t108.5 -37q68 1 120 47t64 114l34 193h-83l13 72h165l-75 -421h83z" />
    <glyph glyph-name="Umacron" unicode="&#x16a;" horiz-adv-x="812" 
d="M365 848h277l-13 -70h-277zM664 620h-91l14 80h259l-14 -80h-83l-60 -341q-25 -141 -115.5 -216.5t-216.5 -75.5q-57 0 -105.5 18.5t-83.5 53.5t-49.5 92t-1.5 128l60 341h-82l14 80h259l-14 -80h-91l-60 -341q-18 -100 30 -156t134 -56q85 0 152.5 56.5t84.5 156.5z" />
    <glyph glyph-name="umacron" unicode="&#x16b;" horiz-adv-x="655" 
d="M245 676h266l-12 -68h-266zM583 0h-148v76q-75 -81 -187 -83q-107 0 -150.5 60.5t-24.5 168.5l35 201h-78l13 72h160l-48 -272q-14 -80 11.5 -117t108.5 -37q68 1 120 47t64 114l34 193h-83l13 72h165l-75 -421h83z" />
    <glyph glyph-name="Ubreve" unicode="&#x16c;" horiz-adv-x="812" 
d="M665 904h-1q-8 -63 -55 -97.5t-113 -34.5t-101 34.5t-22 97.5h71q-11 -68 63 -68q38 0 59.5 19t26.5 49h72zM664 620h-91l14 80h259l-14 -80h-83l-60 -341q-25 -141 -115.5 -216.5t-216.5 -75.5q-57 0 -105.5 18.5t-83.5 53.5t-49.5 92t-1.5 128l60 341h-82l14 80h259
l-14 -80h-91l-60 -341q-18 -100 30 -156t134 -56q85 0 152.5 56.5t84.5 156.5z" />
    <glyph glyph-name="ubreve" unicode="&#x16d;" horiz-adv-x="655" 
d="M506 697l-2 -1q-7 -60 -52 -94t-105 -34q-61 0 -93.5 34.5t-18.5 94.5h66q-6 -29 8.5 -48.5t49.5 -19.5t55 19t26 49h66zM583 0h-148v76q-75 -81 -187 -83q-107 0 -150.5 60.5t-24.5 168.5l35 201h-78l13 72h160l-48 -272q-14 -80 11.5 -117t108.5 -37q68 1 120 47
t64 114l34 193h-83l13 72h165l-75 -421h83z" />
    <glyph glyph-name="Uring" unicode="&#x16e;" horiz-adv-x="812" 
d="M386 835v-1q8 45 46.5 71t85.5 26q42 0 71 -22t29 -61q0 -51 -40.5 -81t-93.5 -30q-49 0 -77.5 26t-20.5 72zM509 884h1q-45 0 -62 -37q-15 -32 8 -51q13 -11 35 -11q47 0 64 37q14 32 -10 51q-13 11 -36 11zM664 620h-91l14 80h259l-14 -80h-83l-60 -341
q-25 -141 -115.5 -216.5t-216.5 -75.5q-57 0 -105.5 18.5t-83.5 53.5t-49.5 92t-1.5 128l60 341h-82l14 80h259l-14 -80h-91l-60 -341q-18 -100 30 -156t134 -56q85 0 152.5 56.5t84.5 156.5z" />
    <glyph glyph-name="uring" unicode="&#x16f;" horiz-adv-x="655" 
d="M246 641h-1q8 45 45.5 71t82.5 26q40 0 68.5 -22t28.5 -61q0 -51 -39 -80.5t-92 -29.5q-47 0 -74 25.5t-19 70.5zM363 691h1q-43 0 -59 -36q-15 -32 9 -51q12 -10 33 -10q45 0 61 36q14 32 -10 51q-13 10 -35 10zM583 0h-148v76q-75 -81 -187 -83q-107 0 -150.5 60.5
t-24.5 168.5l35 201h-78l13 72h160l-48 -272q-14 -80 11.5 -117t108.5 -37q68 1 120 47t64 114l34 193h-83l13 72h165l-75 -421h83z" />
    <glyph glyph-name="Uhungarumlaut" unicode="&#x170;" horiz-adv-x="812" 
d="M459 894h89l-119 -121h-69zM605 893h90l-119 -120h-68zM664 620h-91l14 80h259l-14 -80h-83l-60 -341q-25 -141 -115.5 -216.5t-216.5 -75.5q-57 0 -105.5 18.5t-83.5 53.5t-49.5 92t-1.5 128l60 341h-82l14 80h259l-14 -80h-91l-60 -341q-18 -100 30 -156t134 -56
q85 0 152.5 56.5t84.5 156.5z" />
    <glyph glyph-name="uhungarumlaut" unicode="&#x171;" horiz-adv-x="655" 
d="M328 701h86l-1 -2l-111 -112h-66zM469 701h86l-1 -2l-113 -113h-66zM583 0h-148v76q-75 -81 -187 -83q-107 0 -150.5 60.5t-24.5 168.5l35 201h-78l13 72h160l-48 -272q-14 -80 11.5 -117t108.5 -37q68 1 120 47t64 114l34 193h-83l13 72h165l-75 -421h83z" />
    <glyph glyph-name="Uogonek" unicode="&#x172;" horiz-adv-x="813" 
d="M665 620h-91l14 80h259l-14 -80h-83l-60 -341q-18 -101 -75 -170t-137 -100q-34 -22 -47 -48t-7 -46q7 -26 42 -28t86 28l6 -62q-34 -25 -79.5 -33.5t-85 8t-48.5 57.5q-5 22 5.5 51t30.5 51q-5 0 -14 -0.5t-13 -0.5q-120 0 -190.5 77t-45.5 216l60 341h-82l14 80h259
l-14 -80h-91l-60 -341q-18 -100 30 -156t134 -56q85 0 152.5 56.5t84.5 156.5z" />
    <glyph glyph-name="uogonek" unicode="&#x173;" horiz-adv-x="655" 
d="M583 0h-66q-30 -23 -45.5 -49.5t-9.5 -45.5q8 -26 39.5 -30.5t77.5 18.5l5 -54q-27 -14 -57 -20t-58 -4t-49.5 18t-27.5 44q-13 59 63 123h-10l-6 79q-77 -84 -191 -86q-107 0 -150.5 60.5t-24.5 168.5l35 201h-78l13 72h160l-48 -272q-27 -153 123 -153q68 1 118.5 46.5
t62.5 113.5l34 193h-83l13 72h165l-75 -421h83z" />
    <glyph glyph-name="Wcircumflex" unicode="&#x174;" horiz-adv-x="1150" 
d="M475 771l172 133h54l126 -133l-1 -7h-89l-75 78l-99 -78h-89zM141 620h-74l14 80h254l-14 -80h-82l79 -500l294 566h56l96 -566l250 500h-83l14 80h259l-14 -80h-73l-326 -621h-90l-94 507l-138 -275l-123 -232h-97z" />
    <glyph glyph-name="wcircumflex" unicode="&#x175;" horiz-adv-x="904" 
d="M329 576l165 128h52l120 -128l-1 -6h-84l-71 76l-97 -76h-85zM37 423l13 72h224l-13 -72h-65l52 -338l199 410h66l65 -410l163 338h-71l13 72h236l-13 -72h-72l-223 -425h-96l-56 359l-78 -172l-94 -187h-103l-73 425h-74z" />
    <glyph glyph-name="Ycircumflex" unicode="&#x176;" horiz-adv-x="708" 
d="M272 783l167 129h52l121 -129l-1 -6h-86l-71 76l-97 -76h-86zM326 620h-83l115 -253l125 151l89 102h-80l14 80h255l-14 -80h-71l-284 -336l-36 -205h90l-14 -79h-268l14 79h90l36 205l-162 336h-71l14 80h255z" />
    <glyph glyph-name="ycircumflex" unicode="&#x177;" horiz-adv-x="630" 
d="M190 578l164 129h51l118 -129l-1 -6h-85l-69 75l-95 -75h-84zM499 -12v-1q-21 -125 -92.5 -183t-179.5 -58q-102 0 -152.5 48.5t-41.5 136.5h79q-2 -57 27 -83t100 -26q66 0 117 42.5t65 123.5l15 88q-71 -83 -186 -83q-97 0 -145.5 61.5t-30.5 167.5l35 200h-81l13 73
h163l-48 -272q-28 -155 122 -155q67 1 118 47.5t63 114.5l34 192h-83l13 73h165z" />
    <glyph glyph-name="Ydieresis" unicode="&#x178;" horiz-adv-x="708" 
d="M248 796q0 29 19.5 45.5t44.5 16.5q19 0 32 -11t13 -32q0 -27 -19 -44t-43 -18q-19 -1 -33 10.5t-14 32.5zM527 796q0 29 19.5 45.5t44.5 16.5q19 0 32 -11.5t13 -32.5q0 -29 -19.5 -45t-44.5 -16q-19 0 -32 11t-13 32zM326 620h-83l115 -253l125 151l89 102h-80l14 80
h255l-14 -80h-71l-284 -336l-36 -205h90l-14 -79h-268l14 79h90l36 205l-162 336h-71l14 80h255z" />
    <glyph glyph-name="Zacute" unicode="&#x179;" horiz-adv-x="616" 
d="M348 775l96 127h101v-3l-123 -129h-75zM204 619l-20 -102h-81l32 183h490l-6 -38l-494 -579h326l23 114h79l-35 -197h-532l8 46l488 573h-278z" />
    <glyph glyph-name="zacute" unicode="&#x17a;" horiz-adv-x="493" 
d="M246 579l1 5l91 116h97v-3l-117 -118h-72zM88 495h382l-8 -45l-337 -375h207l19 90h73l-29 -165h-409l5 31l353 391h-191l-18 -75h-73z" />
    <glyph glyph-name="Zdotaccent" unicode="&#x17b;" horiz-adv-x="616" 
d="M354 819q0 29 20 46t46 18q21 1 35 -11.5t14 -34.5q0 -29 -20.5 -46.5t-46.5 -17.5q-21 0 -34.5 12t-13.5 34zM204 619l-20 -102h-81l32 183h490l-6 -38l-494 -579h326l23 114h79l-35 -197h-532l8 46l488 573h-278z" />
    <glyph glyph-name="zdotaccent" unicode="&#x17c;" horiz-adv-x="493" 
d="M368 643q0 -29 -19.5 -45.5t-45.5 -16.5q-19 0 -32 11.5t-13 32.5q0 29 20 45.5t45 16.5q19 0 32 -11.5t13 -32.5zM88 495h382l-8 -45l-337 -375h207l19 90h73l-29 -165h-409l5 31l353 391h-191l-18 -75h-73z" />
    <glyph glyph-name="Zcaron" unicode="&#x17d;" horiz-adv-x="616" 
d="M204 619l-20 -102h-81l32 183h490l-6 -38l-494 -579h326l23 114h79l-35 -197h-532l8 46l488 573h-278zM250 887l2 6h86l72 -77l106 77h84l-2 -6l-171 -130h-53z" />
    <glyph glyph-name="zcaron" unicode="&#x17e;" horiz-adv-x="493" 
d="M88 495h382l-8 -45l-337 -375h207l19 90h73l-29 -165h-409l5 31l353 391h-191l-18 -75h-73zM154 681l2 7h82l68 -77l99 77h79l-2 -7l-161 -127h-50z" />
    <glyph glyph-name="longs" unicode="&#x17f;" horiz-adv-x="325" 
d="M437 692l-34 -68q-24 11 -48 11q-41 0 -69 -27t-38 -80l-80 -455h97l-13 -72h-259l13 72h81l61 347h-97l12 69h97l7 39q15 85 67 131.5t132 46.5q37 0 71 -14z" />
    <glyph glyph-name="florin" unicode="&#x192;" horiz-adv-x="432" 
d="M155 417v-1h-97l13 72h97l7 39q15 85 67 132t130 47q59 0 106 -36l-45 -61q-37 25 -71 25q-87 0 -106 -107l-7 -39h155l-13 -72h-154l-74 -418q-15 -86 -64 -133t-126 -47q-51 0 -97 35l44 60q27 -24 61 -24q81 0 100 110z" />
    <glyph glyph-name="Aringacute" unicode="&#x1fa;" horiz-adv-x="810" 
d="M463 859l93 85h107v-3l-121 -86h-79v4zM495 786q41 0 47 -29q6 -26 -22 -44q-16 -11 -40 -11q-40 0 -46 29q-5 27 23 45q16 10 38 10zM418 675l-374 -595h-68l-14 -80h247l14 80h-85l77 124h359q3 -11 14 -55t18 -69h-87l-14 -80h248l14 80h-68l-162 595q61 27 61 84
q0 35 -27.5 55t-66.5 20q-48 0 -86 -27t-38 -72q0 -42 38 -60zM467 617l86 -335h-290z" />
    <glyph glyph-name="aringacute" unicode="&#x1fb;" horiz-adv-x="680" 
d="M361 744l89 93h97l-1 -2l-112 -94h-73v3zM274 628v-1q-7 -41 18 -64.5t70 -23.5q49 0 85 27.5t36 74.5q0 35 -26.5 55t-63.5 20q-43 0 -77.5 -23.5t-41.5 -64.5zM384 671h-1q39 0 46 -30q6 -30 -23 -49q-15 -10 -37 -10q-39 0 -44 30t22 48q16 11 37 11zM523 73h82
l-12 -73h-155l8 76q-34 -45 -90 -66.5t-112 -21.5q-95 0 -154 57.5t-59 155.5q0 135 90 218.5t215 83.5q55 0 102 -26t64 -70l17 88h159l-13 -75h-80zM262 63q79 0 139 53.5t75 125.5q16 77 -23.5 129.5t-128.5 52.5q-86 0 -148 -58t-62 -153q0 -70 37.5 -110t110.5 -40z
" />
    <glyph glyph-name="AEacute" unicode="&#x1fc;" horiz-adv-x="967" 
d="M593 773l98 128h100l-1 -3l-123 -130h-75zM-30 80h75l439 541h-81l14 79h557l-32 -186h-78l15 106h-237l-39 -223h239l-14 -81h-239l-42 -234h252l22 107h78l-33 -189h-499l14 80h83l23 129h-240l-104 -129h77l-14 -80h-250zM499 279l45 255l14 70l-256 -325h197z" />
    <glyph glyph-name="aeacute" unicode="&#x1fd;" horiz-adv-x="1012" 
d="M517 585l90 119h95v-2l-115 -122h-70v5zM503 404l-1 2q-21 46 -66 72t-101 26q-124 0 -214 -83.5t-90 -217.5q0 -98 59 -155.5t154 -57.5q55 0 109.5 25.5t91.5 74.5l-16 -90h64l17 84q43 -93 169 -93q61 0 123 23t104 65l-45 50q-29 -29 -76.5 -45.5t-91.5 -16.5
q-72 0 -114.5 40.5t-37.5 108.5h419q31 95 9.5 159t-73.5 97t-123 33q-123 0 -205 -96l15 85h-64zM554 286v1q23 69 78 108t122 39q74 0 112.5 -38.5t28.5 -109.5h-341zM327 430v1q104 0 140 -80q31 -70 -6 -153q-38 -86 -122 -116q-36 -13 -75 -13q-66 0 -107.5 41.5
t-41.5 109.5q0 92 63 151t149 59z" />
    <glyph glyph-name="Oslashacute" unicode="&#x1fe;" horiz-adv-x="809" 
d="M453 789l98 128h100l-1 -3l-122 -129h-75v4zM150 49v1q-48 38 -72.5 102t-24.5 136q0 79 29 154t82 136t135.5 98t180.5 37q85 0 149 -32l62 82h88l-92 -119q58 -50 78.5 -128.5t4.5 -167.5q-13 -70 -46 -134t-84.5 -115.5t-126 -82t-161.5 -30.5q-82 0 -144 27l-67 -89
h-86zM574 610q-47 22 -107 22q-131 0 -215.5 -83.5t-103.5 -200.5q-12 -66 3 -125t56 -97zM265 87q45 -17 103 -17q100 0 175.5 50.5t110.5 123.5t35 153q0 114 -58 173z" />
    <glyph glyph-name="oslashacute" unicode="&#x1ff;" horiz-adv-x="593" 
d="M310 585l87 115h91l-1 -2l-110 -117h-68zM95 -59l1 -1l52 68q43 -17 96 -17q126 0 214 85t88 212q0 105 -59 161l74 97h-80l-48 -63q-45 20 -100 20q-126 0 -214.5 -86.5t-88.5 -213.5q0 -106 64 -161l-78 -101h79zM149 113v-1q-36 36 -36 103q0 88 61 150t147 62
q32 0 60 -13zM431 374h1q33 -39 33 -101q0 -88 -60 -147.5t-147 -59.5q-33 0 -56 10z" />
    <glyph glyph-name="Scommaaccent" unicode="&#x218;" horiz-adv-x="657" 
d="M243 -262h-58l39 81l-1 1q-29 8 -29 37q0 42 40 56q38 13 62 -9q13 -13 13 -32q0 -7 -8.5 -25t-28 -53.5t-29.5 -55.5zM397 714q152 0 236 -80q-4 -25 -13 -69.5t-13 -69.5h-77l14 101q-59 41 -159 41q-81 0 -141.5 -34t-60.5 -99q0 -21 9.5 -37t22 -26t37.5 -18t43 -12
t53 -10q48 -8 82.5 -16t72 -24.5t59 -39t32 -58t2.5 -81.5q-10 -56 -43 -96.5t-80.5 -61t-97.5 -29.5t-106 -9q-157 0 -247 95l25 139h79l-14 -102q61 -50 173 -50q36 0 69.5 5.5t67.5 18.5t57.5 39.5t29.5 63.5q4 20 -1.5 37t-14.5 28t-27.5 21t-32.5 15.5t-39 11.5
t-36 7.5t-34 5.5q-51 8 -88 19t-71.5 30.5t-52 51t-16.5 74.5q0 72 44 123t110.5 73t146.5 22z" />
    <glyph glyph-name="scommaaccent" unicode="&#x219;" horiz-adv-x="510" 
d="M180 -244h-54l35 73v-1q-28 7 -28 36q0 32 26.5 47.5t53.5 5.5t27 -39q0 -11 -18 -48.5t-42 -73.5zM292 507q103 0 179 -44l-22 -120h-71l9 73q-35 19 -107 19q-58 1 -96 -20.5t-38 -60.5q0 -52 109 -65q41 -6 70.5 -14t62.5 -25t47 -48t5 -75q-27 -138 -225 -138
q-116 0 -208 58l24 122h72l-11 -80q45 -26 128 -26q125 0 140 73q8 38 -25 56t-97 25q-176 25 -176 130q0 43 21 75t56 50t73.5 26.5t79.5 8.5z" />
    <glyph glyph-name="uni021A" unicode="&#x21a;" horiz-adv-x="639" 
d="M242 -242h-60l39 77l-1 1q-31 7 -31 37q0 41 41 56q38 14 64 -7q14 -12 14 -33q0 -5 -3.5 -14t-11 -23l-14.5 -27l-18.5 -33t-18.5 -34zM334 622h-166l-22 -108h-77l33 186h578l-33 -186h-77l15 108h-165l-96 -542h90l-14 -80h-267l14 80h91z" />
    <glyph glyph-name="uni021B" unicode="&#x21b;" horiz-adv-x="375" 
d="M248 638l-26 -145h153l-12 -70h-154l-46 -261q-8 -46 5.5 -70t55.5 -24q34 0 73 18l11 -69q-53 -23 -100 -24q-156 -3 -126 169l46 261h-99l12 70h99l24 136zM126 -175l-1 -2q-25 7 -25 34q0 41 38 54q33 11 53 -10q10 -11 10 -28q0 -6 -8.5 -24.5t-27.5 -55t-27 -53.5
h-52z" />
    <glyph glyph-name="dotlessj" unicode="&#x237;" horiz-adv-x="268" 
d="M56 494h170l-98 -557q-16 -89 -57.5 -135t-120.5 -46q-52 0 -93 27l39 66q31 -17 64 -17q42 1 60 26.5t27 78.5l85 484h-89z" />
    <glyph glyph-name="circumflex" unicode="&#x2c6;" horiz-adv-x="423" 
d="M299 707h53l120 -134l-1 -7h-85l-72 79l-99 -79h-85l1 7z" />
    <glyph glyph-name="caron" unicode="&#x2c7;" horiz-adv-x="404" 
d="M149 694l2 7h85l71 -81l104 81h83l-2 -7l-169 -135h-52z" />
    <glyph glyph-name="breve" unicode="&#x2d8;" horiz-adv-x="349" 
d="M428 700l-2 -3q-8 -63 -53.5 -98.5t-106.5 -34.5q-62 0 -95 36t-19 99h66q-5 -31 9 -51t50 -20q35 0 56 20.5t27 51.5h68z" />
    <glyph glyph-name="dotaccent" unicode="&#x2d9;" horiz-adv-x="202" 
d="M150 645q0 30 20.5 46.5t45.5 16.5q19 0 31.5 -11.5t12.5 -32.5q0 -30 -20 -46.5t-45 -16.5q-19 0 -32 11.5t-13 32.5z" />
    <glyph glyph-name="ring" unicode="&#x2da;" horiz-adv-x="360" 
d="M154 609q10 51 50 79.5t87 28.5q42 0 71.5 -24t29.5 -67q0 -57 -42 -91t-98 -34q-50 0 -78.5 28.5t-19.5 79.5zM282 664q-31 0 -50 -19.5t-19 -45.5q0 -20 13 -32.5t37 -12.5q28 0 46 15t23 38t-8 40t-42 17z" />
    <glyph glyph-name="ogonek" unicode="&#x2db;" horiz-adv-x="393" 
d="M233 -58l-1 1q-52 10 -92.5 -12.5t-34.5 -57.5q2 -15 16 -24.5t36 -8.5q44 2 79 38l41 -31q-46 -63 -128 -67q-45 -1 -75 18.5t-35 52.5q-4 22 5 46.5t29.5 47t60.5 33.5t91 4z" />
    <glyph glyph-name="tilde" unicode="&#x2dc;" horiz-adv-x="358" 
d="M146 659l-1 3q20 46 57 66t76 5q6 -1 26.5 -13t25.5 -14q37 -16 59 27l50 -23q-20 -50 -57 -68t-72 -3q-6 2 -26.5 13.5t-24.5 12.5q-39 15 -64 -30z" />
    <glyph glyph-name="hungarumlaut" unicode="&#x2dd;" horiz-adv-x="389" 
d="M124 576l102 125h94l-1 -2l-122 -123h-73zM277 575l103 126h94l-1 -2l-124 -124h-72z" />
    <glyph glyph-name="commaaccentcomb" unicode="&#x326;" horiz-adv-x="0" 
d="M191 -179h1q-28 7 -28 37q0 42 39 56q36 13 58 -10q12 -12 12 -31q0 -7 -9 -26t-29.5 -57.5t-30.5 -59.5h-55z" />
    <glyph glyph-name="_375" unicode="&#x394;" horiz-adv-x="693" 
d="M679 0h-687l437 700h59zM441 602l-324 -530h463z" />
    <glyph glyph-name="Omega" unicode="&#x3a9;" horiz-adv-x="819" 
d="M46 76h122q-54 36 -82 96t-28 131q0 106 52.5 199t151.5 152t221 59q142 0 221 -85.5t79 -214.5q0 -106 -54 -194t-156 -144h123l-13 -76h-250l14 78q113 30 180.5 123t67.5 200q0 99 -57.5 165t-168.5 66q-99 0 -174.5 -48.5t-112.5 -121.5t-37 -155q0 -81 39 -144
t113 -84l-14 -78h-250z" />
    <glyph glyph-name="mu" unicode="&#x3bc;" horiz-adv-x="620" 
d="M-14 -221v1l124 705h86l-50 -281q-12 -70 25.5 -111t97.5 -41t110 42t64 122l47 268h86l-85 -484h-77l4 61q-28 -40 -73.5 -61t-90.5 -21q-113 0 -133 83l-50 -283h-85z" />
    <glyph glyph-name="pi" unicode="&#x3c0;" horiz-adv-x="666" 
d="M79 0l-2 -1l75 423h-114l13 71h620l-13 -71h-116l-48 -274q-9 -51 8 -73t73 -13l-7 -65q-94 -17 -132 23.5t-22 127.5l48 275h-228l-74 -423h-81z" />
    <glyph glyph-name="Wgrave" unicode="&#x1e80;" horiz-adv-x="1150" 
d="M555 888v2h98l41 -124l-1 -5h-74zM141 620h-74l14 80h254l-14 -80h-82l79 -500l294 566h56l96 -566l250 500h-83l14 80h259l-14 -80h-73l-326 -621h-90l-94 507l-138 -275l-123 -232h-97z" />
    <glyph glyph-name="wgrave" unicode="&#x1e81;" horiz-adv-x="904" 
d="M395 687l1 3h93l43 -116l-1 -5h-69zM37 423l13 72h224l-13 -72h-65l52 -338l199 410h66l65 -410l163 338h-71l13 72h236l-13 -72h-72l-223 -425h-96l-56 359l-78 -172l-94 -187h-103l-73 425h-74z" />
    <glyph glyph-name="Wacute" unicode="&#x1e82;" horiz-adv-x="1150" 
d="M799 890l-1 -2l-109 -127h-74l1 5l85 124h98zM141 620h-74l14 80h254l-14 -80h-82l79 -500l294 566h56l96 -566l250 500h-83l14 80h259l-14 -80h-73l-326 -621h-90l-94 507l-138 -275l-123 -232h-97z" />
    <glyph glyph-name="wacute" unicode="&#x1e83;" horiz-adv-x="904" 
d="M454 579l79 115h92v-3l-103 -116h-69zM37 423l13 72h224l-13 -72h-65l52 -338l199 410h66l65 -410l163 338h-71l13 72h236l-13 -72h-72l-223 -425h-96l-56 359l-78 -172l-94 -187h-103l-73 425h-74z" />
    <glyph glyph-name="Wdieresis" unicode="&#x1e84;" horiz-adv-x="1150" 
d="M465 811q0 29 19.5 45t45.5 17q21 1 35 -11t14 -34q0 -29 -20.5 -45.5t-46.5 -16.5q-20 0 -33.5 12t-13.5 33zM748 811q0 29 20.5 45.5t46.5 16.5q20 0 34 -11.5t14 -32.5q0 -29 -20.5 -45.5t-46.5 -16.5q-21 0 -34.5 11.5t-13.5 32.5zM141 620h-74l14 80h254l-14 -80
h-82l79 -500l294 566h56l96 -566l250 500h-83l14 80h259l-14 -80h-73l-326 -621h-90l-94 507l-138 -275l-123 -232h-97z" />
    <glyph glyph-name="wdieresis" unicode="&#x1e85;" horiz-adv-x="904" 
d="M332 631q0 29 19.5 45.5t44.5 16.5q19 0 32 -11.5t13 -32.5q0 -28 -19.5 -44.5t-43.5 -16.5q-19 0 -32.5 11t-13.5 32zM584 630q0 28 19 45t43 17q19 0 32 -11t13 -32q0 -28 -18.5 -44.5t-42.5 -16.5q-19 0 -32.5 11t-13.5 31zM37 423l13 72h224l-13 -72h-65l52 -338
l199 410h66l65 -410l163 338h-71l13 72h236l-13 -72h-72l-223 -425h-96l-56 359l-78 -172l-94 -187h-103l-73 425h-74z" />
    <glyph glyph-name="Ygrave" unicode="&#x1ef2;" horiz-adv-x="708" 
d="M345 874v2h100l36 -114l-1 -5h-75zM326 620h-83l115 -253l125 151l89 102h-80l14 80h255l-14 -80h-71l-284 -336l-36 -205h90l-14 -79h-268l14 79h90l36 205l-162 336h-71l14 80h255z" />
    <glyph glyph-name="ygrave" unicode="&#x1ef3;" horiz-adv-x="630" 
d="M264 694l1 2h96l40 -112l-1 -5h-71zM499 -12v-1q-21 -125 -92.5 -183t-179.5 -58q-102 0 -152.5 48.5t-41.5 136.5h79q-2 -57 27 -83t100 -26q66 0 117 42.5t65 123.5l15 88q-71 -83 -186 -83q-97 0 -145.5 61.5t-30.5 167.5l35 200h-81l13 73h163l-48 -272
q-28 -155 122 -155q67 1 118 47.5t63 114.5l34 192h-83l13 73h165z" />
    <glyph glyph-name="endash" unicode="&#x2013;" horiz-adv-x="597" 
d="M73 323h458l-14 -77h-458z" />
    <glyph glyph-name="emdash" unicode="&#x2014;" horiz-adv-x="699" 
d="M73 323h560l-14 -77h-560z" />
    <glyph glyph-name="quoteleft" unicode="&#x2018;" horiz-adv-x="233" 
d="M257 701l-80 -191h-88l101 191h67z" />
    <glyph glyph-name="quoteright" unicode="&#x2019;" horiz-adv-x="232" 
d="M92 506l82 195h88l-102 -195h-68z" />
    <glyph glyph-name="quotesinglbase" unicode="&#x201a;" horiz-adv-x="328" 
d="M17 -115l80 194h88l-101 -194h-67z" />
    <glyph glyph-name="quotedblleft" unicode="&#x201c;" horiz-adv-x="380" 
d="M257 698l-81 -193h-88l102 193h67zM403 698l-82 -193h-88l102 193h68z" />
    <glyph glyph-name="quotedblright" unicode="&#x201d;" horiz-adv-x="375" 
d="M93 511l81 190h88l-101 -190h-68zM239 511l80 190h88l-101 -190h-67z" />
    <glyph glyph-name="quotedblbase" unicode="&#x201e;" horiz-adv-x="473" 
d="M16 -115l81 194h88l-101 -194h-68zM162 -115l80 194h88l-101 -194h-67z" />
    <glyph glyph-name="dagger" unicode="&#x2020;" horiz-adv-x="564" 
d="M556 432h-206l-98 -557h-87l98 557h-207l13 75h207l34 193h87l-34 -193h206z" />
    <glyph glyph-name="daggerdbl" unicode="&#x2021;" horiz-adv-x="602" 
d="M576 433h-207l-45 -253h207l-13 -75h-207l-41 -234h-87l41 234h-207l13 75h207l45 253h-207l13 75h207l34 192h87l-34 -192h207z" />
    <glyph glyph-name="bullet" unicode="&#x2022;" horiz-adv-x="386" 
d="M172 171v1q-43 0 -69 25t-26 66q0 55 39 91.5t94 36.5q41 0 67 -25.5t26 -66.5q0 -56 -39 -92t-92 -36z" />
    <glyph glyph-name="ellipsis" unicode="&#x2026;" horiz-adv-x="643" 
d="M17 36q0 29 20 45.5t45 16.5q19 0 32 -11.5t13 -32.5q0 -28 -19 -45.5t-43 -17.5q-20 0 -34 11.5t-14 33.5zM226 36q0 29 20 45.5t45 16.5q19 0 32 -11.5t13 -32.5q0 -28 -19 -45.5t-43 -17.5q-20 0 -34 11.5t-14 33.5zM432 36q0 29 20 45.5t45 16.5q19 0 32 -11.5
t13 -32.5q0 -28 -19 -45.5t-43 -17.5q-20 0 -34 11.5t-14 33.5z" />
    <glyph glyph-name="perthousand" unicode="&#x2030;" horiz-adv-x="1105" 
d="M265 709q94 0 123 -72q26 -63 -11 -134q-41 -76 -125 -94q-20 -4 -41 -4q-93 0 -123 72q-26 63 12 134q41 77 125 94q20 4 40 4zM620 702h94l-575 -702h-95zM253 644h-1q-62 0 -91 -54q-25 -46 -3 -85q18 -34 66 -34q61 0 90 54q25 46 4 85q-18 34 -65 34zM550 297h-1
q94 0 123 -72q26 -63 -11 -134q-41 -76 -125 -94q-20 -4 -41 -4q-93 0 -123 72q-25 63 12 134q41 77 126 94q20 4 40 4zM916 297h-1q94 0 123 -72q26 -63 -11 -134q-41 -76 -125 -94q-20 -4 -41 -4q-93 0 -123 72q-25 63 12 134q41 77 126 94q20 4 40 4zM537 233
q-62 0 -91 -54q-26 -48 -5 -87q19 -34 65 -34q62 0 91 54q26 48 5 87q-19 34 -65 34zM904 233h1q-62 0 -91 -54q-26 -48 -5 -87q19 -34 65 -34q61 0 91 53q26 47 5 87q-19 35 -66 35z" />
    <glyph glyph-name="guilsinglleft" unicode="&#x2039;" horiz-adv-x="313" 
d="M43 298l176 220h88l-175 -220l98 -221h-88z" />
    <glyph glyph-name="guilsinglright" unicode="&#x203a;" horiz-adv-x="314" 
d="M183 297l-98 220h88l99 -220l-177 -221h-88z" />
    <glyph glyph-name="fraction" unicode="&#x2044;" horiz-adv-x="130" 
d="M-216 -3l504 708h77l-504 -708h-77z" />
    <glyph glyph-name="zerosuperior" unicode="&#x2070;" horiz-adv-x="377" 
d="M100 662v1q17 97 100 139q70 36 136 10q69 -27 74 -104q1 -22 -3 -46l-10 -53q-18 -98 -101 -140q-71 -37 -137 -11q-68 28 -72 105q-2 22 3 46zM154 609q-11 -66 36 -90q42 -20 87 8q42 27 52 82l10 54q13 69 -34 93q-42 21 -87 -9q-43 -27 -54 -84z" />
    <glyph glyph-name="foursuperior" unicode="&#x2074;" horiz-adv-x="353" 
d="M372 817l-41 -229h43l-10 -59h-43l-13 -72h-65l13 72h-192l7 54l213 234h88zM266 588l30 166l-153 -166h123z" />
    <glyph glyph-name="fivesuperior" unicode="&#x2075;" horiz-adv-x="351" 
d="M243 686l1 -2q61 0 94.5 -25t33.5 -72q0 -65 -47 -102t-122 -37q-61 0 -97.5 25.5t-26.5 83.5h64q-5 -26 15 -38t54 -12q47 0 69 19.5t22 50.5q0 51 -70 51h-134l33 188h259l-10 -58h-196l-13 -72h71z" />
    <glyph glyph-name="sixsuperior" unicode="&#x2076;" horiz-adv-x="366" 
d="M170 649l-1 -1q30 29 87 29q56 0 92 -22t36 -73q0 -68 -50.5 -101.5t-117.5 -33.5q-60 0 -98 30t-28 87l25 139q11 58 57.5 87.5t105.5 29.5q61 0 96.5 -25t29.5 -74h-65q3 41 -71 41q-77 0 -88 -59zM226 503v-1q36 0 63.5 16.5t27.5 51.5q0 25 -20.5 38t-49.5 13
q-37 0 -65.5 -17.5t-28.5 -50.5q0 -26 21 -38t52 -12z" />
    <glyph glyph-name="sevensuperior" unicode="&#x2077;" horiz-adv-x="320" 
d="M98 702l20 114h278l-1 -29l-214 -332h-75l195 300h-128l-13 -53h-62z" />
    <glyph glyph-name="eightsuperior" unicode="&#x2078;" horiz-adv-x="374" 
d="M77 552l2 1q5 30 28 53.5t55 32.5q-49 18 -49 66q0 57 49.5 86.5t114.5 29.5q54 0 92 -22t38 -67q0 -66 -76 -94q24 -8 39 -29t15 -46q0 -63 -52 -92t-123 -29q-63 0 -103 26t-30 84zM339 717v-1q4 26 -17.5 38.5t-51.5 12.5q-33 0 -60.5 -14t-27.5 -43q0 -44 70 -44
q78 0 87 51zM317 553v-2q0 28 -21 43t-54 15q-37 0 -66.5 -16t-29.5 -47q0 -23 23 -35.5t53 -12.5q34 0 64 14.5t31 40.5z" />
    <glyph glyph-name="ninesuperior" unicode="&#x2079;" horiz-adv-x="368" 
d="M371 565l2 -1q-10 -58 -57 -87.5t-106 -29.5q-61 0 -97 25t-30 74h65q-3 -41 71 -41q77 0 88 59l10 55q-33 -29 -87 -29q-128 0 -128 96q0 46 27 78t63.5 44.5t78.5 12.5q60 0 97.5 -29.5t27.5 -86.5zM261 763q-36 0 -63.5 -16.5t-27.5 -50.5q0 -25 20.5 -38t50.5 -13
q37 0 65 17.5t28 50.5q0 26 -21 38t-52 12z" />
    <glyph glyph-name="zeroinferior" unicode="&#x2080;" horiz-adv-x="380" 
d="M6 122q17 97 99 139q71 36 136 10q69 -27 75 -105q1 -21 -3 -44l-9 -53q-16 -97 -99 -140q-70 -36 -136 -10q-69 28 -75 106q-1 21 3 44zM60 68q-11 -66 36 -90q42 -20 87 8q42 27 52 82l10 53q13 69 -34 93q-42 21 -87 -9q-43 -27 -54 -84z" />
    <glyph glyph-name="oneinferior" unicode="&#x2081;" horiz-adv-x="246" 
d="M-24 -28h63l41 229l-57 -13l11 58l125 29l-54 -303h64l-10 -58h-193z" />
    <glyph glyph-name="twoinferior" unicode="&#x2082;" horiz-adv-x="362" 
d="M213 28h61l-20 -112h-284l15 87q10 57 51.5 85t98.5 33q22 2 32.5 3.5t25.5 5.5t22.5 9.5t13 16t5.5 25.5q0 45 -68 45q-73 0 -84 -52h-64q7 39 33 64.5t57.5 35t67.5 9.5q55 0 89.5 -22t34.5 -70q0 -32 -11.5 -55.5t-25 -35t-40.5 -19.5t-39 -9.5t-41 -4.5
q-17 -2 -28 -4t-26 -8t-24.5 -19.5t-12.5 -33.5l-4 -25h154z" />
    <glyph glyph-name="threeinferior" unicode="&#x2083;" horiz-adv-x="357" 
d="M101 86l-3 16l104 120h-114l-9 -40h-57l17 97h271l-3 -19l-113 -125q83 -5 83 -85q0 -40 -15.5 -69t-41.5 -44t-54.5 -22t-59.5 -7q-58 0 -95 27.5t-28 84.5h66q-2 -29 18.5 -39.5t50.5 -10.5q90 0 90 68q0 48 -67 48h-40z" />
    <glyph glyph-name="fourinferior" unicode="&#x2084;" horiz-adv-x="354" 
d="M277 275l-41 -230h42l-10 -59h-42l-13 -72h-65l13 72h-192l7 55l213 234h88zM171 45l30 167l-153 -167h123z" />
    <glyph glyph-name="fiveinferior" unicode="&#x2085;" horiz-adv-x="352" 
d="M148 145l1 -1q61 0 94.5 -25t33.5 -72q0 -65 -47 -102.5t-122 -37.5q-61 0 -97.5 26t-26.5 84h64q-5 -26 15 -38t54 -12q47 0 69 19.5t22 49.5q0 51 -70 51h-134l33 189h259l-10 -58h-196l-13 -73h71z" />
    <glyph glyph-name="sixinferior" unicode="&#x2086;" horiz-adv-x="367" 
d="M75 110l-1 -1q30 29 87 29q56 0 92 -22t36 -73q0 -68 -50.5 -101.5t-117.5 -33.5q-60 0 -98 30t-28 87l25 139q11 58 57.5 87.5t105.5 29.5q61 0 96.5 -25t29.5 -74h-65q3 41 -71 41q-77 0 -88 -59zM131 -36v-1q36 0 63.5 16.5t27.5 51.5q0 25 -20 38t-50 13
q-37 0 -65.5 -17.5t-28.5 -50.5q0 -26 21 -38t52 -12z" />
    <glyph glyph-name="seveninferior" unicode="&#x2087;" horiz-adv-x="321" 
d="M3 162l20 114h278l-1 -29l-214 -332h-75l195 300h-128l-13 -53h-62z" />
    <glyph glyph-name="eightinferior" unicode="&#x2088;" horiz-adv-x="377" 
d="M-15 18h1q5 30 28.5 53.5t55.5 32.5q-49 18 -49 67q0 57 49.5 86.5t114.5 29.5q54 0 92 -22t38 -67q0 -68 -76 -93q24 -8 39 -29t15 -46q0 -63 -52 -92.5t-123 -29.5q-63 0 -103 26t-30 84zM246 187q0 23 -21 34t-48 11q-33 0 -60.5 -14t-27.5 -44q0 -44 70 -44
q37 0 62 14.5t25 42.5zM225 25q0 24 -22.5 37.5t-53.5 13.5q-38 0 -67 -16.5t-29 -47.5q0 -23 23 -35.5t53 -12.5q36 0 66 16.5t30 44.5z" />
    <glyph glyph-name="nineinferior" unicode="&#x2089;" horiz-adv-x="370" 
d="M278 25v1q-10 -58 -56.5 -87.5t-105.5 -29.5q-61 0 -97 25t-30 74h65q-3 -41 71 -41q78 0 88 59l9 54q-33 -29 -86 -29q-55 0 -91.5 22.5t-36.5 72.5q0 68 50.5 101.5t117.5 33.5q60 0 98 -30t28 -87zM166 225l1 1q-37 0 -64.5 -16.5t-27.5 -51.5q0 -25 20.5 -38
t50.5 -13q37 0 65 17.5t28 50.5q0 26 -21 38t-52 12z" />
    <glyph glyph-name="Euro" unicode="&#x20ac;" horiz-adv-x="610" 
d="M524 8l-1 -3q-63 -20 -126 -20q-149 0 -221.5 69.5t-76.5 193.5h-66l12 69h56v5q0 14 2 24.5t5 18.5t3 10h-57l13 70h67q44 119 144 192t245 73q49 0 102 -16l-39 -77q-36 10 -75 10q-204 0 -284 -182h253l-30 -70h-253q-1 -4 -3 -14l-3 -15q-3 -21 -3 -26h238l-27 -69
h-207q5 -86 60.5 -132.5t160.5 -46.5q50 0 101 18z" />
    <glyph glyph-name="afii61289" unicode="&#x2113;" horiz-adv-x="398" 
d="M175 147q-7 -44 27 -61.5t92 -4.5l-13 -69q-51 -16 -91.5 -16t-70 16t-41 54.5t-1.5 96.5l-53 -24l-6 46q32 13 67 30l59 333q16 91 56.5 129t128.5 38q135 0 76 -193q-42 -146 -213 -280zM243 548l-43 -237q130 124 159 220q8 26 11 43.5t3.5 40.5t-12.5 35.5t-39 12.5
q-28 0 -49.5 -34.5t-29.5 -80.5z" />
    <glyph glyph-name="uni2117" unicode="&#x2117;" horiz-adv-x="827" 
d="M487 714q146 0 225 -85.5t79 -217.5q0 -112 -52 -209t-152.5 -157.5t-228.5 -60.5q-145 0 -224 86t-79 218q0 112 52 208.5t152.5 157t227.5 60.5zM138 349v2q0 -298 233 -298q152 0 248 102.5t96 247.5q0 108 -62.5 176.5t-177.5 68.5q-136 0 -232.5 -86t-104.5 -213z
M457 275l-1 -1q88 0 133 70q38 59 19 118q-20 63 -92 68q-6 1 -13 1h-173l-66 -376h70l21 120h102zM387 466v-1h103q45 0 53 -40q7 -38 -23 -68q-22 -23 -55 -23h-101z" />
    <glyph glyph-name="trademark" unicode="&#x2122;" horiz-adv-x="794" 
d="M451 701h70l76 -125l122 125h68l-51 -286h-70l36 188l-116 -120h-14l-71 123l-31 -191h-70zM222 642h-105l10 58h279l-10 -58h-106l-40 -227h-68z" />
    <glyph glyph-name="estimated" unicode="&#x212e;" horiz-adv-x="638" 
d="M522 104q-54 -61 -113.5 -86t-133.5 -25q-99 0 -160.5 62.5t-61.5 174.5q0 165 95.5 260.5t230.5 95.5q58 0 103 -16.5t78.5 -54t39 -99.5t-15.5 -153h-402l-30 -170q48 -53 132 -53q125 0 206 93zM506 496q-47 43 -135 43t-148 -46l-33 -183h283z" />
    <glyph glyph-name="uni2153" unicode="&#x2153;" horiz-adv-x="769" 
d="M63 404h63l41 229l-57 -13l11 58l125 29l-54 -303h64l-10 -57h-193zM140 -3h-74l503 708h76zM523 172l-3 16l104 120h-114l-9 -40h-57l17 97h271l-3 -19l-113 -125q84 -5 84 -85q0 -52 -28 -85.5t-64.5 -45t-79.5 -11.5q-59 0 -95.5 27.5t-26.5 84.5h66
q-3 -29 17.5 -39.5t50.5 -10.5q90 0 90 68q0 48 -67 48h-40z" />
    <glyph glyph-name="uni2154" unicode="&#x2154;" horiz-adv-x="850" 
d="M654 705h76l-505 -708h-75zM604 172l-3 16l104 120h-114l-9 -40h-57l17 97h271l-3 -19l-113 -125q84 -5 84 -85q0 -52 -28 -85.5t-64.5 -45t-79.5 -11.5q-59 0 -95.5 27.5t-26.5 84.5h66q-3 -29 17.5 -39.5t50.5 -10.5q90 0 90 68q0 48 -67 48h-40zM296 453h61l-20 -112
h-284l15 87q10 57 51.5 85t98.5 33q22 2 32.5 3.5t25.5 5.5t22.5 9.5t13 16t5.5 25.5q0 45 -68 45q-73 0 -84 -52h-64q7 39 33 64.5t57.5 35t67.5 9.5q55 0 89.5 -22t34.5 -70q0 -32 -11.5 -55.5t-25 -35t-40.5 -19.5t-39 -9.5t-41 -4.5q-17 -2 -28 -4t-26 -8t-24.5 -19.5
t-12.5 -33.5l-4 -25h154z" />
    <glyph glyph-name="oneeighth" unicode="&#x215b;" horiz-adv-x="779" 
d="M64 404h63l41 229l-57 -13l11 58l125 29l-54 -303h64l-10 -57h-193zM67 -3l503 708h76l-505 -708h-74zM402 102h1q5 30 28.5 53.5t55.5 32.5q-49 18 -49 67q0 57 49.5 86.5t114.5 29.5q54 0 92 -22t38 -67q0 -68 -76 -93q25 -8 39.5 -29t14.5 -46q0 -63 -52 -92.5
t-122 -29.5q-63 0 -103.5 26t-30.5 84zM663 271q0 23 -21 34t-48 11q-34 0 -61 -14t-27 -44q0 -44 70 -44q37 0 62 14.5t25 42.5zM642 109q0 24 -22.5 37.5t-53.5 13.5q-38 0 -67 -16.5t-29 -47.5q0 -23 23 -35.5t53 -12.5q36 0 66 16.5t30 44.5z" />
    <glyph glyph-name="threeeighths" unicode="&#x215c;" horiz-adv-x="836" 
d="M632 705h76l-505 -708h-74zM459 102h1q5 30 28.5 53.5t55.5 32.5q-49 18 -49 67q0 57 49.5 86.5t114.5 29.5q54 0 92 -22t38 -67q0 -68 -76 -93q24 -8 39 -29t15 -46q0 -63 -52 -92.5t-123 -29.5q-63 0 -103 26t-30 84zM720 271q0 23 -21 34t-48 11q-34 0 -61 -14
t-27 -44q0 -44 70 -44q37 0 62 14.5t25 42.5zM699 109q0 24 -22.5 37.5t-53.5 13.5q-38 0 -67 -16.5t-29 -47.5q0 -23 23 -35.5t53 -12.5q36 0 66 16.5t30 44.5zM181 512l-3 16l104 118h-114l-9 -40h-57l17 97h271l-4 -19l-112 -123q83 -5 83 -85q0 -40 -15.5 -69t-41.5 -44
t-54.5 -22t-59.5 -7q-58 0 -95 27.5t-28 84.5h66q-2 -29 18.5 -39.5t50.5 -10.5q90 0 90 68q0 48 -67 48h-40z" />
    <glyph glyph-name="fiveeighths" unicode="&#x215d;" horiz-adv-x="840" 
d="M133 -3l503 708h76l-505 -708h-74zM85 513l34 188h258l-11 -58h-195l-12 -73h70q60 0 94 -25.5t34 -73.5q0 -64 -46.5 -101t-120.5 -37q-62 0 -98.5 26t-26.5 84h64q-5 -26 15 -38t54 -12q47 0 69.5 19.5t22.5 49.5q0 51 -72 51h-133zM463 102h1q5 30 28.5 53.5
t55.5 32.5q-49 18 -49 67q0 57 49.5 86.5t114.5 29.5q54 0 92 -22t38 -67q0 -68 -76 -93q25 -8 39.5 -29t14.5 -46q0 -63 -52 -92.5t-122 -29.5q-63 0 -103.5 26t-30.5 84zM724 271q0 23 -21 34t-48 11q-34 0 -61 -14t-27 -44q0 -44 70 -44q37 0 62 14.5t25 42.5zM703 109
q0 24 -22.5 37.5t-53.5 13.5q-38 0 -67 -16.5t-29 -47.5q0 -23 23 -35.5t53 -12.5q36 0 66 16.5t30 44.5z" />
    <glyph glyph-name="seveneighths" unicode="&#x215e;" horiz-adv-x="767" 
d="M559 705h76l-505 -708h-74zM391 102h2q5 30 28.5 53.5t55.5 32.5q-50 18 -50 67q0 57 49.5 86.5t114.5 29.5q53 0 91 -22t38 -67q0 -68 -76 -93q24 -8 39 -29t15 -46q0 -63 -52.5 -92.5t-122.5 -29.5q-63 0 -103 26t-29 84zM652 265q5 26 -17 38.5t-53 12.5
q-33 0 -61 -14.5t-28 -43.5q0 -44 71 -44q78 0 88 51zM630 109q0 24 -22 37.5t-53 13.5q-38 0 -67 -16.5t-29 -47.5q0 -23 23 -35.5t53 -12.5q36 0 65.5 16.5t29.5 44.5zM87 587l20 114h278l-1 -29l-214 -332h-74l194 300h-129l-13 -53h-61z" />
    <glyph glyph-name="arrowleft" unicode="&#x2190;" horiz-adv-x="628" 
d="M97 351l261 221l37 -43l-165 -141h407l-13 -76h-407l113 -143l-50 -40z" />
    <glyph glyph-name="arrowup" unicode="&#x2191;" horiz-adv-x="510" 
d="M366 622l182 -223l-50 -44l-117 139l-72 -406h-76l72 406l-168 -138l-32 44z" />
    <glyph glyph-name="arrowright" unicode="&#x2192;" horiz-adv-x="628" 
d="M655 351l-262 -222l-37 43l164 142h-406l13 76h406l-112 142l51 41z" />
    <glyph glyph-name="arrowdown" unicode="&#x2193;" horiz-adv-x="508" 
d="M267 75l-183 222l51 45l117 -139l72 406h76l-72 -406l167 137l33 -43z" />
    <glyph glyph-name="uni2196" unicode="&#x2196;" horiz-adv-x="506" 
d="M160 539h315l-10 -64h-199l237 -288l-64 -54l-236 288l-39 -198l-59 2z" />
    <glyph glyph-name="uni2197" unicode="&#x2197;" horiz-adv-x="507" 
d="M481 224l-65 -1l35 198l-338 -288l-44 54l339 288l-198 3l12 60h314z" />
    <glyph glyph-name="uni2198" unicode="&#x2198;" horiz-adv-x="549" 
d="M477 159h-314l9 60l199 4l-237 287l64 54l237 -287l35 198l63 -1z" />
    <glyph glyph-name="uni2199" unicode="&#x2199;" horiz-adv-x="549" 
d="M184 474l64 1l-35 -198l337 287l45 -54l-339 -287l199 -4l-13 -60h-314z" />
    <glyph glyph-name="partialdiff" unicode="&#x2202;" horiz-adv-x="600" 
d="M259 64q91 0 147 62.5t56 140.5q0 61 -36.5 103.5t-105.5 42.5q-92 0 -148.5 -62.5t-56.5 -140.5q0 -61 37 -103.5t107 -42.5zM306 483q48 3 96 -12t75 -52q-13 73 -86.5 133.5t-153.5 79.5l30 67q141 -37 214 -131t73 -236q0 -155 -86 -248.5t-223 -93.5
q-105 0 -160 60.5t-55 148.5q0 105 75.5 190t200.5 94z" />
    <glyph glyph-name="increment" unicode="&#x2206;" horiz-adv-x="778" 
d="M704 0h-726l437 700h98zM124 80h461l-137 526z" />
    <glyph glyph-name="product" unicode="&#x220f;" horiz-adv-x="703" 
d="M429 -189l142 807h-326l-142 -807h-89l157 889h504l-157 -889h-89z" />
    <glyph glyph-name="summation" unicode="&#x2211;" horiz-adv-x="578" 
d="M123 86h369l-15 -86h-494l8 47l279 320l-155 295l6 38h473l-14 -82h-340l128 -253z" />
    <glyph glyph-name="minus" unicode="&#x2212;" horiz-adv-x="527" 
d="M82 357h383l-14 -79h-383z" />
    <glyph glyph-name="uni2215" unicode="&#x2215;" horiz-adv-x="454" 
d="M-54 -3l504 708h77l-504 -708h-77z" />
    <glyph glyph-name="uni2219" unicode="&#x2219;" horiz-adv-x="246" 
d="M69 303q0 30 20 47t46 18q20 1 34 -11.5t14 -34.5q0 -30 -21 -47.5t-47 -17.5q-20 0 -33 12t-13 34z" />
    <glyph glyph-name="radical" unicode="&#x221a;" horiz-adv-x="606" 
d="M307 0h-70l-105 344l-95 -38l-14 57l179 74l91 -340l319 617l54 -16z" />
    <glyph glyph-name="infinity" unicode="&#x221e;" horiz-adv-x="777" 
d="M192 166q-78 1 -113 47.5t-23 110.5q11 65 64.5 112t132.5 47t148 -108q110 108 185 108q80 0 116.5 -47t25.5 -112q-11 -64 -62.5 -111t-129.5 -47q-82 0 -153 107q-109 -107 -191 -107zM206 234q23 0 48.5 12.5t40.5 24t41 35.5q12 12 19 18l-10 16q-49 77 -107 77
q-53 0 -85.5 -33t-32.5 -74q0 -31 22 -53t64 -23zM546 234q55 1 86.5 32.5t31.5 71.5q0 33 -22 56t-64 23q-24 0 -50.5 -14t-39 -25l-43.5 -40l-15 -14q2 -2 4 -4.5l4.5 -5.5t3.5 -5h-1q2 -2 9.5 -11.5l9.5 -12l9 -11t11 -11.5t11 -9t12 -8.5l12.5 -6t15 -4.5t15.5 -1z" />
    <glyph glyph-name="integral" unicode="&#x222b;" horiz-adv-x="460" 
d="M222 528l1 -1q15 85 67 132t130 47q59 0 106 -36l-45 -61q-37 25 -71 25q-87 0 -106 -107l-93 -529q-15 -86 -64 -133t-126 -47q-51 0 -97 35l44 60q27 -24 61 -24q81 0 100 110z" />
    <glyph glyph-name="approxequal" unicode="&#x2248;" horiz-adv-x="564" 
d="M132 337l-48 31q29 45 73.5 66t86.5 10l134 -47q31 -8 48 0t38 37l49 -25q-66 -109 -159 -75l-129 42q-25 10 -50.5 -1.5t-42.5 -37.5zM101 158l-49 31q29 45 73 66t87 10l133 -47q31 -9 48.5 -0.5t39.5 37.5l48 -25q-66 -109 -160 -75l-129 42q-24 10 -49.5 -1.5
t-41.5 -37.5z" />
    <glyph glyph-name="notequal" unicode="&#x2260;" horiz-adv-x="574" 
d="M71 247h144l104 134h-225l14 77h271l57 73l35 -22l-40 -51h91l-14 -77h-136l-104 -134h217l-14 -77h-262l-58 -75l-36 23l40 52h-98z" />
    <glyph glyph-name="lessequal" unicode="&#x2264;" horiz-adv-x="442" 
d="M371 612l35 -53l-220 -139l171 -145l-56 -52l-208 184l5 27zM43 160h310l-12 -69h-310z" />
    <glyph glyph-name="greaterequal" unicode="&#x2265;" horiz-adv-x="441" 
d="M396 434l-4 -27l-274 -184l-38 52l223 145l-170 139l54 53zM343 91h-311l12 69h311z" />
    <glyph glyph-name="lozenge" unicode="&#x25ca;" horiz-adv-x="572" 
d="M268 7h-67l-154 345l276 344h67l157 -344zM139 351l109 -266l210 266l-116 266z" />
    <glyph glyph-name="fi" unicode="&#xfb01;" horiz-adv-x="616" 
d="M438 690l-31 -71q-20 12 -54 12q-87 0 -106 -103l-6 -34h307l-74 -422h80l-13 -72h-238l13 72h76l62 351h-225l-62 -350h86l-13 -73h-248l13 73h81l62 350h-97l12 71h97l6 34q15 85 67 131.5t132 46.5q36 0 73 -16zM479 636q0 30 20 46.5t45 16.5q19 0 32 -11.5t13 -32.5
q0 -30 -20.5 -46.5t-45.5 -16.5q-19 0 -31.5 11.5t-12.5 32.5z" />
    <glyph glyph-name="fl" unicode="&#xfb02;" horiz-adv-x="619" 
d="M584 695l-110 -621h80l-13 -74h-235l13 74h74l98 556q-218 46 -244 -103l-7 -39h134l-12 -69h-134l-61 -347h82l-13 -72h-244l13 72h81l61 347h-97l12 69h97l7 39q8 47 29.5 82.5t48 55.5t63.5 31.5t70 15t75 1t69.5 -6.5t62.5 -11z" />
    <glyph glyph-name="a.alt" horiz-adv-x="576" 
d="M398 207q-29 21 -78.5 30.5t-98.5 5t-86.5 -31.5t-39.5 -72q-4 -76 113 -76q65 0 121 41t69 103zM381 77l-1 1q-37 -43 -90 -65t-107 -22q-73 0 -122.5 34t-49.5 96q0 60 29.5 101t75 58t100 21t104 -4t87.5 -24l8 44q9 62 -25.5 88t-95.5 26q-58 0 -117 -18l-14 -64h-73
l19 113q80 40 191 40q99 0 156 -43.5t40 -142.5l-43 -243h81l-12 -73h-147z" />
    <glyph glyph-name="aacute.alt" horiz-adv-x="576" 
d="M274 580l1 5l89 119h99l-1 -3l-114 -121h-74zM398 207q-29 21 -78.5 30.5t-98.5 5t-86.5 -31.5t-39.5 -72q-4 -76 113 -76q65 0 121 41t69 103zM381 77l-1 1q-37 -43 -90 -65t-107 -22q-73 0 -122.5 34t-49.5 96q0 60 29.5 101t75 58t100 21t104 -4t87.5 -24l8 44
q9 62 -25.5 88t-95.5 26q-58 0 -117 -18l-14 -64h-73l19 113q80 40 191 40q99 0 156 -43.5t40 -142.5l-43 -243h81l-12 -73h-147z" />
    <glyph glyph-name="abreve.alt" horiz-adv-x="576" 
d="M490 705h-1q-8 -63 -53.5 -98.5t-107.5 -35.5t-94.5 35.5t-18.5 98.5h66q-6 -30 8 -50.5t50 -20.5q35 0 56 20.5t27 50.5h68zM398 207q-29 21 -78.5 30.5t-98.5 5t-86.5 -31.5t-39.5 -72q-4 -76 113 -76q65 0 121 41t69 103zM381 77l-1 1q-37 -43 -90 -65t-107 -22
q-73 0 -122.5 34t-49.5 96q0 60 29.5 101t75 58t100 21t104 -4t87.5 -24l8 44q9 62 -25.5 88t-95.5 26q-58 0 -117 -18l-14 -64h-73l19 113q80 40 191 40q99 0 156 -43.5t40 -142.5l-43 -243h81l-12 -73h-147z" />
    <glyph glyph-name="acircumflex.alt" horiz-adv-x="576" 
d="M170 576l165 132h51l119 -132l-1 -7h-83l-71 76l-97 -76h-84zM398 207q-29 21 -78.5 30.5t-98.5 5t-86.5 -31.5t-39.5 -72q-4 -76 113 -76q65 0 121 41t69 103zM381 77l-1 1q-37 -43 -90 -65t-107 -22q-73 0 -122.5 34t-49.5 96q0 60 29.5 101t75 58t100 21t104 -4
t87.5 -24l8 44q9 62 -25.5 88t-95.5 26q-58 0 -117 -18l-14 -64h-73l19 113q80 40 191 40q99 0 156 -43.5t40 -142.5l-43 -243h81l-12 -73h-147z" />
    <glyph glyph-name="adieresis.alt" horiz-adv-x="576" 
d="M189 635q0 29 19.5 45.5t45.5 16.5q19 0 31.5 -11t12.5 -32q0 -29 -19.5 -45.5t-44.5 -16.5q-19 0 -32 11.5t-13 31.5zM398 635q0 29 18.5 45.5t44.5 16.5q19 0 32.5 -11.5t13.5 -32.5q0 -28 -19.5 -44.5t-43.5 -16.5q-20 0 -33 11t-13 32zM398 207q-29 21 -78.5 30.5
t-98.5 5t-86.5 -31.5t-39.5 -72q-4 -76 113 -76q65 0 121 41t69 103zM381 77l-1 1q-37 -43 -90 -65t-107 -22q-73 0 -122.5 34t-49.5 96q0 60 29.5 101t75 58t100 21t104 -4t87.5 -24l8 44q9 62 -25.5 88t-95.5 26q-58 0 -117 -18l-14 -64h-73l19 113q80 40 191 40
q99 0 156 -43.5t40 -142.5l-43 -243h81l-12 -73h-147z" />
    <glyph glyph-name="agrave.alt" horiz-adv-x="576" 
d="M240 701l1 3h98l47 -119l-1 -5h-73zM398 207q-29 21 -78.5 30.5t-98.5 5t-86.5 -31.5t-39.5 -72q-4 -76 113 -76q65 0 121 41t69 103zM381 77l-1 1q-37 -43 -90 -65t-107 -22q-73 0 -122.5 34t-49.5 96q0 60 29.5 101t75 58t100 21t104 -4t87.5 -24l8 44q9 62 -25.5 88
t-95.5 26q-58 0 -117 -18l-14 -64h-73l19 113q80 40 191 40q99 0 156 -43.5t40 -142.5l-43 -243h81l-12 -73h-147z" />
    <glyph glyph-name="amacron.alt" horiz-adv-x="576" 
d="M207 687h286l-12 -69h-286zM398 207q-29 21 -78.5 30.5t-98.5 5t-86.5 -31.5t-39.5 -72q-4 -76 113 -76q65 0 121 41t69 103zM381 77l-1 1q-37 -43 -90 -65t-107 -22q-73 0 -122.5 34t-49.5 96q0 60 29.5 101t75 58t100 21t104 -4t87.5 -24l8 44q9 62 -25.5 88t-95.5 26
q-58 0 -117 -18l-14 -64h-73l19 113q80 40 191 40q99 0 156 -43.5t40 -142.5l-43 -243h81l-12 -73h-147z" />
    <glyph glyph-name="aogonek.alt" horiz-adv-x="576" 
d="M381 77l-1 1q-37 -43 -90 -65t-107 -22q-73 0 -122.5 34t-49.5 96q0 60 29.5 101t75 58t100 21t104 -4t87.5 -24l8 44q9 62 -25.5 88t-95.5 26q-58 0 -117 -18l-14 -64h-73l19 113q80 40 191 40q99 0 156 -43.5t40 -142.5l-43 -243h81l-12 -73q-70 -1 -101.5 -29
t-25.5 -60q6 -26 40.5 -28t79.5 26l6 -58q-59 -38 -125 -29.5t-73 68.5q-4 33 16 63.5t56 46.5h-20zM398 207q-29 21 -78.5 30.5t-98.5 5t-86.5 -31.5t-39.5 -72q-4 -76 113 -76q65 0 121 41t69 103z" />
    <glyph glyph-name="aring.alt" horiz-adv-x="576" 
d="M232 646q9 45 47 71.5t83 26.5q39 0 67 -22.5t28 -61.5q0 -51 -38.5 -79.5t-92.5 -28.5q-48 0 -75 24.5t-19 69.5zM351 695h2q-44 0 -60 -34q-14 -30 9 -48q13 -10 34 -10q45 0 61 34q13 30 -11 48q-13 10 -35 10zM398 207q-29 21 -78.5 30.5t-98.5 5t-86.5 -31.5
t-39.5 -72q-4 -76 113 -76q65 0 121 41t69 103zM381 77l-1 1q-37 -43 -90 -65t-107 -22q-73 0 -122.5 34t-49.5 96q0 60 29.5 101t75 58t100 21t104 -4t87.5 -24l8 44q9 62 -25.5 88t-95.5 26q-58 0 -117 -18l-14 -64h-73l19 113q80 40 191 40q99 0 156 -43.5t40 -142.5
l-43 -243h81l-12 -73h-147z" />
    <glyph glyph-name="aringacute.alt" horiz-adv-x="576" 
d="M319 746l89 93h97l-1 -2l-112 -94h-73v3zM232 630l-1 -2q-14 -38 14.5 -63t74.5 -25q49 0 85 27.5t36 74.5q0 35 -26.5 55t-63.5 20q-40 0 -72 -23.5t-47 -63.5zM341 668h-1q37 0 43 -28q6 -26 -21 -43q-14 -10 -35 -10q-37 0 -42 28q-5 27 23 44q14 9 33 9zM398 207
q-29 21 -78.5 30.5t-98.5 5t-86.5 -31.5t-39.5 -72q-4 -76 113 -76q65 0 121 41t69 103zM381 77l-1 1q-37 -43 -90 -65t-107 -22q-73 0 -122.5 34t-49.5 96q0 60 29.5 101t75 58t100 21t104 -4t87.5 -24l8 44q9 62 -25.5 88t-95.5 26q-58 0 -117 -18l-14 -64h-73l19 113
q80 40 191 40q99 0 156 -43.5t40 -142.5l-43 -243h81l-12 -73h-147z" />
    <glyph glyph-name="atilde.alt" horiz-adv-x="576" 
d="M185 611l3 1q19 45 58 65t79 5q6 -2 26.5 -13.5t24.5 -12.5q38 -13 60 29l50 -23q-20 -49 -56.5 -67t-72.5 -4q-6 1 -27.5 13t-27.5 13q-41 17 -68 -30zM398 207q-29 21 -78.5 30.5t-98.5 5t-86.5 -31.5t-39.5 -72q-4 -76 113 -76q65 0 121 41t69 103zM381 77l-1 1
q-37 -43 -90 -65t-107 -22q-73 0 -122.5 34t-49.5 96q0 60 29.5 101t75 58t100 21t104 -4t87.5 -24l8 44q9 62 -25.5 88t-95.5 26q-58 0 -117 -18l-14 -64h-73l19 113q80 40 191 40q99 0 156 -43.5t40 -142.5l-43 -243h81l-12 -73h-147z" />
    <glyph glyph-name="g.alt" horiz-adv-x="610" 
d="M63 -83q-11 -68 33 -102t118 -34q50 0 92.5 12t73.5 43.5t31 77.5q0 50 -43.5 76.5t-110.5 26.5q-103 0 -163 53.5t-60 147.5q0 55 18.5 103t49.5 81t71 57t83.5 35.5t86.5 11.5q87 0 134 -37l64 64l50 -46l-68 -66q40 -54 40 -123q0 -77 -47 -144.5t-131 -93.5
q55 -17 82.5 -53t27.5 -83q0 -68 -44.5 -119t-110.5 -75t-140 -24q-114 0 -174.5 56.5t-41.5 154.5h79zM120 261q-13 -82 30 -127t121 -45q88 0 149.5 58.5t61.5 141.5q0 67 -43.5 104.5t-108.5 37.5q-72 0 -134 -44.5t-76 -125.5z" />
    <glyph glyph-name="gbreve.alt" horiz-adv-x="611" 
d="M522 708l-1 -1q-8 -62 -53.5 -97.5t-107.5 -35.5t-94.5 35t-18.5 98h66q-6 -30 8 -50.5t51 -20.5q35 0 56 20.5t27 51.5h67zM63 -83q-11 -68 33 -102t118 -34q50 0 92.5 12t73.5 43.5t31 77.5q0 50 -43.5 76.5t-110.5 26.5q-103 0 -163 53.5t-60 147.5q0 55 18.5 103
t49.5 81t71 57t83.5 35.5t86.5 11.5q87 0 134 -37l64 64l50 -46l-68 -66q40 -54 40 -123q0 -77 -47 -144.5t-131 -93.5q55 -17 82.5 -53t27.5 -83q0 -68 -44.5 -119t-110.5 -75t-140 -24q-114 0 -174.5 56.5t-41.5 154.5h79zM120 261q-13 -82 30 -127t121 -45
q88 0 149.5 58.5t61.5 141.5q0 67 -43.5 104.5t-108.5 37.5q-72 0 -134 -44.5t-76 -125.5z" />
    <glyph glyph-name="gcircumflex.alt" horiz-adv-x="611" 
d="M359 717h53l119 -135l-1 -6h-84l-72 80l-101 -80h-84l1 6zM63 -83q-11 -68 33 -102t118 -34q50 0 92.5 12t73.5 43.5t31 77.5q0 50 -43.5 76.5t-110.5 26.5q-103 0 -163 53.5t-60 147.5q0 55 18.5 103t49.5 81t71 57t83.5 35.5t86.5 11.5q87 0 134 -37l64 64l50 -46
l-68 -66q40 -54 40 -123q0 -77 -47 -144.5t-131 -93.5q55 -17 82.5 -53t27.5 -83q0 -68 -44.5 -119t-110.5 -75t-140 -24q-114 0 -174.5 56.5t-41.5 154.5h79zM120 261q-13 -82 30 -127t121 -45q88 0 149.5 58.5t61.5 141.5q0 67 -43.5 104.5t-108.5 37.5q-72 0 -134 -44.5
t-76 -125.5z" />
    <glyph glyph-name="gcommaaccent.alt" horiz-adv-x="611" 
d="M397 671h-1q28 -7 28 -37q0 -42 -39 -56q-35 -12 -57 10q-12 12 -12 31q0 7 7.5 22.5t25.5 48.5t29 55h55zM63 -83q-11 -68 33 -102t118 -34q50 0 92.5 12t73.5 43.5t31 77.5q0 50 -43.5 76.5t-110.5 26.5q-103 0 -163 53.5t-60 147.5q0 55 18.5 103t49.5 81t71 57
t83.5 35.5t86.5 11.5q87 0 134 -37l64 64l50 -46l-68 -66q40 -54 40 -123q0 -77 -47 -144.5t-131 -93.5q55 -17 82.5 -53t27.5 -83q0 -68 -44.5 -119t-110.5 -75t-140 -24q-114 0 -174.5 56.5t-41.5 154.5h79zM120 261q-13 -82 30 -127t121 -45q88 0 149.5 58.5t61.5 141.5
q0 67 -43.5 104.5t-108.5 37.5q-72 0 -134 -44.5t-76 -125.5z" />
    <glyph glyph-name="gdotaccent.alt" horiz-adv-x="611" 
d="M316 632q0 29 21 46t47 16q21 -1 34.5 -12.5t13.5 -32.5q0 -29 -21 -45.5t-47 -16.5q-21 0 -34.5 11.5t-13.5 33.5zM63 -83q-11 -68 33 -102t118 -34q50 0 92.5 12t73.5 43.5t31 77.5q0 50 -43.5 76.5t-110.5 26.5q-103 0 -163 53.5t-60 147.5q0 55 18.5 103t49.5 81
t71 57t83.5 35.5t86.5 11.5q87 0 134 -37l64 64l50 -46l-68 -66q40 -54 40 -123q0 -77 -47 -144.5t-131 -93.5q55 -17 82.5 -53t27.5 -83q0 -68 -44.5 -119t-110.5 -75t-140 -24q-114 0 -174.5 56.5t-41.5 154.5h79zM120 261q-13 -82 30 -127t121 -45q88 0 149.5 58.5
t61.5 141.5q0 67 -43.5 104.5t-108.5 37.5q-72 0 -134 -44.5t-76 -125.5z" />
    <glyph glyph-name="y.alt" horiz-adv-x="608" 
d="M35 422l13 73h225l-13 -72h-64l49 -186l28 -142l75 140l107 187h-77l13 73h232l-13 -73h-65l-329 -559q-47 -79 -116.5 -94.5t-132.5 28.5l43 68q84 -52 132 22l67 119l-104 416h-70z" />
    <glyph glyph-name="yacute.alt" horiz-adv-x="608" 
d="M303 578l93 123h99v-3l-119 -125h-74zM48 495l-13 -73h70l104 -416l-67 -119q-48 -74 -132 -22l-43 -68q63 -44 132.5 -28.5t116.5 94.5l329 559h65l13 73h-232l-13 -73h77l-107 -187l-75 -140l-28 142l-49 186h64l13 72h-225z" />
    <glyph glyph-name="ycircumflex.alt" horiz-adv-x="608" 
d="M187 578l163 129h52l118 -129l-1 -6h-86l-68 73l-95 -73h-84zM48 495l-13 -73h70l104 -416l-67 -119q-48 -74 -132 -22l-43 -68q63 -44 132.5 -28.5t116.5 94.5l329 559h65l13 73h-232l-13 -73h77l-107 -187l-75 -140l-28 142l-49 186h64l13 72h-225z" />
    <glyph glyph-name="ydieresis.alt" horiz-adv-x="608" 
d="M203 642q0 29 20 46t45 16q44 -2 44 -43q0 -29 -19 -45.5t-44 -17.5q-19 -1 -32.5 11t-13.5 33zM435 642q0 29 19.5 45.5t44.5 16.5q20 0 32.5 -11.5t12.5 -32.5q0 -29 -20 -45.5t-44 -16.5q-19 0 -32 11.5t-13 32.5zM48 495l-13 -73h70l104 -416l-67 -119
q-48 -74 -132 -22l-43 -68q63 -44 132.5 -28.5t116.5 94.5l329 559h65l13 73h-232l-13 -73h77l-107 -187l-75 -140l-28 142l-49 186h64l13 72h-225z" />
    <glyph glyph-name="ygrave.alt" horiz-adv-x="608" 
d="M249 698v3h99l43 -123l-1 -5h-74zM48 495l-13 -73h70l104 -416l-67 -119q-48 -74 -132 -22l-43 -68q63 -44 132.5 -28.5t116.5 94.5l329 559h65l13 73h-232l-13 -73h77l-107 -187l-75 -140l-28 142l-49 186h64l13 72h-225z" />
    <glyph glyph-name="zero.denom" horiz-adv-x="443" 
d="M53 205q17 97 100 139q71 37 137 10q68 -28 73 -106q1 -20 -3 -43l-9 -53q-17 -98 -99 -140q-71 -37 -137 -11q-68 28 -74 105q-1 22 3 46zM108 151q-11 -66 36 -89q42 -21 87 6q44 27 53 83l9 53q12 69 -35 93q-41 20 -86 -8q-43 -28 -54 -85z" />
    <glyph glyph-name="one.denom" horiz-adv-x="293" 
d="M14 57h63l41 230l-57 -14l10 58l125 29l-53 -303h64l-10 -57h-193z" />
    <glyph glyph-name="two.denom" horiz-adv-x="362" 
d="M228 112h61l-20 -112h-284l15 87q10 57 51.5 85t98.5 33q22 2 32.5 3.5t25.5 5.5t22.5 9.5t13 16t5.5 25.5q0 45 -68 45q-73 0 -84 -52h-64q7 39 33 64.5t57.5 35t67.5 9.5q55 0 89.5 -22t34.5 -70q0 -32 -11.5 -55.5t-25 -35t-40.5 -19.5t-39 -9.5t-41 -4.5
q-17 -2 -28 -4t-26 -8t-24.5 -19.5t-12.5 -33.5l-4 -25h154z" />
    <glyph glyph-name="three.denom" horiz-adv-x="358" 
d="M117 172l-3 16l104 120h-114l-9 -40h-57l17 97h271l-3 -19l-113 -125q83 -5 83 -85q0 -40 -15.5 -69t-41.5 -44t-54.5 -22t-59.5 -7q-58 0 -95 27.5t-28 84.5h66q-2 -29 18.5 -39.5t50.5 -10.5q90 0 90 68q0 48 -67 48h-40z" />
    <glyph glyph-name="four.denom" horiz-adv-x="353" 
d="M292 361l-41 -229h42l-10 -59h-42l-13 -72h-65l13 72h-192l7 54l213 234h88zM186 132l30 166l-153 -166h123z" />
    <glyph glyph-name="five.denom" horiz-adv-x="353" 
d="M163 230l1 -1q61 0 94.5 -25t33.5 -72q0 -65 -47 -102.5t-122 -37.5q-61 0 -97.5 26t-26.5 84h64q-5 -26 15 -38t54 -12q47 0 69 19.5t22 49.5q0 51 -70 51h-134l33 189h259l-10 -58h-196l-13 -73h71z" />
    <glyph glyph-name="six.denom" horiz-adv-x="369" 
d="M91 195h-1q35 29 87 29q56 0 92 -22t36 -73q0 -68 -50.5 -101.5t-117.5 -33.5q-60 0 -98 30t-28 87l25 139q11 58 57.5 87.5t105.5 29.5q61 0 96.5 -25t29.5 -74h-65q3 41 -71 41q-77 0 -88 -59zM147 51v-1q36 0 63.5 16.5t27.5 51.5q0 25 -20.5 38t-49.5 13
q-37 0 -65.5 -17.5t-28.5 -50.5q0 -26 21 -38t52 -12z" />
    <glyph glyph-name="seven.denom" horiz-adv-x="321" 
d="M18 247l20 114h278l-1 -29l-214 -332h-75l195 300h-128l-13 -53h-62z" />
    <glyph glyph-name="eight.denom" horiz-adv-x="376" 
d="M0 101h1q5 30 28.5 53.5t55.5 32.5q-50 18 -50 66q0 58 49.5 87t115.5 29q53 0 91 -22t38 -67q0 -69 -76 -93q24 -8 39 -29t15 -46q0 -63 -52 -92t-123 -29q-63 0 -103 26t-29 84zM261 265v-1q4 26 -18 38.5t-52 12.5q-33 0 -61 -14t-28 -43q0 -44 71 -44q77 0 88 51z
M238 101v-2q0 28 -21 43t-54 15q-37 0 -66.5 -16t-29.5 -47q0 -23 23 -35.5t53 -12.5q34 0 64 14.5t31 40.5z" />
    <glyph glyph-name="nine.denom" horiz-adv-x="371" 
d="M292 110l1 -1q-10 -58 -56.5 -87.5t-105.5 -29.5q-61 0 -97 25t-30 75h65q-1 -20 17.5 -30.5t53.5 -10.5q78 0 89 59l10 55q-35 -29 -88 -29q-55 0 -91.5 22t-36.5 73q0 68 51 101.5t118 33.5q60 0 97.5 -29.5t27.5 -86.5zM181 308l1 2q-37 0 -64.5 -16.5t-27.5 -51.5
q0 -25 20.5 -38t50.5 -13q37 0 65 17.5t28 49.5q0 26 -21 38t-52 12z" />
    <glyph glyph-name="zero.num" horiz-adv-x="381" 
d="M83 551v1q17 97 100 139q71 37 137 10q68 -28 73 -107q1 -20 -3 -43l-9 -53q-17 -98 -99 -140q-71 -37 -137 -11q-68 28 -74 105q-1 22 3 46zM138 498q-12 -66 36 -90q42 -20 87 8q43 27 52 82l9 54q12 69 -36 93q-41 20 -86 -8q-43 -27 -53 -85z" />
    <glyph glyph-name="one.num" horiz-adv-x="311" 
d="M85 408h63l40 229l-56 -13l10 58l125 29l-53 -303h64l-10 -58h-193z" />
    <glyph glyph-name="two.num" horiz-adv-x="361" 
d="M288 454h61l-20 -112h-284l15 87q10 57 51.5 85t98.5 33q22 2 32.5 3.5t25.5 5.5t22.5 9.5t13 16t5.5 25.5q0 45 -68 45q-73 0 -84 -52h-64q7 39 33 64.5t57.5 35t67.5 9.5q55 0 89.5 -22t34.5 -70q0 -32 -11.5 -55.5t-25 -35t-40.5 -19.5t-39 -9.5t-41 -4.5
q-17 -2 -28 -4t-26 -8t-24.5 -19.5t-12.5 -33.5l-4 -25h154z" />
    <glyph glyph-name="three.num" horiz-adv-x="358" 
d="M177 515l-3 16l104 120h-114l-9 -40h-57l17 97h271l-3 -19l-113 -125q83 -5 83 -85q0 -40 -15.5 -69t-41.5 -44t-54.5 -22t-59.5 -7q-58 0 -95 27.5t-28 84.5h66q-2 -29 18.5 -39.5t50.5 -10.5q90 0 90 68q0 48 -67 48h-40z" />
    <glyph glyph-name="four.num" horiz-adv-x="354" 
d="M353 702l-41 -229h42l-10 -59h-42l-13 -72h-65l13 72h-192l7 54l213 234h88zM247 473l30 166l-153 -166h123z" />
    <glyph glyph-name="five.num" horiz-adv-x="353" 
d="M223 570v-1q61 0 95 -25.5t34 -73.5q0 -64 -47 -101t-121 -37q-61 0 -97.5 26t-26.5 84h64q-5 -26 15 -38t54 -12q47 0 69 19.5t22 49.5q0 51 -71 51h-133l33 189h259l-10 -58h-196l-13 -73h70z" />
    <glyph glyph-name="six.num" horiz-adv-x="368" 
d="M151 538l-1 1q35 29 88 29q127 0 127 -96q0 -68 -50.5 -101.5t-117.5 -33.5q-60 0 -98 29.5t-28 86.5l25 140q11 58 57.5 87.5t105.5 29.5q61 0 96.5 -25t29.5 -74h-65q3 41 -71 41q-77 0 -88 -59zM206 395q37 0 64 16.5t27 50.5q0 25 -20.5 38t-49.5 13
q-37 0 -65.5 -17.5t-28.5 -50.5q0 -26 21 -38t52 -12z" />
    <glyph glyph-name="seven.num" horiz-adv-x="321" 
d="M78 587l20 114h278l-1 -29l-214 -332h-75l195 300h-128l-13 -53h-62z" />
    <glyph glyph-name="eight.num" horiz-adv-x="377" 
d="M60 443l1 -3q5 30 28 53.5t55 32.5q-49 18 -49 67q0 58 49.5 87t115.5 29q53 0 91 -22t38 -67q0 -67 -75 -92q24 -8 39 -29t15 -46q0 -62 -52 -91t-123 -29q-63 0 -103 26t-30 84zM322 609q0 23 -21.5 34t-48.5 11q-33 0 -60.5 -14t-27.5 -44q0 -44 70 -44q38 0 63 14.5
t25 42.5zM300 447q0 24 -22 37.5t-53 13.5q-38 0 -67 -16.5t-29 -47.5q0 -23 22.5 -35.5t53.5 -12.5q36 0 65.5 16.5t29.5 44.5z" />
    <glyph glyph-name="nine.num" horiz-adv-x="370" 
d="M297 510h2q-33 -29 -87 -29q-55 0 -91.5 22.5t-36.5 72.5q0 68 50.5 101.5t117.5 33.5q60 0 98 -30t28 -87l-25 -139q-11 -58 -57.5 -87.5t-105.5 -29.5q-61 0 -97 25t-30 74h65q-3 -41 71 -41q77 0 88 59zM314 595v1q6 30 -15.5 44.5t-55.5 14.5q-37 0 -64.5 -16.5
t-27.5 -51.5q0 -25 20.5 -38t50.5 -13q33 0 60 15t32 44z" />
    <glyph glyph-name="zero.tf" 
d="M89 419q28 157 153 238q106 68 223 51q113 -16 164 -104q44 -75 25 -185l-24 -137q-27 -157 -153 -238q-105 -67 -221 -51q-114 15 -166 103q-44 76 -25 186zM153 282v-1q-22 -121 55 -177q64 -48 155 -25q96 24 147 112q23 41 32 91l24 137q21 119 -56 176
q-65 48 -155 25q-96 -24 -146 -111q-23 -41 -32 -90z" />
    <glyph glyph-name="one.tf" 
d="M95 75h183l91 516l-175 -41l14 80l268 70l-110 -625h194l-13 -75h-465z" />
    <glyph glyph-name="two.tf" 
d="M568 0h-545l30 169q10 56 41 97t76 63t93 32t102 10q34 0 67 7t65.5 22.5t52.5 46.5t20 74q0 59 -43 85t-111 26q-188 0 -212 -126h-87q44 203 313 203q98 0 163 -42.5t65 -132.5q0 -66 -26 -115t-71 -76.5t-97 -40.5t-112 -13q-34 0 -65 -5t-63 -17.5t-54.5 -37.5
t-28.5 -60l-16 -88h374l22 101h79z" />
    <glyph glyph-name="three.tf" 
d="M310 355l-7 24l222 242l-285 -1l-21 -102h-80l32 182h499l-6 -37l-232 -241q180 -19 180 -174q0 -119 -90 -188t-227 -69q-51 0 -94.5 10t-81.5 31.5t-55.5 62t-7.5 96.5h87q-6 -37 7.5 -62.5t42.5 -37t57 -16t61 -4.5q94 0 153.5 45t59.5 120q0 34 -12.5 58t-33.5 36
t-49 19t-58 6.5t-61 -0.5z" />
    <glyph glyph-name="four.tf" 
d="M621 700l-83 -469h85l-15 -84h-85l-26 -147h-88l26 147h-404l5 96l446 457h139zM519 626l-386 -395h317z" />
    <glyph glyph-name="five.tf" 
d="M392 439l1 1q127 0 185.5 -59t39.5 -161q-17 -102 -102.5 -164t-209.5 -62q-44 0 -81.5 6t-71.5 21t-56 38t-31.5 59.5t-1.5 82.5h89q-6 -36 6.5 -62t40 -38.5t56.5 -17.5t63 -5q95 0 154 44t59 119q0 54 -39 85t-115 31h-271l60 343h496l-15 -83h-410l-31 -178h185z" />
    <glyph glyph-name="six.tf" 
d="M177 350v-3q76 88 213 88q103 0 173.5 -46.5t70.5 -141.5q0 -86 -51 -146.5t-122 -86t-151 -25.5q-54 0 -100.5 13.5t-83.5 40t-53.5 71t-6.5 101.5l50 286q18 101 109 155.5t204 54.5q116 0 186 -48.5t57 -141.5h-90q7 53 -41 83t-125 30q-76 0 -139 -36t-74 -98z
M323 69v1q40 0 77.5 9t70.5 27t53 50.5t20 75.5q0 60 -49.5 92.5t-119.5 32.5q-87 0 -155.5 -43.5t-68.5 -122.5q0 -61 50 -91.5t122 -30.5z" />
    <glyph glyph-name="seven.tf" 
d="M175 700h512l-2 -54l-455 -646h-98l441 620h-331l-21 -102h-78z" />
    <glyph glyph-name="eight.tf" 
d="M37 196l2 2q10 57 56 102t108 62q-96 39 -96 129q0 56 28.5 100t75 70t101 39.5t112.5 13.5q65 0 119.5 -17t92 -57.5t37.5 -99.5q0 -63 -42.5 -109t-112.5 -68q49 -15 79.5 -56t30.5 -91q0 -60 -30 -106.5t-80 -72.5t-107 -39t-118 -13q-55 0 -103 11.5t-87.5 35
t-57.5 66t-8 98.5zM579 516q8 41 -17 70.5t-64.5 42t-86.5 12.5q-81 0 -146.5 -36.5t-65.5 -101.5q0 -52 52 -79t117 -27q72 0 136 30t75 89zM356 328v2q-50 0 -98.5 -13t-88.5 -47.5t-40 -84.5q0 -55 55 -85t126 -30q53 0 103.5 14.5t87.5 48.5t37 80q0 57 -56.5 86
t-125.5 29z" />
    <glyph glyph-name="nine.tf" 
d="M541 352v3q-76 -88 -212 -88q-103 0 -173.5 46.5t-70.5 141.5q0 86 51 146.5t122 86t151 25.5q54 0 100.5 -13.5t83.5 -40t53.5 -71t6.5 -101.5l-50 -286q-18 -101 -109 -155.5t-204 -54.5q-117 0 -187 48.5t-57 141.5h89q-7 -53 41.5 -83t125.5 -30q76 0 139 36t74 98z
M395 633l-1 -1q-40 0 -77.5 -9t-70.5 -27t-53 -51t-20 -76q0 -61 49 -92.5t120 -31.5q87 0 155.5 43.5t68.5 122.5q0 61 -50 91.5t-121 30.5z" />
    <glyph glyph-name="bullet.case" horiz-adv-x="345" 
d="M161 226l-1 -1q-43 0 -69 25t-26 67q0 55 39 91.5t95 36.5q41 0 67 -25.5t26 -66.5q0 -55 -38.5 -91t-92.5 -36z" />
    <glyph glyph-name="periodcentered.case" horiz-adv-x="256" 
d="M77 326q0 29 21 47t47 18q20 0 33 -12t13 -34q0 -30 -20 -47t-46 -18q-20 -1 -34 11.5t-14 34.5z" />
    <glyph glyph-name="braceleft.case" horiz-adv-x="333" 
d="M227 -78l-1 2q-101 -16 -135.5 20.5t-18.5 128.5l25 144q17 102 -57 102l11 62q76 0 93 102l24 137q16 92 65.5 130t142.5 20l-11 -62q-55 11 -79.5 -9t-35.5 -82l-24 -134q-5 -29 -8.5 -43.5t-13.5 -36t-27.5 -34.5t-44.5 -20q25 -7 38 -20t15.5 -34.5t1 -36t-6.5 -43.5
l-25 -141q-11 -61 5.5 -79t77.5 -9z" />
    <glyph glyph-name="braceright.case" horiz-adv-x="333" 
d="M-15 -14v1q59 -9 82 9t34 78l25 142q5 30 8.5 43.5t13.5 36t27.5 35t43.5 19.5q-24 7 -37.5 20t-15.5 34.5t-0.5 35.5t6.5 43l24 135q11 62 -7 82t-76 9l10 61q99 18 135 -20t20 -129l-24 -138q-17 -102 57 -102l-11 -63q-76 0 -93 -102l-26 -144q-16 -92 -63.5 -128.5
t-143.5 -20.5z" />
    <glyph glyph-name="bracketleft.case" horiz-adv-x="347" 
d="M187 790h208l-13 -75h-124l-130 -734h124l-13 -76h-208z" />
    <glyph glyph-name="bracketright.case" horiz-adv-x="346" 
d="M178 -95h-208l13 76h124l130 734h-124l13 75h208z" />
    <glyph glyph-name="parenleft.case" horiz-adv-x="344" 
d="M396 743q-100 -65 -165 -166.5t-86 -216.5q-21 -118 7.5 -219t107.5 -169l-55 -62q-77 56 -116.5 153.5t-39.5 207.5q0 156 83 299t232 231z" />
    <glyph glyph-name="parenright.case" horiz-adv-x="342" 
d="M157 803v-1q77 -58 117 -155t40 -206q0 -153 -82.5 -297.5t-229.5 -230.5l-32 63q127 84 192.5 204.5t65.5 256.5q0 93 -31.5 175t-91.5 134z" />
    <glyph glyph-name="emdash.case" horiz-adv-x="709" 
d="M87 375h560l-13 -77h-560z" />
    <glyph glyph-name="endash.case" horiz-adv-x="607" 
d="M87 373h458l-14 -77h-458z" />
    <glyph glyph-name="hyphen.case" horiz-adv-x="502" 
d="M86 378h358l-14 -79h-358z" />
    <glyph glyph-name="guillemotleft.case" horiz-adv-x="454" 
d="M226 557h88l-176 -220l98 -221h-88l-99 221zM186 337l178 220h87l-175 -220l97 -221h-87z" />
    <glyph glyph-name="guillemotright.case" horiz-adv-x="480" 
d="M120 122h-87l175 221l-97 220h87l99 -220zM435 343l-177 -221h-87l175 221l-97 220h87z" />
    <glyph glyph-name="guilsinglleft.case" horiz-adv-x="344" 
d="M62 344l176 220h88l-175 -220l98 -221h-88z" />
    <glyph glyph-name="guilsinglright.case" horiz-adv-x="344" 
d="M122 120h-88l176 221l-98 220h88l99 -220z" />
    <glyph glyph-name="florin.tf" 
d="M312 417l-2 -1h-144l13 72h144l7 39q15 85 67 132t131 47q60 0 105 -36l-44 -61q-37 25 -71 25q-87 0 -106 -107l-7 -39h170l-13 -72h-169l-74 -418q-15 -86 -64 -133t-127 -47q-52 0 -96 35l44 60q27 -24 62 -24q81 0 100 110z" />
    <glyph glyph-name="cent.tf" 
d="M292 -16h1q-80 12 -128.5 68.5t-48.5 141.5q0 113 76 194.5t190 99.5l12 65h77l-12 -65q82 -12 132 -73l-60 -52q-45 53 -122 53q-86 0 -149 -59t-63 -153q0 -68 41.5 -108t107.5 -40q71 0 140 57l42 -59q-74 -60 -159 -71l-13 -71h-77z" />
    <glyph glyph-name="dollar.tf" 
d="M325 -104h-80l16 91q-137 6 -219 94l25 139h79l-14 -98q66 -54 173 -54q36 0 69.5 5.5t67.5 18.5t57.5 39.5t29.5 63.5q4 20 -1.5 37t-14.5 28t-27.5 21t-32.5 15.5t-39 11.5t-36 7.5t-34 5.5q-45 7 -76.5 15t-65.5 23t-53 35t-28 52t-2 74q15 92 93 139.5t177 53.5
l17 93h81l-17 -95q111 -10 183 -77l-13.5 -69.5t-12.5 -69.5h-77l14 101q-59 41 -159 41q-81 0 -141.5 -34t-60.5 -99q0 -24 12 -41.5t37.5 -29t51 -18.5t64.5 -14q140 -22 191 -56q75 -48 57 -150q-12 -65 -56 -111t-98.5 -67.5t-119.5 -27.5z" />
    <glyph glyph-name="Euro.tf" 
d="M567 8l1 -3q-63 -20 -126 -20q-149 0 -221.5 69.5t-77.5 193.5h-65l12 69h56v5q0 14 2 24.5t5 18.5t3 10h-56l13 70h67q44 119 144 192t244 73q50 0 101 -16l-39 -77q-36 10 -76 10q-204 0 -284 -182h253l-30 -70h-253q-1 -4 -3 -14.5t-3 -14.5q-3 -21 -3 -26h238
l-27 -69h-207q5 -86 60.5 -132.5t160.5 -46.5q50 0 100 18z" />
    <glyph glyph-name="sterling.tf" 
d="M26 0l14 81l2 -1q124 82 129 217h-92l13 70h76q-5 60 -5 84q0 122 81 189.5t207 67.5q103 0 158.5 -46.5t39.5 -147.5h-78q9 64 -29 91t-105 27q-88 0 -139.5 -48t-51.5 -136q0 -31 2 -79h240l-12 -70h-224q-2 -61 -28.5 -121.5t-84.5 -100.5h362l22 108h78l-33 -185
h-542z" />
    <glyph glyph-name="yen.tf" 
d="M324 620h-83l119 -257l213 257h-83l14 80h255l-14 -80h-71l-217 -257h102l-12 -67h-147l-10 -12l-8 -45h158l-12 -66h-158l-16 -94h90l-14 -79h-268l14 79h90l16 94h-155l12 66h155l8 45l-6 12h-147l12 67h103l-124 257h-71l14 80h255z" />
    <glyph glyph-name="bar.case" horiz-adv-x="283" 
d="M264 756l-147 -832h-82l147 832h82z" />
    <glyph glyph-name="commaaccentcomb.alt" horiz-adv-x="502" 
d="M373 698v-1q28 -7 28 -37q0 -42 -39 -56q-35 -13 -58 9q-13 12 -13 32q0 7 9 26t29.5 57.5t30.5 59.5h55z" />
    <glyph glyph-name="_0004" horiz-adv-x="0" 
 />
    <glyph glyph-name="asterisk.alt" horiz-adv-x="377" 
d="M129 508l60 60l-74 18q-13 7 -11.5 22t15 29t26.5 9l71 -26l8 69q3 16 19.5 22.5t31.5 0t13 -22.5l-16 -69l81 26q20 6 27 -17q8 -26 -11 -39q-4 -3 -8 -4l-80 -18l39 -60q14 -21 -11 -40q-24 -18 -41 -6q-5 3 -7 10l-32 63l-54 -63q-15 -22 -39 -11q-22 10 -17 31
q2 8 10 16z" />
    </font>
</defs>
</svg>
