<?xml version="1.0" standalone="no"?>
<!DOCTYPE svg PUBLIC "-//W3C//DTD SVG 1.1//EN" "http://www.w3.org/Graphics/SVG/1.1/DTD/svg11.dtd" >
<svg>
<metadata>
Created by FontForge 20090622 at Tue Sep 15 14:36:03 2015
 By deploy user
Copyright (c) 2013 by Fontfabric. All rights reserved.
</metadata>
<defs>
<font id="NexaSlabHeavyItalic" horiz-adv-x="687" >
  <font-face 
    font-family="Nexa Slab Heavy Italic"
    font-weight="900"
    font-style="italic"
    font-stretch="normal"
    units-per-em="1000"
    panose-1="2 0 5 0 0 0 0 0 0 0"
    ascent="700"
    descent="-300"
    x-height="495"
    cap-height="700"
    bbox="-229 -299 1192 975"
    underline-thickness="50"
    underline-position="-25"
    unicode-range="U+000D-U+FB02"
  />
<missing-glyph horiz-adv-x="629" 
d="M37 0l123 700h538l-123 -700h-538zM205 444l105 -2q4 26 29.5 43.5t55.5 17.5q34 0 54 -13.5t15 -47.5q-3 -17 -14.5 -26.5t-38 -20t-36.5 -15.5q-1 -1 -14 -10.5t-17.5 -13.5t-15.5 -16.5t-17 -24.5t-12.5 -31.5t-10.5 -43.5h101q6 33 22 57q8 6 52 25t71 46.5t34 75.5
q13 76 -32.5 115t-124.5 39q-77 0 -134.5 -39.5t-71.5 -114.5zM259 127q0 -24 14.5 -36.5t34.5 -14.5q29 0 50.5 19t21.5 52q0 24 -14 37t-36 13q-27 0 -49 -18t-22 -52z" />
    <glyph glyph-name=".notdef" horiz-adv-x="629" 
d="M37 0l123 700h538l-123 -700h-538zM205 444l105 -2q4 26 29.5 43.5t55.5 17.5q34 0 54 -13.5t15 -47.5q-3 -17 -14.5 -26.5t-38 -20t-36.5 -15.5q-1 -1 -14 -10.5t-17.5 -13.5t-15.5 -16.5t-17 -24.5t-12.5 -31.5t-10.5 -43.5h101q6 33 22 57q8 6 52 25t71 46.5t34 75.5
q13 76 -32.5 115t-124.5 39q-77 0 -134.5 -39.5t-71.5 -114.5zM259 127q0 -24 14.5 -36.5t34.5 -14.5q29 0 50.5 19t21.5 52q0 24 -14 37t-36 13q-27 0 -49 -18t-22 -52z" />
    <glyph glyph-name=".null" horiz-adv-x="0" 
 />
    <glyph glyph-name="nonmarkingreturn" horiz-adv-x="333" 
 />
    <glyph glyph-name="CR" unicode="&#xd;" horiz-adv-x="175" 
 />
    <glyph glyph-name="space" unicode=" " horiz-adv-x="225" 
 />
    <glyph glyph-name="exclam" unicode="!" horiz-adv-x="320" 
d="M220 214h-149l82 486h157zM107 -14q-33 0 -55.5 19.5t-22.5 55.5q0 49 32.5 76t75.5 27q33 0 55.5 -19t22.5 -54q0 -48 -33.5 -76.5t-74.5 -28.5z" />
    <glyph glyph-name="quotedbl" unicode="&#x22;" horiz-adv-x="433" 
d="M317 697h126l-48 -270h-126zM130 697h125l-48 -270h-125z" />
    <glyph glyph-name="numbersign" unicode="#" horiz-adv-x="712" 
d="M461 431h-109l-78 -180h109zM321 700h146l-62 -147h105l62 147h146l-62 -147h66l-23 -132h-100l-70 -159h76l-24 -135h-106l-54 -127h-146l54 127h-107l-53 -127h-144l54 127h-76l24 135h110l69 159h-83l23 132h114z" />
    <glyph glyph-name="dollar" unicode="$" horiz-adv-x="650" 
d="M321 -110h-135l18 95q-66 4 -110.5 23.5t-90.5 66.5l27 148h132l-6 -80q59 -26 127 -27q172 -2 172 101q0 17 -9.5 30t-30 21t-34 11.5t-41 8t-31.5 5.5q-59 7 -98 18t-73.5 33.5t-48.5 62.5t-7 99q9 52 36 91t66.5 62t77.5 36t81 19l17 95h137l-18 -98q77 -8 154 -77
q-24 -118 -29 -147h-129l7 84q-34 17 -107 17q-56 0 -98.5 -21t-50.5 -60q-7 -35 24.5 -52.5t98.5 -25.5q52 -6 87 -13.5t73 -23.5t58.5 -39t31 -61.5t3.5 -89.5q-24 -172 -262 -214z" />
    <glyph glyph-name="percent" unicode="%" horiz-adv-x="810" 
d="M270 708q68 0 104.5 -39t36.5 -94q0 -71 -54 -127t-142 -56q-68 0 -104 39.5t-36 95.5q0 69 54 125t141 56zM617 702h156l-577 -702h-158zM249 600q-23 0 -39 -14t-20 -33q-5 -21 7 -37t38 -16q27 0 43 17.5t16 40.5q0 16 -13 29t-32 13zM615 305q68 0 104.5 -38.5
t36.5 -94.5q0 -71 -53.5 -127t-141.5 -56q-69 0 -105 39.5t-36 95.5q0 68 54.5 124.5t140.5 56.5zM594 197q-23 0 -39 -14t-20 -34q-5 -21 7.5 -36.5t38.5 -15.5t42.5 18t16.5 40q0 16 -13 29t-33 13z" />
    <glyph glyph-name="ampersand" unicode="&#x26;" horiz-adv-x="706" 
d="M447 214l16 89h-148q-68 0 -103 -29.5t-35 -68.5t31.5 -60.5t82.5 -21.5q19 0 39.5 3t47 11.5t45.5 28.5t24 48zM602 301l-16 -91q-7 -43 7 -59.5t49 -9.5l-26 -144q-59 -9 -92.5 9t-40.5 77q-51 -53 -101.5 -71.5t-119.5 -21.5q-49 -2 -89.5 5.5t-75.5 26t-55 54.5
t-20 87q0 61 38.5 119.5t94.5 76.5q-32 11 -48 45t-16 71q0 61 30 109t77 75t99 40.5t103 13.5q57 0 101 -10t77 -32t46.5 -61.5t4.5 -94.5l-144 -1q7 37 -24.5 56t-84.5 19q-65 0 -99 -28.5t-39 -60.5q-6 -30 14 -49.5t44.5 -25.5t49.5 -6h335l-21 -118h-58z" />
    <glyph glyph-name="quotesingle" unicode="'" horiz-adv-x="247" 
d="M130 699h128l-48 -272h-128z" />
    <glyph glyph-name="parenleft" unicode="(" horiz-adv-x="361" 
d="M348 736l57 -94q-108 -79 -170.5 -196.5t-62.5 -233.5q0 -175 109 -277l-93 -102q-81 60 -122.5 158.5t-41.5 207.5q0 151 85.5 296.5t238.5 240.5z" />
    <glyph glyph-name="parenright" unicode=")" horiz-adv-x="359" 
d="M78 646l93 94q79 -61 119.5 -161t40.5 -209q0 -153 -84 -297t-238 -236l-55 100q114 81 172 188.5t58 227.5q0 81 -27 161.5t-79 131.5z" />
    <glyph glyph-name="asterisk" unicode="*" horiz-adv-x="420" 
d="M385 455l-96 -62l-49 89l-73 -89l-76 64l81 79l-91 18l49 106l89 -38l10 98h107l-27 -100l106 39l11 -104l-101 -19z" />
    <glyph glyph-name="plus" unicode="+" horiz-adv-x="491" 
d="M32 284l23 128h140l25 142h136l-25 -142h146l-23 -128h-146l-25 -143h-136l25 143h-140z" />
    <glyph glyph-name="comma" unicode="," horiz-adv-x="266" 
d="M19 -107l31 90q-47 9 -47 59q0 60 55 83q48 21 89 -2q37 -21 33 -67q-2 -20 -13 -46t-58 -117h-90z" />
    <glyph glyph-name="hyphen" unicode="-" horiz-adv-x="486" 
d="M43 220l23 131h373l-23 -131h-373z" />
    <glyph glyph-name="period" unicode="." horiz-adv-x="253" 
d="M73 -17q-29 0 -49.5 18.5t-20.5 50.5q0 45 30 70.5t69 25.5q29 0 49.5 -18.5t20.5 -51.5q0 -44 -31 -69.5t-68 -25.5z" />
    <glyph glyph-name="slash" unicode="/" horiz-adv-x="513" 
d="M-43 -82l474 850h141l-475 -850h-140z" />
    <glyph glyph-name="zero" unicode="0" horiz-adv-x="710" 
d="M49 305l15 93q27 156 121.5 234t219.5 78q146 0 225 -81.5t52 -234.5l-16 -89q-28 -165 -123.5 -241t-234.5 -76q-143 -1 -215 81t-44 236zM210 394l-16 -89q-16 -92 13.5 -135.5t116.5 -43.5q74 0 127.5 46t68.5 135l15 89q15 87 -20.5 132.5t-109.5 45.5
q-75 0 -127.5 -46t-67.5 -134z" />
    <glyph glyph-name="one" unicode="1" horiz-adv-x="432" 
d="M-9 0l21 119h118l72 410l-117 -34l24 136l272 90l-106 -602h110l-21 -119h-373z" />
    <glyph glyph-name="two" unicode="2" horiz-adv-x="658" 
d="M169 178l-8 -44h272l23 88h134l-39 -222h-561l32 179q11 62 43 107.5t78.5 69.5t96.5 35t107 11q25 0 56 8t61.5 33.5t30.5 61.5q0 77 -110 77q-52 0 -92.5 -22.5t-54.5 -65.5h-146q30 118 109 167t212 49q96 0 162.5 -47.5t66.5 -140.5q0 -125 -90.5 -190t-229.5 -65
q-20 0 -41.5 -3.5t-46 -12.5t-42.5 -28t-23 -45z" />
    <glyph glyph-name="three" unicode="3" horiz-adv-x="653" 
d="M268 324l-20 48l178 197h-182l-23 -97h-131l40 228h533l-9 -55l-196 -215q143 -25 143 -163q0 -120 -86 -198.5t-239 -78.5q-40 0 -73 3.5t-72.5 17t-65 36t-38 64.5t-2.5 99h147q-15 -86 123 -86q59 0 106.5 32t47.5 94q0 111 -181 74z" />
    <glyph glyph-name="four" unicode="4" horiz-adv-x="680" 
d="M352 -1l23 129h-382l10 101l430 471h189l-77 -437h97l-24 -135h-97l-23 -129h-146zM192 263h207l49 278z" />
    <glyph glyph-name="five" unicode="5" horiz-adv-x="635" 
d="M221 458h118q123 0 189.5 -41t66.5 -140q0 -61 -18.5 -110.5t-49.5 -82t-73.5 -54t-88.5 -31t-96 -9.5q-138 0 -200.5 50.5t-41.5 173.5h144q-5 -28 5 -47.5t31 -28t41 -12t44 -3.5q29 0 62 10.5t63 41t30 75.5q0 44 -32.5 61t-98.5 17h-253l65 372h493l-24 -136h-356z
" />
    <glyph glyph-name="six" unicode="6" horiz-adv-x="683" 
d="M226 472l-13 -74q31 27 77.5 42t87.5 15q51 0 94 -9.5t80.5 -30t59 -60t21.5 -93.5q0 -66 -31 -120.5t-80.5 -87.5t-108.5 -51t-119 -18q-56 0 -105.5 15.5t-87 44.5t-55 75.5t-7.5 103.5l44 252q13 77 66.5 132t122.5 80t145 25q131 0 200.5 -52t48.5 -161h-144
q9 45 -26 68.5t-96 23.5q-66 0 -115 -33t-59 -87zM317 115q70 2 119 34t49 88q0 44 -34.5 67t-93.5 23q-68 0 -116.5 -28.5t-56.5 -79.5q-7 -49 31 -76.5t102 -27.5z" />
    <glyph glyph-name="seven" unicode="7" horiz-adv-x="570" 
d="M219 567l-21 -94h-136l40 227h528l-5 -78l-416 -622h-164l384 567h-210z" />
    <glyph glyph-name="eight" unicode="8" horiz-adv-x="691" 
d="M26 213q7 40 41.5 83.5t88.5 65.5q-62 37 -62 114q0 111 92.5 174t230.5 63q116 0 185.5 -47.5t69.5 -134.5q0 -47 -30.5 -95t-83.5 -70q45 -22 64.5 -65t12.5 -87q-13 -83 -67.5 -137t-125 -74t-156.5 -19q-63 0 -112.5 10.5t-89.5 35t-55.5 71t-2.5 112.5zM519 499
q8 38 -24 65t-102 27q-69 0 -108 -30.5t-42 -61.5q-5 -38 29.5 -61t92.5 -23q61 0 104 23t50 61zM345 306q-77 0 -126 -29t-49 -79q0 -82 137 -82q78 0 126.5 27t54.5 72q7 42 -34 66.5t-109 24.5z" />
    <glyph glyph-name="nine" unicode="9" horiz-adv-x="685" 
d="M387 589q-67 -2 -116 -35t-49 -87q0 -42 34.5 -67t91.5 -25q73 0 123 32t50 89q0 43 -37 68t-97 25zM477 230l14 78q-50 -61 -165 -61q-69 0 -124 17.5t-93 63.5t-38 115q0 65 31 118.5t80.5 86.5t108.5 51t119 18q56 0 106 -15.5t87 -44.5t54.5 -75.5t7.5 -103.5
l-45 -252q-14 -77 -67.5 -132t-122 -80t-144.5 -25q-127 0 -202 52.5t-55 160.5h144q-8 -40 34 -63t98 -23q59 -1 111 30.5t61 83.5z" />
    <glyph glyph-name="colon" unicode=":" horiz-adv-x="270" 
d="M134 282q-29 0 -48 17t-19 48q0 42 28.5 66.5t65.5 24.5q27 0 46 -17.5t19 -47.5q0 -42 -28 -66.5t-64 -24.5zM83 -8q-28 0 -47.5 17.5t-19.5 47.5q0 42 28.5 66.5t65.5 24.5q27 0 46 -17t19 -48q0 -41 -28.5 -66t-63.5 -25z" />
    <glyph glyph-name="semicolon" unicode=";" horiz-adv-x="286" 
d="M147 282q-29 0 -48 16.5t-19 46.5q0 42 28.5 66.5t65.5 24.5q27 0 46 -17t19 -46q0 -42 -28 -66.5t-64 -24.5zM25 -107l31 90q-48 10 -48 58q0 59 55 84q48 21 89 -2q38 -21 34 -67q-2 -20 -13 -46t-58 -117h-90z" />
    <glyph glyph-name="less" unicode="&#x3c;" horiz-adv-x="392" 
d="M29 318l275 238l72 -94l-176 -149l125 -146l-107 -95l-191 237z" />
    <glyph glyph-name="equal" unicode="=" horiz-adv-x="532" 
d="M72 366l22 123h412l-22 -123h-412zM37 166l22 125h412l-22 -125h-412z" />
    <glyph glyph-name="greater" unicode="&#x3e;" horiz-adv-x="395" 
d="M181 556l193 -238l-2 -9l-277 -237l-73 88l177 153l-124 155z" />
    <glyph glyph-name="question" unicode="?" horiz-adv-x="626" 
d="M205 498h-141q19 105 112 163t216 58q116 0 187 -60t48 -168q-9 -51 -40 -88t-63 -53.5t-71.5 -34.5t-53.5 -28l-20 -17.5t-13 -20.5t-10 -37h-149q8 46 22.5 78t37.5 52.5t42.5 31.5t52.5 25q57 24 87 48t30 63q0 77 -119 77q-71 0 -109.5 -25t-45.5 -64zM245 -7
q-32 0 -55 18.5t-23 53.5q0 47 32.5 72t74.5 25q33 0 55.5 -17.5t22.5 -51.5q0 -47 -33 -73.5t-74 -26.5z" />
    <glyph glyph-name="at" unicode="@" horiz-adv-x="933" 
d="M512 528q-60 0 -123 -23.5t-118 -66t-90 -112t-35 -152.5q0 -118 73 -175.5t183 -57.5q51 0 143 34l36 -95q-97 -52 -202 -52q-74 0 -137 19t-114 56.5t-80 102t-29 148.5q0 94 31 174t82 135.5t117.5 95.5t138 58.5t143.5 18.5q172 0 263.5 -80t91.5 -230
q0 -152 -63.5 -252t-175.5 -100q-82 0 -78 82q-26 -36 -75.5 -53t-82.5 -17q-101 0 -157 54.5t-56 146.5q0 122 82.5 206t197.5 84q47 0 83 -18t50 -49l24 52l96 -25l-60 -340q-3 -21 13 -21q24 1 45.5 47.5t32.5 102t11 94.5q0 112 -63.5 160t-197.5 48zM481 361
q-73 0 -111.5 -46t-38.5 -109q0 -47 26 -73t75 -26q68 0 109.5 45.5t41.5 105.5q0 44 -26 73.5t-76 29.5z" />
    <glyph glyph-name="A" unicode="A" horiz-adv-x="827" 
d="M576 135l-19 79h-296l-49 -79h72l-24 -135h-292l24 135h62l277 432h-65l23 133h292l147 -565h64l-24 -135h-293l24 135h77zM477 566l-73 -124l-64 -102h186l-25 102z" />
    <glyph glyph-name="B" unicode="B" horiz-adv-x="756" 
d="M392 0h-387l24 135h76l76 432h-74l23 133h385q101 0 159 -41t58 -126q0 -118 -112 -172q101 -48 78 -164q-12 -59 -40.5 -99t-71.5 -61t-89 -29t-105 -8zM326 568l-24 -139h165q113 0 113 83q0 56 -88 56h-166zM278 297l-28 -163h166q111 0 126 82q8 45 -19.5 63
t-79.5 18h-165z" />
    <glyph glyph-name="C" unicode="C" 
d="M488 715q123 0 214 -71l-17.5 -85.5t-15.5 -77.5h-132l10 88q-40 10 -83 10q-59 0 -108 -20.5t-81 -54t-52 -73.5t-27 -83q-10 -40 -4.5 -79.5t22.5 -71t60.5 -51.5t109.5 -20q42 0 96 19t88 49l70 -108q-124 -100 -278 -100q-78 0 -138 19.5t-97 53.5t-59.5 80
t-24.5 99.5t6 112.5q11 69 45.5 133t89 116t134.5 83.5t172 31.5z" />
    <glyph glyph-name="D" unicode="D" horiz-adv-x="782" 
d="M343 0h-343l24 135h81l76 433h-80l24 133h342q172 0 244.5 -99t40.5 -254q-31 -157 -132.5 -252.5t-276.5 -95.5zM255 134h112q53 0 96.5 20t71 54t45 71t26.5 79q18 86 -23 147.5t-140 61.5h-112z" />
    <glyph glyph-name="E" unicode="E" horiz-adv-x="704" 
d="M249 138h244l25 104h130l-43 -242h-603l24 135h79l76 432h-73l23 133h582l-41 -236h-126l11 102h-232l-26 -144h213l-23 -133h-213z" />
    <glyph glyph-name="F" unicode="F" horiz-adv-x="638" 
d="M324 0h-318l24 135h75l76 432h-75l23 133h552l-41 -236h-127l12 106h-194l-29 -160h193l-23 -134h-193l-25 -141h94z" />
    <glyph glyph-name="G" unicode="G" horiz-adv-x="723" 
d="M483 714q76 0 132.5 -15t103.5 -56q-14 -80 -33 -173h-131l12 97q-44 13 -108 13q-115 0 -192 -83.5t-77 -197.5q0 -76 46 -127t146 -51q75 0 134 36l18 98h-185l21 123h316l-46 -279q-52 -59 -128 -88t-159 -29q-82 0 -144 24.5t-98 66.5t-53.5 93.5t-17.5 111.5
q0 82 29.5 159t83.5 139.5t140 100t190 37.5z" />
    <glyph glyph-name="H" unicode="H" horiz-adv-x="863" 
d="M703 135h73l-24 -135h-291l24 135h70l29 165h-304l-29 -165h68l-24 -135h-289l24 135h75l76 430h-77l23 135h294l-23 -135h-71l-24 -134h304l24 134h-71l23 135h295l-23 -135h-76z" />
    <glyph glyph-name="I" unicode="I" horiz-adv-x="415" 
d="M253 135h81l-24 -135h-308l24 135h80l76 430h-77l23 135h304l-23 -135h-80z" />
    <glyph glyph-name="J" unicode="J" horiz-adv-x="684" 
d="M325 566l23 134h327l-69 -392q-20 -148 -107 -235t-251 -87q-143 0 -203 71.5t-30 239.5h144q-7 -48 -6.5 -86.5t28 -62.5t82.5 -24q83 0 130.5 50.5t62.5 133.5l45 258h-176z" />
    <glyph glyph-name="K" unicode="K" horiz-adv-x="772" 
d="M326 565l-32 -181l167 124l91 57h-82l23 135h312l-23 -135h-59l-239 -185l153 -247h86l-23 -133h-257l21 122l-102 166l-98 -72l-15 -83h84l-23 -133h-304l23 133h75l77 432h-77l23 135h276l-23 -135h-54z" />
    <glyph glyph-name="L" unicode="L" horiz-adv-x="658" 
d="M180 565h-77l23 135h297l-23 -135h-72l-76 -431h219l24 102h130l-42 -236h-569l23 133h66z" />
    <glyph glyph-name="M" unicode="M" horiz-adv-x="1029" 
d="M918 0h-291l23 133h71l62 351l-269 -261h-30l-169 267l-63 -357h68l-23 -133h-295l23 133h80l77 432h-80l23 135h247l160 -280l259 280h252l-23 -135h-76l-77 -432h74z" />
    <glyph glyph-name="N" unicode="N" horiz-adv-x="878" 
d="M305 0h-294l23 133h69l77 432h-78l23 135h189l295 -436l54 301h-80l23 135h296l-23 -135h-71l-100 -565h-97l-306 443l-55 -310h78z" />
    <glyph glyph-name="O" unicode="O" horiz-adv-x="802" 
d="M479 715q116 -1 190.5 -55.5t98.5 -136t6 -177.5q-13 -72 -43 -134t-79.5 -115t-126.5 -84t-172 -31q-164 0 -243.5 98t-63.5 262q20 172 142.5 272.5t290.5 100.5zM625 346q5 34 6 66.5t-9 63t-28.5 53.5t-52.5 36.5t-81 13.5q-103 0 -173 -64t-89 -170
q-18 -93 24.5 -158t154.5 -65q104 0 167.5 67t80.5 157z" />
    <glyph glyph-name="P" unicode="P" horiz-adv-x="740" 
d="M103 132l77 434h-78l23 134h400q124 0 180 -68t44 -164q-6 -47 -26.5 -88t-57 -74.5t-93.5 -53t-129 -19.5h-176l-18 -101h79l-23 -132h-294l23 132h69zM290 363h176q78 0 117 58q33 50 12 96q-22 49 -93 49h-176z" />
    <glyph glyph-name="Q" unicode="Q" horiz-adv-x="802" 
d="M483 715q116 -1 189.5 -55.5t96 -135.5t4.5 -178q-22 -121 -95 -212l71 -82l-126 -105l-65 83q-88 -48 -209 -48q-82 0 -144 26t-97.5 70.5t-52 98t-14.5 113.5q8 199 133 312t309 113zM624 346q10 40 4.5 81.5t-21.5 75t-54.5 55t-93.5 21.5q-103 0 -172 -64t-88 -170
q-18 -95 25 -159t152 -64q105 0 167.5 65t80.5 159z" />
    <glyph glyph-name="R" unicode="R" horiz-adv-x="777" 
d="M299 389h166q125 0 125 106q0 72 -94 72h-166zM463 120l-99 147h-87l-23 -131h82l-24 -136h-303l24 136h72l76 430h-77l23 134h392q217 0 227 -171q6 -111 -59 -177.5t-166 -76.5l108 -139h85l-24 -136h-249z" />
    <glyph glyph-name="S" unicode="S" horiz-adv-x="662" 
d="M269 -16q-182 5 -262 86l31 172h132l-9 -100q52 -24 129 -24q169 0 169 100q0 19 -9.5 32.5t-29.5 21.5t-33.5 11.5t-40 7t-30.5 4.5q-119 14 -180.5 63t-44.5 155q19 100 108 151.5t214 51.5q157 0 230 -80q-22 -107 -29 -149h-129l7 83q-39 19 -105 19q-131 0 -146 -80
q-7 -36 21 -54t93 -26q61 -7 107 -20.5t85 -38.5t56.5 -67t9.5 -99q-22 -220 -344 -220z" />
    <glyph glyph-name="T" unicode="T" horiz-adv-x="675" 
d="M442 0h-312l23 134h84l77 437h-106l-23 -99h-127l40 228h623l-40 -229h-127l8 100h-104l-77 -437h84z" />
    <glyph glyph-name="U" unicode="U" horiz-adv-x="858" 
d="M399 114q83 0 136 50.5t69 140.5l46 261h-88l23 134h303l-23 -134h-71l-46 -263q-56 -325 -365 -325q-67 0 -121.5 17.5t-95 54.5t-56 101.5t-0.5 151.5l46 263h-67l23 134h302l-23 -134h-88l-46 -263q-34 -189 142 -189z" />
    <glyph glyph-name="V" unicode="V" horiz-adv-x="803" 
d="M262 -2l-135 568h-68l24 134h304l-24 -134h-75l84 -391l224 391h-82l24 134h320l-24 -134h-71l-339 -568h-162z" />
    <glyph glyph-name="W" unicode="W" horiz-adv-x="1141" 
d="M1102 566l-282 -566h-155l-51 224l-31 162l-84 -163l-127 -223h-153l-90 566h-71l24 134h311l-24 -134h-73l46 -355l244 460h100l84 -460l166 355h-83l24 134h315l-24 -134h-66z" />
    <glyph glyph-name="X" unicode="X" horiz-adv-x="767" 
d="M484 352l145 -222h92l-22 -130h-265l21 121l-82 135l-125 -126l83 -4l-22 -126h-332l22 130h68l229 227l-139 211h-75l22 132h250l-21 -119l81 -131l115 119l-72 6l25 126h314l-23 -132h-67z" />
    <glyph glyph-name="Y" unicode="Y" horiz-adv-x="729" 
d="M402 132h80l-23 -132h-313l23 132h79l25 139l-147 295h-58l24 134h297l-24 -134h-69l76 -160l144 160h-69l24 134h312l-24 -134h-59l-273 -294z" />
    <glyph glyph-name="Z" unicode="Z" horiz-adv-x="663" 
d="M245 564l-20 -93h-138l40 229h550l-11 -63l-447 -498h228l22 107h143l-43 -246h-582l14 81l432 483h-188z" />
    <glyph glyph-name="bracketleft" unicode="[" horiz-adv-x="369" 
d="M-3 -181l157 889h254l-22 -122h-116l-113 -643h116l-22 -124h-254z" />
    <glyph glyph-name="backslash" unicode="\" horiz-adv-x="500" 
d="M417 -82h-143l-173 850h142z" />
    <glyph glyph-name="bracketright" unicode="]" horiz-adv-x="370" 
d="M362 709l-157 -889h-255l22 124h116l113 643h-116l22 122h255z" />
    <glyph glyph-name="asciicircum" unicode="^" horiz-adv-x="648" 
d="M184 322h-144l1 8l311 372h83l188 -372l-1 -8h-152l-104 219z" />
    <glyph glyph-name="underscore" unicode="_" horiz-adv-x="580" 
d="M-20 -118l21 120h473l-21 -120h-473z" />
    <glyph glyph-name="grave" unicode="`" horiz-adv-x="271" 
d="M142 684l3 16h157l46 -140l-1 -7h-124z" />
    <glyph glyph-name="a" unicode="a" horiz-adv-x="686" 
d="M328 381q-69 0 -117.5 -46.5t-48.5 -115.5q0 -49 28.5 -79t81.5 -30q65 0 111.5 37t56.5 95q12 60 -18 99.5t-94 39.5zM415 56q-43 -40 -87 -54.5t-104 -14.5q-87 1 -144.5 55.5t-57.5 157.5q0 122 80 211t211 96q60 0 99.5 -12.5t65.5 -50.5l17 51h131l-65 -333
q-5 -26 7 -37.5t29 -11t40 6.5l-17 -113q-26 -11 -56.5 -16t-61 -2.5t-55 19.5t-32.5 48z" />
    <glyph glyph-name="b" unicode="b" horiz-adv-x="646" 
d="M141 0h-130l102 577h-65l20 122h205l-45 -259q31 31 78 49t97 18q94 0 148.5 -54t54.5 -155q0 -148 -86.5 -228t-222.5 -79q-43 1 -81.5 17t-54.5 48zM350 379q-24 0 -51.5 -10t-57 -41t-38.5 -76q-11 -69 23.5 -100t82.5 -31q61 0 105.5 42t44.5 111q0 52 -30 78.5
t-79 26.5z" />
    <glyph glyph-name="c" unicode="c" horiz-adv-x="533" 
d="M405 162l67 -94q-89 -80 -214 -80q-105 0 -170 55.5t-65 159.5q0 66 20.5 119.5t53 87.5t76 56.5t86.5 32t88 9.5q106 0 172 -42l-34 -154h-120l12 66q-25 7 -53 7q-79 0 -119 -48.5t-40 -112.5q0 -52 31.5 -78.5t87.5 -26.5q68 0 121 43z" />
    <glyph glyph-name="d" unicode="d" horiz-adv-x="682" 
d="M326 381q-79 0 -121.5 -55t-35.5 -118q4 -38 30.5 -62t70.5 -24q63 0 113 39t50 117q0 56 -32.5 79.5t-74.5 23.5zM560 170q-7 -40 15.5 -49.5t58.5 4.5l-16 -117q-36 -16 -77.5 -18t-78.5 17t-47 59q-39 -45 -79 -61.5t-102 -16.5q-97 0 -152 59t-60 144q-4 76 29 146.5
t106.5 119t171.5 48.5q102 0 140 -60l24 135h-69l21 119h208z" />
    <glyph glyph-name="e" unicode="e" horiz-adv-x="576" 
d="M419 155l66 -91q-46 -38 -109 -58t-121 -20q-118 0 -175.5 59t-57.5 156q0 137 89 223t229 86q123 0 177 -80t8 -231h-365q-2 -87 120 -87q32 0 71.5 11.5t67.5 31.5zM178 305h238q9 43 -18.5 64.5t-77.5 21.5t-88 -22t-54 -64z" />
    <glyph glyph-name="f" unicode="f" horiz-adv-x="369" 
d="M194 0h-137l66 372h-90l19 111h90l5 27q13 73 50.5 119.5t81.5 63.5t98 17q53 0 96 -24l-52 -107q-22 11 -52 11q-33 0 -55.5 -20.5t-29.5 -61.5l-4 -25h104l-19 -111h-105z" />
    <glyph glyph-name="g" unicode="g" horiz-adv-x="677" 
d="M326 373q-59 0 -109.5 -39.5t-50.5 -110.5q0 -49 30.5 -82t79.5 -33q75 0 121 46.5t46 110.5q0 49 -30.5 78.5t-86.5 29.5zM536 -5q-24 -142 -103.5 -200.5t-218.5 -58.5q-118 0 -177.5 54t-40.5 153h140q-5 -41 20 -61t85 -20q128 0 152 134l10 51q-53 -60 -163 -64
q-100 0 -159 56.5t-59 156.5q0 137 88 220.5t213 83.5q109 0 150 -67l22 64h195l-21 -121h-68z" />
    <glyph glyph-name="h" unicode="h" horiz-adv-x="655" 
d="M151 0h-140l103 582h-67l22 118h204l-45 -264q60 63 155 63q215 0 173 -241l-15 -87q-7 -39 19 -48.5t58 3.5l-15 -116q-42 -18 -98 -18q-43 0 -68 15.5t-32 46t-5.5 58.5t8.5 70l14 76q11 61 -13 86.5t-75 23.5q-59 -3 -94.5 -38t-45.5 -90z" />
    <glyph glyph-name="i" unicode="i" horiz-adv-x="331" 
d="M205 547q-29 0 -49.5 18.5t-20.5 49.5q0 41 29.5 66t66.5 25q31 0 51.5 -18t20.5 -50q0 -41 -30 -66t-68 -25zM61 495h203l-55 -316q-8 -44 13 -55.5t62 2.5l-16 -116q-40 -18 -97 -18t-84.5 29t-26.5 71.5t7 89.5l34 195h-60z" />
    <glyph glyph-name="j" unicode="j" horiz-adv-x="301" 
d="M216 551q-31 0 -52 17.5t-21 50.5q0 43 31 69.5t69 25.5q30 0 51.5 -18.5t21.5 -50.5q0 -43 -31 -69t-69 -25zM56 493h216l-94 -535q-13 -75 -48.5 -125t-80 -68t-93.5 -13t-93 33l65 110q41 -24 72.5 -8.5t41.5 71.5l73 415h-80z" />
    <glyph glyph-name="k" unicode="k" horiz-adv-x="585" 
d="M510 2q-25 -11 -77 -11q-50 1 -79.5 26t-59.5 74l-68 106l-49 -32l-29 -165h-137l103 576h-63l21 124h199l-72 -403l140 100l17 97h221l-19 -111h-57l-163 -109l78 -114q26 -35 47 -41t64 7z" />
    <glyph glyph-name="l" unicode="l" horiz-adv-x="301" 
d="M48 578l22 122h201l-92 -529q-7 -39 19 -48.5t59 3.5l-16 -116q-42 -18 -102 -18q-34 0 -57 11t-33 27.5t-13 43.5t-1 49.5t8 55.5l68 399h-63z" />
    <glyph glyph-name="m" unicode="m" horiz-adv-x="951" 
d="M181 0h-141l64 374h-70l20 121h202l5 -53q47 61 130 61q107 0 123 -85q71 84 180 84q111 0 146 -57t13 -172l-16 -94q-7 -44 14 -55.5t63 2.5l-16 -116q-39 -18 -99 -18q-55 0 -81 29t-24.5 71t8.5 89l15 88q18 101 -61 101q-47 0 -76 -31.5t-37 -76.5l-43 -262h-139
l44 262q9 52 -8 80.5t-57 28.5q-95 0 -114 -109z" />
    <glyph glyph-name="n" unicode="n" horiz-adv-x="666" 
d="M220 252l-42 -252h-137l63 376h-70l21 119h196l1 -50q67 57 149 57q104 0 147.5 -56t21.5 -184l-17 -91q-7 -39 18.5 -48.5t56.5 3.5l-14 -116q-40 -18 -100 -18q-57 0 -83 29.5t-23.5 71.5t8.5 88l15 80q3 27 4 51.5t-19 42t-62 17.5q-51 0 -87.5 -32.5t-46.5 -87.5z
" />
    <glyph glyph-name="o" unicode="o" horiz-adv-x="597" 
d="M22 202q0 131 88.5 219t224.5 88q107 0 165.5 -58.5t58.5 -155.5q0 -128 -87.5 -217.5t-227.5 -89.5q-105 0 -163.5 59t-58.5 155zM416 247q12 60 -14 98.5t-82 38.5q-71 0 -113.5 -46.5t-44.5 -114.5q-2 -46 23.5 -75.5t76.5 -29.5q62 0 101 36.5t53 92.5z" />
    <glyph glyph-name="p" unicode="p" horiz-adv-x="676" 
d="M333 111q68 0 110.5 43.5t42.5 113.5q0 48 -27 74t-76 26q-67 0 -109 -46t-42 -103q0 -44 25.5 -76t75.5 -32zM131 -225h-134l106 601h-68l21 121h197l-4 -74q83 80 186 80q95 0 147.5 -54t52.5 -150q0 -143 -83 -228t-228 -85q-94 0 -144 66z" />
    <glyph glyph-name="q" unicode="q" horiz-adv-x="644" 
d="M488 -225h-135l49 273q-69 -63 -172 -63q-100 0 -154 57t-54 153q0 133 82 220t214 88q108 -1 148 -73l18 67h132zM275 119q52 0 101 40.5t49 113.5q0 50 -30 76t-77 26q-65 0 -107.5 -45t-42.5 -107q0 -49 28 -76.5t79 -27.5z" />
    <glyph glyph-name="r" unicode="r" horiz-adv-x="499" 
d="M174 0h-139l66 376h-64l22 121h183l4 -47q64 60 150 60q81 0 126 -48l-86 -119q-31 31 -87 31q-46 0 -83 -28.5t-47 -89.5z" />
    <glyph glyph-name="s" unicode="s" horiz-adv-x="525" 
d="M466 338h-114l4 56q-23 14 -74 14q-38 0 -64 -14.5t-26 -44.5q0 -32 72 -37q102 -6 158.5 -46.5t43.5 -127.5q-15 -74 -80 -115t-177 -41q-51 0 -114 16.5t-98 41.5l28 137h118l-4 -55q32 -19 99 -19q39 0 65.5 12t26.5 37q0 41 -95 45q-96 12 -146 50.5t-35 113.5
q9 52 50 88.5t93 51.5t109 15q106 0 186 -42z" />
    <glyph glyph-name="t" unicode="t" horiz-adv-x="400" 
d="M155 614l142 15l-24 -137h128l-21 -119h-130l-34 -194q-7 -44 25.5 -57.5t80.5 6.5l11 -115q-61 -21 -123 -21q-73 1 -110.5 46.5t-20.5 140.5l34 194h-86l21 119h86z" />
    <glyph glyph-name="u" unicode="u" 
d="M622 495l-58 -325q-7 -39 17.5 -48t57.5 4l-16 -115q-26 -12 -55.5 -17t-60 -3t-54 19.5t-32.5 48.5q-40 -39 -76 -53.5t-93 -14.5q-66 0 -108.5 19.5t-59 53.5t-20.5 79.5t8 98.5l24 135h-64l20 118h203l-46 -251q-10 -61 7.5 -90t89.5 -29q50 1 87.5 37.5t46.5 89.5
l21 125h-72l20 118h213z" />
    <glyph glyph-name="v" unicode="v" horiz-adv-x="623" 
d="M423 496h143q59 -220 -33.5 -362.5t-274.5 -142.5q-235 0 -190 251l24 136h-65l20 118h204l-46 -252q-4 -34 -4 -61t20.5 -43.5t63.5 -16.5q54 0 91.5 34.5t53 88.5t14.5 120t-21 130z" />
    <glyph glyph-name="w" unicode="w" horiz-adv-x="959" 
d="M757 496h141q60 -221 -25.5 -363t-265.5 -142q-66 0 -103.5 21t-62.5 69q-73 -90 -185 -90q-66 0 -109.5 19.5t-61.5 53.5t-23 79.5t7 98.5l24 136h-67l20 118h207l-46 -252q-9 -57 6.5 -87t73.5 -30q98 0 126 119l44 250h142l-46 -252q-8 -56 8.5 -87.5t72.5 -31.5
q54 0 89.5 34t48 88t9 119t-23.5 130z" />
    <glyph glyph-name="x" unicode="x" horiz-adv-x="613" 
d="M193 103l-17 -103h-193l21 123h50l155 148l-46 63q-25 33 -44.5 39t-59.5 -5l20 126q29 8 65 8q35 0 62 -14.5t38 -28t33 -46.5l7 -10l43 -66l64 64l17 95h196l-21 -115h-52l-142 -140q6 -9 26 -37t31 -42q22 -34 46 -42t59 3l-19 -125q-25 -7 -71 -7q-14 0 -26.5 3
t-21.5 5.5t-20 11t-15.5 11.5t-15.5 16l-13 15.5t-14 19t-13 18.5l-53 88z" />
    <glyph glyph-name="y" unicode="y" horiz-adv-x="642" 
d="M405 55q-34 -34 -70 -47t-88 -13q-98 0 -147.5 57.5t-26.5 190.5l23 133h-72l21 121h210l-45 -254q-4 -31 -4.5 -58.5t23.5 -46t74 -18.5q52 1 85 36.5t43 91.5l23 128h-74l21 121h213l-87 -495q-46 -256 -294 -256q-109 0 -167 50.5t-43 156.5h137q-4 -39 20.5 -59
t70.5 -20q53 0 93.5 33.5t50.5 92.5z" />
    <glyph glyph-name="z" unicode="z" horiz-adv-x="540" 
d="M-10 0l12 70l301 302h-119l-14 -62h-121l33 187h434l-14 -80l-284 -292h125l22 82h118l-36 -207h-457z" />
    <glyph glyph-name="braceleft" unicode="{" horiz-adv-x="359" 
d="M35 331q68 0 82 75l20 114q18 105 76.5 154t182.5 28l-18 -99q-69 11 -87 -26q-7 -13 -16 -63l-19 -108q-11 -63 -24 -82q-20 -31 -71 -44q33 -9 47.5 -27t12.5 -40.5t-6 -50.5q-1 -6 -2 -9l-23 -129q-1 -6 -3 -17q-5 -26 -5 -42.5t18.5 -23.5t62.5 -4l-20 -104
q-72 -8 -116.5 1t-63 34t-22 62.5t6.5 84.5l23 135q14 77 -54 77z" />
    <glyph glyph-name="bar" unicode="|" horiz-adv-x="301" 
d="M162 752h137l-146 -830h-137z" />
    <glyph glyph-name="braceright" unicode="}" horiz-adv-x="358" 
d="M334 320l-18 -101q-68 0 -82 -77l-24 -135q-18 -106 -73.5 -154t-186.5 -31l18 102q15 -1 27 -1t21.5 0.5t16.5 3.5t12 5.5t9 8l6.5 9t4.5 12t2.5 13.5t2.5 16.5l3 17.5l23 129q5 28 6.5 35.5t8.5 28.5t15.5 29t24.5 19t39 17q-21 7 -34 17.5t-18.5 19.5t-5.5 27.5t1 29
t6 35.5l19 105q5 32 7.5 54.5t-16 31.5t-64.5 2l18 103q132 19 172.5 -30t22.5 -154l-20 -112q-14 -76 56 -76z" />
    <glyph glyph-name="asciitilde" unicode="~" horiz-adv-x="601" 
d="M469 394l95 -41q-27 -89 -96.5 -126.5t-150.5 -0.5l-76 36q-19 7 -29.5 9t-26.5 1t-30 -14.5t-27 -39.5l-89 35q25 82 98.5 122.5t151.5 1.5l78 -37q37 -17 63.5 -1t38.5 55z" />
    <glyph glyph-name="uni00A0" unicode="&#xa0;" horiz-adv-x="226" 
 />
    <glyph glyph-name="exclamdown" unicode="&#xa1;" horiz-adv-x="303" 
d="M144 -193h-157l91 495h149zM190 521q33 0 55.5 -19.5t22.5 -55.5q0 -48 -33 -75.5t-75 -27.5q-33 0 -56 19t-23 54q0 49 33.5 77t75.5 28z" />
    <glyph glyph-name="cent" unicode="&#xa2;" horiz-adv-x="532" 
d="M169 -92l11 73q-75 14 -114.5 66.5t-39.5 134.5q0 107 69 194t176 110l14 76h129l-14 -76q65 -16 116 -76l-97 -85q-39 44 -97 44q-66 0 -109.5 -48.5t-43.5 -109.5q0 -47 26 -79t79 -32q28 0 62.5 11.5t55.5 34.5l64 -99q-61 -51 -145 -70l-13 -69h-129z" />
    <glyph glyph-name="sterling" unicode="&#xa3;" horiz-adv-x="660" 
d="M-6 0l29 141q40 -4 71.5 33.5t42.5 91.5h-94l20 115h69q0 8 -1 29.5t-1 30.5q0 119 82.5 194.5t221.5 75.5q112 0 166 -53t39 -163h-133q4 46 -18.5 66.5t-75.5 20.5q-141 0 -141 -167v-29h203l-20 -116h-177q-44 -138 -93 -141h266l24 102h130l-41 -231h-569z" />
    <glyph glyph-name="currency" unicode="&#xa4;" horiz-adv-x="605" 
d="M179 121l-67 -58l-85 103l67 54q-23 90 36 184l-51 59l122 105l48 -60q46 15 95 15q44 0 86 -15l71 60l84 -105l-67 -57q22 -97 -32 -186l47 -54l-121 -103l-48 58q-42 -16 -96 -16q-44 0 -89 16zM287 211q52 0 86.5 36t34.5 83q0 37 -22.5 63t-61.5 26q-49 0 -86.5 -37
t-37.5 -83q0 -36 24 -62t63 -26z" />
    <glyph glyph-name="yen" unicode="&#xa5;" horiz-adv-x="743" 
d="M406 127h80l-23 -127h-310l23 127h79l8 50h-153l19 104h146l-18 35h-138l19 110h64l-69 140h-58l24 134h306l-24 -134h-72l35 -65l38 -94l80 95l61 64h-72l24 134h308l-24 -134h-59l-128 -140h69l-19 -110h-150l-31 -35h159l-19 -104h-167z" />
    <glyph glyph-name="brokenbar" unicode="&#xa6;" horiz-adv-x="308" 
d="M233 342h-142l65 369h142zM80 278h142l-65 -369h-142z" />
    <glyph glyph-name="section" unicode="&#xa7;" horiz-adv-x="594" 
d="M299 299q47 0 83.5 14t40.5 38q5 20 -26.5 35t-78.5 17q-45 2 -83 -13t-43 -41q-5 -23 28 -36.5t79 -13.5zM579 648l-81 -88q-46 38 -138 40q-48 1 -83.5 -10.5t-39.5 -34.5q-4 -22 25.5 -32t78.5 -13q38 -3 67 -8t62 -16.5t53 -28t30.5 -44t4.5 -62.5q-18 -68 -80 -100
q46 -33 46 -85q0 -54 -29.5 -92.5t-76.5 -56.5t-91 -26t-89 -8q-76 0 -138.5 26.5t-95.5 80.5l96 84q56 -77 161 -73q48 0 85 11t42 35q4 23 -24.5 31t-86.5 8q-245 11 -214 163q14 66 86 105q-47 27 -47 86q0 46 26 81.5t69 54.5t90 28.5t96 9.5q132 0 196 -66z" />
    <glyph glyph-name="dieresis" unicode="&#xa8;" horiz-adv-x="531" 
d="M231 573q-29 0 -48 16.5t-19 46.5q0 42 28.5 66.5t65.5 24.5q28 1 47.5 -16t19.5 -48q0 -42 -28.5 -66t-65.5 -24zM488 571q-29 0 -48.5 17t-19.5 47q0 43 29 67.5t66 24.5q27 0 47 -17.5t20 -48.5q0 -41 -29 -65.5t-65 -24.5z" />
    <glyph glyph-name="copyright" unicode="&#xa9;" horiz-adv-x="826" 
d="M494 720q139 0 223.5 -87t84.5 -221q0 -113 -53.5 -209t-155 -154.5t-228.5 -58.5q-149 0 -234.5 87t-85.5 221q0 175 127.5 298.5t321.5 123.5zM169 311q0 -94 57.5 -153.5t157.5 -59.5q130 0 216 87t86 214q0 95 -56.5 152.5t-155.5 57.5q-130 0 -217.5 -87t-87.5 -211
zM608 490l-83 -77q-25 27 -69 27t-75 -28t-31 -72q0 -34 21 -52t54 -18q38 0 80 32l63 -74q-81 -65 -161 -65q-82 0 -128.5 43t-46.5 116q0 100 71 165t172 65q80 0 133 -62z" />
    <glyph glyph-name="ordfeminine" unicode="&#xaa;" horiz-adv-x="454" 
d="M271 604q-34 0 -57.5 -23t-23.5 -59q0 -28 15 -42t40 -14q49 0 73 45q22 42 0 72q-15 21 -47 21zM423 377h-102l1 42q-16 -25 -49.5 -40.5t-70.5 -15.5q-60 0 -95.5 37t-35.5 103q0 95 59.5 150t146.5 55q64 0 91 -48l12 41h100zM35 222l18 102h359l-18 -102h-359z" />
    <glyph glyph-name="guillemotleft" unicode="&#xab;" horiz-adv-x="547" 
d="M327 75l-99 222l177 221h149l-179 -221l101 -222h-149zM28 297l177 221h149l-180 -221l102 -222h-149z" />
    <glyph glyph-name="logicalnot" unicode="&#xac;" horiz-adv-x="522" 
d="M474 386l-43 -241h-125l21 117h-279l22 124h404z" />
    <glyph glyph-name="registered" unicode="&#xae;" horiz-adv-x="818" 
d="M561 178h-117l-54 107h-21l-19 -107h-109l64 363h169q58 0 91 -30.5t35 -70.5t-22.5 -80t-71.5 -57l64 -110zM385 377h60q29 0 39 24q8 23 -13 32q-6 3 -15 3h-60zM163 311q0 -94 57 -153.5t157 -59.5q137 0 220 87t83 216q0 95 -55.5 151.5t-157.5 56.5
q-145 0 -224.5 -85.5t-79.5 -212.5zM46 295q0 114 49.5 209t152 155t240.5 60q146 0 226 -81.5t80 -217.5q0 -183 -124.5 -307.5t-310.5 -124.5q-144 0 -228.5 86t-84.5 221z" />
    <glyph glyph-name="macron" unicode="&#xaf;" horiz-adv-x="492" 
d="M106 585l21 117h381l-21 -117h-381z" />
    <glyph glyph-name="degree" unicode="&#xb0;" horiz-adv-x="377" 
d="M213 425q-95 0 -123 69q-25 60 13 127q42 74 127 89q17 3 35 3q87 0 116 -68q25 -61 -11 -128q-40 -75 -124 -89q-16 -3 -33 -3zM247 624q-45 0 -63 -40q-15 -35 7 -58q12 -13 36 -13q44 0 61 40q16 36 -7 58q-12 13 -34 13z" />
    <glyph glyph-name="plusminus" unicode="&#xb1;" horiz-adv-x="528" 
d="M60 313l23 131h137l26 145h139l-26 -145h142l-23 -131h-142l-25 -143h-139l25 143h-137zM2 0l23 131h422l-23 -131h-422z" />
    <glyph glyph-name="twosuperior" unicode="&#xb2;" horiz-adv-x="384" 
d="M216 667h-102q10 56 57.5 88.5t112.5 32.5q129 0 129 -97q0 -114 -153 -127q-74 -7 -83 -60h108l12 44h94l-25 -141h-309l17 97q9 48 52.5 85.5t89.5 45.5q10 2 28.5 4.5t26 4t17.5 5t14 10t4 16.5q0 25 -37 25q-47 0 -53 -33z" />
    <glyph glyph-name="threesuperior" unicode="&#xb3;" horiz-adv-x="369" 
d="M198 686l-8 -28h-90l21 118h301l-3 -17l-115 -128q34 -4 53.5 -26t19.5 -57q0 -44 -17.5 -75t-47 -46.5t-58.5 -22t-61 -6.5q-61 0 -97.5 31t-27.5 92h101q5 -28 43 -28q25 0 41 12t16 33q0 13 -9.5 22.5t-29.5 9.5h-48l-8 15l92 101h-68z" />
    <glyph glyph-name="acute" unicode="&#xb4;" horiz-adv-x="243" 
d="M226 553h-125l1 7l97 139h170z" />
    <glyph glyph-name="_181" unicode="&#xb5;" horiz-adv-x="638" 
d="M573 0h-128v66q-23 -37 -61 -59t-80 -22q-85 0 -105 64l-46 -263h-143l125 710h155l-44 -247q-20 -118 93 -120q46 1 84 31t50 99l42 237h145z" />
    <glyph glyph-name="paragraph" unicode="&#xb6;" horiz-adv-x="822" 
d="M600 561h-148l-137 -776h-141l68 383q-56 0 -96 17t-61.5 47t-31 64t-9.5 74q0 133 90.5 231t240.5 98h479l-24 -138h-90l-137 -774h-140z" />
    <glyph glyph-name="periodcentered" unicode="&#xb7;" horiz-adv-x="268" 
d="M224 323q0 -47 -32.5 -74t-72.5 -26q-30 1 -50.5 19t-20.5 52q0 48 32.5 75t73.5 26q30 -1 50 -19.5t20 -52.5z" />
    <glyph glyph-name="cedilla" unicode="&#xb8;" horiz-adv-x="401" 
d="M108 -96l-28 18l52 100h91l-24 -48q56 0 82 -38.5t5 -90.5q-18 -45 -61.5 -65.5t-95.5 -20.5q-85 0 -126 66l70 55q16 -31 59 -31q41 0 52 24q9 19 -4 32.5t-33.5 12.5t-38.5 -14z" />
    <glyph glyph-name="onesuperior" unicode="&#xb9;" horiz-adv-x="280" 
d="M47 382l16 90h59l32 184l-53 -15l15 89l164 39l-52 -297h60l-16 -90h-225z" />
    <glyph glyph-name="ordmasculine" unicode="&#xba;" horiz-adv-x="419" 
d="M219 362q-69 0 -111 37.5t-42 105.5q0 90 61.5 146.5t151.5 56.5q70 0 111.5 -37t41.5 -103q0 -90 -63.5 -148t-149.5 -58zM239 467q35 0 58.5 23.5t23.5 58.5q0 26 -14.5 43t-44.5 17q-34 0 -58.5 -25t-24.5 -58q0 -26 15.5 -42.5t44.5 -16.5zM27 207l18 103h335
l-18 -103h-335z" />
    <glyph glyph-name="guillemotright" unicode="&#xbb;" horiz-adv-x="543" 
d="M320 299l-177 -220h-148l177 220l-99 221h148zM417 520l99 -221l-177 -220h-146l177 220l-99 221h146z" />
    <glyph glyph-name="onequarter" unicode="&#xbc;" horiz-adv-x="798" 
d="M207 -2h-124l512 710h128zM45 332l16 90h62l31 174l-55 -14l16 92l164 39l-51 -291h60l-16 -90h-227zM598 370h135l-40 -223h50l-16 -92h-50l-10 -55h-101l10 55h-194l11 91zM500 147h92l23 126z" />
    <glyph glyph-name="onehalf" unicode="&#xbd;" horiz-adv-x="827" 
d="M203 -1l-127 -1l513 710h129zM42 331l16 90h59l31 179l-53 -14l16 92l166 39l-52 -296h60l-16 -90h-227zM593 260h-102q11 56 58.5 88.5t112.5 32.5q128 0 128 -97q0 -114 -153 -127q-73 -7 -82 -60h108l11 44h94l-24 -141h-309l17 97q9 48 52.5 85.5t89.5 45.5
q10 2 28.5 4.5t26 4t17.5 5t14 10t4 16.5q0 25 -38 25q-47 0 -53 -33z" />
    <glyph glyph-name="threequarters" unicode="&#xbe;" horiz-adv-x="854" 
d="M261 1h-124l495 706h127zM657 388h134l-42 -237h50l-16 -93h-50l-10 -58h-102l10 58h-194l11 91zM555 151h92l24 133zM191 616l-8 -28h-90l21 118h301l-3 -17l-115 -128q34 -4 53.5 -26t19.5 -57q0 -44 -17.5 -75t-47 -46.5t-58.5 -22t-61 -6.5q-61 0 -97.5 31t-27.5 92
h101q5 -28 43 -28q25 0 41 12t16 33q0 13 -9.5 22.5t-29.5 9.5h-48l-8 15l92 101h-68z" />
    <glyph glyph-name="questiondown" unicode="&#xbf;" horiz-adv-x="619" 
d="M402 10h141q-35 -221 -318 -221q-75 0 -134.5 24t-92.5 77.5t-18 126.5q9 51 40 88t63 53.5t71.5 34.5t53.5 28l20 17.5t13 20.5t10 37h149q-8 -46 -22.5 -78t-37.5 -52.5t-42.5 -31.5t-52.5 -25q-57 -24 -87 -48t-30 -63q0 -77 119 -77q70 0 108.5 25t46.5 64zM362 515
q32 0 55 -18.5t23 -53.5q0 -47 -32.5 -72t-74.5 -25q-33 0 -55.5 17.5t-22.5 51.5q0 47 33 73.5t74 26.5z" />
    <glyph glyph-name="Agrave" unicode="&#xc0;" horiz-adv-x="827" 
d="M428 752l-91 146h168l49 -139l-1 -7h-125zM576 135l-19 79h-296l-49 -79h72l-24 -135h-292l24 135h62l277 432h-65l23 133h292l147 -565h64l-24 -135h-293l24 135h77zM477 566l-73 -124l-64 -102h186l-25 102z" />
    <glyph glyph-name="Aacute" unicode="&#xc1;" horiz-adv-x="827" 
d="M539 748h-124l1 7l96 139h170zM576 135l-19 79h-296l-49 -79h72l-24 -135h-292l24 135h62l277 432h-65l23 133h292l147 -565h64l-24 -135h-293l24 135h77zM477 566l-73 -124l-64 -102h186l-25 102z" />
    <glyph glyph-name="Acircumflex" unicode="&#xc2;" horiz-adv-x="827" 
d="M474 908h75l147 -147l-2 -14h-144l-57 59l-80 -59h-138l2 13zM576 135l-19 79h-296l-49 -79h72l-24 -135h-292l24 135h62l277 432h-65l23 133h292l147 -565h64l-24 -135h-293l24 135h77zM477 566l-73 -124l-64 -102h186l-25 102z" />
    <glyph glyph-name="Atilde" unicode="&#xc3;" horiz-adv-x="827" 
d="M576 135l-19 79h-296l-49 -79h72l-24 -135h-292l24 135h62l277 432h-65l23 133h292l147 -565h64l-24 -135h-293l24 135h77zM477 566l-73 -124l-64 -102h186l-25 102zM466 895q6 -2 21 -11t27.5 -15t26.5 -9t26 4.5t20 26.5l85 -37q-22 -65 -72.5 -94.5t-88.5 -10.5
q-8 3 -23.5 12.5t-27 14.5t-25.5 7.5t-26.5 -6.5t-22.5 -29l-82 40q16 60 66 92t96 15z" />
    <glyph glyph-name="Adieresis" unicode="&#xc4;" horiz-adv-x="827" 
d="M298 796q0 42 29 66.5t65 24.5q28 0 48 -16.5t20 -47.5q0 -42 -29 -66t-66 -24q-28 -1 -47.5 16t-19.5 47zM554 795q0 43 29 67.5t66 24.5q27 0 47 -17.5t20 -48.5q0 -42 -28.5 -66t-65.5 -24q-29 0 -48.5 16.5t-19.5 47.5zM576 135l-19 79h-296l-49 -79h72l-24 -135
h-292l24 135h62l277 432h-65l23 133h292l147 -565h64l-24 -135h-293l24 135h77zM477 566l-73 -124l-64 -102h186l-25 102z" />
    <glyph glyph-name="Aring" unicode="&#xc5;" horiz-adv-x="823" 
d="M573 135l-19 79h-296l-49 -79h72l-24 -135h-290l24 135h62l330 521q-29 33 -29 76q0 59 50 103t125 44q56 0 90 -27.5t34 -77.5q0 -69 -61 -120l135 -519h61l-24 -135h-292l24 135h77zM474 566l-73 -124l-64 -102h186l-25 102zM514 792q-30 0 -43.5 -18.5t-13.5 -33.5
q0 -14 9 -25.5t32 -11.5t38 11.5t18.5 21.5t3.5 17q0 15 -9.5 27t-34.5 12z" />
    <glyph glyph-name="AE" unicode="&#xc6;" horiz-adv-x="953" 
d="M381 134h73l15 87h-183l-67 -87h62l-24 -134h-296l24 134h68l354 434h-60l23 132h592l-41 -236h-125l10 100h-139l-25 -147h128l-24 -134h-128l-26 -145h152l26 104h127l-43 -242h-497zM457 442l-80 -103h113l36 207z" />
    <glyph glyph-name="Ccedilla" unicode="&#xc7;" horiz-adv-x="684" 
d="M485 715q123 0 214 -71l-17.5 -85.5t-15.5 -77.5h-132l9 88q-39 10 -82 10q-77 0 -137 -35.5t-91 -86.5t-41 -109q-10 -40 -4 -79.5t23 -71t60.5 -51.5t109.5 -20q42 0 96 19t88 49l70 -108q-114 -93 -255 -99l-23 -41q64 -3 83 -39.5t3 -80.5q-18 -48 -63.5 -74
t-98.5 -26q-45 0 -80 20t-48 59l72 48q7 -18 26.5 -28t40.5 -8q30 5 41 26q12 25 -17 39t-57 0l-22 27l48 82q-101 13 -161 65t-77 125t-1 165q11 69 45 133.5t88 118t134 85.5t172 32z" />
    <glyph glyph-name="Egrave" unicode="&#xc8;" horiz-adv-x="704" 
d="M522 745h-124l-91 146h167l49 -139zM249 138h244l25 104h130l-43 -242h-603l24 135h79l76 432h-73l23 133h582l-41 -236h-126l11 102h-232l-26 -144h213l-23 -133h-213z" />
    <glyph glyph-name="Eacute" unicode="&#xc9;" horiz-adv-x="704" 
d="M502 745h-125l1 7l97 139h169zM249 138h244l25 104h130l-43 -242h-603l24 135h79l76 432h-73l23 133h582l-41 -236h-126l11 102h-232l-26 -144h213l-23 -133h-213z" />
    <glyph glyph-name="Ecircumflex" unicode="&#xca;" horiz-adv-x="704" 
d="M239 751l2 13l197 153h73l142 -155l-2 -11h-139l-57 61l-77 -61h-139zM249 138h244l25 104h130l-43 -242h-603l24 135h79l76 432h-73l23 133h582l-41 -236h-126l11 102h-232l-26 -144h213l-23 -133h-213z" />
    <glyph glyph-name="Edieresis" unicode="&#xcb;" horiz-adv-x="704" 
d="M317 736q-29 0 -48 16.5t-19 46.5q0 42 28.5 67t65.5 25q28 0 47.5 -17t19.5 -47q0 -42 -28.5 -66.5t-65.5 -24.5zM573 734q-28 0 -47.5 17t-19.5 47q0 43 29 67.5t66 24.5q27 0 46.5 -17.5t19.5 -48.5q0 -41 -29 -65.5t-65 -24.5zM249 138h244l25 104h130l-43 -242h-603
l24 135h79l76 432h-73l23 133h582l-41 -236h-126l11 102h-232l-26 -144h213l-23 -133h-213z" />
    <glyph glyph-name="Igrave" unicode="&#xcc;" horiz-adv-x="415" 
d="M364 748h-124l-91 146h167l49 -139zM253 135h81l-24 -135h-308l24 135h80l76 430h-77l23 135h304l-23 -135h-80z" />
    <glyph glyph-name="Iacute" unicode="&#xcd;" horiz-adv-x="415" 
d="M348 749h-125l1 7l97 139h170zM253 135h81l-24 -135h-308l24 135h80l76 430h-77l23 135h304l-23 -135h-80z" />
    <glyph glyph-name="Icircumflex" unicode="&#xce;" horiz-adv-x="415" 
d="M104 741l2 13l178 156h65l122 -158l-2 -11h-127l-46 61l-67 -61h-125zM253 135h81l-24 -135h-308l24 135h80l76 430h-77l23 135h304l-23 -135h-80z" />
    <glyph glyph-name="Idieresis" unicode="&#xcf;" horiz-adv-x="415" 
d="M182 734q-28 0 -48 16.5t-20 46.5q0 42 29.5 67t66.5 25q27 0 47 -17t20 -48q0 -42 -29 -66t-66 -24zM397 732q-29 0 -48.5 17t-19.5 48q0 42 29.5 66.5t66.5 24.5q27 0 46.5 -17t19.5 -48q0 -42 -29 -66.5t-65 -24.5zM253 135h81l-24 -135h-308l24 135h80l76 430h-77
l23 135h304l-23 -135h-80z" />
    <glyph glyph-name="Eth" unicode="&#xd0;" horiz-adv-x="783" 
d="M345 0h-343l24 135h81l26 147h-66l21 123h66l29 163h-80l24 133h342q173 0 245 -95.5t40 -249.5q-31 -159 -133 -257.5t-276 -98.5zM257 134h112q53 0 96.5 20t71 54t45 71t26.5 79q18 86 -23 147.5t-140 61.5h-112l-29 -162h146l-21 -123h-146z" />
    <glyph glyph-name="Ntilde" unicode="&#xd1;" horiz-adv-x="878" 
d="M305 0h-294l23 133h69l77 432h-78l23 135h189l295 -436l54 301h-80l23 135h296l-23 -135h-71l-100 -565h-97l-306 443l-55 -310h78zM508 908q6 -2 21 -11t28 -15t27.5 -9t26.5 4.5t20 26.5l87 -37q-23 -66 -74 -95.5t-90 -10.5q-8 3 -24 12.5t-28 14.5t-26 7.5t-27 -6.5
t-23 -29l-83 41q16 60 67 92t98 15z" />
    <glyph glyph-name="Ograve" unicode="&#xd2;" horiz-adv-x="802" 
d="M568 772h-125l-90 146h169l47 -139zM479 715q116 -1 190.5 -55.5t98.5 -136t6 -177.5q-13 -72 -43 -134t-79.5 -115t-126.5 -84t-172 -31q-164 0 -243.5 98t-63.5 262q20 172 142.5 272.5t290.5 100.5zM625 346q5 34 6 66.5t-9 63t-28.5 53.5t-52.5 36.5t-81 13.5
q-103 0 -173 -64t-89 -170q-18 -93 24.5 -158t154.5 -65q104 0 167.5 67t80.5 157z" />
    <glyph glyph-name="Oacute" unicode="&#xd3;" horiz-adv-x="802" 
d="M479 715q116 -1 190.5 -55.5t98.5 -136t6 -177.5q-13 -72 -43 -134t-79.5 -115t-126.5 -84t-172 -31q-164 0 -243.5 98t-63.5 262q20 172 142.5 272.5t290.5 100.5zM625 346q5 34 6 66.5t-9 63t-28.5 53.5t-52.5 36.5t-81 13.5q-103 0 -173 -64t-89 -170
q-18 -93 24.5 -158t154.5 -65q104 0 167.5 67t80.5 157zM547 768h-125l1 7l97 139h170z" />
    <glyph glyph-name="Ocircumflex" unicode="&#xd4;" horiz-adv-x="802" 
d="M479 715q116 -1 190.5 -55.5t98.5 -136t6 -177.5q-13 -72 -43 -134t-79.5 -115t-126.5 -84t-172 -31q-164 0 -243.5 98t-63.5 262q20 172 142.5 272.5t290.5 100.5zM625 346q5 34 6 66.5t-9 63t-28.5 53.5t-52.5 36.5t-81 13.5q-103 0 -173 -64t-89 -170
q-18 -93 24.5 -158t154.5 -65q104 0 167.5 67t80.5 157zM472 913h114l128 -140l-2 -11h-145l-57 59l-77 -59h-146l2 12z" />
    <glyph glyph-name="Otilde" unicode="&#xd5;" horiz-adv-x="802" 
d="M479 715q116 -1 190.5 -55.5t98.5 -136t6 -177.5q-13 -72 -43 -134t-79.5 -115t-126.5 -84t-172 -31q-164 0 -243.5 98t-63.5 262q20 172 142.5 272.5t290.5 100.5zM625 346q5 34 6 66.5t-9 63t-28.5 53.5t-52.5 36.5t-81 13.5q-103 0 -173 -64t-89 -170
q-18 -93 24.5 -158t154.5 -65q104 0 167.5 67t80.5 157zM480 916q6 -2 21 -11t27.5 -15t26.5 -9t26 4.5t20 26.5l85 -37q-22 -65 -72.5 -94.5t-88.5 -10.5q-8 3 -23.5 12.5t-27 14.5t-25.5 7.5t-26.5 -6.5t-22.5 -29l-82 40q16 60 66 92t96 15z" />
    <glyph glyph-name="Odieresis" unicode="&#xd6;" horiz-adv-x="802" 
d="M479 715q116 -1 190.5 -55.5t98.5 -136t6 -177.5q-13 -72 -43 -134t-79.5 -115t-126.5 -84t-172 -31q-164 0 -243.5 98t-63.5 262q20 172 142.5 272.5t290.5 100.5zM625 346q5 34 6 66.5t-9 63t-28.5 53.5t-52.5 36.5t-81 13.5q-103 0 -173 -64t-89 -170
q-18 -93 24.5 -158t154.5 -65q104 0 167.5 67t80.5 157zM370 755q-29 0 -48 16.5t-19 46.5q0 42 28.5 66.5t65.5 24.5q28 1 47.5 -16t19.5 -48q0 -42 -28.5 -66t-65.5 -24zM627 753q-29 0 -48.5 17t-19.5 47q0 43 29 67.5t66 24.5q28 0 47.5 -17.5t19.5 -48.5
q0 -41 -29 -65.5t-65 -24.5z" />
    <glyph glyph-name="multiply" unicode="&#xd7;" horiz-adv-x="460" 
d="M69 407l113 92l71 -90l107 92l75 -87l-112 -100l73 -89l-108 -87l-69 89l-107 -91l-76 90l109 89z" />
    <glyph glyph-name="Oslash" unicode="&#xd8;" horiz-adv-x="801" 
d="M483 715q70 -1 127 -22l54 70h145l-102 -133q99 -104 66 -284q-13 -70 -45.5 -133.5t-84 -116t-127.5 -83.5t-166 -31q-70 0 -129 18l-57 -73h-142l100 131q-79 75 -79 221q0 100 36.5 183.5t97.5 138t140.5 84.5t165.5 30zM200 345q-18 -99 23 -157l295 384q-32 7 -59 7
q-103 0 -171 -64t-88 -170zM624 346q17 92 -17 156l-288 -374q25 -6 57 -6q104 0 167.5 67t80.5 157z" />
    <glyph glyph-name="Ugrave" unicode="&#xd9;" horiz-adv-x="858" 
d="M582 750h-125l-91 147h168l49 -140zM399 114q83 0 136 50.5t69 140.5l46 261h-88l23 134h303l-23 -134h-71l-46 -263q-56 -325 -365 -325q-67 0 -121.5 17.5t-95 54.5t-56 101.5t-0.5 151.5l46 263h-67l23 134h302l-23 -134h-88l-46 -263q-34 -189 142 -189z" />
    <glyph glyph-name="Uacute" unicode="&#xda;" horiz-adv-x="858" 
d="M571 755h-131l1 7l102 133h178zM399 114q83 0 136 50.5t69 140.5l46 261h-88l23 134h303l-23 -134h-71l-46 -263q-56 -325 -365 -325q-67 0 -121.5 17.5t-95 54.5t-56 101.5t-0.5 151.5l46 263h-67l23 134h302l-23 -134h-88l-46 -263q-34 -189 142 -189z" />
    <glyph glyph-name="Ucircumflex" unicode="&#xdb;" horiz-adv-x="858" 
d="M399 114q83 0 136 50.5t69 140.5l46 261h-88l23 134h303l-23 -134h-71l-46 -263q-56 -325 -365 -325q-67 0 -121.5 17.5t-95 54.5t-56 101.5t-0.5 151.5l46 263h-67l23 134h302l-23 -134h-88l-46 -263q-34 -189 142 -189zM484 906h114l128 -140l-2 -11h-145l-57 59
l-77 -59h-146l2 12z" />
    <glyph glyph-name="Udieresis" unicode="&#xdc;" horiz-adv-x="858" 
d="M358 760q-29 0 -48 16.5t-19 46.5q0 42 28.5 66.5t65.5 24.5q28 1 47.5 -16t19.5 -48q0 -42 -28.5 -66t-65.5 -24zM666 758q-29 0 -48.5 17t-19.5 47q0 43 29 67.5t66 24.5q27 0 47 -17.5t20 -48.5q0 -41 -29 -65.5t-65 -24.5zM399 114q83 0 136 50.5t69 140.5l46 261
h-88l23 134h303l-23 -134h-71l-46 -263q-56 -325 -365 -325q-67 0 -121.5 17.5t-95 54.5t-56 101.5t-0.5 151.5l46 263h-67l23 134h302l-23 -134h-88l-46 -263q-34 -189 142 -189z" />
    <glyph glyph-name="Yacute" unicode="&#xdd;" horiz-adv-x="729" 
d="M386 751l1 8l97 139h170l-143 -147h-125zM402 132h80l-23 -132h-313l23 132h79l25 139l-147 295h-58l24 134h297l-24 -134h-69l76 -160l144 160h-69l24 134h312l-24 -134h-59l-273 -294z" />
    <glyph glyph-name="Thorn" unicode="&#xde;" horiz-adv-x="694" 
d="M180 584h-76l21 117h314l-21 -117h-92l-7 -38h173q112 0 159 -58.5t33 -139.5q-15 -83 -81 -136.5t-181 -53.5h-171l-7 -39h92l-21 -120h-314l21 120h76zM446 282q51 0 75.5 25t24.5 53q0 25 -18 43t-58 18h-171l-24 -139h171z" />
    <glyph glyph-name="germandbls" unicode="&#xdf;" horiz-adv-x="673" 
d="M507 394l-1 -2q63 -17 91.5 -61t28.5 -93q0 -117 -80 -183t-198 -66q-58 0 -89 5l16 123q47 -6 67 -6q59 -1 95.5 37.5t36.5 77.5q0 43 -34.5 72t-83.5 29h-39l23 130h35q38 0 70.5 13t38.5 39q10 39 -16 56t-67 17q-40 0 -73.5 -21t-39.5 -54l-88 -509h-218l21 120h63
l69 390q17 95 100.5 150.5t191.5 55.5q97 0 154.5 -40.5t57.5 -119.5q0 -60 -37 -103.5t-95 -56.5z" />
    <glyph glyph-name="agrave" unicode="&#xe0;" horiz-adv-x="686" 
d="M328 381q-69 0 -117.5 -46.5t-48.5 -115.5q0 -49 28.5 -79t81.5 -30q65 0 111.5 37t56.5 95q12 60 -18 99.5t-94 39.5zM415 56q-43 -40 -87 -54.5t-104 -14.5q-87 1 -144.5 55.5t-57.5 157.5q0 122 80 211t211 96q60 0 99.5 -12.5t65.5 -50.5l17 51h131l-65 -333
q-5 -26 7 -37.5t29 -11t40 6.5l-17 -113q-26 -11 -56.5 -16t-61 -2.5t-55 19.5t-32.5 48zM246 684l3 16h153l45 -137l-1 -7h-121z" />
    <glyph glyph-name="aacute" unicode="&#xe1;" horiz-adv-x="686" 
d="M328 381q-69 0 -117.5 -46.5t-48.5 -115.5q0 -49 28.5 -79t81.5 -30q65 0 111.5 37t56.5 95q12 60 -18 99.5t-94 39.5zM415 56q-43 -40 -87 -54.5t-104 -14.5q-87 1 -144.5 55.5t-57.5 157.5q0 122 80 211t211 96q60 0 99.5 -12.5t65.5 -50.5l17 51h131l-65 -333
q-5 -26 7 -37.5t29 -11t40 6.5l-17 -113q-26 -11 -56.5 -16t-61 -2.5t-55 19.5t-32.5 48zM419 557h-121l1 7l94 135h165z" />
    <glyph glyph-name="acircumflex" unicode="&#xe2;" horiz-adv-x="686" 
d="M328 381q-69 0 -117.5 -46.5t-48.5 -115.5q0 -49 28.5 -79t81.5 -30q65 0 111.5 37t56.5 95q12 60 -18 99.5t-94 39.5zM415 56q-43 -40 -87 -54.5t-104 -14.5q-87 1 -144.5 55.5t-57.5 157.5q0 122 80 211t211 96q60 0 99.5 -12.5t65.5 -50.5l17 51h131l-65 -333
q-5 -26 7 -37.5t29 -11t40 6.5l-17 -113q-26 -11 -56.5 -16t-61 -2.5t-55 19.5t-32.5 48zM375 699h110l124 -135l-2 -10h-140l-55 57l-74 -57h-141l2 11z" />
    <glyph glyph-name="atilde" unicode="&#xe3;" horiz-adv-x="686" 
d="M328 381q-69 0 -117.5 -46.5t-48.5 -115.5q0 -49 28.5 -79t81.5 -30q65 0 111.5 37t56.5 95q12 60 -18 99.5t-94 39.5zM415 56q-43 -40 -87 -54.5t-104 -14.5q-87 1 -144.5 55.5t-57.5 157.5q0 122 80 211t211 96q60 0 99.5 -12.5t65.5 -50.5l17 51h131l-65 -333
q-5 -26 7 -37.5t29 -11t40 6.5l-17 -113q-26 -11 -56.5 -16t-61 -2.5t-55 19.5t-32.5 48zM367 709q6 -2 21 -11t27.5 -15t26.5 -9t26 4.5t20 26.5l85 -37q-22 -65 -72.5 -94.5t-88.5 -10.5q-8 3 -23.5 12.5t-27 14.5t-25.5 7.5t-26.5 -6.5t-22.5 -29l-82 40q16 60 66 92
t96 15z" />
    <glyph glyph-name="adieresis" unicode="&#xe4;" horiz-adv-x="686" 
d="M282 558q-28 0 -46.5 15.5t-18.5 44.5q0 41 28 64.5t63 23.5q27 1 46 -15.5t19 -46.5q0 -39 -28 -62.5t-63 -23.5zM515 557q-28 0 -46.5 16t-18.5 45q0 41 27.5 64.5t63.5 23.5q27 0 46 -16.5t19 -46.5q0 -40 -28 -63t-63 -23zM328 381q-69 0 -117.5 -46.5t-48.5 -115.5
q0 -49 28.5 -79t81.5 -30q65 0 111.5 37t56.5 95q12 60 -18 99.5t-94 39.5zM415 56q-43 -40 -87 -54.5t-104 -14.5q-87 1 -144.5 55.5t-57.5 157.5q0 122 80 211t211 96q60 0 99.5 -12.5t65.5 -50.5l17 51h131l-65 -333q-5 -26 7 -37.5t29 -11t40 6.5l-17 -113
q-26 -11 -56.5 -16t-61 -2.5t-55 19.5t-32.5 48z" />
    <glyph glyph-name="aring" unicode="&#xe5;" horiz-adv-x="686" 
d="M380 545q-89 0 -115 57q-23 49 13 98q44 62 136 61h4q83 -2 107 -60q22 -49 -15 -98q-43 -58 -130 -58zM405 690q-42 0 -55 -29q-12 -25 11 -39q11 -7 29 -7q41 0 54 29q12 26 -12 40q-11 6 -27 6zM328 381q-69 0 -117.5 -46.5t-48.5 -115.5q0 -49 28.5 -79t81.5 -30
q65 0 111.5 37t56.5 95q12 60 -18 99.5t-94 39.5zM415 56q-43 -40 -87 -54.5t-104 -14.5q-87 1 -144.5 55.5t-57.5 157.5q0 122 80 211t211 96q60 0 99.5 -12.5t65.5 -50.5l17 51h131l-65 -333q-5 -26 7 -37.5t29 -11t40 6.5l-17 -113q-26 -11 -56.5 -16t-61 -2.5t-55 19.5
t-32.5 48z" />
    <glyph glyph-name="ae" unicode="&#xe6;" horiz-adv-x="987" 
d="M828 155l66 -91q-46 -38 -109 -58t-121 -20q-94 0 -143 49l-12 -35h-101l1 56q-83 -69 -193 -69q-91 0 -143.5 55.5t-52.5 152.5q0 122 84 214t209 99q60 0 99.5 -12.5t65.5 -50.5l15 51h106l-1 -39q66 53 151 53q131 0 183 -75t2 -236h-368q-1 -39 31 -63t92 -24
q32 0 71.5 11.5t67.5 31.5zM328 374q-70 0 -118 -45t-48 -110q0 -49 30.5 -79.5t83.5 -30.5q63 0 105.5 37.5t53.5 95.5q11 61 -15.5 96.5t-91.5 35.5zM584 305h241q9 43 -18.5 64.5t-77.5 21.5q-49 0 -89 -22t-56 -64z" />
    <glyph glyph-name="ccedilla" unicode="&#xe7;" horiz-adv-x="531" 
d="M177 -104l-28 25l39 73q-77 15 -121 66.5t-44 137.5q0 82 30 145t79 97.5t102.5 51t110.5 16.5q106 0 172 -42l-34 -154h-120l12 66q-24 7 -53 7q-79 0 -118 -50t-39 -115q0 -101 117 -101q69 0 122 43l66 -94q-84 -74 -194 -79l-16 -32q56 0 82.5 -35t4.5 -81
q-20 -42 -63 -65t-92 -23q-84 0 -126 64l69 52q18 -29 60 -29q40 0 52 22q12 26 -16 38t-54 -4z" />
    <glyph glyph-name="egrave" unicode="&#xe8;" horiz-adv-x="576" 
d="M419 155l66 -91q-46 -38 -109 -58t-121 -20q-118 0 -175.5 59t-57.5 156q0 137 89 223t229 86q123 0 177 -80t8 -231h-365q-2 -87 120 -87q32 0 71.5 11.5t67.5 31.5zM178 305h238q9 43 -18.5 64.5t-77.5 21.5t-88 -22t-54 -64zM225 693l3 16h157l46 -140l-1 -7h-124z
" />
    <glyph glyph-name="eacute" unicode="&#xe9;" horiz-adv-x="576" 
d="M419 155l66 -91q-46 -38 -109 -58t-121 -20q-118 0 -175.5 59t-57.5 156q0 137 89 223t229 86q123 0 177 -80t8 -231h-365q-2 -87 120 -87q32 0 71.5 11.5t67.5 31.5zM178 305h238q9 43 -18.5 64.5t-77.5 21.5t-88 -22t-54 -64zM403 561h-125l1 7l97 139h170z" />
    <glyph glyph-name="ecircumflex" unicode="&#xea;" horiz-adv-x="576" 
d="M419 155l66 -91q-46 -38 -109 -58t-121 -20q-118 0 -175.5 59t-57.5 156q0 137 89 223t229 86q123 0 177 -80t8 -231h-365q-2 -87 120 -87q32 0 71.5 11.5t67.5 31.5zM178 305h238q9 43 -18.5 64.5t-77.5 21.5t-88 -22t-54 -64zM316 712h105l118 -144l-2 -12h-134l-52 61
l-71 -61h-135l2 13z" />
    <glyph glyph-name="edieresis" unicode="&#xeb;" horiz-adv-x="576" 
d="M250 561q-28 0 -46.5 15.5t-18.5 43.5q0 40 27.5 63t62.5 23q28 1 47 -15t19 -45q0 -39 -27.5 -62t-63.5 -23zM472 559q-28 0 -47.5 16t-19.5 45q0 40 28 63t64 23q28 0 47 -16t19 -46q0 -39 -28 -62t-63 -23zM419 155l66 -91q-46 -38 -109 -58t-121 -20
q-118 0 -175.5 59t-57.5 156q0 137 89 223t229 86q123 0 177 -80t8 -231h-365q-2 -87 120 -87q32 0 71.5 11.5t67.5 31.5zM178 305h238q9 43 -18.5 64.5t-77.5 21.5t-88 -22t-54 -64z" />
    <glyph glyph-name="igrave" unicode="&#xec;" horiz-adv-x="331" 
d="M155 554l-44 160h151l13 -152l-1 -8h-119zM61 495h203l-55 -316q-8 -44 13 -55.5t62 2.5l-16 -116q-40 -18 -97 -18t-84.5 29t-26.5 71.5t7 89.5l34 195h-60z" />
    <glyph glyph-name="iacute" unicode="&#xed;" horiz-adv-x="331" 
d="M341 714l-100 -160h-119l1 8l67 152h151zM61 495h203l-55 -316q-8 -44 13 -55.5t62 2.5l-16 -116q-40 -18 -97 -18t-84.5 29t-26.5 71.5t7 89.5l34 195h-60z" />
    <glyph glyph-name="icircumflex" unicode="&#xee;" horiz-adv-x="331" 
d="M187 695h89l76 -120l-2 -12h-112l-23 39l-43 -39h-111l3 16zM61 495h203l-55 -316q-8 -44 13 -55.5t62 2.5l-16 -116q-40 -18 -97 -18t-84.5 29t-26.5 71.5t7 89.5l34 195h-60z" />
    <glyph glyph-name="idieresis" unicode="&#xef;" horiz-adv-x="331" 
d="M296 542q-28 0 -46 17t-18 48q0 43 28 67.5t64 24.5q27 0 46.5 -17t19.5 -47q0 -43 -29 -68t-65 -25zM104 542q-29 0 -48 17t-19 49q0 42 28.5 66.5t65.5 24.5q27 0 46 -17t19 -47q0 -43 -28 -68t-64 -25zM61 495h203l-55 -316q-8 -44 13 -55.5t62 2.5l-16 -116
q-40 -18 -97 -18t-84.5 29t-26.5 71.5t7 89.5l34 195h-60z" />
    <glyph glyph-name="eth" unicode="&#xf0;" horiz-adv-x="596" 
d="M371 673l58 56l59 -52l-47 -44q119 -105 119 -289q0 -164 -90 -260t-229 -96q-107 0 -163.5 56.5t-56.5 148.5q0 125 87 202.5t208 77.5q63 0 99 -24q-12 45 -74 84l-46 -44l-62 47l32 32q-28 11 -80 20l51 117q88 -11 135 -32zM263 113q64 0 104 40.5t40 104.5
q0 45 -26.5 72t-74.5 27q-60 0 -99 -43.5t-39 -95.5q0 -42 24.5 -73.5t70.5 -31.5z" />
    <glyph glyph-name="ntilde" unicode="&#xf1;" horiz-adv-x="666" 
d="M220 252l-42 -252h-137l63 376h-70l21 119h196l1 -50q67 57 149 57q104 0 147.5 -56t21.5 -184l-17 -91q-7 -39 18.5 -48.5t56.5 3.5l-14 -116q-40 -18 -100 -18q-57 0 -83 29.5t-23.5 71.5t8.5 88l15 80q3 27 4 51.5t-19 42t-62 17.5q-51 0 -87.5 -32.5t-46.5 -87.5z
M357 715q6 -2 21 -11t27.5 -15t26.5 -9t26 4.5t20 26.5l85 -37q-22 -65 -72.5 -94.5t-88.5 -10.5q-8 3 -23.5 12.5t-27 14.5t-25.5 7.5t-26.5 -6.5t-22.5 -29l-82 40q16 60 66 92t96 15z" />
    <glyph glyph-name="ograve" unicode="&#xf2;" horiz-adv-x="597" 
d="M22 202q0 131 88.5 219t224.5 88q107 0 165.5 -58.5t58.5 -155.5q0 -128 -87.5 -217.5t-227.5 -89.5q-105 0 -163.5 59t-58.5 155zM416 247q12 60 -14 98.5t-82 38.5q-71 0 -113.5 -46.5t-44.5 -114.5q-2 -46 23.5 -75.5t76.5 -29.5q62 0 101 36.5t53 92.5zM219 690l3 16
h157l46 -140l-1 -7h-124z" />
    <glyph glyph-name="oacute" unicode="&#xf3;" horiz-adv-x="597" 
d="M22 202q0 131 88.5 219t224.5 88q107 0 165.5 -58.5t58.5 -155.5q0 -128 -87.5 -217.5t-227.5 -89.5q-105 0 -163.5 59t-58.5 155zM416 247q12 60 -14 98.5t-82 38.5q-71 0 -113.5 -46.5t-44.5 -114.5q-2 -46 23.5 -75.5t76.5 -29.5q62 0 101 36.5t53 92.5zM396 553h-125
l1 7l97 139h170z" />
    <glyph glyph-name="ocircumflex" unicode="&#xf4;" horiz-adv-x="597" 
d="M22 202q0 131 88.5 219t224.5 88q107 0 165.5 -58.5t58.5 -155.5q0 -128 -87.5 -217.5t-227.5 -89.5q-105 0 -163.5 59t-58.5 155zM416 247q12 60 -14 98.5t-82 38.5q-71 0 -113.5 -46.5t-44.5 -114.5q-2 -46 23.5 -75.5t76.5 -29.5q62 0 101 36.5t53 92.5zM318 705h108
l121 -141l-2 -11h-137l-54 59l-73 -59h-139l2 12z" />
    <glyph glyph-name="otilde" unicode="&#xf5;" horiz-adv-x="597" 
d="M22 202q0 131 88.5 219t224.5 88q107 0 165.5 -58.5t58.5 -155.5q0 -128 -87.5 -217.5t-227.5 -89.5q-105 0 -163.5 59t-58.5 155zM416 247q12 60 -14 98.5t-82 38.5q-71 0 -113.5 -46.5t-44.5 -114.5q-2 -46 23.5 -75.5t76.5 -29.5q62 0 101 36.5t53 92.5zM347 707
q6 -2 21 -11t27.5 -15t26.5 -9t26 4.5t20 26.5l85 -37q-22 -65 -72.5 -94.5t-88.5 -10.5q-8 3 -23.5 12.5t-27 14.5t-25.5 7.5t-26.5 -6.5t-22.5 -29l-82 40q16 60 66 92t96 15z" />
    <glyph glyph-name="odieresis" unicode="&#xf6;" horiz-adv-x="597" 
d="M232 553q-29 0 -48 15.5t-19 44.5q0 42 28 65.5t65 23.5q27 1 46.5 -15.5t19.5 -46.5q0 -40 -28.5 -63.5t-63.5 -23.5zM463 551q-28 0 -47.5 16.5t-19.5 45.5q0 41 29 65t65 24q28 0 47.5 -17t19.5 -47q0 -40 -29 -63.5t-65 -23.5zM22 202q0 131 88.5 219t224.5 88
q107 0 165.5 -58.5t58.5 -155.5q0 -128 -87.5 -217.5t-227.5 -89.5q-105 0 -163.5 59t-58.5 155zM416 247q12 60 -14 98.5t-82 38.5q-71 0 -113.5 -46.5t-44.5 -114.5q-2 -46 23.5 -75.5t76.5 -29.5q62 0 101 36.5t53 92.5z" />
    <glyph glyph-name="divide" unicode="&#xf7;" horiz-adv-x="555" 
d="M402 528q0 -42 -28.5 -66.5t-64.5 -25.5q-29 -1 -49 16t-20 49q0 43 29 67.5t66 24.5q28 0 47.5 -17t19.5 -48zM30 253l24 136h481l-24 -136h-481zM333 138q0 -42 -28.5 -66.5t-65.5 -24.5q-29 0 -48.5 17t-19.5 48q0 44 29.5 68.5t66.5 23.5q28 -1 47 -18t19 -48z" />
    <glyph glyph-name="oslash" unicode="&#xf8;" horiz-adv-x="595" 
d="M22 202q0 131 88.5 219t224.5 88q44 0 83 -11l48 63h122l-85 -111q55 -55 55 -156q0 -126 -89 -216t-225 -90q-43 0 -81 11l-46 -61h-123l82 109q-54 53 -54 155zM163 223q0 -29 8 -51l160 211q-2 0 -7 0.5t-8 0.5q-71 0 -112 -46.5t-41 -114.5zM416 247q7 43 -7 78
l-156 -207h14q60 0 98.5 36.5t50.5 92.5z" />
    <glyph glyph-name="ugrave" unicode="&#xf9;" 
d="M622 495l-58 -325q-7 -39 17.5 -48t57.5 4l-16 -115q-26 -12 -55.5 -17t-60 -3t-54 19.5t-32.5 48.5q-40 -39 -76 -53.5t-93 -14.5q-66 0 -108.5 19.5t-59 53.5t-20.5 79.5t8 98.5l24 135h-64l20 118h203l-46 -251q-10 -61 7.5 -90t89.5 -29q50 1 87.5 37.5t46.5 89.5
l21 125h-72l20 118h213zM242 684l3 16h157l46 -140l-1 -7h-124z" />
    <glyph glyph-name="uacute" unicode="&#xfa;" 
d="M622 495l-58 -325q-7 -39 17.5 -48t57.5 4l-16 -115q-26 -12 -55.5 -17t-60 -3t-54 19.5t-32.5 48.5q-40 -39 -76 -53.5t-93 -14.5q-66 0 -108.5 19.5t-59 53.5t-20.5 79.5t8 98.5l24 135h-64l20 118h203l-46 -251q-10 -61 7.5 -90t89.5 -29q50 1 87.5 37.5t46.5 89.5
l21 125h-72l20 118h213zM428 553h-125l1 7l97 139h170z" />
    <glyph glyph-name="ucircumflex" unicode="&#xfb;" 
d="M622 495l-58 -325q-7 -39 17.5 -48t57.5 4l-16 -115q-26 -12 -55.5 -17t-60 -3t-54 19.5t-32.5 48.5q-40 -39 -76 -53.5t-93 -14.5q-66 0 -108.5 19.5t-59 53.5t-20.5 79.5t8 98.5l24 135h-64l20 118h203l-46 -251q-10 -61 7.5 -90t89.5 -29q50 1 87.5 37.5t46.5 89.5
l21 125h-72l20 118h213zM342 704h113l127 -139l-2 -10h-144l-56 58l-76 -58h-144l2 11z" />
    <glyph glyph-name="udieresis" unicode="&#xfc;" 
d="M622 495l-58 -325q-7 -39 17.5 -48t57.5 4l-16 -115q-26 -12 -55.5 -17t-60 -3t-54 19.5t-32.5 48.5q-40 -39 -76 -53.5t-93 -14.5q-66 0 -108.5 19.5t-59 53.5t-20.5 79.5t8 98.5l24 135h-64l20 118h203l-46 -251q-10 -61 7.5 -90t89.5 -29q50 1 87.5 37.5t46.5 89.5
l21 125h-72l20 118h213zM242 555q-29 0 -48.5 16t-19.5 46q0 41 29 64.5t66 23.5q28 1 47.5 -15.5t19.5 -46.5q0 -40 -28.5 -64t-65.5 -24zM499 553q-29 0 -48.5 17t-19.5 46q0 41 29 65t66 24q28 0 47.5 -17t19.5 -47q0 -40 -29 -64t-65 -24z" />
    <glyph glyph-name="yacute" unicode="&#xfd;" horiz-adv-x="641" 
d="M410 558h-125l1 7l97 139h169zM404 55q-34 -34 -70 -47t-88 -13q-98 0 -147.5 57.5t-26.5 190.5l23 133h-72l21 121h210l-45 -254q-4 -31 -4.5 -58.5t23.5 -46t74 -18.5q52 1 85 36.5t43 91.5l23 128h-74l21 121h213l-87 -495q-46 -256 -294 -256q-109 0 -167 50.5
t-43 156.5h137q-4 -39 20.5 -59t70.5 -20q53 0 93.5 33.5t50.5 92.5z" />
    <glyph glyph-name="thorn" unicode="&#xfe;" horiz-adv-x="649" 
d="M310 120q61 0 106.5 39.5t45.5 104.5q0 47 -30.5 75.5t-77.5 28.5q-58 0 -104 -42.5t-46 -98.5q0 -45 30 -76t76 -31zM38 574l21 123h214l-46 -263q26 31 74 50.5t86 19.5q101 1 161.5 -50.5t60.5 -155.5q0 -147 -84.5 -229.5t-221.5 -82.5q-109 0 -141 68l-24 -135h72
l-22 -125h-269l22 125h56l116 655h-75z" />
    <glyph glyph-name="ydieresis" unicode="&#xff;" horiz-adv-x="641" 
d="M240 553q-29 0 -48.5 16.5t-19.5 46.5q0 42 29 67t66 25q27 0 47 -17t20 -48q0 -42 -28.5 -66t-65.5 -24zM498 551q-28 0 -47.5 17t-19.5 48q0 42 29.5 67t65.5 25q28 0 47.5 -17.5t19.5 -48.5q0 -42 -29 -66.5t-66 -24.5zM404 55q-34 -34 -70 -47t-88 -13
q-98 0 -147.5 57.5t-26.5 190.5l23 133h-72l21 121h210l-45 -254q-4 -31 -4.5 -58.5t23.5 -46t74 -18.5q52 1 85 36.5t43 91.5l23 128h-74l21 121h213l-87 -495q-46 -256 -294 -256q-109 0 -167 50.5t-43 156.5h137q-4 -39 20.5 -59t70.5 -20q53 0 93.5 33.5t50.5 92.5z" />
    <glyph glyph-name="Amacron" unicode="&#x100;" horiz-adv-x="827" 
d="M315 756l20 116h348l-20 -116h-348zM576 135l-19 79h-296l-49 -79h72l-24 -135h-292l24 135h62l277 432h-65l23 133h292l147 -565h64l-24 -135h-293l24 135h77zM477 566l-73 -124l-64 -102h186l-25 102z" />
    <glyph glyph-name="amacron" unicode="&#x101;" horiz-adv-x="686" 
d="M239 588l20 115h312l-20 -115h-312zM328 381q-69 0 -117.5 -46.5t-48.5 -115.5q0 -49 28.5 -79t81.5 -30q65 0 111.5 37t56.5 95q12 60 -18 99.5t-94 39.5zM415 56q-43 -40 -87 -54.5t-104 -14.5q-87 1 -144.5 55.5t-57.5 157.5q0 122 80 211t211 96q60 0 99.5 -12.5
t65.5 -50.5l17 51h131l-65 -333q-5 -26 7 -37.5t29 -11t40 6.5l-17 -113q-26 -11 -56.5 -16t-61 -2.5t-55 19.5t-32.5 48z" />
    <glyph glyph-name="Abreve" unicode="&#x102;" horiz-adv-x="827" 
d="M576 135l-19 79h-296l-49 -79h72l-24 -135h-292l24 135h62l277 432h-65l23 133h292l147 -565h64l-24 -135h-293l24 135h77zM477 566l-73 -124l-64 -102h186l-25 102zM564 907h110q-6 -76 -57.5 -114t-128.5 -38q-73 0 -113 39.5t-19 112.5h111q-7 -50 41 -50q45 0 56 50z
" />
    <glyph glyph-name="abreve" unicode="&#x103;" horiz-adv-x="686" 
d="M328 381q-69 0 -117.5 -46.5t-48.5 -115.5q0 -49 28.5 -79t81.5 -30q65 0 111.5 37t56.5 95q12 60 -18 99.5t-94 39.5zM415 56q-43 -40 -87 -54.5t-104 -14.5q-87 1 -144.5 55.5t-57.5 157.5q0 122 80 211t211 96q60 0 99.5 -12.5t65.5 -50.5l17 51h131l-65 -333
q-5 -26 7 -37.5t29 -11t40 6.5l-17 -113q-26 -11 -56.5 -16t-61 -2.5t-55 19.5t-32.5 48zM452 709h107q-6 -74 -55.5 -110.5t-124.5 -36.5q-71 0 -110 38t-19 109h108q-7 -49 40 -49q45 0 54 49z" />
    <glyph glyph-name="Aogonek" unicode="&#x104;" horiz-adv-x="824" 
d="M574 135l-19 79h-296l-49 -79h72l-24 -135h-290l24 135h62l277 432h-65l23 133h292l147 -565h61l-24 -135q-98 3 -141.5 -31t-34.5 -77q5 -16 26.5 -22t55.5 5t67 38l14 -96q-26 -26 -72.5 -42.5t-93.5 -18t-85.5 21.5t-46.5 70q-6 42 24.5 89.5t77.5 62.5h-83l24 135h77
zM475 566l-73 -124l-64 -102h186l-25 102z" />
    <glyph glyph-name="aogonek" unicode="&#x105;" horiz-adv-x="686" 
d="M413 56q-75 -69 -189 -69q-87 1 -144.5 55.5t-57.5 157.5q0 122 80 211t211 96q60 0 99.5 -12.5t65.5 -50.5l17 51h131l-65 -330q-5 -26 7 -37.5t29 -11t40 6.5l-17 -116q-26 -5 -47 -11.5t-46.5 -19t-37 -31.5t-5.5 -43q5 -21 40.5 -20t77.5 26l16 -90
q-38 -23 -81 -34.5t-81 -10t-65 24t-32 63.5q-6 83 91 144q-29 19 -37 51zM328 381q-69 0 -117.5 -46.5t-48.5 -115.5q0 -49 28.5 -79t81.5 -30q65 0 111.5 37t56.5 95q12 60 -18 99.5t-94 39.5z" />
    <glyph glyph-name="Cacute" unicode="&#x106;" 
d="M418 771l1 7l93 133h168l-137 -140h-125zM488 715q123 0 214 -71l-17.5 -85.5t-15.5 -77.5h-132l10 88q-40 10 -83 10q-59 0 -108 -20.5t-81 -54t-52 -73.5t-27 -83q-10 -40 -4.5 -79.5t22.5 -71t60.5 -51.5t109.5 -20q42 0 96 19t88 49l70 -108q-124 -100 -278 -100
q-78 0 -138 19.5t-97 53.5t-59.5 80t-24.5 99.5t6 112.5q11 69 45.5 133t89 116t134.5 83.5t172 31.5z" />
    <glyph glyph-name="cacute" unicode="&#x107;" horiz-adv-x="533" 
d="M279 571l1 7l89 121h146l-126 -128h-110zM405 162l67 -94q-89 -80 -214 -80q-105 0 -170 55.5t-65 159.5q0 66 20.5 119.5t53 87.5t76 56.5t86.5 32t88 9.5q106 0 172 -42l-34 -154h-120l12 66q-25 7 -53 7q-79 0 -119 -48.5t-40 -112.5q0 -52 31.5 -78.5t87.5 -26.5
q68 0 121 43z" />
    <glyph glyph-name="Ccircumflex" unicode="&#x108;" 
d="M286 768l2 11l191 149h72l138 -150l-2 -10h-137l-53 58l-75 -58h-136zM488 715q123 0 214 -71l-17.5 -85.5t-15.5 -77.5h-132l10 88q-40 10 -83 10q-59 0 -108 -20.5t-81 -54t-52 -73.5t-27 -83q-10 -40 -4.5 -79.5t22.5 -71t60.5 -51.5t109.5 -20q42 0 96 19t88 49
l70 -108q-124 -100 -278 -100q-78 0 -138 19.5t-97 53.5t-59.5 80t-24.5 99.5t6 112.5q11 69 45.5 133t89 116t134.5 83.5t172 31.5z" />
    <glyph glyph-name="ccircumflex" unicode="&#x109;" horiz-adv-x="533" 
d="M324 700h101l112 -131l-2 -10h-135l-42 48l-62 -48h-139l2 11zM405 162l67 -94q-89 -80 -214 -80q-105 0 -170 55.5t-65 159.5q0 66 20.5 119.5t53 87.5t76 56.5t86.5 32t88 9.5q106 0 172 -42l-34 -154h-120l12 66q-25 7 -53 7q-79 0 -119 -48.5t-40 -112.5
q0 -52 31.5 -78.5t87.5 -26.5q68 0 121 43z" />
    <glyph glyph-name="Cdotaccent" unicode="&#x10a;" 
d="M492 771q-30 0 -50.5 16.5t-20.5 47.5q0 42 29.5 67t67.5 25q30 0 50.5 -17t20.5 -48q0 -42 -29.5 -66.5t-67.5 -24.5zM488 715q123 0 214 -71l-17.5 -85.5t-15.5 -77.5h-132l10 88q-40 10 -83 10q-59 0 -108 -20.5t-81 -54t-52 -73.5t-27 -83q-10 -40 -4.5 -79.5
t22.5 -71t60.5 -51.5t109.5 -20q42 0 96 19t88 49l70 -108q-124 -100 -278 -100q-78 0 -138 19.5t-97 53.5t-59.5 80t-24.5 99.5t6 112.5q11 69 45.5 133t89 116t134.5 83.5t172 31.5z" />
    <glyph glyph-name="cdotaccent" unicode="&#x10b;" horiz-adv-x="533" 
d="M348 562q-27 0 -46 15.5t-19 44.5q0 39 28 62t62 23q28 0 47 -16t19 -45q0 -40 -27.5 -62t-63.5 -22zM405 162l67 -94q-89 -80 -214 -80q-105 0 -170 55.5t-65 159.5q0 66 20.5 119.5t53 87.5t76 56.5t86.5 32t88 9.5q106 0 172 -42l-34 -154h-120l12 66q-25 7 -53 7
q-79 0 -119 -48.5t-40 -112.5q0 -52 31.5 -78.5t87.5 -26.5q68 0 121 43z" />
    <glyph glyph-name="Ccaron" unicode="&#x10c;" 
d="M488 715q123 0 214 -71l-17.5 -85.5t-15.5 -77.5h-132l10 88q-40 10 -83 10q-59 0 -108 -20.5t-81 -54t-52 -73.5t-27 -83q-10 -40 -4.5 -79.5t22.5 -71t60.5 -51.5t109.5 -20q42 0 96 19t88 49l70 -108q-124 -100 -278 -100q-78 0 -138 19.5t-97 53.5t-59.5 80
t-24.5 99.5t6 112.5q11 69 45.5 133t89 116t134.5 83.5t172 31.5zM538 767h-110l-123 129l2 10h139l55 -54l74 54h141l-2 -11z" />
    <glyph glyph-name="ccaron" unicode="&#x10d;" horiz-adv-x="533" 
d="M405 162l67 -94q-89 -80 -214 -80q-105 0 -170 55.5t-65 159.5q0 66 20.5 119.5t53 87.5t76 56.5t86.5 32t88 9.5q106 0 172 -42l-34 -154h-120l12 66q-25 7 -53 7q-79 0 -119 -48.5t-40 -112.5q0 -52 31.5 -78.5t87.5 -26.5q68 0 121 43zM400 568h-102l-114 125l2 9h129
l51 -52l68 52h130l-2 -10z" />
    <glyph glyph-name="Dcaron" unicode="&#x10e;" horiz-adv-x="782" 
d="M343 0h-343l24 135h81l76 433h-80l24 133h342q172 0 244.5 -99t40.5 -254q-31 -157 -132.5 -252.5t-276.5 -95.5zM255 134h112q53 0 96.5 20t71 54t45 71t26.5 79q18 86 -23 147.5t-140 61.5h-112zM500 755h-110l-123 129l2 10h139l55 -54l74 54h141l-2 -11z" />
    <glyph glyph-name="dcaron" unicode="&#x10f;" horiz-adv-x="682" 
d="M680 526l55 175h139l-90 -175h-104zM326 381q-79 0 -121.5 -55t-35.5 -118q4 -38 30.5 -62t70.5 -24q63 0 113 39t50 117q0 56 -32.5 79.5t-74.5 23.5zM560 170q-7 -40 15.5 -49.5t58.5 4.5l-16 -117q-36 -16 -77.5 -18t-78.5 17t-47 59q-39 -45 -79 -61.5t-102 -16.5
q-97 0 -152 59t-60 144q-4 76 29 146.5t106.5 119t171.5 48.5q102 0 140 -60l24 135h-69l21 119h208z" />
    <glyph glyph-name="Dcroat" unicode="&#x110;" horiz-adv-x="783" 
d="M345 0h-343l24 135h81l26 147h-66l21 123h66l29 163h-80l24 133h342q173 0 245 -95.5t40 -249.5q-31 -159 -133 -257.5t-276 -98.5zM257 134h112q53 0 96.5 20t71 54t45 71t26.5 79q18 86 -23 147.5t-140 61.5h-112l-29 -162h146l-21 -123h-146z" />
    <glyph glyph-name="dcroat" unicode="&#x111;" 
d="M560 170q-7 -40 15.5 -49.5t58.5 4.5l-16 -117q-36 -16 -77.5 -18t-78.5 17t-47 59q-39 -45 -79 -61.5t-102 -16.5q-97 0 -152 59t-60 144q-4 76 29 146.5t106.5 119t171.5 48.5q102 0 140 -60l24 135h-69l21 119h208l-20 -113h77l-19 -106h-76zM326 381
q-79 0 -121.5 -55t-35.5 -118q4 -38 30.5 -62t70.5 -24q63 0 113 39t50 117q0 56 -32.5 79.5t-74.5 23.5z" />
    <glyph glyph-name="Emacron" unicode="&#x112;" horiz-adv-x="704" 
d="M651 880l-20 -112h-351l20 112h351zM249 138h244l25 104h130l-43 -242h-603l24 135h79l76 432h-73l23 133h582l-41 -236h-126l11 102h-232l-26 -144h213l-23 -133h-213z" />
    <glyph glyph-name="emacron" unicode="&#x113;" horiz-adv-x="576" 
d="M223 688h289l-20 -112h-289zM419 155l66 -91q-46 -38 -109 -58t-121 -20q-118 0 -175.5 59t-57.5 156q0 137 89 223t229 86q123 0 177 -80t8 -231h-365q-2 -87 120 -87q32 0 71.5 11.5t67.5 31.5zM178 305h238q9 43 -18.5 64.5t-77.5 21.5t-88 -22t-54 -64z" />
    <glyph glyph-name="Ebreve" unicode="&#x114;" horiz-adv-x="704" 
d="M249 138h244l25 104h130l-43 -242h-603l24 135h79l76 432h-73l23 133h582l-41 -236h-126l11 102h-232l-26 -144h213l-23 -133h-213zM513 902h110q-6 -76 -57.5 -114t-128.5 -38q-73 0 -113 39.5t-19 112.5h111q-7 -50 41 -50q45 0 56 50z" />
    <glyph glyph-name="ebreve" unicode="&#x115;" horiz-adv-x="576" 
d="M431 701h110q-6 -72 -57.5 -108t-128.5 -36q-73 0 -112.5 37t-18.5 107h110q-7 -47 41 -47q45 0 56 47zM419 155l66 -91q-46 -38 -109 -58t-121 -20q-118 0 -175.5 59t-57.5 156q0 137 89 223t229 86q123 0 177 -80t8 -231h-365q-2 -87 120 -87q32 0 71.5 11.5t67.5 31.5
zM178 305h238q9 43 -18.5 64.5t-77.5 21.5t-88 -22t-54 -64z" />
    <glyph glyph-name="Edotaccent" unicode="&#x116;" horiz-adv-x="704" 
d="M454 748q-29 0 -50 17t-21 46q0 40 29.5 63t66.5 23q29 0 51 -17t22 -47q0 -39 -30.5 -62t-67.5 -23zM249 138h244l25 104h130l-43 -242h-603l24 135h79l76 432h-73l23 133h582l-41 -236h-126l11 102h-232l-26 -144h213l-23 -133h-213z" />
    <glyph glyph-name="edotaccent" unicode="&#x117;" horiz-adv-x="576" 
d="M357 565q-28 0 -47.5 15.5t-19.5 43.5q0 39 28 61t63 22q28 0 47 -16t19 -45q0 -37 -27.5 -59t-62.5 -22zM419 155l66 -91q-46 -38 -109 -58t-121 -20q-118 0 -175.5 59t-57.5 156q0 137 89 223t229 86q123 0 177 -80t8 -231h-365q-2 -87 120 -87q32 0 71.5 11.5
t67.5 31.5zM178 305h238q9 43 -18.5 64.5t-77.5 21.5t-88 -22t-54 -64z" />
    <glyph glyph-name="Eogonek" unicode="&#x118;" horiz-adv-x="703" 
d="M249 138h244l25 104h130l-43 -242q-89 3 -127.5 -31t-32.5 -74q12 -28 56 -28t91 41l16 -95q-35 -26 -81.5 -40.5t-90 -14t-77 24t-40.5 68.5q-4 40 20 81.5t74 67.5h-411l24 135h79l76 432h-73l23 133h582l-41 -236h-126l11 102h-232l-26 -144h213l-23 -133h-213z" />
    <glyph glyph-name="eogonek" unicode="&#x119;" horiz-adv-x="578" 
d="M419 155l66 -91q-49 -41 -119 -61q-1 0 -2.5 -0.5l-3 -1l-3 -1t-3.5 -0.5q-21 -15 -32 -38t-5 -49q5 -17 24 -24.5t49.5 1.5t59.5 36l15 -87q-34 -24 -78.5 -37.5t-85.5 -13.5t-71 21t-34 63q-2 32 15.5 63t42.5 51q-117 0 -174.5 59t-57.5 156q0 137 89 223t229 86
q131 0 183 -75t2 -236h-365q-1 -39 29.5 -63t90.5 -24q32 0 71.5 11.5t67.5 31.5zM178 305h238q9 43 -18.5 64.5t-77.5 21.5q-48 0 -87 -22t-55 -64z" />
    <glyph glyph-name="Ecaron" unicode="&#x11a;" horiz-adv-x="704" 
d="M249 138h244l25 104h130l-43 -242h-603l24 135h79l76 432h-73l23 133h582l-41 -236h-126l11 102h-232l-26 -144h213l-23 -133h-213zM510 754h-114l-128 140l2 11h145l57 -59l77 59h146l-2 -12z" />
    <glyph glyph-name="ecaron" unicode="&#x11b;" horiz-adv-x="576" 
d="M419 155l66 -91q-46 -38 -109 -58t-121 -20q-118 0 -175.5 59t-57.5 156q0 137 89 223t229 86q123 0 177 -80t8 -231h-365q-2 -87 120 -87q32 0 71.5 11.5t67.5 31.5zM178 305h238q9 43 -18.5 64.5t-77.5 21.5t-88 -22t-54 -64zM403 563h-108l-121 129l2 10h137l54 -54
l73 54h138l-2 -11z" />
    <glyph glyph-name="Gcircumflex" unicode="&#x11c;" horiz-adv-x="723" 
d="M483 714q76 0 132.5 -15t103.5 -56q-14 -80 -33 -173h-131l12 97q-44 13 -108 13q-115 0 -192 -83.5t-77 -197.5q0 -76 46 -127t146 -51q75 0 134 36l18 98h-185l21 123h316l-46 -279q-52 -59 -128 -88t-159 -29q-82 0 -144 24.5t-98 66.5t-53.5 93.5t-17.5 111.5
q0 82 29.5 159t83.5 139.5t140 100t190 37.5zM463 912h114l128 -140l-2 -11h-145l-57 59l-77 -59h-146l2 12z" />
    <glyph glyph-name="gcircumflex" unicode="&#x11d;" horiz-adv-x="677" 
d="M326 373q-59 0 -109.5 -39.5t-50.5 -110.5q0 -49 30.5 -82t79.5 -33q75 0 121 46.5t46 110.5q0 49 -30.5 78.5t-86.5 29.5zM536 -5q-24 -142 -103.5 -200.5t-218.5 -58.5q-118 0 -177.5 54t-40.5 153h140q-5 -41 20 -61t85 -20q128 0 152 134l10 51q-53 -60 -163 -64
q-100 0 -159 56.5t-59 156.5q0 137 88 220.5t213 83.5q109 0 150 -67l22 64h195l-21 -121h-68zM352 708h114l128 -140l-2 -11h-145l-57 59l-77 -59h-146l2 12z" />
    <glyph glyph-name="Gbreve" unicode="&#x11e;" horiz-adv-x="723" 
d="M483 714q76 0 132.5 -15t103.5 -56q-14 -80 -33 -173h-131l12 97q-44 13 -108 13q-115 0 -192 -83.5t-77 -197.5q0 -76 46 -127t146 -51q75 0 134 36l18 98h-185l21 123h316l-46 -279q-52 -59 -128 -88t-159 -29q-82 0 -144 24.5t-98 66.5t-53.5 93.5t-17.5 111.5
q0 82 29.5 159t83.5 139.5t140 100t190 37.5zM558 920h110q-6 -76 -57.5 -114t-128.5 -38q-73 0 -113 39.5t-19 112.5h111q-7 -50 41 -50q45 0 56 50z" />
    <glyph glyph-name="gbreve" unicode="&#x11f;" horiz-adv-x="677" 
d="M326 373q-59 0 -109.5 -39.5t-50.5 -110.5q0 -49 30.5 -82t79.5 -33q75 0 121 46.5t46 110.5q0 49 -30.5 78.5t-86.5 29.5zM536 -5q-24 -142 -103.5 -200.5t-218.5 -58.5q-118 0 -177.5 54t-40.5 153h140q-5 -41 20 -61t85 -20q128 0 152 134l10 51q-53 -60 -163 -64
q-100 0 -159 56.5t-59 156.5q0 137 88 220.5t213 83.5q109 0 150 -67l22 64h195l-21 -121h-68zM458 708h114q-6 -76 -59.5 -113.5t-133.5 -37.5q-76 0 -117.5 39.5t-20.5 111.5h116q-7 -49 43 -49q47 0 58 49z" />
    <glyph glyph-name="Gdotaccent" unicode="&#x120;" horiz-adv-x="723" 
d="M492 771q-30 0 -51.5 16.5t-21.5 46.5q0 40 30.5 64.5t68.5 24.5q31 0 52 -17.5t21 -48.5q0 -40 -30 -63t-69 -23zM483 714q76 0 132.5 -15t103.5 -56q-14 -80 -33 -173h-131l12 97q-44 13 -108 13q-115 0 -192 -83.5t-77 -197.5q0 -76 46 -127t146 -51q75 0 134 36
l18 98h-185l21 123h316l-46 -279q-52 -59 -128 -88t-159 -29q-82 0 -144 24.5t-98 66.5t-53.5 93.5t-17.5 111.5q0 82 29.5 159t83.5 139.5t140 100t190 37.5z" />
    <glyph glyph-name="gdotaccent" unicode="&#x121;" horiz-adv-x="677" 
d="M374 565q-33 0 -55.5 17.5t-22.5 48.5q0 40 31.5 63.5t71.5 23.5q33 0 55 -17t22 -48q0 -40 -31.5 -64t-70.5 -24zM326 373q-59 0 -109.5 -39.5t-50.5 -110.5q0 -49 30.5 -82t79.5 -33q75 0 121 46.5t46 110.5q0 49 -30.5 78.5t-86.5 29.5zM536 -5
q-24 -142 -103.5 -200.5t-218.5 -58.5q-118 0 -177.5 54t-40.5 153h140q-5 -41 20 -61t85 -20q128 0 152 134l10 51q-53 -60 -163 -64q-100 0 -159 56.5t-59 156.5q0 137 88 220.5t213 83.5q109 0 150 -67l22 64h195l-21 -121h-68z" />
    <glyph glyph-name="Gcommaaccent" unicode="&#x122;" horiz-adv-x="723" 
d="M325 -281h-84l43 74q-22 3 -36 19t-14 38q0 57 52 79q46 20 84 -4q30 -18 30 -55q0 -18 -21 -61t-54 -90zM483 714q76 0 132.5 -15t103.5 -56q-14 -80 -33 -173h-131l12 97q-44 13 -108 13q-115 0 -192 -83.5t-77 -197.5q0 -76 46 -127t146 -51q75 0 134 36l18 98h-185
l21 123h316l-46 -279q-52 -59 -128 -88t-159 -29q-82 0 -144 24.5t-98 66.5t-53.5 93.5t-17.5 111.5q0 82 29.5 159t83.5 139.5t140 100t190 37.5z" />
    <glyph glyph-name="gcommaaccent" unicode="&#x123;" horiz-adv-x="677" 
d="M359 783h93l-45 -74q25 -3 40.5 -19.5t15.5 -39.5q0 -60 -56 -83q-49 -20 -91 4q-35 19 -35 60q0 39 78 152zM326 373q-59 0 -109.5 -39.5t-50.5 -110.5q0 -49 30.5 -82t79.5 -33q75 0 121 46.5t46 110.5q0 49 -30.5 78.5t-86.5 29.5zM536 -5q-24 -142 -103.5 -200.5
t-218.5 -58.5q-118 0 -177.5 54t-40.5 153h140q-5 -41 20 -61t85 -20q128 0 152 134l10 51q-53 -60 -163 -64q-100 0 -159 56.5t-59 156.5q0 137 88 220.5t213 83.5q109 0 150 -67l22 64h195l-21 -121h-68z" />
    <glyph glyph-name="Hcircumflex" unicode="&#x124;" horiz-adv-x="863" 
d="M703 135h73l-24 -135h-291l24 135h70l29 165h-304l-29 -165h68l-24 -135h-289l24 135h75l76 430h-77l23 135h294l-23 -135h-71l-24 -134h304l24 134h-71l23 135h295l-23 -135h-76zM479 901h114l128 -140l-2 -11h-145l-57 59l-77 -59h-146l2 12z" />
    <glyph glyph-name="hcircumflex" unicode="&#x125;" horiz-adv-x="655" 
d="M53 745l2 10l186 145h68l135 -146l-2 -9h-144l-44 48l-62 -48h-139zM151 0h-140l103 582h-67l22 118h204l-45 -264q60 63 155 63q215 0 173 -241l-15 -87q-7 -39 19 -48.5t58 3.5l-15 -116q-42 -18 -98 -18q-43 0 -68 15.5t-32 46t-5.5 58.5t8.5 70l14 76q11 61 -13 86.5
t-75 23.5q-59 -3 -94.5 -38t-45.5 -90z" />
    <glyph glyph-name="Hbar" unicode="&#x126;" horiz-adv-x="868" 
d="M302 406h304l8 48h-304zM706 135h73l-24 -135h-291l24 135h70l24 140h-304l-24 -140h68l-24 -135h-289l24 135h75l56 319h-61l12 66h61l8 45h-77l23 135h294l-23 -135h-71l-8 -45h304l8 45h-71l23 135h295l-23 -135h-76l-8 -45h65l-12 -66h-65z" />
    <glyph glyph-name="hbar" unicode="&#x127;" horiz-adv-x="681" 
d="M177 0h-140l77 437h-61l17 96h61l9 49h-67l22 118h204l-45 -264q60 63 155 63q215 0 173 -241l-15 -87q-7 -39 19 -48.5t58 3.5l-15 -116q-42 -18 -98 -18q-43 0 -68 15.5t-32 46t-5.5 58.5t8.5 70l14 76q11 61 -13 86.5t-75 23.5q-59 -3 -94.5 -38t-45.5 -90z" />
    <glyph glyph-name="Itilde" unicode="&#x128;" horiz-adv-x="415" 
d="M253 135h81l-24 -135h-308l24 135h80l76 430h-77l23 135h304l-23 -135h-80zM278 896q6 -2 20.5 -11t26.5 -15t26.5 -9t26 4.5t19.5 26.5l84 -37q-22 -65 -72 -94.5t-87 -10.5q-8 3 -23.5 12.5t-26.5 14.5t-25 7.5t-26 -6.5t-22 -29l-81 40q16 60 65.5 92t94.5 15z" />
    <glyph glyph-name="itilde" unicode="&#x129;" horiz-adv-x="331" 
d="M204 713q5 -2 17 -9.5t21.5 -12t21 -6.5t21 6t16.5 26l68 -35q-15 -62 -59 -86.5t-76 -5.5q-6 3 -19.5 10.5t-22 11t-20 4.5t-21.5 -8.5t-19 -28.5l-66 38q11 58 53 86t85 10zM61 495h203l-55 -316q-8 -44 13 -55.5t62 2.5l-16 -116q-40 -18 -97 -18t-84.5 29t-26.5 71.5
t7 89.5l34 195h-60z" />
    <glyph glyph-name="Imacron" unicode="&#x12a;" horiz-adv-x="415" 
d="M145 754l19 107h295l-19 -107h-295zM253 135h81l-24 -135h-308l24 135h80l76 430h-77l23 135h304l-23 -135h-80z" />
    <glyph glyph-name="imacron" unicode="&#x12b;" horiz-adv-x="331" 
d="M85 568l20 115h239l-20 -115h-239zM61 495h203l-55 -316q-8 -44 13 -55.5t62 2.5l-16 -116q-40 -18 -97 -18t-84.5 29t-26.5 71.5t7 89.5l34 195h-60z" />
    <glyph glyph-name="Ibreve" unicode="&#x12c;" horiz-adv-x="416" 
d="M254 135h80l-24 -135h-308l24 135h80l76 430h-77l23 135h304l-23 -135h-79zM366 892h108q-6 -74 -56.5 -110.5t-126.5 -36.5q-71 0 -110.5 38t-19.5 109h109q-7 -49 41 -49q44 0 55 49z" />
    <glyph glyph-name="ibreve" unicode="&#x12d;" horiz-adv-x="331" 
d="M61 495h203l-55 -316q-8 -44 13 -55.5t62 2.5l-16 -116q-40 -18 -97 -18t-84.5 29t-26.5 71.5t7 89.5l34 195h-60zM255 705h98q-5 -77 -51 -115t-116 -38q-65 0 -100.5 39.5t-17.5 113.5h100q-7 -51 36 -51q40 0 51 51z" />
    <glyph glyph-name="Iogonek" unicode="&#x12e;" horiz-adv-x="415" 
d="M312 -85l7 -96q-37 -20 -79 -30.5t-80.5 -9.5t-66.5 22t-33 60q-3 36 18.5 76t58.5 63h-135l24 135h80l76 430h-77l23 135h304l-23 -135h-80l-76 -430h81l-24 -135q-61 1 -93.5 -30.5t-23.5 -62.5q7 -20 39.5 -20.5t79.5 28.5z" />
    <glyph glyph-name="iogonek" unicode="&#x12f;" horiz-adv-x="331" 
d="M61 495h203l-55 -316q-8 -44 13 -55.5t62 2.5l-16 -116q-139 -34 -121 -106q9 -25 46 -26.5t82 26.5l9 -96q-53 -28 -110 -36.5t-103 13t-54 74.5q-4 38 18.5 79t70.5 68q-38 20 -45 72.5t6 103.5l34 195h-60zM207 544q-29 0 -48.5 19.5t-19.5 50.5q0 41 29 67.5t66 26.5
q30 0 49.5 -18.5t19.5 -50.5q0 -41 -29.5 -68t-66.5 -27z" />
    <glyph glyph-name="Idotaccent" unicode="&#x130;" horiz-adv-x="415" 
d="M211 817q0 44 33.5 70t74.5 26q34 0 57.5 -19.5t23.5 -53.5q0 -43 -33.5 -69t-76.5 -26q-33 0 -56 19t-23 53zM253 135h81l-24 -135h-308l24 135h80l76 430h-77l23 135h304l-23 -135h-80z" />
    <glyph glyph-name="dotlessi" unicode="&#x131;" horiz-adv-x="331" 
d="M61 495h203l-55 -316q-8 -44 13 -55.5t62 2.5l-16 -116q-40 -18 -97 -18t-84.5 29t-26.5 71.5t7 89.5l34 195h-60z" />
    <glyph glyph-name="IJ" unicode="&#x132;" horiz-adv-x="1099" 
d="M253 135h81l-24 -135h-308l24 135h80l76 430h-77l23 135h304l-23 -135h-80zM740 566l23 134h327l-69 -392q-20 -148 -107 -235t-251 -87q-143 0 -203 71.5t-30 239.5h144q-7 -48 -6.5 -86.5t28 -62.5t82.5 -24q83 0 130.5 50.5t62.5 133.5l45 258h-176z" />
    <glyph glyph-name="ij" unicode="&#x133;" horiz-adv-x="632" 
d="M205 547q-29 0 -49.5 18.5t-20.5 49.5q0 41 29.5 66t66.5 25q31 0 51.5 -18t20.5 -50q0 -41 -30 -66t-68 -25zM61 495h203l-55 -316q-8 -44 13 -55.5t62 2.5l-16 -116q-40 -18 -97 -18t-84.5 29t-26.5 71.5t7 89.5l34 195h-60zM547 551q-31 0 -52 17.5t-21 50.5
q0 43 31 69.5t69 25.5q30 0 51.5 -18.5t21.5 -50.5q0 -43 -31 -69t-69 -25zM387 493h216l-94 -535q-13 -75 -48.5 -125t-80 -68t-93.5 -13t-93 33l65 110q41 -24 72.5 -8.5t41.5 71.5l73 415h-80z" />
    <glyph glyph-name="Jcircumflex" unicode="&#x134;" horiz-adv-x="684" 
d="M289 762l2 10l193 152h71l137 -153l-2 -9h-136l-53 57l-75 -57h-137zM325 566l23 134h327l-69 -392q-20 -148 -107 -235t-251 -87q-143 0 -203 71.5t-30 239.5h144q-7 -48 -6.5 -86.5t28 -62.5t82.5 -24q83 0 130.5 50.5t62.5 133.5l45 258h-176z" />
    <glyph glyph-name="jcircumflex" unicode="&#x135;" horiz-adv-x="302" 
d="M188 714h89l108 -143l-2 -8h-128l-36 48l-49 -48h-128l2 8zM56 493h217l-94 -535q-13 -72 -45.5 -120t-76.5 -67t-94.5 -16t-100.5 30l66 110q45 -21 74.5 -7t39.5 70l73 415h-80z" />
    <glyph glyph-name="Kcommaaccent" unicode="&#x136;" horiz-adv-x="772" 
d="M266 -275l47 76q-23 4 -37 21t-14 41q0 61 55 85q48 20 90 -3q34 -19 34 -60q0 -53 -85 -160h-90zM326 565l-32 -181l167 124l91 57h-82l23 135h312l-23 -135h-59l-239 -185l153 -247h86l-23 -133h-257l21 122l-102 166l-98 -72l-15 -83h84l-23 -133h-304l23 133h75
l77 432h-77l23 135h276l-23 -135h-54z" />
    <glyph glyph-name="kcommaaccent" unicode="&#x137;" horiz-adv-x="585" 
d="M165 -259l44 74q-23 3 -37 20t-14 39q0 56 53 78q47 19 86 -5q30 -18 30 -55q0 -43 -77 -151h-85zM510 2q-25 -11 -77 -11q-50 1 -79.5 26t-59.5 74l-68 106l-49 -32l-29 -165h-137l103 576h-63l21 124h199l-72 -403l140 100l17 97h221l-19 -111h-57l-163 -109l78 -114
q26 -35 47 -41t64 7z" />
    <glyph glyph-name="kgreenlandic" unicode="&#x138;" horiz-adv-x="608" 
d="M533 2q-25 -11 -77 -11q-50 1 -79.5 26t-59.5 74l-68 106l-49 -32l-29 -165h-137l66 373h-63l21 124h199l-35 -200l130 92l17 105h231l-19 -111h-57l-163 -109l78 -114q26 -35 47 -41t64 7z" />
    <glyph glyph-name="Lacute" unicode="&#x139;" horiz-adv-x="658" 
d="M345 748h-123l1 7l93 131h163zM180 565h-77l23 135h297l-23 -135h-72l-76 -431h219l24 102h130l-42 -236h-569l23 133h66z" />
    <glyph glyph-name="lacute" unicode="&#x13a;" horiz-adv-x="301" 
d="M130 757l92 119h161l-135 -126h-119zM48 578l22 122h201l-92 -529q-7 -39 19 -48.5t59 3.5l-16 -116q-42 -18 -102 -18q-34 0 -57 11t-33 27.5t-13 43.5t-1 49.5t8 55.5l68 399h-63z" />
    <glyph glyph-name="Lcommaaccent" unicode="&#x13b;" horiz-adv-x="658" 
d="M180 565h-77l23 135h297l-23 -135h-72l-76 -431h219l24 102h130l-42 -236h-569l23 133h66zM180 -268l45 74q-22 3 -36.5 19t-14.5 38q0 58 53 80q47 19 86 -5q29 -19 29 -55q0 -40 -78 -151h-84z" />
    <glyph glyph-name="lcommaaccent" unicode="&#x13c;" horiz-adv-x="301" 
d="M11 -261l38 67q-21 3 -33.5 18.5t-12.5 37.5q0 57 52 78q45 18 82 -6q28 -18 28 -54q0 -40 -74 -141h-80zM48 578l22 122h201l-92 -529q-7 -39 19 -48.5t59 3.5l-16 -116q-42 -18 -102 -18q-34 0 -57 11t-33 27.5t-13 43.5t-1 49.5t8 55.5l68 399h-63z" />
    <glyph glyph-name="Lcaron" unicode="&#x13d;" horiz-adv-x="659" 
d="M180 565h-77l23 135h297l-23 -135h-72l-76 -431h219l24 102h130l-42 -236h-569l23 133h66zM555 507h-111l59 191h149z" />
    <glyph glyph-name="lcaron" unicode="&#x13e;" horiz-adv-x="301" 
d="M285 526l55 175h139l-90 -175h-104zM48 578l22 122h201l-92 -529q-7 -39 19 -48.5t59 3.5l-16 -116q-42 -18 -102 -18q-34 0 -57 11t-33 27.5t-13 43.5t-1 49.5t8 55.5l68 399h-63z" />
    <glyph glyph-name="Ldot" unicode="&#x13f;" horiz-adv-x="658" 
d="M252 134h219l24 102h130l-42 -236h-569l23 133h66l77 432h-77l23 135h297l-23 -135h-72zM426 290q-29 0 -48.5 17.5t-19.5 48.5q0 43 29.5 69t66.5 26q28 0 48 -18t20 -50q0 -42 -29.5 -67.5t-66.5 -25.5z" />
    <glyph glyph-name="ldot" unicode="&#x140;" horiz-adv-x="414" 
d="M329 269q-29 0 -48.5 17.5t-19.5 49.5q0 43 29.5 69t66.5 26q29 0 49 -18t20 -50q0 -43 -30 -68.5t-67 -25.5zM48 578l22 122h201l-92 -529q-7 -39 19 -48.5t59 3.5l-16 -116q-42 -18 -102 -18q-34 0 -57 11t-33 27.5t-13 43.5t-1 49.5t8 55.5l68 399h-63z" />
    <glyph glyph-name="Lslash" unicode="&#x141;" horiz-adv-x="663" 
d="M185 565h-77l23 135h297l-23 -135h-72l-24 -134l108 46l-20 -112l-107 -44l-33 -187h219l24 102h130l-42 -236h-569l23 133h66l22 123l-77 -32l20 110l77 33z" />
    <glyph glyph-name="lslash" unicode="&#x142;" horiz-adv-x="318" 
d="M63 578l22 122h201l-44 -256l77 36l-20 -112l-77 -38l-28 -159q-7 -39 19 -48.5t59 3.5l-16 -116q-42 -18 -102 -18q-34 0 -57 11t-33 27.5t-13 43.5t-1 49.5t8 55.5l15 92l-64 -32l20 110l63 30l34 199h-63z" />
    <glyph glyph-name="Nacute" unicode="&#x143;" horiz-adv-x="878" 
d="M421 764l95 145h177l-141 -152h-133zM303 433l-53 -300h78l-23 -133h-294l23 133h69l77 432h-78l23 135h189l297 -426l52 291h-80l23 135h296l-23 -135h-71l-100 -565h-97z" />
    <glyph glyph-name="nacute" unicode="&#x144;" horiz-adv-x="666" 
d="M422 566h-123l1 5l96 130h167zM220 252l-42 -252h-137l63 376h-70l21 119h196l1 -50q67 57 149 57q104 0 147.5 -56t21.5 -184l-17 -91q-7 -39 18.5 -48.5t56.5 3.5l-14 -116q-40 -18 -100 -18q-57 0 -83 29.5t-23.5 71.5t8.5 88l15 80q3 27 4 51.5t-19 42t-62 17.5
q-51 0 -87.5 -32.5t-46.5 -87.5z" />
    <glyph glyph-name="Ncommaaccent" unicode="&#x145;" horiz-adv-x="878" 
d="M303 433l-53 -300h78l-23 -133h-294l23 133h69l77 432h-78l23 135h189l297 -426l52 291h-80l23 135h296l-23 -135h-71l-100 -565h-97zM323 -259l50 73q-26 3 -41.5 19.5t-15.5 40.5q0 60 56 84q50 20 94 -2q36 -20 36 -61q0 -18 -24.5 -61.5t-62.5 -92.5h-92z" />
    <glyph glyph-name="ncommaaccent" unicode="&#x146;" horiz-adv-x="666" 
d="M222 -237l40 68q-21 3 -34 17.5t-13 34.5q0 55 51 76q45 19 82 -5q27 -17 27 -51q0 -40 -71 -140h-82zM220 252l-42 -252h-137l63 376h-70l21 119h196l1 -50q67 57 149 57q104 0 147.5 -56t21.5 -184l-17 -91q-7 -39 18.5 -48.5t56.5 3.5l-14 -116q-40 -18 -100 -18
q-57 0 -83 29.5t-23.5 71.5t8.5 88l15 80q3 27 4 51.5t-19 42t-62 17.5q-51 0 -87.5 -32.5t-46.5 -87.5z" />
    <glyph glyph-name="Ncaron" unicode="&#x147;" horiz-adv-x="878" 
d="M305 0h-294l23 133h69l77 432h-78l23 135h189l297 -426l52 291h-80l23 135h296l-23 -135h-71l-100 -565h-97l-308 433l-53 -300h78zM562 752h-114l-128 140l2 11h145l57 -59l77 59h146l-2 -12z" />
    <glyph glyph-name="ncaron" unicode="&#x148;" horiz-adv-x="666" 
d="M419 563h-92l-123 130l2 9h132l51 -48l77 48h132l-2 -10zM220 252l-42 -252h-137l63 376h-70l21 119h196l1 -50q67 57 149 57q104 0 147.5 -56t21.5 -184l-17 -91q-7 -39 18.5 -48.5t56.5 3.5l-14 -116q-40 -18 -100 -18q-57 0 -83 29.5t-23.5 71.5t8.5 88l15 80
q3 27 4 51.5t-19 42t-62 17.5q-51 0 -87.5 -32.5t-46.5 -87.5z" />
    <glyph glyph-name="napostrophe" unicode="&#x149;" horiz-adv-x="666" 
d="M220 252l-42 -252h-137l63 376h-70l21 119h196l1 -50q67 57 149 57q104 0 147.5 -56t21.5 -184l-17 -91q-7 -39 18.5 -48.5t56.5 3.5l-14 -116q-40 -18 -100 -18q-57 0 -83 29.5t-23.5 71.5t8.5 88l15 80q3 27 4 51.5t-19 42t-62 17.5q-51 0 -87.5 -32.5t-46.5 -87.5z
" />
    <glyph glyph-name="Eng" unicode="&#x14a;" horiz-adv-x="877" 
d="M305 0h-294l23 133h69l77 432h-78l23 135h189l294 -445l55 310h-80l23 135h296l-23 -135h-71l-102 -575q-24 -133 -113.5 -186t-203.5 4l60 110q49 -16 74 -2t36 74l10 58l-264 394l-55 -309h78z" />
    <glyph glyph-name="eng" unicode="&#x14b;" horiz-adv-x="638" 
d="M174 0h-136l66 376h-69l22 121h192l1 -51q67 57 150 57q106 0 151.5 -56.5t23.5 -184.5l-49 -281q-12 -68 -44.5 -114t-76.5 -64t-95.5 -14t-102.5 30l60 112q97 -45 114 50l49 280q3 28 4 52.5t-19 42t-62 17.5q-51 1 -87.5 -31.5t-46.5 -89.5z" />
    <glyph glyph-name="Omacron" unicode="&#x14c;" horiz-adv-x="802" 
d="M309 785l21 117h366l-21 -117h-366zM479 715q116 -1 190.5 -55.5t98.5 -136t6 -177.5q-13 -72 -43 -134t-79.5 -115t-126.5 -84t-172 -31q-164 0 -243.5 98t-63.5 262q20 172 142.5 272.5t290.5 100.5zM625 346q5 34 6 66.5t-9 63t-28.5 53.5t-52.5 36.5t-81 13.5
q-103 0 -173 -64t-89 -170q-18 -93 24.5 -158t154.5 -65q104 0 167.5 67t80.5 157z" />
    <glyph glyph-name="omacron" unicode="&#x14d;" horiz-adv-x="597" 
d="M191 575l20 116h328l-20 -116h-328zM22 202q0 131 88.5 219t224.5 88q107 0 165.5 -58.5t58.5 -155.5q0 -128 -87.5 -217.5t-227.5 -89.5q-105 0 -163.5 59t-58.5 155zM416 247q12 60 -14 98.5t-82 38.5q-71 0 -113.5 -46.5t-44.5 -114.5q-2 -46 23.5 -75.5t76.5 -29.5
q62 0 101 36.5t53 92.5z" />
    <glyph glyph-name="Obreve" unicode="&#x14e;" horiz-adv-x="802" 
d="M479 715q116 -1 190.5 -55.5t98.5 -136t6 -177.5q-13 -72 -43 -134t-79.5 -115t-126.5 -84t-172 -31q-164 0 -243.5 98t-63.5 262q20 172 142.5 272.5t290.5 100.5zM625 346q5 34 6 66.5t-9 63t-28.5 53.5t-52.5 36.5t-81 13.5q-103 0 -173 -64t-89 -170
q-18 -93 24.5 -158t154.5 -65q104 0 167.5 67t80.5 157zM572 924h114q-6 -78 -59.5 -117t-133.5 -39q-76 0 -117.5 40.5t-20.5 115.5h116q-7 -52 43 -52q47 0 58 52z" />
    <glyph glyph-name="obreve" unicode="&#x14f;" horiz-adv-x="597" 
d="M425 705h110q-6 -75 -57.5 -112t-128.5 -37q-73 0 -113.5 38.5t-19.5 110.5h112q-7 -49 41 -49q45 0 56 49zM22 202q0 131 88.5 219t224.5 88q107 0 165.5 -58.5t58.5 -155.5q0 -128 -87.5 -217.5t-227.5 -89.5q-105 0 -163.5 59t-58.5 155zM416 247q12 60 -14 98.5
t-82 38.5q-71 0 -113.5 -46.5t-44.5 -114.5q-2 -46 23.5 -75.5t76.5 -29.5q62 0 101 36.5t53 92.5z" />
    <glyph glyph-name="Ohungarumlaut" unicode="&#x150;" horiz-adv-x="802" 
d="M640 763h-127l122 144h152zM452 765h-127l101 142h151zM479 715q116 -1 190.5 -55.5t98.5 -136t6 -177.5q-13 -72 -43 -134t-79.5 -115t-126.5 -84t-172 -31q-164 0 -243.5 98t-63.5 262q20 172 142.5 272.5t290.5 100.5zM625 346q5 34 6 66.5t-9 63t-28.5 53.5
t-52.5 36.5t-81 13.5q-103 0 -173 -64t-89 -170q-18 -93 24.5 -158t154.5 -65q104 0 167.5 67t80.5 157z" />
    <glyph glyph-name="ohungarumlaut" unicode="&#x151;" horiz-adv-x="597" 
d="M486 559h-122l117 137h145zM306 561h-120l96 135h144zM22 202q0 131 88.5 219t224.5 88q107 0 165.5 -58.5t58.5 -155.5q0 -128 -87.5 -217.5t-227.5 -89.5q-105 0 -163.5 59t-58.5 155zM416 247q12 60 -14 98.5t-82 38.5q-71 0 -113.5 -46.5t-44.5 -114.5
q-2 -46 23.5 -75.5t76.5 -29.5q62 0 101 36.5t53 92.5z" />
    <glyph glyph-name="OE" unicode="&#x152;" horiz-adv-x="1084" 
d="M496 133l77 434q-49 22 -108 22q-121 0 -195.5 -78t-74.5 -210q0 -89 48.5 -138.5t136.5 -49.5q61 0 116 20zM983 0h-508q-2 -1 -25.5 -4.5t-55 -6.5t-50.5 -3q-154 0 -228 80t-74 210q0 83 27 160t79 139.5t136 100t189 37.5q22 0 123 -13h500l-41 -232h-130l11 100
h-227l-25 -141h218l-23 -132h-218l-28 -155h237l25 101h130z" />
    <glyph glyph-name="oe" unicode="&#x153;" horiz-adv-x="955" 
d="M796 155l66 -91q-45 -38 -108 -58t-122 -20q-141 0 -187 96q-92 -94 -205 -94q-104 0 -161 59t-57 154q0 132 88.5 220t224.5 88q115 0 173 -89q88 90 210 90q131 0 182.5 -75t2.5 -236h-362q-2 -39 27 -63t89 -24q32 0 71.5 11.5t67.5 31.5zM267 118q59 0 99 37.5
t50 91.5q11 62 -16.5 99.5t-83.5 37.5q-66 0 -109 -46.5t-43 -113.5q0 -46 26.5 -76t76.5 -30zM558 305h235q9 43 -18 64.5t-77 21.5q-48 0 -85.5 -22t-54.5 -64z" />
    <glyph glyph-name="Racute" unicode="&#x154;" horiz-adv-x="777" 
d="M379 759l93 133h173l-137 -140h-130zM299 389h166q125 0 125 106q0 72 -94 72h-166zM463 120l-99 147h-87l-23 -131h82l-24 -136h-303l24 136h72l76 430h-77l23 134h392q217 0 227 -171q6 -111 -59 -177.5t-166 -76.5l108 -139h85l-24 -136h-249z" />
    <glyph glyph-name="racute" unicode="&#x155;" horiz-adv-x="499" 
d="M341 569h-116l1 6l92 126h158zM174 0h-139l66 376h-64l22 121h183l4 -47q64 60 150 60q81 0 126 -48l-86 -119q-31 31 -87 31q-46 0 -83 -28.5t-47 -89.5z" />
    <glyph glyph-name="Rcommaaccent" unicode="&#x156;" horiz-adv-x="777" 
d="M270 -261l50 77q-26 3 -41.5 19t-15.5 38q0 57 56 80q50 20 92 -3q35 -19 35 -58q0 -17 -24 -61t-59 -92h-93zM299 389h166q125 0 125 106q0 72 -94 72h-166zM463 120l-99 147h-87l-23 -131h82l-24 -136h-303l24 136h72l76 430h-77l23 134h392q217 0 227 -171
q6 -111 -59 -177.5t-166 -76.5l108 -139h85l-24 -136h-249z" />
    <glyph glyph-name="rcommaaccent" unicode="&#x157;" horiz-adv-x="499" 
d="M14 -243l39 67q-20 3 -32.5 18.5t-12.5 35.5q0 55 50 76q45 18 80 -6q26 -18 26 -51q0 -17 -20 -56.5t-51 -83.5h-79zM174 0h-139l66 376h-64l22 121h183l4 -47q64 60 150 60q81 0 126 -48l-86 -119q-31 31 -87 31q-46 0 -83 -28.5t-47 -89.5z" />
    <glyph glyph-name="Rcaron" unicode="&#x158;" horiz-adv-x="777" 
d="M299 389h166q125 0 125 106q0 72 -94 72h-166zM463 120l-99 147h-87l-23 -131h82l-24 -136h-303l24 136h72l76 430h-77l23 134h392q217 0 227 -171q6 -111 -59 -177.5t-166 -76.5l108 -139h85l-24 -136h-249zM509 741h-114l-128 140l2 11h145l57 -59l77 59h146l-2 -12z
" />
    <glyph glyph-name="rcaron" unicode="&#x159;" horiz-adv-x="499" 
d="M360 562h-98l-113 132l2 10h135l41 -47l68 47h131l-2 -12zM174 0h-139l66 376h-64l22 121h183l4 -47q64 60 150 60q81 0 126 -48l-86 -119q-31 31 -87 31q-46 0 -83 -28.5t-47 -89.5z" />
    <glyph glyph-name="Sacute" unicode="&#x15a;" horiz-adv-x="662" 
d="M349 783l96 138h171l-143 -146h-125zM269 -16q-182 5 -262 86l31 172h132l-9 -100q52 -24 129 -24q169 0 169 100q0 19 -9.5 32.5t-29.5 21.5t-33.5 11.5t-40 7t-30.5 4.5q-119 14 -180.5 63t-44.5 155q19 100 108 151.5t214 51.5q157 0 230 -80q-22 -107 -29 -149h-129
l7 83q-39 19 -105 19q-131 0 -146 -80q-7 -36 21 -54t93 -26q61 -7 107 -20.5t85 -38.5t56.5 -67t9.5 -99q-22 -220 -344 -220z" />
    <glyph glyph-name="sacute" unicode="&#x15b;" horiz-adv-x="525" 
d="M346 698h156l-137 -139h-115l1 5zM466 338h-114l4 56q-23 14 -74 14q-38 0 -64 -14.5t-26 -44.5q0 -32 72 -37q102 -6 158.5 -46.5t43.5 -127.5q-15 -74 -80 -115t-177 -41q-51 0 -114 16.5t-98 41.5l28 137h118l-4 -55q32 -19 99 -19q39 0 65.5 12t26.5 37q0 41 -95 45
q-96 12 -146 50.5t-35 113.5q9 52 50 88.5t93 51.5t109 15q106 0 186 -42z" />
    <glyph glyph-name="Scircumflex" unicode="&#x15c;" horiz-adv-x="662" 
d="M269 -16q-182 5 -262 86l31 172h132l-9 -100q52 -24 129 -24q169 0 169 100q0 19 -9.5 32.5t-29.5 21.5t-33.5 11.5t-40 7t-30.5 4.5q-119 14 -180.5 63t-44.5 155q19 100 108 151.5t214 51.5q157 0 230 -80q-22 -107 -29 -149h-129l7 83q-39 19 -105 19q-131 0 -146 -80
q-7 -36 21 -54t93 -26q61 -7 107 -20.5t85 -38.5t56.5 -67t9.5 -99q-22 -220 -344 -220zM398 919h114l128 -140l-2 -11h-145l-57 59l-77 -59h-146l2 12z" />
    <glyph glyph-name="scircumflex" unicode="&#x15d;" horiz-adv-x="525" 
d="M295 707h94l124 -138l-2 -9h-133l-50 55l-69 -55h-137l2 10zM466 338h-114l4 56q-23 14 -74 14q-38 0 -64 -14.5t-26 -44.5q0 -32 72 -37q102 -6 158.5 -46.5t43.5 -127.5q-15 -74 -80 -115t-177 -41q-51 0 -114 16.5t-98 41.5l28 137h118l-4 -55q32 -19 99 -19
q39 0 65.5 12t26.5 37q0 41 -95 45q-96 12 -146 50.5t-35 113.5q9 52 50 88.5t93 51.5t109 15q106 0 186 -42z" />
    <glyph glyph-name="Scedilla" unicode="&#x15e;" horiz-adv-x="658" 
d="M208 -122l-28 18l46 90q-84 6 -132.5 25t-87.5 59l29 160h132l-7 -85q59 -27 129 -27q170 0 170 101q0 19 -9.5 32.5t-29.5 21t-34.5 11t-40 7t-30.5 4.5q-60 7 -100 18t-75.5 33.5t-48 63t-1.5 98.5q13 67 62 115t116.5 70.5t145.5 22.5q155 0 228 -80
q-22 -107 -29 -149h-129l7 83q-39 19 -105 19q-131 0 -146 -80q-7 -36 21 -54t93 -26q26 -3 44.5 -6l42 -7t40.5 -9.5t36 -12.5t32.5 -16t26.5 -21t20 -27t12 -33t5 -40t-5 -48q-18 -95 -92.5 -154t-197.5 -69l-19 -38q56 0 82 -37.5t4 -86.5q-20 -45 -62.5 -68t-92.5 -23
q-86 0 -127 66l70 55q18 -31 59 -31q42 0 53 24q9 19 -4 32.5t-33.5 12.5t-39.5 -14z" />
    <glyph glyph-name="scedilla" unicode="&#x15f;" horiz-adv-x="517" 
d="M465 337h-115l4 57q-23 14 -73 14q-38 0 -64 -15t-26 -45q0 -31 72 -36q50 -3 86 -11.5t65 -26.5t40 -51t3 -79q-14 -65 -69 -108t-141 -52l-14 -31q55 0 80.5 -36t3.5 -83q-19 -43 -60.5 -64t-90.5 -21q-86 0 -125 63l68 53q18 -30 59 -30q40 0 51 23q9 19 -4 31.5
t-33.5 12t-38.5 -13.5l-27 17l41 80q-96 8 -161 55l28 138h118l-4 -55q29 -19 94 -20q42 -1 65.5 12t23.5 38q0 40 -87 44q-102 12 -148.5 43.5t-32.5 110.5q9 56 50 95t92.5 54.5t109.5 15.5q107 0 186 -42z" />
    <glyph glyph-name="Scaron" unicode="&#x160;" horiz-adv-x="662" 
d="M681 917l-2 -12l-193 -146h-96l-136 147l2 11h145l57 -58l77 58h146zM269 -16q-182 5 -262 86l31 172h132l-9 -100q52 -24 129 -24q169 0 169 100q0 19 -9.5 32.5t-29.5 21.5t-33.5 11.5t-40 7t-30.5 4.5q-119 14 -180.5 63t-44.5 155q19 100 108 151.5t214 51.5
q157 0 230 -80q-22 -107 -29 -149h-129l7 83q-39 19 -105 19q-131 0 -146 -80q-7 -36 21 -54t93 -26q61 -7 107 -20.5t85 -38.5t56.5 -67t9.5 -99q-22 -220 -344 -220z" />
    <glyph glyph-name="scaron" unicode="&#x161;" horiz-adv-x="525" 
d="M466 338h-114l4 56q-23 14 -74 14q-38 0 -64 -14.5t-26 -44.5q0 -32 72 -37q102 -6 158.5 -46.5t43.5 -127.5q-15 -74 -80 -115t-177 -41q-51 0 -114 16.5t-98 41.5l28 137h118l-4 -55q32 -19 99 -19q39 0 65.5 12t26.5 37q0 41 -95 45q-96 12 -146 50.5t-35 113.5
q9 52 50 88.5t93 51.5t109 15q106 0 186 -42zM371 561h-102l-114 125l2 9h129l51 -52l68 52h131l-2 -10z" />
    <glyph glyph-name="Tcommaaccent" unicode="&#x162;" horiz-adv-x="675" 
d="M211 -107l-28 18l46 89h-99l23 134h84l77 437h-106l-23 -99h-127l40 228h623l-40 -229h-127l8 100h-104l-77 -437h84l-23 -134h-122l-18 -37q56 0 81.5 -37.5t3.5 -86.5q-20 -45 -62.5 -68t-92.5 -23q-86 0 -126 66l70 55q16 -31 59 -31q41 0 52 24q9 19 -4 32.5
t-33.5 12.5t-38.5 -14z" />
    <glyph glyph-name="tcommaaccent" unicode="&#x163;" horiz-adv-x="399" 
d="M156 614l141 15l-24 -137h128l-21 -119h-130l-34 -194q-8 -44 24 -57.5t79 6.5l14 -115q-59 -21 -123 -21h-4l-16 -34q53 0 77 -37t2 -86q-19 -44 -59.5 -67t-86.5 -23q-82 0 -120 65l67 55q15 -31 55 -31q39 0 50 24q9 19 -3.5 32.5t-32 12.5t-36.5 -14l-26 18l54 98
q-77 38 -52 174l34 194h-86l21 119h86z" />
    <glyph glyph-name="Tcaron" unicode="&#x164;" horiz-adv-x="671" 
d="M436 0h-307l24 134h82l77 437h-102l-24 -102h-129l41 231h619l-41 -231h-129l10 102h-100l-77 -437h80zM476 744h-114l-128 140l2 11h145l57 -59l77 59h146l-2 -12z" />
    <glyph glyph-name="tcaron" unicode="&#x165;" horiz-adv-x="484" 
d="M487 430h-98l76 188h128zM154 614l142 15l-24 -137h93l-21 -119h-95l-34 -194q-8 -44 23.5 -57.5t79.5 6.5l14 -115q-61 -21 -123 -21q-86 1 -117.5 44t-13.5 143l34 194h-85l21 119h85z" />
    <glyph glyph-name="Tbar" unicode="&#x166;" horiz-adv-x="671" 
d="M146 271l20 115h113l33 185h-103l-24 -102h-129l41 231h619l-41 -231h-129l10 102h-100l-33 -185h125l-20 -115h-125l-24 -137h80l-24 -134h-307l24 134h83l24 137h-113z" />
    <glyph glyph-name="tbar" unicode="&#x167;" horiz-adv-x="401" 
d="M156 614l142 15l-24 -137h128l-21 -119h-130l-11 -64h101l-16 -89h-101l-7 -41q-5 -30 8.5 -44.5t36.5 -14.5q28 0 49 10l16 -117q-49 -17 -96 -20q-83 -4 -125 45.5t-26 140.5l7 41h-71l16 89h71l11 64h-89l21 119h89z" />
    <glyph glyph-name="Utilde" unicode="&#x168;" horiz-adv-x="858" 
d="M399 114q83 0 136 50.5t69 140.5l46 261h-88l23 134h303l-23 -134h-71l-46 -263q-56 -325 -365 -325q-67 0 -121.5 17.5t-95 54.5t-56 101.5t-0.5 151.5l46 263h-67l23 134h302l-23 -134h-88l-46 -263q-34 -189 142 -189zM507 919q6 -2 21 -11t27.5 -15t26.5 -9t26 4.5
t20 26.5l85 -37q-22 -65 -72.5 -94.5t-88.5 -10.5q-8 3 -23.5 12.5t-27 14.5t-25.5 7.5t-26.5 -6.5t-22.5 -29l-82 40q16 60 66 92t96 15z" />
    <glyph glyph-name="utilde" unicode="&#x169;" 
d="M622 495l-58 -325q-7 -39 17.5 -48t57.5 4l-16 -115q-26 -12 -55.5 -17t-60 -3t-54 19.5t-32.5 48.5q-40 -39 -76 -53.5t-93 -14.5q-66 0 -108.5 19.5t-59 53.5t-20.5 79.5t8 98.5l24 135h-64l20 118h203l-46 -251q-10 -61 7.5 -90t89.5 -29q50 1 87.5 37.5t46.5 89.5
l21 125h-72l20 118h213zM352 713q6 -2 21 -11t27.5 -15t26.5 -9t26 4.5t20 26.5l85 -37q-22 -65 -72.5 -94.5t-88.5 -10.5q-8 3 -23.5 12.5t-27 14.5t-25.5 7.5t-26.5 -6.5t-22.5 -29l-82 40q16 60 66 92t96 15z" />
    <glyph glyph-name="Umacron" unicode="&#x16a;" horiz-adv-x="858" 
d="M349 767l22 122h330l-22 -122h-330zM399 114q83 0 136 50.5t69 140.5l46 261h-88l23 134h303l-23 -134h-71l-46 -263q-56 -325 -365 -325q-67 0 -121.5 17.5t-95 54.5t-56 101.5t-0.5 151.5l46 263h-67l23 134h302l-23 -134h-88l-46 -263q-34 -189 142 -189z" />
    <glyph glyph-name="umacron" unicode="&#x16b;" 
d="M230 575l20 114h300l-20 -114h-300zM622 495l-58 -325q-7 -39 17.5 -48t57.5 4l-16 -115q-26 -12 -55.5 -17t-60 -3t-54 19.5t-32.5 48.5q-40 -39 -76 -53.5t-93 -14.5q-66 0 -108.5 19.5t-59 53.5t-20.5 79.5t8 98.5l24 135h-64l20 118h203l-46 -251q-10 -61 7.5 -90
t89.5 -29q50 1 87.5 37.5t46.5 89.5l21 125h-72l20 118h213z" />
    <glyph glyph-name="Ubreve" unicode="&#x16c;" horiz-adv-x="858" 
d="M399 114q83 0 136 50.5t69 140.5l46 261h-88l23 134h303l-23 -134h-71l-46 -263q-56 -325 -365 -325q-67 0 -121.5 17.5t-95 54.5t-56 101.5t-0.5 151.5l46 263h-67l23 134h302l-23 -134h-88l-46 -263q-34 -189 142 -189zM595 906h116q-6 -75 -60.5 -112.5t-135.5 -37.5
q-77 0 -118.5 39t-20.5 111h117q-7 -50 43 -50q48 0 59 50z" />
    <glyph glyph-name="ubreve" unicode="&#x16d;" 
d="M622 495l-58 -325q-7 -39 17.5 -48t57.5 4l-16 -115q-26 -12 -55.5 -17t-60 -3t-54 19.5t-32.5 48.5q-40 -39 -76 -53.5t-93 -14.5q-66 0 -108.5 19.5t-59 53.5t-20.5 79.5t8 98.5l24 135h-64l20 118h203l-46 -251q-10 -61 7.5 -90t89.5 -29q50 1 87.5 37.5t46.5 89.5
l21 125h-72l20 118h213zM432 707h110q-6 -76 -57.5 -114t-128.5 -38q-73 0 -113 39.5t-19 112.5h111q-7 -50 41 -50q45 0 56 50z" />
    <glyph glyph-name="Uring" unicode="&#x16e;" horiz-adv-x="858" 
d="M399 114q83 0 136 50.5t69 140.5l46 261h-88l23 134h303l-23 -134h-71l-46 -263q-56 -325 -365 -325q-67 0 -121.5 17.5t-95 54.5t-56 101.5t-0.5 151.5l46 263h-67l23 134h302l-23 -134h-88l-46 -263q-34 -189 142 -189zM515 729q-96 0 -122 61q-21 50 17 103
q47 65 140 70h11q87 0 113 -59q23 -52 -14 -106q-52 -66 -145 -69zM544 889q-45 0 -60 -33q-13 -28 12 -44q12 -8 31 -8q44 0 58 33q13 28 -11 44q-11 8 -30 8z" />
    <glyph glyph-name="uring" unicode="&#x16f;" 
d="M354 529q-94 0 -121 59q-22 48 16 100q53 62 145 65q87 0 113 -59q23 -49 -13 -101q-46 -63 -140 -64zM380 680q-42 0 -56 -30q-12 -26 11 -40q11 -8 30 -8q41 0 55 30q12 27 -12 41q-11 7 -28 7zM622 495l-58 -325q-7 -39 17.5 -48t57.5 4l-16 -115q-26 -12 -55.5 -17
t-60 -3t-54 19.5t-32.5 48.5q-40 -39 -76 -53.5t-93 -14.5q-66 0 -108.5 19.5t-59 53.5t-20.5 79.5t8 98.5l24 135h-64l20 118h203l-46 -251q-10 -61 7.5 -90t89.5 -29q50 1 87.5 37.5t46.5 89.5l21 125h-72l20 118h213z" />
    <glyph glyph-name="Uhungarumlaut" unicode="&#x170;" horiz-adv-x="858" 
d="M663 755h-127l122 144h152zM475 757h-127l101 142h151zM399 114q83 0 136 50.5t69 140.5l46 261h-88l23 134h303l-23 -134h-71l-46 -263q-56 -325 -365 -325q-67 0 -121.5 17.5t-95 54.5t-56 101.5t-0.5 151.5l46 263h-67l23 134h302l-23 -134h-88l-46 -263
q-34 -189 142 -189z" />
    <glyph glyph-name="uhungarumlaut" unicode="&#x171;" 
d="M511 558h-127l122 144h152zM323 560h-127l101 142h151zM622 495l-58 -325q-7 -39 17.5 -48t57.5 4l-16 -115q-26 -12 -55.5 -17t-60 -3t-54 19.5t-32.5 48.5q-40 -39 -76 -53.5t-93 -14.5q-66 0 -108.5 19.5t-59 53.5t-20.5 79.5t8 98.5l24 135h-64l20 118h203l-46 -251
q-10 -61 7.5 -90t89.5 -29q50 1 87.5 37.5t46.5 89.5l21 125h-72l20 118h213z" />
    <glyph glyph-name="Uogonek" unicode="&#x172;" horiz-adv-x="855" 
d="M399 114q83 0 136 50.5t69 140.5l46 261h-88l23 134h301l-23 -134h-71l-46 -263q-23 -129 -91 -205.5t-165 -104.5q-28 -9 -45.5 -31.5t-13.5 -48.5q8 -31 39 -34.5t63.5 12t55.5 37.5l37 -89q-25 -29 -63.5 -49t-80 -25t-80 1t-65.5 29.5t-33 60.5q-10 63 46 122
q-131 7 -199.5 85.5t-40.5 239.5l46 263h-67l23 134h302l-23 -134h-88l-46 -263q-16 -92 21 -140.5t121 -48.5z" />
    <glyph glyph-name="uogonek" unicode="&#x173;" 
d="M622 495l-58 -325q-7 -39 17.5 -48t57.5 4l-16 -115q-28 -13 -65 -18q-26 -5 -42 -26.5t-12 -47.5q5 -25 26.5 -30t46.5 4t50 26l33 -90q-47 -37 -108 -50t-110.5 8t-57.5 75q-5 38 12.5 78.5t62.5 66.5q-30 18 -38 52q-40 -39 -76 -53.5t-93 -14.5q-66 0 -108.5 19.5
t-59 53.5t-20.5 79.5t8 98.5l24 135h-64l20 118h203l-46 -251q-10 -61 7.5 -90t89.5 -29q50 1 87.5 37.5t46.5 89.5l21 125h-72l20 118h213z" />
    <glyph glyph-name="Wcircumflex" unicode="&#x174;" horiz-adv-x="1141" 
d="M1102 566l-282 -566h-155l-51 224l-31 162l-84 -163l-127 -223h-153l-90 566h-71l24 134h311l-24 -134h-73l46 -355l244 460h100l84 -460l166 355h-83l24 134h315l-24 -134h-66zM622 904h119l132 -144l-2 -12h-150l-59 61l-80 -61h-152l2 13z" />
    <glyph glyph-name="wcircumflex" unicode="&#x175;" horiz-adv-x="959" 
d="M335 558l2 10l193 141h72l139 -142l-2 -9h-137l-53 55l-75 -55h-139zM757 496h141q60 -221 -25.5 -363t-265.5 -142q-66 0 -103.5 21t-62.5 69q-73 -90 -185 -90q-66 0 -109.5 19.5t-61.5 53.5t-23 79.5t7 98.5l24 136h-67l20 118h207l-46 -252q-9 -57 6.5 -87t73.5 -30
q98 0 126 119l44 250h142l-46 -252q-8 -56 8.5 -87.5t72.5 -31.5q54 0 89.5 34t48 88t9 119t-23.5 130z" />
    <glyph glyph-name="Ycircumflex" unicode="&#x176;" horiz-adv-x="729" 
d="M402 132h80l-23 -132h-313l23 132h79l25 139l-147 295h-58l24 134h297l-24 -134h-69l76 -160l144 160h-69l24 134h312l-24 -134h-59l-273 -294zM414 908h114l128 -140l-2 -11h-145l-57 59l-77 -59h-146l2 12z" />
    <glyph glyph-name="ycircumflex" unicode="&#x177;" horiz-adv-x="641" 
d="M333 705h106l123 -135l-2 -9h-139l-52 55l-74 -55h-138l2 10zM404 55q-34 -34 -70 -47t-88 -13q-98 0 -147.5 57.5t-26.5 190.5l23 133h-72l21 121h210l-45 -254q-4 -31 -4.5 -58.5t23.5 -46t74 -18.5q52 1 85 36.5t43 91.5l23 128h-74l21 121h213l-87 -495
q-46 -256 -294 -256q-109 0 -167 50.5t-43 156.5h137q-4 -39 20.5 -59t70.5 -20q53 0 93.5 33.5t50.5 92.5z" />
    <glyph glyph-name="Ydieresis" unicode="&#x178;" horiz-adv-x="729" 
d="M402 132h80l-23 -132h-313l23 132h79l25 139l-147 295h-58l24 134h297l-24 -134h-69l76 -160l144 160h-69l24 134h312l-24 -134h-59l-273 -294zM314 741q-29 0 -48 16.5t-19 46.5q0 42 28.5 66.5t65.5 24.5q28 1 47.5 -16t19.5 -48q0 -42 -28.5 -66t-65.5 -24zM571 739
q-29 0 -48.5 17t-19.5 47q0 43 29 67.5t66 24.5q28 0 47.5 -17.5t19.5 -48.5q0 -41 -29 -65.5t-65 -24.5z" />
    <glyph glyph-name="Zacute" unicode="&#x179;" horiz-adv-x="663" 
d="M346 765l97 139h169l-142 -146h-125zM245 564l-20 -93h-138l40 229h550l-11 -63l-447 -498h228l22 107h143l-43 -246h-582l14 81l432 483h-188z" />
    <glyph glyph-name="zacute" unicode="&#x17a;" horiz-adv-x="540" 
d="M365 564h-121l1 7l94 119h164zM-10 0l12 70l301 302h-119l-14 -62h-121l33 187h434l-14 -80l-284 -292h125l22 82h118l-36 -207h-457z" />
    <glyph glyph-name="Zdotaccent" unicode="&#x17b;" horiz-adv-x="663" 
d="M421 753q-29 0 -50 17.5t-21 48.5q0 43 30 68t68 25q29 0 49 -18t20 -49q0 -42 -29.5 -67t-66.5 -25zM245 564l-20 -93h-138l40 229h550l-11 -63l-447 -498h228l22 107h143l-43 -246h-582l14 81l432 483h-188z" />
    <glyph glyph-name="zdotaccent" unicode="&#x17c;" horiz-adv-x="540" 
d="M335 553q-28 0 -47 15.5t-19 45.5q0 42 28 67t63 25q29 0 48 -17t19 -48q0 -42 -28 -65t-64 -23zM-10 0l12 70l301 302h-119l-14 -62h-121l33 187h434l-14 -80l-284 -292h125l22 82h118l-36 -207h-457z" />
    <glyph glyph-name="Zcaron" unicode="&#x17d;" horiz-adv-x="663" 
d="M245 564l-20 -93h-138l40 229h550l-11 -63l-447 -498h228l22 107h143l-43 -246h-582l14 81l432 483h-188zM474 744h-114l-128 140l2 11h145l57 -59l77 59h146l-2 -12z" />
    <glyph glyph-name="zcaron" unicode="&#x17e;" horiz-adv-x="540" 
d="M-10 0l12 70l301 302h-119l-14 -62h-121l33 187h434l-14 -80l-284 -292h125l22 82h118l-36 -207h-457zM370 548h-109l-123 135l2 11h139l54 -57l74 57h140l-2 -12z" />
    <glyph glyph-name="longs" unicode="&#x17f;" horiz-adv-x="378" 
d="M229 119h78l-21 -119h-285l21 119h70l45 253h-90l19 111h90l5 27q13 73 50.5 119.5t81.5 63.5t98 17q53 0 96 -24l-52 -107q-22 11 -52 11q-70 0 -85 -82z" />
    <glyph glyph-name="florin" unicode="&#x192;" horiz-adv-x="478" 
d="M219 -4q-27 -139 -133 -188.5t-219 20.5l69 103q49 -32 91 -13t52 80l65 367l-75 -2l21 119h77l4 24q18 106 85.5 156t150.5 47q63 0 124 -39l-67 -99q-27 20 -60 21t-60.5 -21.5t-34.5 -64.5l-4 -24h139l-21 -119h-140z" />
    <glyph glyph-name="Aringacute" unicode="&#x1fa;" horiz-adv-x="823" 
d="M579 975h185l-165 -104l-135 2zM573 135l-19 79h-296l-49 -79h72l-24 -135h-290l24 135h62l325 491q-29 25 -29 73q0 61 49.5 104.5t124.5 43.5q56 0 90.5 -28t34.5 -75q0 -75 -61 -120l140 -489h61l-24 -135h-292l24 135h77zM470 547l-72 -124l-62 -91h186l-27 91z
M509 758q-25 0 -41 -16t-16 -35q0 -16 11 -26.5t30 -10.5q23 0 38 13t19 31t-6.5 31t-34.5 13z" />
    <glyph glyph-name="aringacute" unicode="&#x1fb;" horiz-adv-x="686" 
d="M368 768l90 100h165l-131 -103h-125zM328 381q-69 0 -117.5 -46.5t-48.5 -115.5q0 -49 28.5 -79t81.5 -30q65 0 111.5 37t56.5 95q12 60 -18 99.5t-94 39.5zM415 56q-43 -40 -87 -54.5t-104 -14.5q-87 1 -144.5 55.5t-57.5 157.5q0 122 80 211t211 96q60 0 99.5 -12.5
t65.5 -50.5l17 51h131l-65 -333q-5 -26 7 -37.5t29 -11t40 6.5l-17 -113q-26 -11 -56.5 -16t-61 -2.5t-55 19.5t-32.5 48zM390 537q-82 0 -102 55q-18 46 19 93q43 54 121 54q75 0 96 -55q18 -47 -18 -94q-40 -53 -116 -53zM414 675q-39 0 -50 -30q-10 -25 12 -37
q9 -6 24 -6q38 0 49 30q10 26 -13 38q-9 5 -22 5z" />
    <glyph glyph-name="AEacute" unicode="&#x1fc;" horiz-adv-x="953" 
d="M689 747h-129l1 7l98 141h173zM381 134h73l15 87h-183l-67 -87h62l-24 -134h-296l24 134h68l354 434h-60l23 132h592l-41 -236h-125l10 100h-139l-25 -147h128l-24 -134h-128l-26 -145h152l26 104h127l-43 -242h-497zM457 442l-80 -103h113l36 207z" />
    <glyph glyph-name="aeacute" unicode="&#x1fd;" horiz-adv-x="987" 
d="M744 695l-135 -140h-119l1 6l93 134h160zM828 155l66 -91q-46 -38 -109 -58t-121 -20q-94 0 -143 49l-12 -35h-101l1 56q-83 -69 -193 -69q-91 0 -143.5 55.5t-52.5 152.5q0 122 84 214t209 99q60 0 99.5 -12.5t65.5 -50.5l15 51h106l-1 -39q66 53 151 53q131 0 183 -75
t2 -236h-368q-1 -39 31 -63t92 -24q32 0 71.5 11.5t67.5 31.5zM328 374q-70 0 -118 -45t-48 -110q0 -49 30.5 -79.5t83.5 -30.5q63 0 105.5 37.5t53.5 95.5q11 61 -15.5 96.5t-91.5 35.5zM584 305h241q9 43 -18.5 64.5t-77.5 21.5q-49 0 -89 -22t-56 -64z" />
    <glyph glyph-name="Oslashacute" unicode="&#x1fe;" horiz-adv-x="799" 
d="M569 776h-125l1 5l99 141h168zM483 715q70 -1 127 -22l54 70h145l-102 -133q99 -104 66 -284q-13 -70 -45.5 -133.5t-84 -116t-127.5 -83.5t-166 -31q-70 0 -129 18l-57 -73h-142l100 131q-79 75 -79 221q0 100 36.5 183.5t97.5 138t140.5 84.5t165.5 30zM200 345
q-18 -99 23 -157l295 384q-32 7 -59 7q-103 0 -171 -64t-88 -170zM624 346q17 92 -17 156l-288 -374q25 -6 57 -6q104 0 167.5 67t80.5 157z" />
    <glyph glyph-name="oslashacute" unicode="&#x1ff;" horiz-adv-x="595" 
d="M397 568h-113l1 5l86 123h150zM22 202q0 131 88.5 219t224.5 88q44 0 83 -11l48 63h122l-85 -111q55 -55 55 -156q0 -126 -89 -216t-225 -90q-43 0 -81 11l-46 -61h-123l82 109q-54 53 -54 155zM163 223q0 -29 8 -51l160 211q-2 0 -7 0.5t-8 0.5q-71 0 -112 -46.5
t-41 -114.5zM416 247q7 43 -7 78l-156 -207h14q60 0 98.5 36.5t50.5 92.5z" />
    <glyph glyph-name="Scommaaccent" unicode="&#x218;" horiz-adv-x="662" 
d="M170 -299l31 82q-50 10 -50 57q0 59 57 84q51 22 94 -1q40 -21 36 -67q0 -5 -1 -9.5t-2 -8.5t-4 -10.5l-6 -12.5l-9.5 -18.5l-12.5 -23.5l-17.5 -31.5t-21.5 -40.5h-94zM269 -16q-182 5 -262 86l31 172h132l-9 -100q52 -24 129 -24q169 0 169 100q0 19 -9.5 32.5
t-29.5 21.5t-33.5 11.5t-40 7t-30.5 4.5q-119 14 -180.5 63t-44.5 155q19 100 108 151.5t214 51.5q157 0 230 -80q-22 -107 -29 -149h-129l7 83q-39 19 -105 19q-131 0 -146 -80q-7 -36 21 -54t93 -26q61 -7 107 -20.5t85 -38.5t56.5 -67t9.5 -99q-22 -220 -344 -220z" />
    <glyph glyph-name="scommaaccent" unicode="&#x219;" horiz-adv-x="525" 
d="M102 -288l30 79q-46 10 -46 54q0 58 54 81q48 20 87 -3q34 -20 31 -62q-1 -8 -2.5 -13.5t-6.5 -17t-11 -22.5l-20.5 -38.5l-29.5 -57.5h-86zM466 338h-114l4 56q-23 14 -74 14q-38 0 -64 -14.5t-26 -44.5q0 -32 72 -37q102 -6 158.5 -46.5t43.5 -127.5q-15 -74 -80 -115
t-177 -41q-51 0 -114 16.5t-98 41.5l28 137h118l-4 -55q32 -19 99 -19q39 0 65.5 12t26.5 37q0 41 -95 45q-96 12 -146 50.5t-35 113.5q9 52 50 88.5t93 51.5t109 15q106 0 186 -42z" />
    <glyph glyph-name="uni021A" unicode="&#x21a;" horiz-adv-x="671" 
d="M436 0h-307l24 134h82l77 437h-102l-24 -102h-129l41 231h619l-41 -231h-129l10 102h-100l-77 -437h80zM184 -271l31 82q-50 10 -50 57q0 57 56 83q51 23 95 1q37 -18 37 -61q0 -4 -0.5 -7.5l-1 -7t-2.5 -9l-3.5 -9.5t-5.5 -12l-7.5 -14.5l-10 -19l-12 -22.5l-15 -28
l-17.5 -33h-94z" />
    <glyph glyph-name="uni021B" unicode="&#x21b;" horiz-adv-x="398" 
d="M157 614l142 15l-24 -137h128l-21 -119h-130l-34 -194q-6 -30 7.5 -44.5t37.5 -14.5q28 0 49 10l16 -117q-49 -17 -96 -20q-83 -4 -125 45.5t-26 140.5l34 194h-89l21 119h89zM166 -256h-79l30 76q-39 10 -39 52q0 56 50 76q44 17 79 -6q25 -17 25 -49q0 -11 -9 -31.5
t-57 -117.5z" />
    <glyph glyph-name="dotlessj" unicode="&#x237;" horiz-adv-x="301" 
d="M56 493h216l-94 -535q-13 -75 -48.5 -125t-80 -68t-93.5 -13t-93 33l65 110q41 -24 72.5 -8.5t41.5 71.5l73 415h-80z" />
    <glyph glyph-name="circumflex" unicode="&#x2c6;" horiz-adv-x="475" 
d="M298 708h114l128 -140l-2 -11h-145l-57 59l-77 -59h-146l2 12z" />
    <glyph glyph-name="caron" unicode="&#x2c7;" horiz-adv-x="470" 
d="M383 548h-114l-128 140l2 11h145l57 -59l77 59h146l-2 -12z" />
    <glyph glyph-name="breve" unicode="&#x2d8;" horiz-adv-x="377" 
d="M363 705h110q-6 -76 -57.5 -114t-128.5 -38q-73 0 -113 39.5t-19 112.5h111q-7 -50 41 -50q45 0 56 50z" />
    <glyph glyph-name="dotaccent" unicode="&#x2d9;" horiz-adv-x="234" 
d="M218 557q-27 0 -46 17t-19 47q0 41 28 65t63 24q27 0 46 -17.5t19 -47.5q0 -40 -28 -64t-63 -24z" />
    <glyph glyph-name="ring" unicode="&#x2da;" horiz-adv-x="412" 
d="M274 460q-95 0 -122 64q-22 54 16 112q44 68 133 76q9 1 19 1q86 0 114 -63q24 -55 -12 -113q-42 -69 -131 -76q-8 -1 -17 -1zM303 632q-44 0 -59 -34q-14 -31 10 -48q12 -9 32 -9q44 0 59 34q13 30 -10 48q-12 9 -32 9z" />
    <glyph glyph-name="ogonek" unicode="&#x2db;" horiz-adv-x="414" 
d="M256 -115l37 -94q-69 -57 -153 -60q-64 -1 -104 26.5t-48 70.5q-6 26 3 58t31 60.5t63.5 45t93.5 10.5l12 -54q-38 5 -68.5 -21t-24.5 -62q3 -15 17 -25t36 -9q63 2 105 54z" />
    <glyph glyph-name="tilde" unicode="&#x2dc;" horiz-adv-x="414" 
d="M300 778q6 -2 21 -11t27.5 -15t26.5 -9t26 4.5t20 26.5l85 -37q-22 -65 -72.5 -94.5t-88.5 -10.5q-8 3 -23.5 12.5t-27 14.5t-25.5 7.5t-26.5 -6.5t-22.5 -29l-82 40q16 60 66 92t96 15z" />
    <glyph glyph-name="hungarumlaut" unicode="&#x2dd;" horiz-adv-x="453" 
d="M407 546h-117l122 155h156zM221 548h-120l123 153h156z" />
    <glyph glyph-name="commaaccentcomb" unicode="&#x326;" horiz-adv-x="512" 
d="M146 -256l31 82q-50 10 -50 57q0 59 57 84q51 22 94 -1q40 -21 36 -67q0 -5 -1 -9.5t-2 -8.5t-4 -10.5l-6 -12.5l-9.5 -18.5l-12.5 -23.5l-17.5 -31.5t-21.5 -40.5h-94z" />
    <glyph glyph-name="_375" unicode="&#x394;" horiz-adv-x="719" 
d="M529 700l176 -700h-687l424 700h87zM452 514l-213 -379h294z" />
    <glyph glyph-name="Omega" unicode="&#x3a9;" horiz-adv-x="828" 
d="M18 0l22 126l98 4q-81 66 -81 181q0 170 126.5 287.5t304.5 117.5q139 0 223 -81.5t84 -214.5q0 -72 -18.5 -125t-52 -90.5t-90.5 -76.5l92 -4l-22 -124h-270l23 132q74 29 124.5 92.5t61.5 134.5q16 94 -28 156t-149 62t-172 -63.5t-84 -154.5q-15 -72 12 -134.5
t92 -90.5l-24 -134h-272z" />
    <glyph glyph-name="mu" unicode="&#x3bc;" horiz-adv-x="652" 
d="M537 0h-128v66q-23 -37 -61 -59t-80 -22q-85 0 -105 64l-46 -263h-143l125 710h155l-44 -247q-20 -118 93 -120q46 1 84 31t50 99l42 237h145z" />
    <glyph glyph-name="pi" unicode="&#x3c0;" horiz-adv-x="708" 
d="M221 0h-149l66 374h-101l22 122h644l-22 -122h-98l-37 -208q-6 -35 10 -50t60 -6l-7 -113q-118 -21 -173.5 17t-34.5 151l37 211h-151z" />
    <glyph glyph-name="Wgrave" unicode="&#x1e80;" horiz-adv-x="1141" 
d="M590 745l-62 153h180l23 -146l-1 -7h-140zM1102 566l-282 -566h-155l-51 224l-31 162l-84 -163l-127 -223h-153l-90 566h-71l24 134h311l-24 -134h-73l46 -355l244 460h100l84 -460l166 355h-83l24 134h315l-24 -134h-66z" />
    <glyph glyph-name="wgrave" unicode="&#x1e81;" horiz-adv-x="959" 
d="M595 566h-123l-74 131h164l34 -124zM757 496h141q60 -221 -25.5 -363t-265.5 -142q-66 0 -103.5 21t-62.5 69q-73 -90 -185 -90q-66 0 -109.5 19.5t-61.5 53.5t-23 79.5t7 98.5l24 136h-67l20 118h207l-46 -252q-9 -57 6.5 -87t73.5 -30q98 0 126 119l44 250h142
l-46 -252q-8 -56 8.5 -87.5t72.5 -31.5q54 0 89.5 34t48 88t9 119t-23.5 130z" />
    <glyph glyph-name="Wacute" unicode="&#x1e82;" horiz-adv-x="1141" 
d="M849 898l-124 -153h-140l1 7l83 146h180zM1102 566l-282 -566h-155l-51 224l-31 162l-84 -163l-127 -223h-153l-90 566h-71l24 134h311l-24 -134h-73l46 -355l244 460h100l84 -460l166 355h-83l24 134h315l-24 -134h-66z" />
    <glyph glyph-name="wacute" unicode="&#x1e83;" horiz-adv-x="959" 
d="M586 573h-125l1 5l83 123h162zM757 496h141q60 -221 -25.5 -363t-265.5 -142q-66 0 -103.5 21t-62.5 69q-73 -90 -185 -90q-66 0 -109.5 19.5t-61.5 53.5t-23 79.5t7 98.5l24 136h-67l20 118h207l-46 -252q-9 -57 6.5 -87t73.5 -30q98 0 126 119l44 250h142l-46 -252
q-8 -56 8.5 -87.5t72.5 -31.5q54 0 89.5 34t48 88t9 119t-23.5 130z" />
    <glyph glyph-name="Wdieresis" unicode="&#x1e84;" horiz-adv-x="1141" 
d="M794 752q-30 0 -51.5 17.5t-21.5 48.5q0 43 30.5 67.5t69.5 24.5q31 0 52.5 -17.5t21.5 -49.5q0 -42 -31 -66.5t-70 -24.5zM514 750q-30 0 -51.5 18t-21.5 50q0 43 31 67.5t70 24.5q30 -1 51.5 -18.5t21.5 -49.5q0 -43 -31 -67.5t-70 -24.5zM1102 566l-282 -566h-155
l-51 224l-31 162l-84 -163l-127 -223h-153l-90 566h-71l24 134h311l-24 -134h-73l46 -355l244 460h100l84 -460l166 355h-83l24 134h315l-24 -134h-66z" />
    <glyph glyph-name="wdieresis" unicode="&#x1e85;" horiz-adv-x="959" 
d="M391 559q-29 0 -49 16.5t-20 46.5q0 42 29.5 66.5t66.5 24.5q27 0 46.5 -17.5t19.5 -48.5q0 -41 -28.5 -64.5t-64.5 -23.5zM674 558q-28 0 -46.5 16.5t-18.5 45.5q0 42 28 66.5t64 24.5q27 1 46 -16t19 -48q0 -41 -28 -65t-64 -24zM757 496h141q60 -221 -25.5 -363
t-265.5 -142q-66 0 -103.5 21t-62.5 69q-73 -90 -185 -90q-66 0 -109.5 19.5t-61.5 53.5t-23 79.5t7 98.5l24 136h-67l20 118h207l-46 -252q-9 -57 6.5 -87t73.5 -30q98 0 126 119l44 250h142l-46 -252q-8 -56 8.5 -87.5t72.5 -31.5q54 0 89.5 34t48 88t9 119t-23.5 130z
" />
    <glyph glyph-name="Ygrave" unicode="&#x1ef2;" horiz-adv-x="729" 
d="M377 748l-66 143h181l24 -135l-1 -8h-138zM402 132h80l-23 -132h-313l23 132h79l25 139l-147 295h-58l24 134h297l-24 -134h-69l76 -160l144 160h-69l24 134h312l-24 -134h-59l-273 -294z" />
    <glyph glyph-name="ygrave" unicode="&#x1ef3;" horiz-adv-x="641" 
d="M441 570h-135l-69 135h179l26 -128zM404 55q-34 -34 -70 -47t-88 -13q-98 0 -147.5 57.5t-26.5 190.5l23 133h-72l21 121h210l-45 -254q-4 -31 -4.5 -58.5t23.5 -46t74 -18.5q52 1 85 36.5t43 91.5l23 128h-74l21 121h213l-87 -495q-46 -256 -294 -256q-109 0 -167 50.5
t-43 156.5h137q-4 -39 20.5 -59t70.5 -20q53 0 93.5 33.5t50.5 92.5z" />
    <glyph glyph-name="endash" unicode="&#x2013;" horiz-adv-x="588" 
d="M41 216l23 129h477l-23 -129h-477z" />
    <glyph glyph-name="emdash" unicode="&#x2014;" horiz-adv-x="682" 
d="M41 216l23 129h571l-23 -129h-571z" />
    <glyph glyph-name="quoteleft" unicode="&#x2018;" horiz-adv-x="269" 
d="M195 701h109l-90 -238h-147z" />
    <glyph glyph-name="quoteright" unicode="&#x2019;" horiz-adv-x="266" 
d="M182 454h-111l95 247h146z" />
    <glyph glyph-name="quotesinglbase" unicode="&#x201a;" horiz-adv-x="267" 
d="M62 -126h-113l91 237h146z" />
    <glyph glyph-name="quotedblleft" unicode="&#x201c;" horiz-adv-x="458" 
d="M193 695h109l-94 -243h-146zM381 695h111l-96 -243h-146z" />
    <glyph glyph-name="quotedblright" unicode="&#x201d;" horiz-adv-x="455" 
d="M372 465h-108l90 236h146zM184 465h-111l93 236h146z" />
    <glyph glyph-name="quotedblbase" unicode="&#x201e;" horiz-adv-x="459" 
d="M255 -126h-112l90 237h147zM62 -126h-115l93 237h146z" />
    <glyph glyph-name="dagger" unicode="&#x2020;" horiz-adv-x="592" 
d="M601 514l-23 -129h-190l-88 -498h-152l88 498h-191l23 129h191l31 179h152l-31 -179h190z" />
    <glyph glyph-name="daggerdbl" unicode="&#x2021;" horiz-adv-x="641" 
d="M628 517l-22 -128h-192l-35 -200h192l-23 -128h-192l-32 -184h-152l32 184h-192l23 128h192l35 200h-192l22 128h192l33 183h152l-33 -183h192z" />
    <glyph glyph-name="bullet" unicode="&#x2022;" horiz-adv-x="400" 
d="M180 184q-52 0 -83.5 30t-31.5 81q0 68 47.5 112.5t116.5 44.5q50 0 81.5 -31t31.5 -81q0 -67 -48.5 -111.5t-113.5 -44.5z" />
    <glyph glyph-name="ellipsis" unicode="&#x2026;" horiz-adv-x="683" 
d="M502 -17q-29 0 -49.5 18.5t-20.5 50.5q0 45 30.5 70.5t68.5 25.5q30 0 50.5 -18.5t20.5 -51.5q0 -44 -31.5 -69.5t-68.5 -25.5zM287 -17q-29 0 -49.5 18.5t-20.5 50.5q0 45 30.5 70.5t68.5 25.5q30 0 50.5 -18.5t20.5 -51.5q0 -44 -31.5 -69.5t-68.5 -25.5zM73 -17
q-29 0 -49.5 18.5t-20.5 50.5q0 45 30 70.5t69 25.5q29 0 49.5 -18.5t20.5 -51.5q0 -44 -31 -69.5t-68 -25.5z" />
    <glyph glyph-name="perthousand" unicode="&#x2030;" horiz-adv-x="1170" 
d="M270 708q68 0 104.5 -39t36.5 -94q0 -71 -54 -127t-142 -56q-68 0 -104 39.5t-36 95.5q0 69 54 125t141 56zM38 0l579 702h156l-577 -702h-158zM249 600q-23 0 -39 -14t-20 -33q-5 -21 7 -37t38 -16q27 0 43 17.5t16 40.5q0 16 -13 29t-32 13zM604 305q68 0 104.5 -38.5
t36.5 -94.5q0 -71 -53.5 -127t-141.5 -56q-69 0 -105 39.5t-36 95.5q0 68 54.5 124.5t140.5 56.5zM782 124q0 68 55 124.5t141 56.5q67 0 103.5 -38.5t36.5 -94.5q0 -71 -53.5 -127t-141.5 -56q-69 0 -105 39.5t-36 95.5zM583 197q-23 0 -39 -14t-20 -34q-5 -21 7.5 -36.5
t38.5 -15.5t42.5 18t16.5 40q0 16 -13 29t-33 13zM957 197q-24 0 -40 -14t-20 -34q-5 -21 7.5 -36.5t38.5 -15.5q27 0 43 17.5t16 40.5q0 16 -13 29t-32 13z" />
    <glyph glyph-name="guilsinglleft" unicode="&#x2039;" horiz-adv-x="347" 
d="M127 74l-99 222l177 222h149l-180 -222l102 -222h-149z" />
    <glyph glyph-name="guilsinglright" unicode="&#x203a;" horiz-adv-x="347" 
d="M-7 77l179 223l-101 221h149l100 -221l-178 -223h-149z" />
    <glyph glyph-name="fraction" unicode="&#x2044;" horiz-adv-x="165" 
d="M-103 -4h-126l518 712h125z" />
    <glyph glyph-name="zerosuperior" unicode="&#x2070;" horiz-adv-x="395" 
d="M88 625l10 55q14 78 72 120t127 42q65 0 107.5 -43.5t29.5 -118.5l-10 -55q-14 -80 -69.5 -123t-129.5 -43q-71 0 -111 43.5t-26 122.5zM203 677l-10 -54q-9 -48 29 -63q36 -13 69 14q23 18 29 49l10 54q9 50 -29 65q-35 14 -68 -13q-24 -19 -30 -52z" />
    <glyph glyph-name="foursuperior" unicode="&#x2074;" horiz-adv-x="381" 
d="M263 831h144l-39 -223h42l-15 -85h-42l-11 -62h-103l11 62h-185l9 84zM181 608h84l23 132z" />
    <glyph glyph-name="fivesuperior" unicode="&#x2075;" horiz-adv-x="370" 
d="M210 701h52q67 0 105.5 -30t25.5 -99q-12 -64 -61.5 -93.5t-111.5 -29.5q-71 0 -109 28.5t-26 94.5h100q-2 -15 9.5 -24t36.5 -9q24 0 40 11t16 31q0 15 -11.5 24.5t-30.5 9.5h-142l38 216h270l-16 -90h-178z" />
    <glyph glyph-name="sixsuperior" unicode="&#x2076;" horiz-adv-x="378" 
d="M211 716l-6 -35q35 20 84 20q114 0 114 -94q0 -74 -56 -110t-129 -36q-72 0 -108 31.5t-25 94.5l23 129q11 58 63 92.5t113 34.5q67 0 106.5 -28t29.5 -85h-104q0 26 -44 26q-24 0 -41 -11t-20 -29zM184 579q0 -15 14.5 -23t34.5 -8q25 0 43.5 10.5t18.5 29.5
q0 16 -14.5 24t-34.5 8q-25 0 -43.5 -11t-18.5 -30z" />
    <glyph glyph-name="sevensuperior" unicode="&#x2077;" horiz-adv-x="353" 
d="M433 832l-3 -41l-202 -329h-122l171 274h-76l-14 -47h-94l25 143h315z" />
    <glyph glyph-name="eightsuperior" unicode="&#x2078;" horiz-adv-x="385" 
d="M78 574q4 23 23 46t48 34q-36 22 -36 63q0 62 50.5 93.5t124.5 31.5q59 0 98.5 -24.5t39.5 -73.5q0 -25 -15 -50.5t-47 -39.5q42 -20 42 -72q0 -68 -54.5 -99t-133.5 -29q-71 0 -112.5 28.5t-27.5 91.5zM261 691q57 0 57 40q0 31 -44 31q-26 0 -41 -11t-15 -29
q0 -31 43 -31zM296 573q2 15 -11 25t-37 10q-55 0 -62 -36q-2 -5 0 -12.5t14.5 -14.5t34.5 -7q31 0 45.5 11.5t15.5 23.5z" />
    <glyph glyph-name="ninesuperior" unicode="&#x2079;" horiz-adv-x="381" 
d="M294 589l6 35q-35 -20 -85 -20q-114 0 -114 94q0 74 56 110t130 36q72 0 109 -32.5t26 -93.5l-23 -129q-11 -58 -65 -92.5t-116 -34.5q-67 0 -106 28t-29 85h104q0 -26 44 -26q25 0 42.5 11t20.5 29zM320 721q3 18 -11.5 27t-37.5 9q-25 0 -43 -10.5t-18 -29.5
q0 -16 14.5 -24t34.5 -8q22 0 40.5 10t20.5 26z" />
    <glyph glyph-name="zeroinferior" unicode="&#x2080;" horiz-adv-x="398" 
d="M-8 73l10 55q14 78 72 120t127 42q65 0 107.5 -43.5t29.5 -118.5l-10 -55q-14 -80 -69.5 -123t-129.5 -43q-71 0 -111 43.5t-26 122.5zM107 125l-10 -54q-9 -48 29 -63q36 -13 69 14q23 18 29 49l10 54q9 50 -29 65q-35 14 -68 -13q-24 -19 -30 -52z" />
    <glyph glyph-name="oneinferior" unicode="&#x2081;" horiz-adv-x="283" 
d="M-37 -83l16 88h65l29 166l-55 -14l17 93l165 39l-50 -284h63l-16 -88h-234z" />
    <glyph glyph-name="twoinferior" unicode="&#x2082;" horiz-adv-x="383" 
d="M128 178h-102q10 56 57.5 88.5t112.5 32.5q129 0 129 -97q0 -114 -153 -127q-73 -7 -83 -63h108l12 47h94l-25 -141h-309l17 97q9 48 52.5 85.5t89.5 45.5q10 2 28.5 4.5t26 4t17.5 5t14 10t4 16.5q0 25 -37 25q-47 0 -53 -33z" />
    <glyph glyph-name="threeinferior" unicode="&#x2083;" horiz-adv-x="369" 
d="M112 194l-8 -28h-90l21 118h301l-3 -17l-115 -128q34 -4 53.5 -26t19.5 -57q0 -44 -17.5 -75t-47 -46.5t-58.5 -22t-61 -6.5q-61 0 -97.5 31t-27.5 92h101q5 -28 43 -28q25 0 41 12t16 33q0 13 -9.5 22.5t-29.5 9.5h-48l-8 15l92 101h-68z" />
    <glyph glyph-name="fourinferior" unicode="&#x2084;" horiz-adv-x="382" 
d="M166 287h144l-39 -223h42l-15 -85h-42l-11 -62h-103l11 62h-185l9 84zM84 64h84l23 132z" />
    <glyph glyph-name="fiveinferior" unicode="&#x2085;" horiz-adv-x="374" 
d="M118 161h52q67 0 105.5 -30t25.5 -99q-12 -64 -61.5 -93.5t-111.5 -29.5q-71 0 -109 28.5t-26 94.5h100q-2 -15 9.5 -24t36.5 -9q24 0 40 11t16 31q0 15 -11.5 24.5t-30.5 9.5h-142l38 216h270l-16 -90h-178z" />
    <glyph glyph-name="sixinferior" unicode="&#x2086;" horiz-adv-x="381" 
d="M115 162l-6 -35q35 20 84 20q114 0 114 -94q0 -74 -56 -110t-129 -36q-72 0 -108 31.5t-25 94.5l23 129q11 58 63 92.5t113 34.5q67 0 106.5 -28t29.5 -85h-104q0 26 -44 26q-24 0 -41 -11t-20 -29zM88 25q0 -31 49 -31q25 0 43.5 10.5t18.5 29.5q0 16 -14.5 24t-34.5 8
q-24 0 -43 -11t-19 -30z" />
    <glyph glyph-name="seveninferior" unicode="&#x2087;" horiz-adv-x="351" 
d="M336 287l-3 -41l-202 -329h-122l171 274h-76l-14 -46h-94l25 142h315z" />
    <glyph glyph-name="eightinferior" unicode="&#x2088;" horiz-adv-x="388" 
d="M-17 29q4 23 23 46t48 34q-36 22 -36 63q0 62 51 93.5t124 31.5q59 0 98.5 -24.5t39.5 -73.5q0 -25 -15 -50.5t-47 -39.5q42 -20 42 -72q0 -68 -54.5 -99t-133.5 -29q-71 0 -112.5 28.5t-27.5 91.5zM166 146q56 0 56 40q0 31 -43 31q-26 0 -41.5 -11t-15.5 -29
q0 -31 44 -31zM201 28q2 15 -11 25t-37 10q-55 0 -62 -36q-2 -5 0 -12.5t14.5 -14.5t34.5 -7q31 0 45.5 11.5t15.5 23.5z" />
    <glyph glyph-name="nineinferior" unicode="&#x2089;" horiz-adv-x="385" 
d="M198 36l6 35q-35 -20 -85 -20q-114 0 -114 94q0 74 56 110t130 36q72 0 108 -31.5t25 -94.5l-23 -129q-11 -58 -64 -92.5t-115 -34.5q-67 0 -106 28t-29 85h104q0 -26 44 -26q25 0 42.5 11t20.5 29zM224 168q3 18 -11.5 27t-37.5 9q-25 0 -43 -10.5t-18 -29.5
q0 -16 14.5 -24t34.5 -8q22 0 40.5 10t20.5 26z" />
    <glyph glyph-name="Euro" unicode="&#x20ac;" horiz-adv-x="608" 
d="M392 -26q-153 0 -226.5 66t-73.5 183h-67l18 100h55q-2 18 7 43h-57l19 104h68q46 117 142 179.5t235 62.5q65 0 123 -20l-71 -134q-41 13 -79 13q-130 0 -189 -101h212l-46 -104h-206q-6 -18 -6 -37h182l-40 -100h-142q15 -151 258 -93l17 -142q-68 -20 -133 -20z" />
    <glyph glyph-name="afii61289" unicode="&#x2113;" horiz-adv-x="434" 
d="M233 240l-16 -93q-3 -17 5 -26.5t25.5 -11.5t30.5 -1.5t35 4t23 3.5l-18 -103q-65 -18 -119.5 -21t-90.5 26.5t-40 91.5l-61 -24l-4 56q32 13 67 30l64 362q13 77 67 129.5t158 52.5q44 0 70.5 -16t34 -44t4 -58.5t-15.5 -65.5q-56 -163 -219 -291zM245 317
q58 49 98 108.5t55 105.5q8 23 11 43t1 40t-16.5 30.5t-41.5 8.5q-8 -1 -15 -4.5t-12.5 -8t-10.5 -11.5t-8.5 -13.5t-7 -16t-5 -15.5l-4 -16t-3 -14t-2 -12t-1.5 -9z" />
    <glyph glyph-name="uni2117" unicode="&#x2117;" horiz-adv-x="826" 
d="M400 346h68q30 0 41 31q11 30 -9 44q-7 5 -18 5h-68zM386 257l-17 -95h-109l65 366h177q85 0 111 -66q23 -59 -13 -122q-41 -72 -124 -82q-11 -1 -22 -1h-68zM491 720q140 0 225.5 -87.5t85.5 -220.5q0 -113 -53.5 -209t-155 -154.5t-228.5 -58.5q-149 0 -234.5 87
t-85.5 221q0 176 126.5 299t319.5 123zM169 311q0 -95 52 -154t151 -59q131 0 222.5 87.5t91.5 213.5q0 96 -53 153t-155 57q-137 0 -223 -87t-86 -211z" />
    <glyph glyph-name="trademark" unicode="&#x2122;" horiz-adv-x="827" 
d="M166 406l35 201h-92l16 93h295l-16 -93h-91l-35 -201h-112zM402 406l52 296h120l54 -85l84 85h121l-52 -296h-107l27 164l-88 -94h-22l-51 95l-29 -165h-109z" />
    <glyph glyph-name="estimated" unicode="&#x212e;" horiz-adv-x="614" 
d="M478 133l32 -29q-54 -61 -113.5 -86t-133.5 -25q-99 0 -160.5 62.5t-61.5 174.5q0 165 95.5 260.5t230.5 95.5q58 0 103 -16.5t78.5 -54t39 -99.5t-15.5 -153h-402l-30 -170q48 -53 132 -53q125 0 206 93zM458 313l32 181q-46 42 -132 42q-83 0 -143 -45l-31 -178h274z
" />
    <glyph glyph-name="uni2153" unicode="&#x2153;" horiz-adv-x="818" 
d="M42 334l16 90h62l30 170l-55 -14l17 92l163 39l-50 -287h60l-16 -90h-227zM186 -4h-119l515 712h123zM574 277l-8 -28h-90l21 118h301l-3 -17l-116 -128q34 -4 53.5 -26t19.5 -57q0 -44 -17.5 -75t-46.5 -46.5t-58 -22t-61 -6.5q-61 0 -97.5 31t-27.5 92h101
q5 -28 43 -28q25 0 40.5 12t15.5 33q0 13 -9.5 22.5t-29.5 9.5h-48l-7 15l92 101h-68z" />
    <glyph glyph-name="uni2154" unicode="&#x2154;" horiz-adv-x="896" 
d="M269 -4h-121l519 712h124zM652 277l-8 -28h-90l21 118h301l-3 -17l-115 -128q34 -4 53.5 -26t19.5 -57q0 -44 -17.5 -75t-47 -46.5t-58.5 -22t-60 -6.5q-61 0 -98 31t-28 92h101q5 -28 43 -28q25 0 41 12t16 33q0 13 -9.5 22.5t-29.5 9.5h-48l-8 15l92 101h-68zM199 592
h-102q10 56 57.5 88.5t112.5 32.5q129 0 129 -97q0 -114 -153 -127q-73 -7 -83 -63h108l12 47h94l-25 -141h-309l17 97q9 48 52.5 85.5t89.5 45.5q10 2 28.5 4.5t26 4t17.5 5t14 10t4 16.5q0 25 -37 25q-47 0 -53 -33z" />
    <glyph glyph-name="oneeighth" unicode="&#x215b;" horiz-adv-x="819" 
d="M46 334l16 90h62l30 170l-55 -14l17 92l163 39l-50 -287h60l-16 -90h-227zM178 -4h-119l533 712h123zM429 111q4 23 23 46t48 34q-36 22 -36 63q0 62 50.5 93.5t124.5 31.5q59 0 98.5 -24.5t39.5 -73.5q0 -25 -15 -50.5t-47 -39.5q41 -20 41 -72q0 -46 -28 -76
t-68.5 -41.5t-90.5 -10.5q-71 0 -112.5 28.5t-27.5 91.5zM611 228q57 0 57 40q0 31 -43 31q-26 0 -41.5 -11t-15.5 -29q0 -31 43 -31zM647 110q2 15 -11 25t-37 10q-56 0 -63 -36q-1 -6 0.5 -12.5t14 -14t34.5 -7.5q30 0 45 11t17 24z" />
    <glyph glyph-name="threeeighths" unicode="&#x215c;" horiz-adv-x="869" 
d="M244 -4h-120l515 712h124zM478 111q5 23 24 46t48 34q-37 22 -37 63q0 62 51 93.5t125 31.5q59 0 98 -24.5t39 -73.5q0 -25 -15 -50.5t-46 -39.5q41 -20 41 -72q0 -68 -54.5 -99t-133.5 -29q-71 0 -112.5 28.5t-27.5 91.5zM661 228q57 0 57 40q0 31 -43 31
q-26 0 -41.5 -11t-15.5 -29q0 -31 43 -31zM696 110q3 15 -10.5 25t-37.5 10q-55 0 -62 -36q-1 -6 0.5 -12.5t14 -14t34.5 -7.5q31 0 45.5 11.5t15.5 23.5zM190 609l-8 -28h-90l21 118h301l-3 -17l-115 -128q34 -4 53.5 -26t19.5 -57q0 -44 -17.5 -75t-47 -46.5t-58.5 -22
t-61 -6.5q-61 0 -97.5 31t-27.5 92h101q5 -28 43 -28q25 0 41 12t16 33q0 13 -9.5 22.5t-29.5 9.5h-48l-8 15l92 101h-68z" />
    <glyph glyph-name="fiveeighths" unicode="&#x215d;" horiz-adv-x="874" 
d="M248 -4h-119l514 712h124zM483 111q4 23 23 46t48 34q-36 22 -36 63q0 62 51 93.5t124 31.5q59 0 98.5 -24.5t39.5 -73.5q0 -25 -15 -50.5t-47 -39.5q42 -20 42 -72q0 -68 -54.5 -99t-133.5 -29q-71 0 -112.5 28.5t-27.5 91.5zM666 228q56 0 56 40q0 31 -43 31
q-26 0 -41.5 -11t-15.5 -29q0 -31 44 -31zM701 110q2 15 -11 25t-37 10q-55 0 -62 -36q-2 -5 0 -12.5t14.5 -14.5t34.5 -7q31 0 45.5 11.5t15.5 23.5zM185 572h52q67 0 105.5 -30t25.5 -99q-12 -64 -61.5 -93.5t-111.5 -29.5q-71 0 -109 28.5t-26 94.5h100q-2 -15 9.5 -24
t36.5 -9q24 0 40 11t16 31q0 15 -11.5 24.5t-30.5 9.5h-142l38 216h270l-16 -90h-178z" />
    <glyph glyph-name="seveneighths" unicode="&#x215e;" horiz-adv-x="807" 
d="M169 -4h-120l515 712h124zM416 111q4 23 23.5 45.5t47.5 34.5q-36 22 -36 63q0 62 51 93.5t125 31.5q59 0 98 -24.5t39 -73.5q0 -25 -15 -50.5t-47 -39.5q42 -20 42 -72q0 -68 -54.5 -99t-133.5 -29q-71 0 -112.5 28.5t-27.5 91.5zM599 228q57 0 57 40q0 31 -44 31
q-26 0 -41 -11t-15 -29q0 -31 43 -31zM634 110q2 15 -11 25t-37 10q-55 0 -62 -36q-1 -6 0.5 -12.5t14 -14t34.5 -7.5q31 0 45.5 11.5t15.5 23.5zM419 700l-3 -41l-206 -329h-122l175 274h-76l-14 -46h-94l25 142h315z" />
    <glyph glyph-name="arrowleft" unicode="&#x2190;" horiz-adv-x="593" 
d="M270 110l-198 241l282 239l61 -69l-133 -111h346l-21 -122h-347l88 -117z" />
    <glyph glyph-name="arrowup" unicode="&#x2191;" horiz-adv-x="545" 
d="M103 393l283 241l196 -243l-80 -70l-92 110l-61 -343h-123l61 344l-135 -108z" />
    <glyph glyph-name="arrowright" unicode="&#x2192;" horiz-adv-x="593" 
d="M446 592l198 -241l-283 -241l-60 69l130 113h-343l21 121h345l-86 116z" />
    <glyph glyph-name="arrowdown" unicode="&#x2193;" horiz-adv-x="539" 
d="M565 312l-283 -240l-198 240l81 73l93 -110l61 343h122l-61 -346l134 108z" />
    <glyph glyph-name="uni2196" unicode="&#x2196;" horiz-adv-x="514" 
d="M94 201l60 339h344l-16 -99h-160l202 -245l-101 -86l-200 245l-36 -158z" />
    <glyph glyph-name="uni2197" unicode="&#x2197;" horiz-adv-x="516" 
d="M549 538l-59 -339l-100 -2l28 158l-287 -245l-72 86l289 244l-156 6l18 92h339z" />
    <glyph glyph-name="uni2198" unicode="&#x2198;" horiz-adv-x="603" 
d="M578 494l-60 -342h-341l12 91l161 9l-202 243l100 87l203 -243l28 157z" />
    <glyph glyph-name="uni2199" unicode="&#x2199;" horiz-adv-x="603" 
d="M139 152l60 342l101 2l-28 -157l288 243l69 -87l-287 -242l157 -9l-21 -92h-339z" />
    <glyph glyph-name="partialdiff" unicode="&#x2202;" horiz-adv-x="585" 
d="M539 249q-21 -117 -102 -189t-198 -72q-109 0 -163.5 59t-54.5 148q0 124 85.5 201t205.5 77q54 0 109 -29q-7 40 -53.5 72.5t-95 47.5t-89.5 19l44 116q199 -24 273.5 -135t38.5 -315zM260 111q39 0 67.5 15t42 39t19.5 47t6 46q0 42 -23 70t-68 28q-61 0 -99 -44
t-38 -101q0 -42 22 -71t71 -29z" />
    <glyph glyph-name="increment" unicode="&#x2206;" horiz-adv-x="835" 
d="M574 700l191 -700h-792l437 700h164zM464 534l-245 -398h345z" />
    <glyph glyph-name="product" unicode="&#x220f;" horiz-adv-x="706" 
d="M534 -191h-149l133 753h-236l-133 -753h-148l157 891h533z" />
    <glyph glyph-name="summation" unicode="&#x2211;" horiz-adv-x="587" 
d="M406 362l-195 -215h306l-26 -147h-509l16 88l239 277l-134 264l12 71h493l-24 -139h-274z" />
    <glyph glyph-name="minus" unicode="&#x2212;" horiz-adv-x="517" 
d="M45 212l23 133h397l-23 -133h-397z" />
    <glyph glyph-name="uni2215" unicode="&#x2215;" horiz-adv-x="500" 
d="M65 -4h-127l518 712h126z" />
    <glyph glyph-name="uni2219" unicode="&#x2219;" horiz-adv-x="262" 
d="M122 249q-29 0 -49.5 17.5t-20.5 48.5q0 44 30 69t68 26q30 0 50 -17.5t20 -48.5q0 -44 -29.5 -69.5t-68.5 -25.5z" />
    <glyph glyph-name="radical" unicode="&#x221a;" horiz-adv-x="608" 
d="M677 695l-351 -695h-111l-102 302l-78 -30l-24 90l222 93l78 -287l280 552z" />
    <glyph glyph-name="infinity" unicode="&#x221e;" horiz-adv-x="736" 
d="M182 158q-79 1 -115 50.5t-24 114.5q11 66 66 113t136 47t137 -83q41 37 86.5 61.5t80.5 24.5q92 0 126.5 -50.5t22.5 -119.5q-9 -63 -62.5 -110t-132.5 -48q-90 -1 -149 82q-87 -82 -172 -82zM207 268q9 0 18 2t18 6.5l16 8t15 10l12 10t12 9.5l7 7q-10 18 -18.5 28.5
t-25.5 20.5t-38 10q-32 0 -52.5 -19.5t-20.5 -43.5q0 -20 14.5 -34.5t42.5 -14.5zM516 268q35 1 56.5 20.5t21.5 43.5q0 20 -14 34t-40 14q-21 0 -41.5 -10t-32 -20.5t-28.5 -28.5q37 -53 78 -53z" />
    <glyph glyph-name="integral" unicode="&#x222b;" horiz-adv-x="494" 
d="M116 -1l93 516q12 66 50 112t84.5 65.5t96.5 19.5q71 0 129 -40l-69 -104q-37 25 -71 25q-30 0 -53 -19.5t-30 -58.5l-91 -518q-9 -50 -33 -89.5t-57 -62.5t-69 -34.5t-73 -11.5q-61 0 -113 35l68 104q2 -1 7 -4.5l6.5 -4.5l5.5 -3.5t5 -3t4.5 -2t5.5 -1.5t5 -1t6 -1h7
q30 0 54.5 21t31.5 61z" />
    <glyph glyph-name="approxequal" unicode="&#x2248;" horiz-adv-x="552" 
d="M443 482l78 -48q-29 -81 -90.5 -112t-132.5 8l-63 37q-63 29 -108 -34l-71 40q28 74 95 107t135 -6l66 -38q29 -18 53 -4t38 50zM420 286l76 -42q-42 -74 -105.5 -102.5t-135.5 8.5l-47 28q-18 9 -26 11.5t-22.5 3t-27 -11t-25.5 -34.5l-73 51q18 47 54 77t80 34.5
t90 -23.5l48 -28q30 -19 61.5 -9.5t52.5 37.5z" />
    <glyph glyph-name="notequal" unicode="&#x2260;" horiz-adv-x="593" 
d="M48 131l23 133h168l65 94h-216l23 131h295l60 83l51 -31l-39 -52h72l-23 -131h-148l-66 -94h197l-23 -133h-271l-59 -80l-50 33l33 47h-92z" />
    <glyph glyph-name="lessequal" unicode="&#x2264;" horiz-adv-x="440" 
d="M86 458l275 202l63 -89l-185 -133l141 -134l-99 -85l-202 200zM9 74l21 117h343l-21 -117h-343z" />
    <glyph glyph-name="greaterequal" unicode="&#x2265;" horiz-adv-x="439" 
d="M209 660l204 -202l-7 -39l-273 -204l-68 89l188 135l-139 131zM377 191l-21 -117h-346l21 117h346z" />
    <glyph glyph-name="lozenge" unicode="&#x25ca;" horiz-adv-x="599" 
d="M579 352l-274 -345h-113l-152 345l274 344h113zM347 567l-154 -217l79 -215l158 216z" />
    <glyph glyph-name="fi" unicode="&#xfb01;" horiz-adv-x="692" 
d="M430 182l36 196h-204l-68 -378h-138l68 378h-91l20 116h92l2 14q18 120 110 172.5t206 15.5l-48 -122q-44 22 -83 2t-47 -68l-2 -14h343l-56 -315q-8 -44 13 -55.5t62 2.5l-16 -116q-40 -18 -97 -18t-84 29t-25.5 71.5t7.5 89.5zM566 547q-29 0 -48.5 19t-19.5 50
q0 42 29 68.5t66 25.5q30 0 49.5 -18.5t19.5 -50.5q0 -41 -29.5 -68t-66.5 -26z" />
    <glyph glyph-name="fl" unicode="&#xfb02;" horiz-adv-x="689" 
d="M429 182l73 409q-27 10 -60.5 11.5t-66.5 -6t-58.5 -31.5t-32.5 -62l-4 -22h112l-20 -112h-112l-65 -369h-137l65 369h-92l20 112h92l4 22q11 64 44 109.5t79.5 68t97 34t107.5 9.5t100 -7.5t85 -14.5l-92 -523q-8 -44 13.5 -55.5t62.5 2.5l-16 -116q-40 -18 -97 -18
t-84 29t-25.5 71.5t7.5 89.5z" />
    <glyph glyph-name="a.alt" horiz-adv-x="607" 
d="M361 188q-11 9 -42 16.5t-62 7.5q-41 0 -73 -15.5t-38 -42.5q-4 -26 18 -38.5t59 -12.5q47 0 88 23.5t50 61.5zM494 167q-8 -39 16.5 -48t58.5 4l-15 -116q-26 -11 -56 -16t-60 -3t-54 18.5t-33 46.5q-76 -65 -175 -65q-90 0 -139 39.5t-34 127.5q10 55 54 90.5t96 48
t112 12.5q34 0 109 -15l4 26q4 20 -1 34.5t-19 22t-28 11.5t-36.5 4.5t-35.5 0t-34 -2.5l-12 -43h-126l23 134q85 25 192 25q48 1 87.5 -6.5t75 -27t51 -59t5.5 -95.5z" />
    <glyph glyph-name="aacute.alt" horiz-adv-x="607" 
d="M389 565h-127l1 6l87 131h168zM361 188q-11 9 -42 16.5t-62 7.5q-41 0 -73 -15.5t-38 -42.5q-4 -26 18 -38.5t59 -12.5q47 0 88 23.5t50 61.5zM494 167q-8 -39 16.5 -48t58.5 4l-15 -116q-26 -11 -56 -16t-60 -3t-54 18.5t-33 46.5q-76 -65 -175 -65q-90 0 -139 39.5
t-34 127.5q10 55 54 90.5t96 48t112 12.5q34 0 109 -15l4 26q4 20 -1 34.5t-19 22t-28 11.5t-36.5 4.5t-35.5 0t-34 -2.5l-12 -43h-126l23 134q85 25 192 25q48 1 87.5 -6.5t75 -27t51 -59t5.5 -95.5z" />
    <glyph glyph-name="abreve.alt" horiz-adv-x="607" 
d="M411 705h110q-6 -76 -57.5 -114t-128.5 -38q-73 0 -113 39.5t-19 112.5h111q-7 -50 41 -50q45 0 56 50zM361 188q-11 9 -42 16.5t-62 7.5q-41 0 -73 -15.5t-38 -42.5q-4 -26 18 -38.5t59 -12.5q47 0 88 23.5t50 61.5zM494 167q-8 -39 16.5 -48t58.5 4l-15 -116
q-26 -11 -56 -16t-60 -3t-54 18.5t-33 46.5q-76 -65 -175 -65q-90 0 -139 39.5t-34 127.5q10 55 54 90.5t96 48t112 12.5q34 0 109 -15l4 26q4 20 -1 34.5t-19 22t-28 11.5t-36.5 4.5t-35.5 0t-34 -2.5l-12 -43h-126l23 134q85 25 192 25q48 1 87.5 -6.5t75 -27t51 -59
t5.5 -95.5z" />
    <glyph glyph-name="acircumflex.alt" horiz-adv-x="607" 
d="M309 704h100l122 -136l-1 -8h-139l-47 50l-64 -50h-144l1 8zM361 188q-11 9 -42 16.5t-62 7.5q-41 0 -73 -15.5t-38 -42.5q-4 -26 18 -38.5t59 -12.5q47 0 88 23.5t50 61.5zM494 167q-8 -39 16.5 -48t58.5 4l-15 -116q-26 -11 -56 -16t-60 -3t-54 18.5t-33 46.5
q-76 -65 -175 -65q-90 0 -139 39.5t-34 127.5q10 55 54 90.5t96 48t112 12.5q34 0 109 -15l4 26q4 20 -1 34.5t-19 22t-28 11.5t-36.5 4.5t-35.5 0t-34 -2.5l-12 -43h-126l23 134q85 25 192 25q48 1 87.5 -6.5t75 -27t51 -59t5.5 -95.5z" />
    <glyph glyph-name="adieresis.alt" horiz-adv-x="607" 
d="M219 557q-29 0 -48.5 16t-19.5 45q0 42 29.5 65t65.5 23q29 0 49 -16.5t20 -45.5q0 -41 -29 -64t-67 -23zM447 555q-29 0 -48.5 16.5t-19.5 46.5q0 40 28.5 64t65.5 24q29 0 49 -16t20 -47q0 -42 -29 -65t-66 -23zM361 188q-11 9 -42 16.5t-62 7.5q-41 0 -73 -15.5
t-38 -42.5q-4 -26 18 -38.5t59 -12.5q47 0 88 23.5t50 61.5zM494 167q-8 -39 16.5 -48t58.5 4l-15 -116q-26 -11 -56 -16t-60 -3t-54 18.5t-33 46.5q-76 -65 -175 -65q-90 0 -139 39.5t-34 127.5q10 55 54 90.5t96 48t112 12.5q34 0 109 -15l4 26q4 20 -1 34.5t-19 22
t-28 11.5t-36.5 4.5t-35.5 0t-34 -2.5l-12 -43h-126l23 134q85 25 192 25q48 1 87.5 -6.5t75 -27t51 -59t5.5 -95.5z" />
    <glyph glyph-name="agrave.alt" horiz-adv-x="607" 
d="M286 568l-89 138h163l50 -132l-2 -6h-122zM361 188q-11 9 -42 16.5t-62 7.5q-41 0 -73 -15.5t-38 -42.5q-4 -26 18 -38.5t59 -12.5q47 0 88 23.5t50 61.5zM494 167q-8 -39 16.5 -48t58.5 4l-15 -116q-26 -11 -56 -16t-60 -3t-54 18.5t-33 46.5q-76 -65 -175 -65
q-90 0 -139 39.5t-34 127.5q10 55 54 90.5t96 48t112 12.5q34 0 109 -15l4 26q4 20 -1 34.5t-19 22t-28 11.5t-36.5 4.5t-35.5 0t-34 -2.5l-12 -43h-126l23 134q85 25 192 25q48 1 87.5 -6.5t75 -27t51 -59t5.5 -95.5z" />
    <glyph glyph-name="amacron.alt" horiz-adv-x="607" 
d="M193 585l20 114h306l-20 -114h-306zM361 188q-11 9 -42 16.5t-62 7.5q-41 0 -73 -15.5t-38 -42.5q-4 -26 18 -38.5t59 -12.5q47 0 88 23.5t50 61.5zM494 167q-8 -39 16.5 -48t58.5 4l-15 -116q-26 -11 -56 -16t-60 -3t-54 18.5t-33 46.5q-76 -65 -175 -65
q-90 0 -139 39.5t-34 127.5q10 55 54 90.5t96 48t112 12.5q34 0 109 -15l4 26q4 20 -1 34.5t-19 22t-28 11.5t-36.5 4.5t-35.5 0t-34 -2.5l-12 -43h-126l23 134q85 25 192 25q48 1 87.5 -6.5t75 -27t51 -59t5.5 -95.5z" />
    <glyph glyph-name="aogonek.alt" horiz-adv-x="606" 
d="M494 167q-8 -39 16.5 -48t58.5 4l-15 -116q-7 -3 -27.5 -7.5t-35.5 -9.5t-31.5 -13.5t-23.5 -23t-3 -34.5q6 -25 38 -28t77 23l6 -96q-37 -19 -76.5 -27.5t-75.5 -5t-61 27t-30 63.5q-3 39 22 76.5t60 49.5q-32 16 -42 51q-76 -65 -175 -65q-90 0 -139 39.5t-34 127.5
q10 55 54 90.5t96 48t112 12.5q34 0 109 -15l4 26q4 20 -1 34.5t-19 22t-28 11.5t-36.5 4.5t-35.5 0t-34 -2.5l-12 -43h-126l23 134q85 25 192 25q48 1 87.5 -6.5t75 -27t51 -59t5.5 -95.5zM361 188q-11 9 -42 16.5t-62 7.5q-41 0 -73 -15.5t-38 -42.5q-4 -26 18 -38.5
t59 -12.5q47 0 88 23.5t50 61.5z" />
    <glyph glyph-name="aring.alt" horiz-adv-x="607" 
d="M361 188q-11 9 -42 16.5t-62 7.5q-41 0 -73 -15.5t-38 -42.5q-4 -26 18 -38.5t59 -12.5q47 0 88 23.5t50 61.5zM494 167q-8 -39 16.5 -48t58.5 4l-15 -116q-26 -11 -56 -16t-60 -3t-54 18.5t-33 46.5q-76 -65 -175 -65q-90 0 -139 39.5t-34 127.5q10 55 54 90.5t96 48
t112 12.5q34 0 109 -15l4 26q4 20 -1 34.5t-19 22t-28 11.5t-36.5 4.5t-35.5 0t-34 -2.5l-12 -43h-126l23 134q85 25 192 25q48 1 87.5 -6.5t75 -27t51 -59t5.5 -95.5zM348 542q-88 0 -111 56q-19 47 19 96q46 58 134 58q81 0 104 -56q20 -48 -17 -97q-44 -57 -129 -57z
M374 685q-41 0 -54 -31q-11 -26 12 -39q11 -6 27 -6q41 0 54 31q11 25 -12 39q-11 6 -27 6z" />
    <glyph glyph-name="aringacute.alt" horiz-adv-x="607" 
d="M312 764l94 100h168l-140 -103h-123zM337 535q-48 0 -76.5 20.5t-28.5 63.5q0 51 43.5 85t100.5 34q44 0 75 -22.5t31 -63.5q0 -52 -43 -84.5t-102 -32.5zM361 667q-22 0 -35 -11.5t-13 -26.5q0 -26 36 -26q24 0 35.5 10.5t11.5 24.5q0 29 -35 29zM361 188
q-11 9 -42 16.5t-62 7.5q-41 0 -73 -15.5t-38 -42.5q-4 -26 18 -38.5t59 -12.5q47 0 88 23.5t50 61.5zM494 167q-8 -39 16.5 -48t58.5 4l-15 -116q-26 -11 -56 -16t-60 -3t-54 18.5t-33 46.5q-76 -65 -175 -65q-90 0 -139 39.5t-34 127.5q10 55 54 90.5t96 48t112 12.5
q34 0 109 -15l4 26q4 20 -1 34.5t-19 22t-28 11.5t-36.5 4.5t-35.5 0t-34 -2.5l-12 -43h-126l23 134q85 25 192 25q48 1 87.5 -6.5t75 -27t51 -59t5.5 -95.5z" />
    <glyph glyph-name="atilde.alt" horiz-adv-x="607" 
d="M361 188q-11 9 -42 16.5t-62 7.5q-41 0 -73 -15.5t-38 -42.5q-4 -26 18 -38.5t59 -12.5q47 0 88 23.5t50 61.5zM494 167q-8 -39 16.5 -48t58.5 4l-15 -116q-26 -11 -56 -16t-60 -3t-54 18.5t-33 46.5q-76 -65 -175 -65q-90 0 -139 39.5t-34 127.5q10 55 54 90.5t96 48
t112 12.5q34 0 109 -15l4 26q4 20 -1 34.5t-19 22t-28 11.5t-36.5 4.5t-35.5 0t-34 -2.5l-12 -43h-126l23 134q85 25 192 25q48 1 87.5 -6.5t75 -27t51 -59t5.5 -95.5zM326 705q6 -2 21 -11t27.5 -15t26.5 -9t26 4.5t20 26.5l85 -37q-22 -65 -72.5 -94.5t-88.5 -10.5
q-8 3 -23.5 12.5t-27 14.5t-25.5 7.5t-26.5 -6.5t-22.5 -29l-82 40q16 60 66 92t96 15z" />
    <glyph glyph-name="g.alt" horiz-adv-x="630" 
d="M327 381q-72 0 -115.5 -45t-43.5 -103q0 -46 28.5 -75.5t85.5 -29.5q69 0 114.5 40.5t45.5 106.5q0 47 -30.5 76.5t-84.5 29.5zM-24 -60h137q-6 -55 25.5 -81.5t87.5 -27.5q62 1 105 23.5t43 74.5q0 73 -113 73q-115 0 -176.5 55t-61.5 151q0 95 51.5 165.5t124.5 102.5
t151 32q28 0 66.5 -7t55.5 -20l70 70l83 -79l-76 -70q36 -51 36 -114q0 -142 -135 -212q71 -45 71 -130q0 -83 -44.5 -138.5t-114.5 -78.5t-162 -24q-130 -1 -187.5 63.5t-36.5 171.5z" />
    <glyph glyph-name="gbreve.alt" horiz-adv-x="629" 
d="M327 381q-73 0 -116 -45t-43 -103q0 -46 28.5 -75.5t85.5 -29.5q69 0 114.5 40.5t45.5 106.5q0 47 -30.5 76.5t-84.5 29.5zM-24 -60h137q-6 -55 25.5 -81.5t87.5 -27.5q62 1 105 23.5t43 74.5q0 34 -27.5 56t-85.5 22q-116 0 -177 53t-61 148t51.5 165.5t124.5 102.5
t151 32q28 0 66.5 -7t55.5 -20l70 70l83 -79l-76 -70q36 -51 36 -114q0 -140 -140 -212q73 -47 73 -129q0 -62 -27 -110t-73 -76t-101 -42t-117 -14q-130 -1 -187.5 63.5t-36.5 171.5zM435 710h110q-6 -76 -57.5 -114t-128.5 -38q-73 0 -113 39.5t-19 112.5h111
q-7 -50 41 -50q45 0 56 50z" />
    <glyph glyph-name="gcircumflex.alt" horiz-adv-x="628" 
d="M327 381q-73 0 -116 -45t-43 -103q0 -46 28.5 -75.5t85.5 -29.5q69 0 114.5 40.5t45.5 106.5q0 47 -30.5 76.5t-84.5 29.5zM-24 -60h137q-6 -55 25.5 -81.5t87.5 -27.5q62 1 105 23.5t43 74.5q0 34 -27.5 56t-85.5 22q-116 0 -177 53t-61 148t51.5 165.5t124.5 102.5
t151 32q28 0 66.5 -7t55.5 -20l65 62l87 -73l-75 -68q36 -51 36 -114q0 -140 -140 -212q73 -47 73 -129q0 -62 -27 -110t-73 -76t-101 -42t-117 -14q-130 -1 -187.5 63.5t-36.5 171.5zM348 710h113l127 -133l-2 -11h-144l-56 56l-77 -56h-145l2 12z" />
    <glyph glyph-name="gcommaaccent.alt" horiz-adv-x="629" 
d="M367 765h85l-31 -75q38 -5 38 -44q0 -43 -29 -65.5t-67 -22.5q-45 0 -59 32.5t5 71.5q16 34 58 103zM327 381q-73 0 -116 -45t-43 -103q0 -46 28.5 -75.5t85.5 -29.5q69 0 114.5 40.5t45.5 106.5q0 47 -30.5 76.5t-84.5 29.5zM-24 -60h137q-6 -55 25.5 -81.5t87.5 -27.5
q62 1 105 23.5t43 74.5q0 34 -27.5 56t-85.5 22q-116 0 -177 53t-61 148t51.5 165.5t124.5 102.5t151 32q28 0 66.5 -7t55.5 -20l70 70l83 -79l-76 -70q36 -51 36 -114q0 -140 -140 -212q73 -47 73 -129q0 -62 -27 -110t-73 -76t-101 -42t-117 -14q-130 -1 -187.5 63.5
t-36.5 171.5z" />
    <glyph glyph-name="gdotaccent.alt" horiz-adv-x="629" 
d="M365 566q-30 0 -50 17.5t-20 49.5q0 42 29 65.5t67 23.5q31 0 51.5 -17t20.5 -48q0 -42 -29.5 -66.5t-68.5 -24.5zM327 381q-73 0 -116 -45t-43 -103q0 -46 28.5 -75.5t85.5 -29.5q69 0 114.5 40.5t45.5 106.5q0 47 -30.5 76.5t-84.5 29.5zM-24 -60h137
q-6 -55 25.5 -81.5t87.5 -27.5q62 1 105 23.5t43 74.5q0 34 -27.5 56t-85.5 22q-116 0 -177 53t-61 148t51.5 165.5t124.5 102.5t151 32q28 0 66.5 -7t55.5 -20l70 70l83 -79l-76 -70q36 -51 36 -114q0 -140 -140 -212q73 -47 73 -129q0 -62 -27 -110t-73 -76t-101 -42
t-117 -14q-130 -1 -187.5 63.5t-36.5 171.5z" />
    <glyph glyph-name="y.alt" horiz-adv-x="650" 
d="M428 376h-54l21 121h269l-21 -121h-60l-294 -484q-31 -54 -70.5 -84.5t-79 -36.5t-77 3.5t-72.5 33.5l66 114q75 -38 115 25l32 63l-107 363h-68l21 124h273l-21 -122h-51l31 -123l19 -108l58 109z" />
    <glyph glyph-name="yacute.alt" horiz-adv-x="650" 
d="M294 560l1 6l99 135h169l-142 -141h-127zM428 376h-54l21 121h269l-21 -121h-60l-294 -484q-31 -54 -70.5 -84.5t-79 -36.5t-77 3.5t-72.5 33.5l66 114q75 -38 115 25l32 63l-107 363h-68l21 124h273l-21 -122h-51l31 -123l19 -108l58 109z" />
    <glyph glyph-name="ycircumflex.alt" horiz-adv-x="650" 
d="M428 376h-54l21 121h269l-21 -121h-60l-294 -484q-31 -54 -70.5 -84.5t-79 -36.5t-77 3.5t-72.5 33.5l66 114q75 -38 115 25l32 63l-107 363h-68l21 124h273l-21 -122h-51l31 -123l19 -108l58 109zM346 708h114l128 -140l-2 -11h-145l-57 59l-77 -59h-146l2 12z" />
    <glyph glyph-name="ydieresis.alt" horiz-adv-x="650" 
d="M508 555q-29 0 -48.5 16.5t-19.5 47.5q0 43 29 66.5t66 23.5q28 0 47.5 -16.5t19.5 -47.5q0 -42 -29 -66t-65 -24zM247 555q-29 0 -48 16.5t-19 47.5q0 43 28.5 66.5t65.5 23.5q28 0 47.5 -16.5t19.5 -47.5q0 -42 -28.5 -66t-65.5 -24zM428 376h-54l21 121h269l-21 -121
h-60l-294 -484q-31 -54 -70.5 -84.5t-79 -36.5t-77 3.5t-72.5 33.5l66 114q75 -38 115 25l32 63l-107 363h-68l21 124h273l-21 -122h-51l31 -123l19 -108l58 109z" />
    <glyph glyph-name="ygrave.alt" horiz-adv-x="650" 
d="M455 568l-1 -6h-134l-77 137h176zM428 376h-54l21 121h269l-21 -121h-60l-294 -484q-31 -54 -70.5 -84.5t-79 -36.5t-77 3.5t-72.5 33.5l66 114q75 -38 115 25l32 63l-107 363h-68l21 124h273l-21 -122h-51l31 -123l19 -108l58 109z" />
    <glyph glyph-name="zero.denom" horiz-adv-x="462" 
d="M38 153l10 55q14 78 72 120t127 42q65 0 107.5 -43.5t29.5 -118.5l-10 -55q-14 -80 -69.5 -123t-129.5 -43q-71 0 -111 43.5t-26 122.5zM153 205l-10 -54q-9 -48 29 -63q36 -13 69 14q23 18 29 49l10 54q9 50 -29 65q-35 14 -68 -13q-24 -19 -30 -52z" />
    <glyph glyph-name="one.denom" horiz-adv-x="340" 
d="M6 0l16 88h65l29 166l-55 -14l17 93l165 39l-50 -284h63l-16 -88h-234z" />
    <glyph glyph-name="two.denom" horiz-adv-x="383" 
d="M143 260h-102q10 56 57.5 88.5t112.5 32.5q129 0 129 -97q0 -114 -153 -127q-74 -7 -83 -60h108l12 44h94l-25 -141h-309l17 97q9 48 52.5 85.5t89.5 45.5q10 2 28.5 4.5t26 4t17.5 5t14 10t4 16.5q0 25 -37 25q-47 0 -53 -33z" />
    <glyph glyph-name="three.denom" horiz-adv-x="369" 
d="M127 282l-8 -28h-90l21 118h301l-3 -17l-115 -128q34 -4 53.5 -26t19.5 -57q0 -44 -17.5 -75t-47 -46.5t-58.5 -22t-61 -6.5q-61 0 -97.5 31t-27.5 92h101q5 -28 43 -28q25 0 41 12t16 33q0 13 -9.5 22.5t-29.5 9.5h-48l-8 15l92 101h-68z" />
    <glyph glyph-name="four.denom" horiz-adv-x="382" 
d="M181 370h144l-39 -223h42l-15 -85h-42l-11 -62h-103l11 62h-185l9 84zM99 147h84l23 132z" />
    <glyph glyph-name="five.denom" horiz-adv-x="372" 
d="M130 240h52q67 0 105.5 -30t25.5 -99q-12 -64 -61.5 -93.5t-111.5 -29.5q-71 0 -109 28.5t-26 94.5h100q-2 -15 9.5 -24t36.5 -9q24 0 40 11t16 31q0 15 -11.5 24.5t-30.5 9.5h-142l38 216h270l-16 -90h-178z" />
    <glyph glyph-name="six.denom" horiz-adv-x="384" 
d="M133 248l-6 -35q35 20 84 20q114 0 114 -94q0 -74 -56 -110t-129 -36q-72 0 -108 31.5t-25 94.5l23 129q11 58 63 92.5t113 34.5q67 0 106.5 -28t29.5 -85h-104q0 26 -44 26q-24 0 -41 -11t-20 -29zM106 111q0 -15 14.5 -23t34.5 -8q25 0 43.5 10.5t18.5 29.5
q0 16 -14.5 24t-34.5 8q-24 0 -43 -11t-19 -30z" />
    <glyph glyph-name="seven.denom" horiz-adv-x="352" 
d="M351 370l-3 -41l-202 -329h-122l171 274h-76l-14 -46h-94l25 142h315z" />
    <glyph glyph-name="eight.denom" horiz-adv-x="387" 
d="M-3 110q4 23 23 46t48 34q-36 22 -36 63q0 62 50.5 93.5t124.5 31.5q59 0 98.5 -24.5t39.5 -73.5q0 -25 -15 -50.5t-47 -39.5q42 -20 42 -72q0 -68 -54.5 -99t-133.5 -29q-71 0 -112.5 28.5t-27.5 91.5zM180 227q56 0 56 40q0 31 -43 31q-26 0 -41.5 -11t-15.5 -29
q0 -31 44 -31zM215 109q2 15 -11 25t-37 10q-55 0 -62 -36q-2 -5 0 -12.5t14.5 -14.5t34.5 -7q31 0 45.5 11.5t15.5 23.5z" />
    <glyph glyph-name="nine.denom" horiz-adv-x="385" 
d="M213 120l6 35q-35 -20 -85 -20q-114 0 -114 94q0 74 56 110t130 36q72 0 108 -31.5t25 -94.5l-23 -129q-11 -58 -64 -92.5t-115 -34.5q-67 0 -106 28t-29 85h104q0 -26 44 -26q25 0 42.5 11t20.5 29zM239 252q3 18 -11.5 27t-37.5 9q-25 0 -43 -10.5t-18 -29.5
q0 -16 14.5 -24t34.5 -8q22 0 40.5 10t20.5 26z" />
    <glyph glyph-name="zero.num" horiz-adv-x="399" 
d="M67 496l10 55q14 78 72 120t127 42q65 0 107.5 -43.5t29.5 -118.5l-10 -55q-14 -80 -69.5 -123t-129.5 -43q-71 0 -111 43.5t-26 122.5zM182 548l-10 -54q-9 -48 29 -63q36 -13 69 14q23 18 29 49l10 54q9 50 -29 65q-35 14 -68 -13q-24 -19 -30 -52z" />
    <glyph glyph-name="one.num" horiz-adv-x="348" 
d="M71 343l16 88h65l29 166l-55 -14l17 93l165 39l-50 -284h63l-16 -88h-234z" />
    <glyph glyph-name="two.num" horiz-adv-x="382" 
d="M201 594h-102q10 56 57.5 88.5t112.5 32.5q129 0 129 -97q0 -114 -153 -127q-74 -7 -83 -60h108l12 44h94l-25 -141h-309l17 97q9 48 52.5 85.5t89.5 45.5q10 2 28.5 4.5t26 4t17.5 5t14 10t4 16.5q0 25 -37 25q-47 0 -53 -33z" />
    <glyph glyph-name="three.num" horiz-adv-x="368" 
d="M186 616l-8 -28h-90l21 118h301l-3 -17l-115 -128q34 -4 53.5 -26t19.5 -57q0 -44 -17.5 -75t-47 -46.5t-58.5 -22t-61 -6.5q-61 0 -97.5 31t-27.5 92h101q5 -28 43 -28q25 0 41 12t16 33q0 13 -9.5 22.5t-29.5 9.5h-48l-8 15l92 101h-68z" />
    <glyph glyph-name="four.num" horiz-adv-x="382" 
d="M240 704h144l-39 -223h42l-15 -85h-42l-11 -62h-103l11 62h-185l9 84zM158 481h84l23 132z" />
    <glyph glyph-name="five.num" horiz-adv-x="371" 
d="M189 575h52q67 0 105.5 -30t25.5 -99q-12 -64 -61.5 -93.5t-111.5 -29.5q-71 0 -109 28.5t-26 94.5h100q-2 -15 9.5 -24t36.5 -9q24 0 40 11t16 31q0 15 -11.5 24.5t-30.5 9.5h-142l38 216h270l-16 -90h-178z" />
    <glyph glyph-name="six.num" horiz-adv-x="383" 
d="M191 584l-6 -35q35 20 84 20q114 0 114 -94q0 -74 -56 -110t-129 -36q-72 0 -108 31.5t-25 94.5l23 129q11 58 63 92.5t113 34.5q67 0 106.5 -28t29.5 -85h-104q0 26 -44 26q-24 0 -41 -11t-20 -29zM164 447q0 -31 49 -31q25 0 43.5 10.5t18.5 29.5q0 16 -14.5 24
t-34.5 8q-24 0 -43 -11t-19 -30z" />
    <glyph glyph-name="seven.num" horiz-adv-x="352" 
d="M409 701l-3 -41l-202 -329h-122l171 274h-76l-14 -47h-94l25 143h315z" />
    <glyph glyph-name="eight.num" horiz-adv-x="387" 
d="M56 444q4 23 23.5 45.5t47.5 34.5q-36 22 -36 63q0 62 51 93.5t125 31.5q59 0 98 -24.5t39 -73.5q0 -25 -15 -50.5t-47 -39.5q42 -20 42 -72q0 -68 -54.5 -99t-133.5 -29q-71 0 -112.5 28.5t-27.5 91.5zM239 561q57 0 57 40q0 31 -44 31q-26 0 -41 -11t-15 -29
q0 -31 43 -31zM274 443q2 15 -11 25t-37 10q-55 0 -62 -36q-1 -6 0.5 -12.5t14 -14t34.5 -7.5q31 0 45.5 11.5t15.5 23.5z" />
    <glyph glyph-name="nine.num" horiz-adv-x="385" 
d="M272 457l6 35q-35 -20 -85 -20q-114 0 -114 94q0 74 56 110t130 36q72 0 108.5 -32.5t25.5 -93.5l-22 -129q-10 -58 -64.5 -92.5t-116.5 -34.5q-67 0 -106 28t-29 85h104q0 -26 44 -26q25 0 42.5 11t20.5 29zM298 589q3 18 -11.5 27t-37.5 9q-25 0 -43 -10.5t-18 -29.5
q0 -16 14.5 -24t34.5 -8q22 0 40.5 10t20.5 26z" />
    <glyph glyph-name="zero.tf" horiz-adv-x="700" 
d="M44 305l15 93q27 156 121.5 234t219.5 78q146 0 225 -81.5t52 -234.5l-16 -89q-28 -165 -123.5 -241t-234.5 -76q-143 -1 -215 81t-44 236zM205 394l-16 -89q-16 -92 13.5 -135.5t116.5 -43.5q74 0 127.5 46t68.5 135l15 89q15 87 -20.5 132.5t-109.5 45.5
q-75 0 -127.5 -46t-67.5 -134z" />
    <glyph glyph-name="one.tf" horiz-adv-x="700" 
d="M26 0l22 127h219l74 415l-213 -47l22 126l368 97l-105 -591h211l-22 -127h-576z" />
    <glyph glyph-name="two.tf" horiz-adv-x="700" 
d="M190 178l-8 -44h272l23 88h134l-39 -222h-561l32 179q11 62 43 107.5t78.5 69.5t96.5 35t107 11q25 0 56 8t61.5 33.5t30.5 61.5q0 77 -110 77q-52 0 -92.5 -22.5t-54.5 -65.5h-146q30 118 109 167t212 49q96 0 162.5 -47.5t66.5 -140.5q0 -125 -90.5 -190t-229.5 -65
q-20 0 -41.5 -3.5t-46 -12.5t-42.5 -28t-23 -45z" />
    <glyph glyph-name="three.tf" horiz-adv-x="700" 
d="M291 324l-20 48l178 197h-182l-23 -97h-131l40 228h533l-9 -55l-196 -215q143 -25 143 -163q0 -120 -86 -198.5t-239 -78.5q-40 0 -73 3.5t-72.5 17t-65 36t-38 64.5t-2.5 99h147q-15 -86 123 -86q59 0 106.5 32t47.5 94q0 111 -181 74z" />
    <glyph glyph-name="four.tf" horiz-adv-x="700" 
d="M362 -1l23 129h-382l10 101l430 471h189l-77 -437h97l-24 -135h-97l-23 -129h-146zM202 263h207l49 278z" />
    <glyph glyph-name="five.tf" horiz-adv-x="700" 
d="M253 458h118q123 0 189.5 -41t66.5 -140q0 -61 -18.5 -110.5t-49.5 -82t-73.5 -54t-88.5 -31t-96 -9.5q-138 0 -200.5 50.5t-41.5 173.5h144q-5 -28 5 -47.5t31 -28t41 -12t44 -3.5q29 0 62 10.5t63 41t30 75.5q0 44 -32.5 61t-98.5 17h-253l65 372h493l-24 -136h-356z
" />
    <glyph glyph-name="six.tf" horiz-adv-x="700" 
d="M234 472l-13 -74q31 27 77.5 42t87.5 15q51 0 94 -9.5t80.5 -30t59 -60t21.5 -93.5q0 -66 -31 -120.5t-80.5 -87.5t-108.5 -51t-119 -18q-56 0 -105.5 15.5t-87 44.5t-55 75.5t-7.5 103.5l44 252q13 77 66.5 132t122.5 80t145 25q131 0 200.5 -52t48.5 -161h-144
q9 45 -26 68.5t-96 23.5q-66 0 -115 -33t-59 -87zM325 115q70 2 119 34t49 88q0 44 -34.5 67t-93.5 23q-68 0 -116.5 -28.5t-56.5 -79.5q-7 -49 31 -76.5t102 -27.5z" />
    <glyph glyph-name="seven.tf" horiz-adv-x="700" 
d="M284 567l-21 -94h-136l40 227h528l-5 -78l-416 -622h-164l384 567h-210z" />
    <glyph glyph-name="eight.tf" horiz-adv-x="700" 
d="M30 213q7 40 41.5 83.5t88.5 65.5q-62 37 -62 114q0 111 92.5 174t230.5 63q116 0 185.5 -47.5t69.5 -134.5q0 -47 -30.5 -95t-83.5 -70q45 -22 64.5 -65t12.5 -87q-13 -83 -67.5 -137t-125 -74t-156.5 -19q-63 0 -112.5 10.5t-89.5 35t-55.5 71t-2.5 112.5zM523 499
q8 38 -24 65t-102 27q-69 0 -108 -30.5t-42 -61.5q-5 -38 29.5 -61t92.5 -23q61 0 104 23t50 61zM349 306q-77 0 -126 -29t-49 -79q0 -82 137 -82q78 0 126.5 27t54.5 72q7 42 -34 66.5t-109 24.5z" />
    <glyph glyph-name="nine.tf" horiz-adv-x="700" 
d="M394 589q-67 -2 -116 -35t-49 -87q0 -42 34.5 -67t91.5 -25q73 0 123 32t50 89q0 43 -37 68t-97 25zM484 230l14 78q-50 -61 -165 -61q-69 0 -124 17.5t-93 63.5t-38 115q0 65 31 118.5t80.5 86.5t108.5 51t119 18q56 0 106 -15.5t87 -44.5t54.5 -75.5t7.5 -103.5
l-45 -252q-14 -77 -67.5 -132t-122 -80t-144.5 -25q-127 0 -202 52.5t-55 160.5h144q-8 -40 34 -63t98 -23q59 -1 111 30.5t61 83.5z" />
    <glyph glyph-name="bullet.case" horiz-adv-x="360" 
d="M160 184q-52 0 -83.5 30t-31.5 81q0 68 47.5 112.5t116.5 44.5q50 0 81.5 -31t31.5 -81q0 -67 -48.5 -111.5t-113.5 -44.5z" />
    <glyph glyph-name="periodcentered.case" horiz-adv-x="273" 
d="M227 344q0 -46 -31 -72t-70 -26q-29 0 -49.5 18t-20.5 50q0 45 30 71t69 27q30 1 51 -17.5t21 -50.5z" />
    <glyph glyph-name="braceleft.case" horiz-adv-x="365" 
d="M46 388q29 0 47.5 13t24.5 27t10 35l19 112q18 105 77 154t184 30l-18 -103q-18 3 -32.5 2.5t-24 -1.5t-17 -8l-11.5 -10.5t-8 -17t-5 -18.5t-4 -23q-1 -7 -2 -11l-18 -106q-11 -64 -26 -85q-21 -29 -70 -43q22 -6 35 -17t18.5 -20t6 -28.5t-1 -29t-6.5 -35.5l-23 -129
q-1 -6 -3.5 -19.5t-3.5 -17.5t-1.5 -14t1.5 -13t5 -9t9 -7.5t15 -3.5t22 -1.5t30 1.5l-21 -103q-94 -11 -142.5 9.5t-55.5 66t3 109.5l24 135q14 77 -55 77z" />
    <glyph glyph-name="braceright.case" horiz-adv-x="362" 
d="M349 388l-18 -104q-69 0 -83 -77l-23 -135q-18 -106 -73.5 -153.5t-186.5 -31.5l19 107q17 -1 29.5 -1.5t22.5 1.5l17 3.5t12.5 7.5t8 9t5 12.5l3.5 13.5t3 17.5t3 18.5l23 131q5 27 7 36t8.5 29t15.5 29t25 19.5t39 16.5q-21 6 -34 16.5t-19 19.5t-6 27.5t1.5 27.5
t6.5 35l19 108q5 31 7.5 53.5t-16 31.5t-64.5 2l18 101q132 19 172.5 -29.5t22.5 -152.5l-20 -114q-14 -75 55 -75z" />
    <glyph glyph-name="bracketleft.case" horiz-adv-x="376" 
d="M17 -97l157 890h254l-21 -121h-116l-114 -646h116l-22 -123h-254z" />
    <glyph glyph-name="bracketright.case" horiz-adv-x="377" 
d="M378 793l-157 -890h-255l22 123h117l114 646h-117l21 121h255z" />
    <glyph glyph-name="parenleft.case" horiz-adv-x="364" 
d="M364 795l52 -94q-108 -79 -170 -196t-62 -232q0 -175 109 -278l-93 -102q-81 60 -122.5 159t-41.5 208q0 152 87 297t241 238z" />
    <glyph glyph-name="parenright.case" horiz-adv-x="362" 
d="M92 714l84 89q82 -63 125 -164.5t43 -210.5q0 -148 -83.5 -290.5t-236.5 -232.5l-55 104q229 163 229 413q0 80 -27 160.5t-79 131.5z" />
    <glyph glyph-name="emdash.case" horiz-adv-x="693" 
d="M53 262l23 128h573l-23 -128h-573z" />
    <glyph glyph-name="endash.case" horiz-adv-x="602" 
d="M54 260l23 128h479l-23 -128h-479z" />
    <glyph glyph-name="hyphen.case" horiz-adv-x="494" 
d="M55 269l23 133h373l-23 -133h-373z" />
    <glyph glyph-name="guillemotleft.case" horiz-adv-x="569" 
d="M344 131l-101 223l179 222h148l-177 -222l99 -223h-148zM53 354l177 222h149l-179 -222l101 -223h-149z" />
    <glyph glyph-name="guillemotright.case" horiz-adv-x="567" 
d="M436 576l99 -221l-177 -223h-146l176 223l-98 221h146zM344 355l-177 -223h-146l176 223l-98 221h146z" />
    <glyph glyph-name="guilsinglleft.case" horiz-adv-x="378" 
d="M148 116l-99 222l177 223h149l-180 -223l102 -222h-149z" />
    <glyph glyph-name="guilsinglright.case" horiz-adv-x="380" 
d="M347 341l-178 -222h-149l180 222l-102 221h149z" />
    <glyph glyph-name="florin.tf" horiz-adv-x="700" 
d="M348 -4q-13 -66 -51 -114.5t-87.5 -71t-106.5 -19t-106 36.5l68 103q27 -19 57.5 -20t55.5 21t33 66l62 364h-145l21 120h146l4 24q11 67 50 115.5t90 69t110 16t110 -36.5l-68 -98q-28 15 -59 16.5t-59 -18.5t-35 -64l-4 -24h171l-21 -120h-172z" />
    <glyph glyph-name="cent.tf" horiz-adv-x="700" 
d="M253 -92l11 73q-75 14 -114.5 66.5t-39.5 134.5q0 107 69 194t176 110l14 76h129l-14 -76q65 -16 116 -76l-97 -85q-39 44 -97 44q-66 0 -109.5 -48.5t-43.5 -109.5q0 -47 26 -79t79 -32q28 0 62.5 11.5t55.5 34.5l64 -99q-61 -51 -145 -70l-13 -69h-129z" />
    <glyph glyph-name="dollar.tf" horiz-adv-x="700" 
d="M346 -110h-135l18 95q-66 4 -110.5 23.5t-90.5 66.5l27 148h132l-6 -80q59 -26 127 -27q172 -2 172 101q0 17 -9.5 30t-30 21t-34 11.5t-41 8t-31.5 5.5q-59 7 -98 18t-73.5 33.5t-48.5 62.5t-7 99q9 52 36 91t66.5 62t77.5 36t81 19l17 95h137l-18 -98q77 -8 154 -77
q-24 -118 -29 -147h-129l7 84q-34 17 -107 17q-56 0 -98.5 -21t-50.5 -60q-7 -35 24.5 -52.5t98.5 -25.5q52 -6 87 -13.5t73 -23.5t58.5 -39t31 -61.5t3.5 -89.5q-24 -172 -262 -214z" />
    <glyph glyph-name="Euro.tf" horiz-adv-x="700" 
d="M438 -26q-153 0 -226.5 66t-73.5 183h-67l18 100h55q-2 18 7 43h-57l19 104h68q46 117 142 179.5t235 62.5q65 0 123 -20l-71 -134q-41 13 -79 13q-130 0 -189 -101h212l-46 -104h-206q-6 -18 -6 -37h182l-40 -100h-142q15 -151 258 -93l17 -142q-68 -20 -133 -20z" />
    <glyph glyph-name="sterling.tf" horiz-adv-x="700" 
d="M13 0l29 141q40 -4 71.5 33.5t42.5 91.5h-94l20 115h70q-3 54 -3 62q0 118 81.5 193t220.5 75q112 0 167 -53.5t41 -162.5h-134q4 46 -19 66.5t-77 20.5q-139 0 -139 -167v-29h204l-20 -116h-178q-44 -138 -93 -141h267l23 102h131l-41 -231h-570z" />
    <glyph glyph-name="yen.tf" horiz-adv-x="700" 
d="M385 127h80l-23 -127h-310l23 127h79l8 50h-153l19 104h146l-18 35h-138l19 110h64l-69 140h-58l24 134h306l-24 -134h-72l35 -65l38 -94l80 95l61 64h-72l24 134h308l-24 -134h-59l-128 -140h69l-19 -110h-150l-31 -35h159l-19 -104h-167z" />
    <glyph glyph-name="bar.case" horiz-adv-x="310" 
d="M168 750h135l-148 -838h-135z" />
    <glyph glyph-name="commaaccentcomb.alt" horiz-adv-x="570" 
d="M444 776l-43 -104q46 -5 46 -49q0 -39 -26 -61t-63 -23q-30 -1 -50.5 16.5t-20.5 48.5q0 35 83 172h74z" />
    <glyph glyph-name="_0004" horiz-adv-x="0" 
 />
    <glyph glyph-name="asterisk.alt" horiz-adv-x="433" 
d="M248 471l-49 -63q-20 -32 -57 -21q-30 10 -35 37q-5 21 16 42l60 60l-83 14q-28 9 -12 51q14 37 41 48q11 5 21 1l77 -31l3 73q5 26 33 36.5t53 0t22 -36.5l-20 -73l86 34q22 7 36.5 -14.5t9 -50t-30.5 -36.5l-87 -16l42 -60q21 -30 -13 -61q-29 -26 -58 -20
q-19 4 -24 23z" />
    <glyph glyph-name="_127" horiz-adv-x="500" 
 />
    <glyph glyph-name="_129" horiz-adv-x="500" 
 />
    <glyph glyph-name="_141" horiz-adv-x="500" 
 />
    <glyph glyph-name="_143" horiz-adv-x="500" 
 />
    <glyph glyph-name="_144" horiz-adv-x="500" 
 />
    <glyph glyph-name="_157" horiz-adv-x="500" 
 />
    <glyph glyph-name="ring.001" horiz-adv-x="0" 
 />
    </font>
</defs>
</svg>
